<?xml version="1.0" encoding="UTF-8" standalone="no"?>
<!-- Created with Inkscape (http://www.inkscape.org/) -->
<svg
   xmlns:dc="http://purl.org/dc/elements/1.1/"
   xmlns:cc="http://creativecommons.org/ns#"
   xmlns:rdf="http://www.w3.org/1999/02/22-rdf-syntax-ns#"
   xmlns:svg="http://www.w3.org/2000/svg"
   xmlns="http://www.w3.org/2000/svg"
   xmlns:xlink="http://www.w3.org/1999/xlink"
   xmlns:sodipodi="http://sodipodi.sourceforge.net/DTD/sodipodi-0.dtd"
   xmlns:inkscape="http://www.inkscape.org/namespaces/inkscape"
   width="792pt"
   height="612pt"
   id="svg2160"
   sodipodi:version="0.32"
   inkscape:version="0.46"
   sodipodi:docbase="/crypt/rob/cxgn/core/sgn-tools/art"
   sodipodi:docname="sgn_logo_unioned.svg"
   inkscape:output_extension="org.inkscape.output.svg.inkscape"
   inkscape:export-filename="/crypt/rob/cxgn/sgn_logo.png"
   inkscape:export-xdpi="150"
   inkscape:export-ydpi="150">
  <defs
     id="defs2162">
    <inkscape:perspective
       sodipodi:type="inkscape:persp3d"
       inkscape:vp_x="0 : 382.5 : 1"
       inkscape:vp_y="0 : 1000 : 0"
       inkscape:vp_z="990 : 382.5 : 1"
       inkscape:persp3d-origin="495 : 255 : 1"
       id="perspective2455" />
    <linearGradient
       id="linearGradient3161">
      <stop
         style="stop-color:#f7ff12;stop-opacity:1;"
         offset="0"
         id="stop3163" />
      <stop
         style="stop-color:#f20000;stop-opacity:1;"
         offset="1"
         id="stop3165" />
    </linearGradient>
    <linearGradient
       inkscape:collect="always"
       xlink:href="#linearGradient3161"
       id="linearGradient3183"
       x1="86.300079"
       y1="86.821617"
       x2="250.77309"
       y2="347.41107"
       gradientUnits="userSpaceOnUse" />
    <linearGradient
       inkscape:collect="always"
       xlink:href="#linearGradient3161"
       id="linearGradient2290"
       gradientUnits="userSpaceOnUse"
       x1="86.898064"
       y1="119.21311"
       x2="222.47614"
       y2="243.21469" />
    <linearGradient
       inkscape:collect="always"
       xlink:href="#linearGradient3161"
       id="linearGradient3309"
       gradientUnits="userSpaceOnUse"
       x1="86.898064"
       y1="119.21311"
       x2="222.47614"
       y2="243.21469"
       gradientTransform="matrix(1.0598279,5.3785657e-2,-5.3785657e-2,1.0598279,318.52309,163.13261)" />
    <linearGradient
       inkscape:collect="always"
       xlink:href="#linearGradient3161"
       id="linearGradient3312"
       gradientUnits="userSpaceOnUse"
       gradientTransform="matrix(1.0598279,5.3785657e-2,-5.3785657e-2,1.0598279,283.87486,177.27475)"
       x1="86.898064"
       y1="119.21311"
       x2="222.47614"
       y2="243.21469" />
  </defs>
  <sodipodi:namedview
     inkscape:document-units="in"
     pagecolor="#ffffff"
     bordercolor="#666666"
     borderopacity="1.0"
     inkscape:pageopacity="0.0"
     inkscape:pageshadow="2"
     inkscape:zoom="1"
     inkscape:cx="663.06359"
     inkscape:cy="331.84342"
     inkscape:current-layer="layer1"
     id="namedview2164"
     inkscape:window-width="1056"
     inkscape:window-height="725"
     inkscape:window-x="218"
     inkscape:window-y="25"
     showguides="true"
     inkscape:guide-bbox="true"
     showgrid="false" />
  <metadata
     id="metadata2166">
    <rdf:RDF>
      <cc:Work
         rdf:about="">
        <dc:format>image/svg+xml</dc:format>
        <dc:type
           rdf:resource="http://purl.org/dc/dcmitype/StillImage" />
      </cc:Work>
    </rdf:RDF>
  </metadata>
  <g
     inkscape:label="Layer 1"
     inkscape:groupmode="layer"
     id="layer1">
    <path
       style="opacity:1;fill:url(#linearGradient3312);fill-opacity:1;stroke:none;stroke-width:13.94999981;stroke-miterlimit:4;stroke-dasharray:none;stroke-opacity:1"
       d="M 437.38302,197.98589 L 440.07052,237.57964 C 440.53976,237.57796 441.00773,237.54604 441.47677,237.54839 C 446.08869,237.57145 450.68224,237.79285 455.25802,238.20464 L 452.47677,198.54839 C 447.4681,198.17583 442.42345,197.98533 437.38302,197.98589 z M 381.94552,205.79839 C 377.40231,207.11621 372.88799,208.6069 368.41427,210.26714 C 368.16341,210.36024 367.91454,210.45442 367.66427,210.54839 L 384.19552,247.82964 C 385.37303,247.385 386.56415,246.93785 387.75802,246.51714 C 391.3516,245.25081 394.96371,244.13495 398.60177,243.14214 L 381.94552,205.79839 z M 504.75802,209.45464 L 494.07052,246.54839 C 498.86017,248.2118 503.56531,250.09828 508.16427,252.20464 L 518.82052,214.98589 C 514.21204,212.96516 509.51477,211.12529 504.75802,209.45464 z M 316.38302,238.64214 C 312.36337,241.65427 308.46255,244.80695 304.69552,248.07964 L 333.57052,278.07964 C 337.3695,274.77444 341.32645,271.61662 345.44552,268.64214 L 316.38302,238.64214 z M 562.50802,241.45464 L 540.28927,271.95464 C 544.23767,275.12178 548.01949,278.50682 551.63302,282.07964 L 573.88302,251.39214 C 570.2282,247.91574 566.42403,244.6127 562.50802,241.45464 z M 441.22677,254.23589 L 443.38302,285.64214 C 448.51231,285.63129 453.60747,285.97048 458.66427,286.64214 L 456.44552,255.11089 C 451.40717,254.56249 446.31933,254.25684 441.22677,254.23589 z M 655.97677,255.01714 L 618.32052,280.32964 C 620.89357,284.62395 623.30907,289.0367 625.57052,293.57964 L 663.25802,268.11089 C 660.96096,263.67216 658.54299,259.31143 655.97677,255.01714 z M 405.47677,258.57964 C 401.37627,259.61704 397.31655,260.84797 393.28927,262.26714 C 392.51441,262.54019 391.74404,262.8265 390.97677,263.11089 L 404.13302,292.82964 C 405.76097,292.21987 407.3985,291.62428 409.07052,291.07964 C 412.28246,290.0334 415.5204,289.13279 418.78927,288.39214 L 405.47677,258.57964 z M 489.41427,262.64214 L 480.97677,291.92339 C 485.8248,293.60516 490.55086,295.62683 495.10177,297.95464 L 503.50802,268.48589 C 498.92929,266.28463 494.21743,264.34678 489.41427,262.64214 z M 357.16427,280.79839 C 352.98573,283.71992 348.99071,286.84586 345.16427,290.14214 L 368.25802,314.14214 C 372.09576,310.81933 376.15218,307.69813 380.44552,304.86089 L 357.16427,280.79839 z M 530.44552,285.48589 L 512.97677,309.45464 C 516.96102,312.64062 520.72186,316.14535 524.19552,319.92339 L 541.66427,295.79839 C 538.11325,292.14855 534.38457,288.68353 530.44552,285.48589 z M 604.44552,289.67339 L 573.75802,310.29839 C 576.33705,314.62051 578.7121,319.13201 580.85177,323.79839 L 611.60177,303.01714 C 609.38754,298.43356 607.00632,293.98677 604.44552,289.67339 z M 265.00802,294.01714 C 262.29538,298.22355 259.71531,302.51271 257.28927,306.89214 L 295.38302,325.54839 C 297.82036,321.13766 300.42955,316.83312 303.22677,312.64214 L 265.00802,294.01714 z M 444.50802,302.32964 L 446.07052,325.01714 C 451.25594,324.95921 456.42608,325.44348 461.47677,326.45464 L 459.88302,303.70464 C 454.81827,302.846 449.68057,302.37826 444.50802,302.32964 z M 425.72677,303.98589 C 421.86187,304.71976 418.03691,305.69247 414.25802,306.92339 C 413.12155,307.29358 411.9962,307.67375 410.88302,308.07964 L 420.57052,329.92339 C 422.7035,329.10919 424.88435,328.3762 427.13302,327.73589 C 429.89573,326.9492 432.68743,326.33697 435.50802,325.89214 L 425.72677,303.98589 z M 476.32052,307.98589 L 470.32052,328.82964 C 475.25171,330.47555 479.99237,332.63273 484.41427,335.29839 L 490.41427,314.36089 C 485.91945,311.85074 481.19843,309.73071 476.32052,307.98589 z M 392.28927,317.11089 C 387.89179,319.83425 383.72971,322.86768 379.85177,326.17339 L 397.07052,344.07964 C 400.91875,340.70501 405.12146,337.68197 409.66427,335.07964 L 392.28927,317.11089 z M 559.88302,319.61089 L 535.97677,335.70464 C 538.5816,340.05073 540.88053,344.63336 542.82052,349.48589 L 566.82052,333.26714 C 564.76718,328.52508 562.44749,323.96732 559.88302,319.61089 z M 318.41427,320.01714 C 315.54779,324.18307 312.91559,328.50728 310.44552,332.92339 L 341.00802,347.89214 C 343.48037,343.43519 346.18055,339.11552 349.16427,334.98589 L 318.41427,320.01714 z M 503.10177,322.95464 L 490.88302,339.73589 C 494.96049,342.90408 498.67102,346.55895 501.88302,350.67339 L 514.13302,333.76714 C 510.78783,329.82118 507.09374,326.20043 503.10177,322.95464 z M 685.50802,332.82964 L 642.35177,343.48589 C 643.27088,348.46155 643.99771,353.45054 644.50802,358.45464 L 687.72677,347.67339 C 687.15308,342.71693 686.40804,337.76263 685.50802,332.82964 z M 364.47677,342.45464 C 361.37308,346.51616 358.55927,350.77955 356.03927,355.23589 L 379.13302,366.54839 C 381.61181,362.02774 384.50426,357.76042 387.75802,353.76714 L 364.47677,342.45464 z M 429.57052,344.45464 C 428.81971,344.69851 428.08595,344.96578 427.35177,345.23589 L 427.53927,345.61089 C 428.20763,345.21268 428.88579,344.82739 429.57052,344.45464 z M 522.13302,344.98589 L 505.63302,356.07964 C 508.3059,360.39918 510.50124,365.10722 512.07052,370.23589 L 528.63302,359.04839 C 526.88882,354.06334 524.71287,349.37514 522.13302,344.98589 z M 626.10177,347.51714 L 591.13302,356.17339 C 592.05633,361.20895 592.69321,366.25887 593.03927,371.32964 L 628.10177,362.57964 C 627.66194,357.54521 626.99456,352.52365 626.10177,347.51714 z M 421.78927,347.61089 C 417.01851,349.92935 412.6475,352.81303 408.72677,356.17339 L 411.69552,359.26714 C 414.94728,355.29468 418.70008,351.7363 422.85177,348.70464 L 421.78927,347.61089 z M 574.94552,360.20464 L 547.91427,366.89214 C 548.86835,371.97207 549.39011,377.10926 549.47677,382.23589 L 576.57052,375.45464 C 576.35278,370.36197 575.82599,365.26648 574.94552,360.20464 z M 403.35177,361.36089 C 399.83801,365.17243 396.79059,369.42387 394.22677,373.95464 L 401.47677,377.48589 C 403.18624,372.60214 405.50929,368.01604 408.35177,363.79839 L 403.35177,361.36089 z M 234.53927,365.73589 C 233.38295,370.61262 232.41525,375.53437 231.57052,380.48589 L 274.66427,385.07964 C 275.50694,380.09778 276.52634,375.15309 277.75802,370.26714 L 234.53927,365.73589 z M 531.72677,370.89214 L 514.19552,375.23589 C 516.06214,379.93565 517.38015,384.91896 518.00802,390.11089 L 532.75802,386.42339 C 532.94492,381.25342 532.62126,376.03862 531.72677,370.89214 z M 294.60177,372.01714 C 293.29467,376.90728 292.19802,381.85914 291.32052,386.86089 L 326.07052,390.57964 C 326.9339,385.53817 328.06329,380.5365 329.47677,375.64214 L 294.60177,372.01714 z M 346.41427,377.42339 C 344.86782,382.29743 343.61223,387.27209 342.69552,392.32964 L 369.25802,395.17339 C 370.11823,390.07111 371.41378,385.06295 373.10177,380.20464 L 346.41427,377.42339 z M 390.28927,382.01714 C 388.31908,386.80421 386.86427,391.8149 385.91427,396.95464 L 398.10177,398.26714 C 398.097,397.95589 398.10177,397.64203 398.10177,397.32964 C 398.10177,392.38254 398.69235,387.58611 399.82052,382.98589 L 390.28927,382.01714 z M 518.41427,395.54839 C 518.43181,396.14278 518.44552,396.73088 518.44552,397.32964 C 518.44552,401.94642 517.93218,406.44858 516.94552,410.76714 L 527.38302,411.86089 C 529.30566,407.07143 530.75685,402.08562 531.66427,396.95464 L 518.41427,395.54839 z M 548.25802,398.73589 C 547.4317,403.82409 546.18803,408.82193 544.53927,413.67339 L 571.22677,416.45464 C 572.744,411.58929 573.96061,406.62431 574.85177,401.57964 L 548.25802,398.73589 z M 591.47677,403.36089 C 590.63566,408.38979 589.52137,413.35113 588.13302,418.23589 L 623.00802,421.86089 C 624.2952,416.97961 625.36714,412.03935 626.22677,407.04839 L 591.47677,403.36089 z M 398.47677,404.04839 L 384.69552,407.48589 C 384.46964,412.65488 384.77835,417.86373 385.63302,423.01714 L 402.13302,418.92339 C 400.31949,414.22288 399.05592,409.23214 398.47677,404.04839 z M 642.88302,408.82964 C 642.05593,413.80983 641.06744,418.75658 639.85177,423.64214 L 683.03927,428.14214 C 684.18046,423.27344 685.14592,418.36581 685.97677,413.42339 L 642.88302,408.82964 z M 367.97677,411.67339 L 340.85177,418.45464 C 341.04671,423.54506 341.55782,428.6424 342.41427,433.70464 L 369.44552,427.01714 C 368.5237,421.93313 368.03229,416.79924 367.97677,411.67339 z M 515.44552,416.07964 C 513.82865,420.99854 511.58115,425.65527 508.82052,429.92339 L 514.47677,432.67339 C 517.96432,428.82391 520.97645,424.58037 523.50802,420.01714 L 515.44552,416.07964 z M 324.35177,422.57964 L 289.32052,431.32964 C 289.74445,436.36107 290.38207,441.3874 291.25802,446.39214 L 326.19552,437.73589 C 325.29469,432.70038 324.67654,427.64848 324.35177,422.57964 z M 404.47677,424.26714 L 388.66427,434.95464 C 390.3807,439.95889 392.51434,444.67109 395.07052,449.07964 L 411.57052,437.98589 C 409.79826,435.06973 408.2334,431.98781 406.94552,428.70464 C 406.06409,427.26669 405.23788,425.78089 404.47677,424.26714 z M 538.57052,427.42339 C 536.12267,431.95699 533.29332,436.25479 530.07052,440.26714 L 553.28927,451.57964 C 556.37584,447.50062 559.16296,443.20753 561.66427,438.73589 L 538.57052,427.42339 z M 505.60177,434.45464 C 502.4289,438.49126 498.75144,442.09339 494.66427,445.20464 L 496.10177,446.67339 C 500.82357,444.33248 505.1292,441.41475 509.00802,438.04839 L 505.60177,434.45464 z M 272.88302,435.45464 L 229.66427,446.23589 C 230.22566,451.19234 230.96432,456.14601 231.85177,461.07964 L 274.97677,450.39214 C 274.076,445.4256 273.37705,440.44844 272.88302,435.45464 z M 415.38302,443.54839 L 403.10177,460.48589 C 406.42544,464.43441 410.1317,468.0464 414.10177,471.29839 L 426.32052,454.54839 C 422.25495,451.35882 418.5772,447.68455 415.38302,443.54839 z M 374.47677,444.51714 L 350.44552,460.73589 C 352.48053,465.48513 354.77384,470.05865 357.32052,474.42339 L 381.22677,458.36089 C 378.64199,453.99974 376.39434,449.38439 374.47677,444.51714 z M 576.72677,446.11089 C 574.27052,450.58045 571.53947,454.87328 568.57052,459.01714 L 599.32052,474.01714 C 602.17891,469.83573 604.82892,465.51083 607.28927,461.07964 L 576.72677,446.11089 z M 490.03927,448.42339 C 488.88954,449.13988 487.70774,449.81521 486.50802,450.45464 C 487.81295,450.0643 489.09564,449.6102 490.35177,449.14214 L 490.03927,448.42339 z M 520.66427,450.14214 C 516.84538,453.5235 512.67426,456.55598 508.16427,459.17339 L 525.50802,477.11089 C 529.8853,474.37546 534.0242,471.33111 537.88302,468.01714 L 520.66427,450.14214 z M 432.91427,459.11089 L 426.94552,480.04839 C 431.41176,482.54766 436.09928,484.68046 440.94552,486.42339 L 446.97677,465.61089 C 442.06036,463.95713 437.32127,461.77957 432.91427,459.11089 z M 497.13302,464.45464 C 494.92129,465.30757 492.65723,466.07051 490.32052,466.73589 C 487.63725,467.49996 484.90264,468.07565 482.16427,468.51714 L 491.94552,490.42339 C 495.73711,489.69387 499.48724,488.72506 503.19552,487.51714 C 504.40853,487.12202 505.60281,486.7029 506.78927,486.26714 L 497.13302,464.45464 z M 455.97677,468.01714 L 457.60177,490.76714 C 462.66619,491.62249 467.80484,492.06506 472.97677,492.11089 L 471.41427,469.45464 C 466.22044,469.51433 461.0356,469.03 455.97677,468.01714 z M 622.35177,468.45464 C 619.92381,472.87961 617.29727,477.18655 614.50802,481.39214 L 652.72677,500.01714 C 655.43156,495.8013 657.99668,491.49935 660.41427,487.11089 L 622.35177,468.45464 z M 336.38302,470.23589 L 305.63302,491.01714 C 307.83536,495.60661 310.24001,500.04102 312.78927,504.36089 L 343.41427,483.76714 C 340.84992,479.43554 338.50721,474.91128 336.38302,470.23589 z M 393.07052,474.32964 L 375.57052,498.42339 C 379.11743,502.08664 382.85235,505.5569 386.78927,508.76714 L 404.25802,484.82964 C 400.27775,481.63096 396.53749,478.12146 393.07052,474.32964 z M 549.47677,480.07964 C 545.6564,483.4078 541.62671,486.51511 537.35177,489.36089 L 560.60177,513.42339 C 564.77124,510.49242 568.75332,507.35315 572.57052,504.04839 L 549.47677,480.07964 z M 422.22677,496.45464 L 413.82052,525.89214 C 418.39205,528.09556 423.08703,530.05913 427.88302,531.76714 L 436.32052,502.45464 C 431.4857,500.77069 426.76486,498.78161 422.22677,496.45464 z M 291.66427,500.45464 L 253.94552,525.92339 C 256.22866,530.36105 258.67391,534.72327 261.22677,539.01714 L 298.88302,513.70464 C 296.32258,509.41388 293.91316,504.99384 291.66427,500.45464 z M 513.57052,501.51714 C 511.86139,502.16163 510.14088,502.78829 508.38302,503.36089 C 505.24378,504.38345 502.07689,505.25511 498.88302,505.98589 L 512.19552,535.79839 C 516.22103,534.773 520.20961,533.56697 524.16427,532.17339 C 525.02317,531.87072 525.87719,531.55248 526.72677,531.23589 L 513.57052,501.51714 z M 458.78927,507.79839 L 461.03927,539.32964 C 466.07788,539.877 471.16529,540.18479 476.25802,540.20464 L 474.10177,508.79839 C 468.96199,508.81161 463.85635,508.47023 458.78927,507.79839 z M 365.60177,512.17339 L 343.35177,542.82964 C 346.99788,546.31015 350.78812,549.63546 354.69552,552.79839 L 376.94552,522.29839 C 373.00483,519.12441 369.20698,515.75264 365.60177,512.17339 z M 584.19552,516.14214 C 580.41061,519.4509 576.45605,522.59988 572.35177,525.57964 L 601.38302,555.57964 C 605.3969,552.55972 609.30952,549.42226 613.07052,546.14214 L 584.19552,516.14214 z M 409.16427,542.17339 L 398.50802,579.39214 C 403.10632,581.41303 407.793,583.28243 412.53927,584.95464 L 423.22677,547.86089 C 418.44254,546.19431 413.7576,544.28216 409.16427,542.17339 z M 533.50802,546.54839 C 532.24894,547.02608 530.97335,547.50435 529.69552,547.95464 C 526.174,549.19561 522.63445,550.26681 519.07052,551.23589 L 535.75802,588.61089 C 540.21768,587.31106 544.64677,585.83474 549.03927,584.20464 C 549.37375,584.08051 549.70584,583.95532 550.03927,583.82964 L 533.50802,546.54839 z M 462.22677,556.26714 L 465.03927,595.92339 C 470.03782,596.29429 475.07167,596.48668 480.10177,596.48589 L 477.41427,556.92339 C 472.33686,556.94348 467.26225,556.7182 462.22677,556.26714 z"
       id="path2187"
       sodipodi:nodetypes="ccsccccsccsccccccccccccccccccccccccccccsccscccccccccccccccccccccccccccccccccsccscccccccccccccccccccccccccccccccccccccccccccccccccccccccccccccccccccccccccccccccccccccccccscccsccccccccccccccccccccccccccccccccccccccccccccccccccccccccccccccccccccccccccccccccccccccccccsccsccccccccccccccccccccccccccccccccccccccsccscccccccccccccccccccccccsccsccccccc" />
  </g>
</svg>
