<?xml version="1.0" encoding="UTF-8" standalone="no"?>
<!-- Created with Inkscape (http://www.inkscape.org/) -->

<svg
   xmlns:dc="http://purl.org/dc/elements/1.1/"
   xmlns:cc="http://creativecommons.org/ns#"
   xmlns:rdf="http://www.w3.org/1999/02/22-rdf-syntax-ns#"
   xmlns:svg="http://www.w3.org/2000/svg"
   xmlns="http://www.w3.org/2000/svg"
   xmlns:xlink="http://www.w3.org/1999/xlink"
   xmlns:sodipodi="http://sodipodi.sourceforge.net/DTD/sodipodi-0.dtd"
   xmlns:inkscape="http://www.inkscape.org/namespaces/inkscape"
   width="744.09448819"
   height="1052.3622047"
   id="svg2"
   version="1.1"
   inkscape:version="0.48.0 r9654"
   sodipodi:docname="logo_1.svg">
  <defs
     id="defs4" />
  <sodipodi:namedview
     id="base"
     pagecolor="#ffffff"
     bordercolor="#666666"
     borderopacity="1.0"
     inkscape:pageopacity="0.0"
     inkscape:pageshadow="2"
     inkscape:zoom="1.979899"
     inkscape:cx="534.89003"
     inkscape:cy="511.72412"
     inkscape:document-units="px"
     inkscape:current-layer="g4325"
     showgrid="false"
     inkscape:window-width="1450"
     inkscape:window-height="915"
     inkscape:window-x="69"
     inkscape:window-y="93"
     inkscape:window-maximized="0" />
  <metadata
     id="metadata7">
    <rdf:RDF>
      <cc:Work
         rdf:about="">
        <dc:format>image/svg+xml</dc:format>
        <dc:type
           rdf:resource="http://purl.org/dc/dcmitype/StillImage" />
        <dc:title></dc:title>
      </cc:Work>
    </rdf:RDF>
  </metadata>
  <g
     inkscape:label="Layer 1"
     inkscape:groupmode="layer"
     id="layer1">
    <path
       d="m 431.42858,503.79074 a 38.57143,38.57143 0 1 1 -77.14286,0 38.57143,38.57143 0 1 1 77.14286,0 z"
       sodipodi:ry="38.57143"
       sodipodi:rx="38.57143"
       sodipodi:cy="503.79074"
       sodipodi:cx="392.85715"
       id="path2991"
       style="opacity:0.67000002;fill:#008000;fill-opacity:0.98431373;stroke:none"
       sodipodi:type="arc"
       transform="matrix(0.64726538,0.37369885,-0.37369885,0.64726538,392.781,223.83)" />
    <path
       transform="matrix(0.65941872,0.38071558,-0.38071558,0.65941872,330.81879,214.95069)"
       sodipodi:type="arc"
       style="opacity:0.67000002;fill:#008000;fill-opacity:0.98431373;stroke:none"
       id="path2993"
       sodipodi:cx="392.85715"
       sodipodi:cy="503.79074"
       sodipodi:rx="38.57143"
       sodipodi:ry="38.57143"
       d="m 431.42858,503.79074 a 38.57143,38.57143 0 1 1 -77.14286,0 38.57143,38.57143 0 1 1 77.14286,0 z" />
    <path
       sodipodi:type="arc"
       style="opacity:0.67000002;fill:#008000;fill-opacity:0.98431373;stroke:none"
       id="path2987"
       sodipodi:cx="392.85715"
       sodipodi:cy="503.79074"
       sodipodi:rx="38.57143"
       sodipodi:ry="38.57143"
       d="m 431.42858,503.79074 a 38.57143,38.57143 0 1 1 -77.14286,0 38.57143,38.57143 0 1 1 77.14286,0 z"
       transform="matrix(0.68980205,0.3982574,-0.3982574,0.68980205,358.3156,224.55767)" />
    <path
       d="m 431.42858,503.79074 a 38.57143,38.57143 0 1 1 -77.14286,0 38.57143,38.57143 0 1 1 77.14286,0 z"
       sodipodi:ry="38.57143"
       sodipodi:rx="38.57143"
       sodipodi:cy="503.79074"
       sodipodi:cx="392.85715"
       id="path2995"
       style="opacity:0.67000002;fill:#008000;fill-opacity:0.98431373;stroke:none"
       sodipodi:type="arc"
       transform="matrix(0.76272206,0.44035779,-0.44035779,0.76272206,350.87823,106.95742)" />
    <path
       sodipodi:type="arc"
       style="fill:#ffffff;fill-opacity:1;stroke:none"
       id="path2985"
       sodipodi:cx="340"
       sodipodi:cy="455.21933"
       sodipodi:rx="40"
       sodipodi:ry="40"
       d="m 380,455.21933 a 40,40 0 1 1 -80,0 40,40 0 1 1 80,0 z"
       transform="matrix(0.20081352,0.11593974,-0.11593974,0.20081352,413.17227,565.38779)" />
    <text
       xml:space="preserve"
       style="font-size:53.9853096px;font-style:normal;font-variant:normal;font-weight:normal;font-stretch:normal;line-height:125%;letter-spacing:0px;word-spacing:0px;fill:#000000;fill-opacity:1;stroke:none;font-family:Saab;-inkscape-font-specification:Saab"
       x="577.26544"
       y="660.55054"
       id="text3805"
       sodipodi:linespacing="125%"><tspan
         sodipodi:role="line"
         id="tspan3807"
         x="577.26544"
         y="660.55054"
         style="font-weight:bold">Plant</tspan></text>
    <text
       sodipodi:linespacing="125%"
       id="text3830"
       y="710.55054"
       x="577.26544"
       style="font-size:53.9853096px;font-style:normal;font-variant:normal;font-weight:normal;font-stretch:normal;line-height:125%;letter-spacing:0px;word-spacing:0px;fill:#000000;fill-opacity:1;stroke:none;font-family:Saab;-inkscape-font-specification:Saab"
       xml:space="preserve"><tspan
         style="font-weight:bold"
         y="710.55054"
         x="577.26544"
         id="tspan3832"
         sodipodi:role="line">Hub</tspan></text>
    <g
       id="g4316">
      <path
         inkscape:tile-y0="650.20932"
         inkscape:tile-x0="247.27219"
         inkscape:tile-h="58.748785"
         inkscape:tile-w="58.748785"
         inkscape:tile-cy="679.58371"
         inkscape:tile-cx="276.64658"
         transform="matrix(0.38071557,0.65941872,-0.65941872,0.38071557,554.04644,31.636347)"
         sodipodi:type="arc"
         style="opacity:0.67000002;fill:#008000;fill-opacity:0.98431373;stroke:none"
         id="path3989"
         sodipodi:cx="392.85715"
         sodipodi:cy="503.79074"
         sodipodi:rx="38.57143"
         sodipodi:ry="38.57143"
         d="m 431.42858,503.79074 a 38.57143,38.57143 0 1 1 -77.14286,0 38.57143,38.57143 0 1 1 77.14286,0 z" />
      <use
         height="1052.3622"
         width="744.09448"
         id="use4039"
         transform="matrix(0.5,0.8660254,-0.8660254,0.5,622.17739,-91.149934)"
         xlink:href="#path3989"
         inkscape:tiled-clone-of="#path3989"
         y="0"
         x="0" />
      <use
         height="1052.3622"
         width="744.09448"
         id="use4045"
         transform="matrix(-0.5,0.8660254,-0.8660254,-0.5,1012.2043,402.09656)"
         xlink:href="#path3989"
         inkscape:tiled-clone-of="#path3989"
         y="0"
         x="0" />
      <use
         height="1052.3622"
         width="744.09448"
         id="use4051"
         transform="matrix(-1,0,0,-1,780.05379,986.49275)"
         xlink:href="#path3989"
         inkscape:tiled-clone-of="#path3989"
         y="0"
         x="0" />
      <use
         height="1052.3622"
         width="744.09448"
         id="use4057"
         transform="matrix(-0.5,-0.8660254,0.8660254,-0.5,157.87633,1077.6428)"
         xlink:href="#path3989"
         inkscape:tiled-clone-of="#path3989"
         y="0"
         x="0" />
      <use
         height="1052.3622"
         width="744.09448"
         id="use4063"
         transform="matrix(0.5,-0.8660254,0.8660254,0.5,-232.15054,584.39638)"
         xlink:href="#path3989"
         inkscape:tiled-clone-of="#path3989"
         y="0"
         x="0" />
      <path
         transform="matrix(1.3082511,0.75531915,-0.75531915,1.3082511,628.04876,-572.37064)"
         d="m 224.64286,689.68359 a 8.3928576,8.3928576 0 1 1 -16.78572,0 8.3928576,8.3928576 0 1 1 16.78572,0 z"
         sodipodi:ry="8.3928576"
         sodipodi:rx="8.3928576"
         sodipodi:cy="689.68359"
         sodipodi:cx="216.25"
         id="path4105"
         style="fill:#ffffff;fill-opacity:1;stroke:none"
         sodipodi:type="arc" />
    </g>
    <g
       id="g4141">
      <path
         sodipodi:type="arc"
         style="opacity:0.67000002;fill:#008000;fill-opacity:0.98431373;stroke:none"
         id="path4123"
         sodipodi:cx="392.85715"
         sodipodi:cy="503.79074"
         sodipodi:rx="38.57143"
         sodipodi:ry="38.57143"
         d="m 431.42858,503.79074 a 38.57143,38.57143 0 1 1 -77.14286,0 38.57143,38.57143 0 1 1 77.14286,0 z"
         transform="matrix(0.68980205,0.3982574,-0.3982574,0.68980205,126.27892,175.12115)" />
      <path
         inkscape:transform-center-y="-45.456865"
         inkscape:transform-center-x="21.213203"
         transform="matrix(0.68980205,0.3982574,-0.3982574,0.68980205,154.56319,121.07801)"
         d="m 431.42858,503.79074 a 38.57143,38.57143 0 1 1 -77.14286,0 38.57143,38.57143 0 1 1 77.14286,0 z"
         sodipodi:ry="38.57143"
         sodipodi:rx="38.57143"
         sodipodi:cy="503.79074"
         sodipodi:cx="392.85715"
         id="path4125"
         style="opacity:0.67000002;fill:#008000;fill-opacity:0.98431373;stroke:none"
         sodipodi:type="arc" />
      <path
         sodipodi:type="arc"
         style="opacity:0.67000002;fill:#008000;fill-opacity:0.98431373;stroke:none"
         id="path4127"
         sodipodi:cx="392.85715"
         sodipodi:cy="503.79074"
         sodipodi:rx="38.57143"
         sodipodi:ry="38.57143"
         d="m 431.42858,503.79074 a 38.57143,38.57143 0 1 1 -77.14286,0 38.57143,38.57143 0 1 1 77.14286,0 z"
         transform="matrix(0.68980205,0.3982574,-0.3982574,0.68980205,214.1622,136.2303)" />
      <path
         transform="matrix(0.68980205,0.3982574,-0.3982574,0.68980205,221.48581,197.34452)"
         d="m 431.42858,503.79074 a 38.57143,38.57143 0 1 1 -77.14286,0 38.57143,38.57143 0 1 1 77.14286,0 z"
         sodipodi:ry="38.57143"
         sodipodi:rx="38.57143"
         sodipodi:cy="503.79074"
         sodipodi:cx="392.85715"
         id="path4129"
         style="opacity:0.67000002;fill:#008000;fill-opacity:0.98431373;stroke:none"
         sodipodi:type="arc" />
      <path
         sodipodi:type="arc"
         style="opacity:0.67000002;fill:#008000;fill-opacity:0.98431373;stroke:none"
         id="path4131"
         sodipodi:cx="392.85715"
         sodipodi:cy="503.79074"
         sodipodi:rx="38.57143"
         sodipodi:ry="38.57143"
         d="m 431.42858,503.79074 a 38.57143,38.57143 0 1 1 -77.14286,0 38.57143,38.57143 0 1 1 77.14286,0 z"
         transform="matrix(0.68980205,0.3982574,-0.3982574,0.68980205,166.17995,221.58819)" />
    </g>
    <g
       id="g4148"
       transform="matrix(0.8660254,0.5,-0.5,0.8660254,370.37527,-31.644804)">
      <path
         transform="matrix(0.68980205,0.3982574,-0.3982574,0.68980205,126.27892,175.12115)"
         d="m 431.42858,503.79074 c 0,21.30241 -17.26902,38.57143 -38.57143,38.57143 -21.30242,0 -38.57143,-17.26902 -38.57143,-38.57143 0,-21.30241 17.26901,-38.57143 38.57143,-38.57143 21.30241,0 38.57143,17.26902 38.57143,38.57143 z"
         sodipodi:ry="38.57143"
         sodipodi:rx="38.57143"
         sodipodi:cy="503.79074"
         sodipodi:cx="392.85715"
         id="path4150"
         style="opacity:0.67000002;fill:#008000;fill-opacity:0.98431373;stroke:none"
         sodipodi:type="arc" />
      <path
         sodipodi:type="arc"
         style="opacity:0.67000002;fill:#008000;fill-opacity:0.98431373;stroke:none"
         id="path4152"
         sodipodi:cx="392.85715"
         sodipodi:cy="503.79074"
         sodipodi:rx="38.57143"
         sodipodi:ry="38.57143"
         d="m 431.42858,503.79074 c 0,21.30241 -17.26902,38.57143 -38.57143,38.57143 -21.30242,0 -38.57143,-17.26902 -38.57143,-38.57143 0,-21.30241 17.26901,-38.57143 38.57143,-38.57143 21.30241,0 38.57143,17.26902 38.57143,38.57143 z"
         transform="matrix(0.68980205,0.3982574,-0.3982574,0.68980205,154.56319,121.07801)"
         inkscape:transform-center-x="21.213203"
         inkscape:transform-center-y="-45.456865" />
      <path
         transform="matrix(0.68980205,0.3982574,-0.3982574,0.68980205,214.1622,136.2303)"
         d="m 431.42858,503.79074 c 0,21.30241 -17.26902,38.57143 -38.57143,38.57143 -21.30242,0 -38.57143,-17.26902 -38.57143,-38.57143 0,-21.30241 17.26901,-38.57143 38.57143,-38.57143 21.30241,0 38.57143,17.26902 38.57143,38.57143 z"
         sodipodi:ry="38.57143"
         sodipodi:rx="38.57143"
         sodipodi:cy="503.79074"
         sodipodi:cx="392.85715"
         id="path4154"
         style="opacity:0.67000002;fill:#008000;fill-opacity:0.98431373;stroke:none"
         sodipodi:type="arc" />
      <path
         sodipodi:type="arc"
         style="opacity:0.67000002;fill:#008000;fill-opacity:0.98431373;stroke:none"
         id="path4156"
         sodipodi:cx="392.85715"
         sodipodi:cy="503.79074"
         sodipodi:rx="38.57143"
         sodipodi:ry="38.57143"
         d="m 431.42858,503.79074 c 0,21.30241 -17.26902,38.57143 -38.57143,38.57143 -21.30242,0 -38.57143,-17.26902 -38.57143,-38.57143 0,-21.30241 17.26901,-38.57143 38.57143,-38.57143 21.30241,0 38.57143,17.26902 38.57143,38.57143 z"
         transform="matrix(0.68980205,0.3982574,-0.3982574,0.68980205,221.48581,197.34452)" />
      <path
         transform="matrix(0.68980205,0.3982574,-0.3982574,0.68980205,166.17995,221.58819)"
         d="m 431.42858,503.79074 c 0,21.30241 -17.26902,38.57143 -38.57143,38.57143 -21.30242,0 -38.57143,-17.26902 -38.57143,-38.57143 0,-21.30241 17.26901,-38.57143 38.57143,-38.57143 21.30241,0 38.57143,17.26902 38.57143,38.57143 z"
         sodipodi:ry="38.57143"
         sodipodi:rx="38.57143"
         sodipodi:cy="503.79074"
         sodipodi:cx="392.85715"
         id="path4158"
         style="opacity:0.67000002;fill:#008000;fill-opacity:0.98431373;stroke:none"
         sodipodi:type="arc" />
    </g>
    <text
       xml:space="preserve"
       style="font-size:14.87827873px;font-style:normal;font-variant:normal;font-weight:normal;font-stretch:normal;line-height:125%;letter-spacing:0px;word-spacing:0px;fill:#000000;fill-opacity:1;stroke:none;font-family:Saab;-inkscape-font-specification:Saab"
       x="202.66843"
       y="363.98984"
       id="text4173"
       sodipodi:linespacing="125%"><tspan
         sodipodi:role="line"
         id="tspan4175"
         x="202.66843"
         y="363.98984">Elaborations on</tspan><tspan
         sodipodi:role="line"
         x="202.66843"
         y="382.58768"
         id="tspan4177">Venn Diagrams</tspan></text>
    <g
       id="g4264"
       transform="matrix(0.42269004,0,0,0.42269004,222.5455,283.40495)" />
    <path
       sodipodi:type="arc"
       style="opacity:0.67000002;fill:#000000;fill-opacity:1;stroke:none"
       id="path4274"
       sodipodi:cx="402.14285"
       sodipodi:cy="479.86218"
       sodipodi:rx="18.214285"
       sodipodi:ry="18.214285"
       d="m 420.35714,479.86218 a 18.214285,18.214285 0 1 1 -36.42857,0 18.214285,18.214285 0 1 1 36.42857,0 z"
       transform="translate(165.10557,264.01672)" />
    <g
       id="g4325"
       transform="translate(138.89598,36.870568)">
      <path
         d="m 431.42858,503.79074 c 0,21.30241 -17.26902,38.57143 -38.57143,38.57143 -21.30242,0 -38.57143,-17.26902 -38.57143,-38.57143 0,-21.30241 17.26901,-38.57143 38.57143,-38.57143 21.30241,0 38.57143,17.26902 38.57143,38.57143 z"
         sodipodi:ry="38.57143"
         sodipodi:rx="38.57143"
         sodipodi:cy="503.79074"
         sodipodi:cx="392.85715"
         id="path4327"
         style="opacity:0.67000002000000003;fill:#008000;fill-opacity:0.98431373000000000;stroke:#000000;stroke-width:1.15771441;stroke-miterlimit:4;stroke-dasharray:none;stroke-opacity:1"
         sodipodi:type="arc"
         transform="matrix(0.38071557,0.65941872,-0.65941872,0.38071557,554.04644,31.636347)"
         inkscape:tile-cx="276.64658"
         inkscape:tile-cy="679.58371"
         inkscape:tile-w="58.748785"
         inkscape:tile-h="58.748785"
         inkscape:tile-x0="247.27219"
         inkscape:tile-y0="650.20932" />
      <path
         d="m 431.42858,503.79074 a 38.57143,38.57143 0 1 1 -77.14286,0 38.57143,38.57143 0 1 1 77.14286,0 z"
         sodipodi:ry="38.57143"
         sodipodi:rx="38.57143"
         sodipodi:cy="503.79074"
         sodipodi:cx="392.85715"
         id="use4329"
         style="opacity:0.67000002000000003;fill:#008000;fill-opacity:0.98431373000000000;stroke:#000000;stroke-width:1.15771441;stroke-miterlimit:4;stroke-dasharray:none;stroke-opacity:1"
         sodipodi:type="arc"
         transform="matrix(-0.38071558,0.65941871,-0.65941871,-0.38071558,871.80273,404.48653)"
         inkscape:tile-x0="247.27219"
         inkscape:tile-y0="650.20932" />
      <path
         d="m 431.42858,503.79074 a 38.57143,38.57143 0 1 1 -77.14286,0 38.57143,38.57143 0 1 1 77.14286,0 z"
         sodipodi:ry="38.57143"
         sodipodi:rx="38.57143"
         sodipodi:cy="503.79074"
         sodipodi:cx="392.85715"
         id="use4331"
         style="opacity:0.67000002000000003;fill:#008000;fill-opacity:0.98431373000000000;stroke:#000000;stroke-width:1.1577144;stroke-miterlimit:4;stroke-dasharray:none;stroke-opacity:1"
         sodipodi:type="arc"
         transform="matrix(-0.76143115,0,0,-0.76143115,707.7832,866.09668)"
         inkscape:tile-x0="247.27219"
         inkscape:tile-y0="650.20932" />
      <path
         d="m 431.42858,503.79074 a 38.57143,38.57143 0 1 1 -77.14286,0 38.57143,38.57143 0 1 1 77.14286,0 z"
         sodipodi:ry="38.57143"
         sodipodi:rx="38.57143"
         sodipodi:cy="503.79074"
         sodipodi:cx="392.85715"
         id="use4333"
         style="opacity:0.67000002000000003;fill:#008000;fill-opacity:0.98431373000000000;stroke:#000000;stroke-width:1.15771441;stroke-miterlimit:4;stroke-dasharray:none;stroke-opacity:1"
         sodipodi:type="arc"
         transform="matrix(-0.38071557,-0.65941872,0.65941872,-0.38071557,226.00735,954.8564)"
         inkscape:tile-x0="247.27219"
         inkscape:tile-y0="650.20932" />
      <path
         d="m 431.42858,503.79074 a 38.57143,38.57143 0 1 1 -77.14286,0 38.57143,38.57143 0 1 1 77.14286,0 z"
         sodipodi:ry="38.57143"
         sodipodi:rx="38.57143"
         sodipodi:cy="503.79074"
         sodipodi:cx="392.85715"
         id="use4335"
         style="opacity:0.67000002000000003;fill:#008000;fill-opacity:0.98431373000000000;stroke:#000000;stroke-width:1.15771441;stroke-miterlimit:4;stroke-dasharray:none;stroke-opacity:1"
         sodipodi:type="arc"
         transform="matrix(0.38071558,-0.65941871,0.65941871,0.38071558,-91.74901,582.00634)"
         inkscape:tile-x0="247.27219"
         inkscape:tile-y0="650.20932" />
      <path
         d="m 431.42858,503.79074 a 38.57143,38.57143 0 1 1 -77.14286,0 38.57143,38.57143 0 1 1 77.14286,0 z"
         sodipodi:ry="38.57143"
         sodipodi:rx="38.57143"
         sodipodi:cy="503.79074"
         sodipodi:cx="392.85715"
         id="use4337"
         style="opacity:0.67000002000000003;fill:#008000;fill-opacity:0.98431373000000000;stroke:#000000;stroke-width:1.1577144;stroke-miterlimit:4;stroke-dasharray:none;stroke-opacity:1"
         sodipodi:type="arc"
         transform="matrix(0.76143115,0,0,0.76143115,72.27056,120.39626)"
         inkscape:tile-x0="247.27219"
         inkscape:tile-y0="650.20932" />
      <path
         sodipodi:type="arc"
         style="fill:#ffffff;fill-opacity:1;stroke:#000000;stroke-width:0.5835413;stroke-miterlimit:4;stroke-dasharray:none"
         id="path4339"
         sodipodi:cx="216.25"
         sodipodi:cy="689.68359"
         sodipodi:rx="8.3928576"
         sodipodi:ry="8.3928576"
         d="m 224.64286,689.68359 c 0,4.63525 -3.75761,8.39286 -8.39286,8.39286 -4.63525,0 -8.39286,-3.75761 -8.39286,-8.39286 0,-4.63524 3.75761,-8.39285 8.39286,-8.39285 4.63525,0 8.39286,3.75761 8.39286,8.39285 z"
         transform="matrix(1.3082511,0.75531915,-0.75531915,1.3082511,628.04876,-572.37064)" />
    </g>
  </g>
</svg>
