<?xml version="1.0" encoding="UTF-8" standalone="no"?>
<!-- Created with Inkscape (http://www.inkscape.org/) -->
<svg
   xmlns:dc="http://purl.org/dc/elements/1.1/"
   xmlns:cc="http://creativecommons.org/ns#"
   xmlns:rdf="http://www.w3.org/1999/02/22-rdf-syntax-ns#"
   xmlns:svg="http://www.w3.org/2000/svg"
   xmlns="http://www.w3.org/2000/svg"
   xmlns:xlink="http://www.w3.org/1999/xlink"
   xmlns:sodipodi="http://sodipodi.sourceforge.net/DTD/sodipodi-0.dtd"
   xmlns:inkscape="http://www.inkscape.org/namespaces/inkscape"
   width="840"
   height="765"
   id="svg2661"
   sodipodi:version="0.32"
   inkscape:version="0.46"
   version="1.0"
   sodipodi:docname="front2.svg"
   inkscape:output_extension="org.inkscape.output.svg.inkscape"
   inkscape:export-filename="/crypt/rob/cxgn/main/sgn-tools/art/sgn2/front2.png"
   inkscape:export-xdpi="90"
   inkscape:export-ydpi="90">
  <defs
     id="defs2663">
    <linearGradient
       id="linearGradient3308">
      <stop
         id="stop3310"
         offset="0"
         style="stop-color:#dacbf7;stop-opacity:1;" />
      <stop
         id="stop3312"
         offset="1"
         style="stop-color:#ffffff;stop-opacity:0;" />
    </linearGradient>
    <linearGradient
       id="linearGradient3296">
      <stop
         style="stop-color:#a6a6e8;stop-opacity:1;"
         offset="0"
         id="stop3298" />
      <stop
         style="stop-color:#a6a6e8;stop-opacity:0;"
         offset="1"
         id="stop3300" />
    </linearGradient>
    <linearGradient
       id="linearGradient3288">
      <stop
         style="stop-color:#e4d9f9;stop-opacity:0.72955972;"
         offset="0"
         id="stop3290" />
      <stop
         style="stop-color:#e4d9f9;stop-opacity:0;"
         offset="1"
         id="stop3292" />
    </linearGradient>
    <linearGradient
       inkscape:collect="always"
       xlink:href="#linearGradient3161"
       id="linearGradient2581"
       gradientUnits="userSpaceOnUse"
       gradientTransform="matrix(0.182692,9.2715177e-3,-9.2715177e-3,0.182692,27.3056,11.42983)"
       x1="86.898064"
       y1="119.21311"
       x2="222.47614"
       y2="243.21469" />
    <linearGradient
       id="linearGradient3161">
      <stop
         style="stop-color:#f7ff12;stop-opacity:1;"
         offset="0"
         id="stop3163" />
      <stop
         style="stop-color:#f20000;stop-opacity:1;"
         offset="1"
         id="stop3165" />
    </linearGradient>
    <inkscape:perspective
       sodipodi:type="inkscape:persp3d"
       inkscape:vp_x="0 : 526.18109 : 1"
       inkscape:vp_y="0 : 1000 : 0"
       inkscape:vp_z="744.09448 : 526.18109 : 1"
       inkscape:persp3d-origin="372.04724 : 350.78739 : 1"
       id="perspective2669" />
    <linearGradient
       inkscape:collect="always"
       xlink:href="#linearGradient3161"
       id="linearGradient3556"
       gradientUnits="userSpaceOnUse"
       gradientTransform="matrix(0.182692,9.2715177e-3,-9.2715177e-3,0.182692,49.278741,30.835173)"
       x1="86.898064"
       y1="119.21311"
       x2="222.47614"
       y2="243.21469" />
    <inkscape:perspective
       id="perspective3682"
       inkscape:persp3d-origin="372.04724 : 350.78739 : 1"
       inkscape:vp_z="744.09448 : 526.18109 : 1"
       inkscape:vp_y="0 : 1000 : 0"
       inkscape:vp_x="0 : 526.18109 : 1"
       sodipodi:type="inkscape:persp3d" />
    <linearGradient
       inkscape:collect="always"
       xlink:href="#linearGradient3161"
       id="linearGradient3372"
       gradientUnits="userSpaceOnUse"
       gradientTransform="matrix(0.2428488,1.2324441e-2,-1.2324441e-2,0.2428488,17.461405,-1.1370739)"
       x1="86.898064"
       y1="119.21311"
       x2="222.47614"
       y2="243.21469" />
    <inkscape:perspective
       id="perspective2512"
       inkscape:persp3d-origin="372.04724 : 350.78739 : 1"
       inkscape:vp_z="744.09448 : 526.18109 : 1"
       inkscape:vp_y="0 : 1000 : 0"
       inkscape:vp_x="0 : 526.18109 : 1"
       sodipodi:type="inkscape:persp3d" />
    <linearGradient
       inkscape:collect="always"
       xlink:href="#linearGradient3288"
       id="linearGradient3322"
       x1="328.5"
       y1="15.063262"
       x2="328.5"
       y2="28.5"
       gradientUnits="userSpaceOnUse"
       gradientTransform="translate(-38,0)" />
    <inkscape:perspective
       id="perspective3404"
       inkscape:persp3d-origin="372.04724 : 350.78739 : 1"
       inkscape:vp_z="744.09448 : 526.18109 : 1"
       inkscape:vp_y="0 : 1000 : 0"
       inkscape:vp_x="0 : 526.18109 : 1"
       sodipodi:type="inkscape:persp3d" />
    <filter
       inkscape:collect="always"
       id="filter4189"
       x="-0.0061453287"
       width="1.0122907"
       y="-0.25371429"
       height="1.5074286">
      <feGaussianBlur
         inkscape:collect="always"
         stdDeviation="2.2200002"
         id="feGaussianBlur4191" />
    </filter>
    <filter
       inkscape:collect="always"
       id="filter4323"
       x="-0.0063376245"
       width="1.0126752"
       y="-0.11262731"
       height="1.2252547">
      <feGaussianBlur
         inkscape:collect="always"
         stdDeviation="0.9092338"
         id="feGaussianBlur4325" />
    </filter>
    <linearGradient
       inkscape:collect="always"
       xlink:href="#linearGradient3288"
       id="linearGradient4395"
       gradientUnits="userSpaceOnUse"
       gradientTransform="translate(-38,0)"
       x1="328.5"
       y1="15.063262"
       x2="328.5"
       y2="28.5" />
  </defs>
  <sodipodi:namedview
     id="base"
     pagecolor="#ffffff"
     bordercolor="#e7e7e7"
     borderopacity="1"
     gridtolerance="10"
     guidetolerance="10"
     objecttolerance="10"
     inkscape:pageopacity="0.0"
     inkscape:pageshadow="2"
     inkscape:zoom="1"
     inkscape:cx="440.53177"
     inkscape:cy="422.55496"
     inkscape:document-units="px"
     inkscape:current-layer="layer1"
     showgrid="true"
     width="780px"
     inkscape:window-width="1094"
     inkscape:window-height="774"
     inkscape:window-x="307"
     inkscape:window-y="171"
     inkscape:snap-global="true">
    <inkscape:grid
       type="xygrid"
       id="grid3450"
       visible="false"
       enabled="true"
       dotted="false"
       color="#0000ff"
       opacity="0.0627451"
       empcolor="#0000ff"
       empopacity="0.05490196"
       spacingx="1px"
       spacingy="1px"
       empspacing="2"
       originx="0.5px"
       originy="0.5px" />
  </sodipodi:namedview>
  <metadata
     id="metadata2666">
    <rdf:RDF>
      <cc:Work
         rdf:about="">
        <dc:format>image/svg+xml</dc:format>
        <dc:type
           rdf:resource="http://purl.org/dc/dcmitype/StillImage" />
      </cc:Work>
    </rdf:RDF>
  </metadata>
  <g
     inkscape:label="Layer 1"
     inkscape:groupmode="layer"
     id="layer1">
    <g
       id="g4401">
      <rect
         style="opacity:1;fill:#000000;fill-opacity:0.38095236;fill-rule:evenodd;stroke:#000000;stroke-width:1.1022191;stroke-linecap:butt;stroke-linejoin:miter;stroke-miterlimit:4;stroke-dasharray:none;stroke-opacity:1;filter:url(#filter4189)"
         id="rect4179"
         width="866.00006"
         height="20"
         x="121.50002"
         y="49.5"
         transform="matrix(0.823122,0,0,1,21.136924,0)" />
      <rect
         y="47.5"
         x="119.50002"
         height="20"
         width="712.82373"
         id="rect3448"
         style="fill:#aa0000;fill-rule:evenodd;stroke:#000000;stroke-width:1.00000012;stroke-linecap:butt;stroke-linejoin:miter;stroke-miterlimit:4;stroke-dasharray:none;stroke-opacity:1" />
      <path
         transform="matrix(1.2550844,0,0,1,-30.699731,0)"
         sodipodi:nodetypes="cccc"
         id="path4277"
         d="M 120.81301,39.539912 L 120.35128,55.533249 C 120.35128,55.533249 287.30793,66.276062 464.66974,49.467055 C 464.66974,49.467055 273.63821,43.951975 120.81301,39.539912 z"
         style="fill:#dceff0;fill-opacity:0.29535864;fill-rule:evenodd;stroke:none;stroke-width:1px;stroke-linecap:butt;stroke-linejoin:miter;stroke-opacity:1;filter:url(#filter4323)" />
    </g>
    <path
       style="fill:#ffffff;fill-opacity:0.35864982;fill-rule:evenodd;stroke:none;stroke-width:1px;stroke-linecap:butt;stroke-linejoin:miter;stroke-opacity:1"
       d="M 140.5,178.5 C 140.5,178.5 152.11362,154.75345 181.96433,141.89288 C 181.96433,141.89288 137.08929,141.89121 140.5,178.5 z"
       id="path4365"
       sodipodi:nodetypes="ccc" />
    <rect
       style="fill:#ffffff;fill-opacity:1;fill-rule:evenodd;stroke:#000000;stroke-width:1.00000012;stroke-linecap:butt;stroke-linejoin:miter;stroke-miterlimit:4;stroke-dasharray:none;stroke-opacity:1"
       id="rect3546"
       width="108.03938"
       height="20"
       x="390.49927"
       y="47.5"
       inkscape:export-filename="/crypt/rob/cxgn/main/sgn-tools/art/sgn2/front2.png"
       inkscape:export-xdpi="90"
       inkscape:export-ydpi="90" />
    <rect
       y="47.5"
       x="755.50006"
       height="20"
       width="78.000061"
       id="rect2544"
       style="fill:#0000ff;fill-rule:evenodd;stroke:#000000;stroke-width:1.00000012;stroke-linecap:butt;stroke-linejoin:miter;stroke-miterlimit:4;stroke-dasharray:none;stroke-opacity:1" />
    <path
       sodipodi:nodetypes="ccsccccsccsccccccccccccccccccccccccccccsccscccccccccccccccccccccccccccccccccsccscccccccccccccccccccccccccccccccccccccccccccccccccccccccccccccccccccccccccccccccccccccccccscccsccccccccccccccccccccccccccccccccccccccccccccccccccccccccccccccccccccccccccccccccccccccccccsccsccccccccccccccccccccccccccccccccccccccsccscccccccccccccccccccccccsccsccccccc"
       id="path2572"
       d="M 51.570421,3.7632311 L 52.195844,12.97727 C 52.305033,12.976879 52.413939,12.969454 52.523101,12.969993 C 53.596352,12.975367 54.665336,13.026883 55.730203,13.122707 L 55.082964,3.8941287 C 53.917372,3.8074306 52.743397,3.7630826 51.570421,3.7632311 z M 38.669317,5.5812928 C 37.612024,5.8879897 36.561495,6.2348768 35.520388,6.6212382 C 35.461999,6.6429195 35.40407,6.6648438 35.345857,6.6867005 L 39.192908,15.362589 C 39.466934,15.25911 39.74412,15.155051 40.021954,15.057161 C 40.858235,14.762452 41.698824,14.502789 42.54546,14.271734 L 38.669317,5.5812928 z M 67.249564,6.4321818 L 64.76244,15.064424 C 65.877042,15.451528 66.972,15.89054 68.042254,16.380704 L 70.522128,7.7193693 C 69.44966,7.2491178 68.356511,6.8209598 67.249564,6.4321818 z M 23.41196,13.224526 C 22.476533,13.925496 21.568741,14.659162 20.692107,15.420761 L 27.411738,22.402215 C 28.29581,21.633041 29.216643,20.898173 30.17521,20.205952 L 23.41196,13.224526 z M 80.688839,13.879028 L 75.518218,20.976838 C 76.437067,21.713867 77.317143,22.50163 78.158069,23.333064 L 83.33598,16.191635 C 82.485443,15.382637 81.600155,14.613963 80.688839,13.879028 z M 52.464916,16.853413 L 52.966717,24.16211 C 54.160362,24.159586 55.346096,24.238535 56.522893,24.394826 L 56.006551,17.057049 C 54.834034,16.929432 53.650029,16.8583 52.464916,16.853413 z M 102.44037,17.03522 L 93.677222,22.925819 C 94.276009,23.925169 94.838142,24.952073 95.36442,26.009285 L 104.13483,20.082331 C 103.60027,19.049379 103.03757,18.034583 102.44037,17.03522 z M 44.14538,17.864279 C 43.191106,18.10569 42.246364,18.392149 41.309169,18.722404 C 41.128847,18.785949 40.949551,18.852587 40.771011,18.918764 L 43.832648,25.834742 C 44.211503,25.692841 44.592586,25.554248 44.981675,25.427495 C 45.729139,25.18402 46.482665,24.974443 47.243386,24.802086 L 44.14538,17.864279 z M 63.678835,18.809669 L 61.71533,25.623855 C 62.843526,26.015225 63.943344,26.485693 65.00242,27.027414 L 66.958663,20.169596 C 65.893134,19.657331 64.796623,19.206358 63.678835,18.809669 z M 32.902339,23.0349 C 31.929935,23.714782 31.000246,24.442239 30.109775,25.209318 L 35.484005,30.794489 C 36.377122,30.021213 37.321122,29.294864 38.320229,28.634596 L 32.902339,23.0349 z M 73.227441,24.125755 L 69.162188,29.703635 C 70.089366,30.445065 70.964583,31.26065 71.772973,32.139863 L 75.838199,26.525626 C 75.0118,25.676249 74.144089,24.869898 73.227441,24.125755 z M 90.448304,25.100238 L 83.306874,29.899982 C 83.907038,30.905798 84.459748,31.955694 84.957689,33.041634 L 92.113685,28.205534 C 91.598384,27.138858 91.044242,26.104029 90.448304,25.100238 z M 11.456232,26.111104 C 10.824965,27.089987 10.224545,28.088137 9.6599802,29.107305 L 18.524951,33.44888 C 19.092134,32.422448 19.699345,31.420709 20.350283,30.445415 L 11.456232,26.111104 z M 53.228513,28.04553 L 53.592139,33.325245 C 54.798866,33.311772 56.002029,33.424471 57.177395,33.65978 L 56.806491,28.365525 C 55.627858,28.165695 54.432242,28.056857 53.228513,28.04553 z M 48.857831,28.43096 C 47.958409,28.601764 47.068302,28.828122 46.188887,29.114568 C 45.924418,29.200713 45.662543,29.289193 45.403487,29.383653 L 47.657895,34.467009 C 48.154283,34.277548 48.661809,34.10696 49.185089,33.957931 C 49.828008,33.774869 50.47769,33.632388 51.134068,33.528882 L 48.857831,28.43096 z M 60.631738,29.361824 L 59.235442,34.212477 C 60.383011,34.59549 61.486232,35.097508 62.515269,35.717854 L 63.911565,30.845385 C 62.865572,30.261233 61.7669,29.767868 60.631738,29.361824 z M 41.076452,31.485361 C 40.053085,32.119126 39.084515,32.825051 38.182069,33.594331 L 42.189123,37.761376 C 43.084644,36.976057 44.062677,36.272537 45.119863,35.666945 L 41.076452,31.485361 z M 80.077956,32.067137 L 74.514616,35.812383 C 75.120813,36.823788 75.655812,37.890222 76.107271,39.019484 L 81.692402,35.245159 C 81.214563,34.141601 80.674759,33.080947 80.077956,32.067137 z M 23.884669,32.161679 C 23.217585,33.13114 22.605041,34.137457 22.03019,35.165144 L 29.142541,38.648594 C 29.717905,37.611402 30.346257,36.606152 31.040639,35.645129 L 23.884669,32.161679 z M 66.864134,32.845288 L 64.020633,36.750523 C 64.969533,37.487795 65.833031,38.338347 66.580509,39.295846 L 69.431259,35.361504 C 68.652812,34.443223 67.793135,33.600609 66.864134,32.845288 z M 109.31274,35.143341 L 99.269642,37.623201 C 99.483533,38.781098 99.652671,39.942113 99.77145,41.106651 L 109.82907,38.597698 C 109.69557,37.444243 109.52219,36.291315 109.31274,35.143341 z M 34.604077,37.383223 C 33.881804,38.328383 33.226965,39.320538 32.640531,40.357607 L 38.014802,42.990182 C 38.591637,41.938167 39.264755,40.945095 40.021954,40.01581 L 34.604077,37.383223 z M 49.752326,37.848654 C 49.577606,37.905409 49.406843,37.967591 49.236012,38.030461 L 49.279644,38.117713 C 49.435179,38.025048 49.592983,37.93538 49.752326,37.848654 z M 71.292987,37.972275 L 67.453187,40.553954 C 68.075194,41.559178 68.586095,42.654798 68.951274,43.848307 L 72.805615,41.244826 C 72.399732,40.084729 71.893368,38.993713 71.292987,37.972275 z M 95.488027,38.561342 L 87.350298,40.575771 C 87.565153,41.747613 87.713358,42.922803 87.7939,44.102866 L 95.953459,42.066595 C 95.851101,40.895023 95.695808,39.726421 95.488027,38.561342 z M 47.94152,38.583145 C 46.831306,39.122693 45.814109,39.793773 44.901699,40.575771 L 45.592558,41.295735 C 46.349283,40.371283 47.222636,39.543183 48.188803,38.837677 L 47.94152,38.583145 z M 83.583223,41.513898 L 77.292667,43.070171 C 77.514692,44.252355 77.636099,45.447849 77.656268,46.640886 L 83.961375,45.062797 C 83.910709,43.877657 83.788128,42.691869 83.583223,41.513898 z M 43.650854,41.782984 C 42.833148,42.669985 42.123944,43.659359 41.527344,44.713723 L 43.214501,45.535492 C 43.612324,44.39898 44.152926,43.331737 44.814421,42.35022 L 43.650854,41.782984 z M 4.3656989,42.801099 C 4.096627,43.935978 3.871417,45.081346 3.6748545,46.23364 L 13.703391,47.302678 C 13.899494,46.143324 14.136719,44.992636 14.423341,43.855584 L 4.3656989,42.801099 z M 73.525592,44.001035 L 69.445813,45.011888 C 69.880207,46.10559 70.186918,47.265269 70.333017,48.473521 L 73.765585,47.615382 C 73.809083,46.412261 73.733752,45.198702 73.525592,44.001035 z M 18.343131,44.262844 C 18.038958,45.400855 17.783751,46.553216 17.57952,47.717214 L 25.666382,48.582603 C 25.867304,47.409397 26.130112,46.245412 26.459071,45.106416 L 18.343131,44.262844 z M 30.40065,45.520952 C 30.040775,46.65521 29.74859,47.812877 29.535247,48.989848 L 35.716748,49.651641 C 35.916915,48.46426 36.218401,47.29879 36.611229,46.168191 L 30.40065,45.520952 z M 40.611006,46.58999 C 40.152513,47.704012 39.81397,48.870075 39.592891,50.066164 L 42.429102,50.371591 C 42.427982,50.299177 42.429102,50.226127 42.429102,50.153442 C 42.429102,49.002161 42.566534,47.885953 42.829085,46.81543 L 40.611006,46.58999 z M 70.427573,49.738906 C 70.431663,49.877228 70.434863,50.014094 70.434863,50.153442 C 70.434863,51.227827 70.315386,52.275535 70.085775,53.280528 L 72.51474,53.53506 C 72.962149,52.4205 73.29987,51.260213 73.511053,50.066164 L 70.427573,49.738906 z M 77.372656,50.4807 C 77.180346,51.664773 76.890942,52.827854 76.507255,53.95686 L 82.717807,54.604099 C 83.070891,53.471852 83.35403,52.316427 83.56142,51.142479 L 77.372656,50.4807 z M 87.430286,51.556988 C 87.234547,52.727291 86.975235,53.881853 86.652149,55.018621 L 94.768089,55.862221 C 95.067632,54.726261 95.317088,53.5766 95.517133,52.415126 L 87.430286,51.556988 z M 42.516367,51.716979 L 39.309252,52.516945 C 39.25671,53.719851 39.328531,54.932018 39.527428,56.131292 L 43.367243,55.178612 C 42.945173,54.084734 42.65114,52.923328 42.516367,51.716979 z M 99.393267,52.82965 C 99.200804,53.988612 98.970775,55.139786 98.687865,56.276743 L 108.73821,57.323952 C 109.0038,56.190936 109.22847,55.048849 109.42181,53.898688 L 99.393267,52.82965 z M 35.418583,53.491428 L 29.106186,55.06953 C 29.151545,56.254131 29.270495,57.440377 29.469786,58.618416 L 35.760353,57.062143 C 35.545862,55.879015 35.431475,54.68429 35.418583,53.491428 z M 69.736701,54.51682 C 69.360424,55.661527 68.837401,56.745212 68.194968,57.738461 L 69.511262,58.378436 C 70.322852,57.482606 71.023822,56.495068 71.612955,55.433145 L 69.736701,54.51682 z M 25.266384,56.029487 L 17.114088,58.065719 C 17.212747,59.236616 17.361142,60.406312 17.565007,61.570985 L 25.69546,59.556557 C 25.485816,58.384715 25.341972,57.209066 25.266384,56.029487 z M 43.91265,56.42218 L 40.23284,58.909332 C 40.632283,60.073883 41.128819,61.170462 41.723691,62.196407 L 45.563478,59.614742 C 45.151048,58.936116 44.786894,58.218892 44.487177,57.454849 C 44.282055,57.120221 44.089758,56.774455 43.91265,56.42218 z M 75.118235,57.156685 C 74.548581,58.211724 73.890151,59.211884 73.140149,60.14561 L 78.543499,62.778198 C 79.261789,61.82896 79.910392,60.82988 80.492493,59.789259 L 75.118235,57.156685 z M 67.445924,58.792973 C 66.707532,59.732343 65.851742,60.570608 64.900588,61.294636 L 65.235122,61.636434 C 66.333955,61.091675 67.335951,60.41267 68.238614,59.629282 L 67.445924,58.792973 z M 13.288841,59.025676 L 3.2312117,61.534629 C 3.3618664,62.688071 3.5337641,63.840864 3.7402899,64.988999 L 13.776116,62.501849 C 13.566485,61.346072 13.403836,60.187811 13.288841,59.025676 z M 46.450696,60.909207 L 43.592668,64.850798 C 44.366134,65.769702 45.228619,66.610263 46.152532,67.367042 L 48.996005,63.469083 C 48.0499,62.726816 47.194029,61.871755 46.450696,60.909207 z M 36.931224,61.13466 L 31.33879,64.908997 C 31.812362,66.014204 32.346065,67.078543 32.938709,68.094269 L 38.502049,64.356287 C 37.900509,63.341384 37.377472,62.267324 36.931224,61.13466 z M 83.997745,61.505536 C 83.426148,62.54567 82.790587,63.544683 82.099662,64.509029 L 89.255645,67.999741 C 89.920839,67.026662 90.537527,66.020198 91.110096,64.988999 L 83.997745,61.505536 z M 63.8243,62.043693 C 63.55674,62.210435 63.281714,62.36759 63.00253,62.516389 C 63.306203,62.425546 63.604705,62.319867 63.897012,62.210961 L 63.8243,62.043693 z M 70.951177,62.443663 C 70.06246,63.230562 69.091785,63.936269 68.042254,64.545371 L 72.078401,68.719692 C 73.097043,68.083131 74.060227,67.374656 74.958231,66.603445 L 70.951177,62.443663 z M 50.530489,64.53083 L 49.14147,69.403287 C 50.180821,69.984915 51.271689,70.481236 52.399467,70.886848 L 53.803026,66.043471 C 52.6589,65.658622 51.556043,65.151879 50.530489,64.53083 z M 65.475115,65.7744 C 64.960406,65.972879 64.433549,66.150433 63.889749,66.305294 C 63.265298,66.483091 62.628913,66.617067 61.991665,66.719803 L 64.267902,71.817712 C 65.150287,71.647933 66.022979,71.422481 66.885951,71.14138 C 67.168239,71.049431 67.446167,70.951906 67.722259,70.850479 L 65.475115,65.7744 z M 55.89747,66.603445 L 56.275623,71.897701 C 57.454188,72.096761 58.650021,72.199754 59.853602,72.210419 L 59.489988,66.93798 C 58.281317,66.951858 57.074725,66.839159 55.89747,66.603445 z M 94.615349,66.70525 C 94.050339,67.735003 93.439106,68.737296 92.78999,69.716005 L 101.68406,74.050316 C 102.31349,73.069232 102.91043,72.068099 103.47305,71.046839 L 94.615349,66.70525 z M 28.066253,67.119773 L 20.91027,71.955886 C 21.422777,73.023912 21.982373,74.055879 22.575625,75.061169 L 29.702515,70.268702 C 29.105753,69.260671 28.560575,68.207805 28.066253,67.119773 z M 41.258232,68.072467 L 37.185756,73.679413 C 38.011157,74.531908 38.880325,75.339489 39.7965,76.086561 L 43.861754,70.515971 C 42.93548,69.771585 42.06507,68.954865 41.258232,68.072467 z M 77.656268,69.410563 C 76.767201,70.185081 75.829451,70.908192 74.834623,71.570443 L 80.245224,77.17014 C 81.215535,76.488056 82.142213,75.757508 83.030539,74.988444 L 77.656268,69.410563 z M 48.043338,73.221271 L 46.087095,80.071799 C 47.150936,80.584576 48.243547,81.04153 49.359619,81.439003 L 51.323166,74.617554 C 50.19802,74.225671 49.09943,73.76279 48.043338,73.221271 z M 17.659535,74.152121 L 8.8818311,80.079076 C 9.4131436,81.111799 9.9821897,82.126931 10.576277,83.126187 L 19.339444,77.235588 C 18.7436,76.237075 18.182884,75.20847 17.659535,74.152121 z M 69.300361,74.39939 C 68.90262,74.549377 68.502259,74.695206 68.093163,74.828453 C 67.362615,75.066434 66.625627,75.26926 65.882375,75.439336 L 68.980367,82.377143 C 69.917158,82.138501 70.845375,81.857859 71.765696,81.533544 C 71.965567,81.4631 72.164316,81.389052 72.362013,81.315382 L 69.300361,74.39939 z M 56.551971,75.861122 L 57.07559,83.198912 C 58.248134,83.326287 59.432045,83.397905 60.617212,83.402536 L 60.11541,76.093838 C 58.919295,76.096916 57.731145,76.017481 56.551971,75.861122 z M 34.865886,76.879252 L 29.687975,84.013419 C 30.536488,84.823374 31.418508,85.597232 32.327839,86.333275 L 37.505737,79.235491 C 36.58867,78.496869 35.704855,77.712198 34.865886,76.879252 z M 85.735825,77.802839 C 84.85502,78.572835 83.934753,79.305652 82.97963,79.999087 L 89.735617,86.980527 C 90.669707,86.277749 91.58024,85.547605 92.455469,84.784279 L 85.735825,77.802839 z M 45.003491,83.86069 L 42.523657,92.522039 C 43.593722,92.992344 44.684387,93.42736 45.788917,93.816516 L 48.276041,85.184248 C 47.162696,84.796415 46.072448,84.351423 45.003491,83.86069 z M 73.940116,84.878807 C 73.647108,84.989981 73.350252,85.101289 73.052884,85.206064 C 72.233383,85.49486 71.409656,85.744154 70.580314,85.969661 L 74.46372,94.667378 C 75.501559,94.364893 76.532257,94.021327 77.55445,93.641986 C 77.632291,93.613082 77.70958,93.583962 77.787165,93.554707 L 73.940116,84.878807 z M 57.351939,87.140518 L 58.00644,96.369102 C 59.169669,96.455422 60.34112,96.500189 61.511693,96.5 L 60.886271,87.293232 C 59.704681,87.297903 58.523753,87.245481 57.351939,87.140518 z"
       style="opacity:0.88999999;fill:#000000;fill-opacity:1;stroke:none;stroke-width:13.94999981;stroke-miterlimit:4;stroke-dasharray:none;stroke-opacity:1" />
    <path
       style="fill:url(#linearGradient3372);fill-opacity:1;stroke:none;stroke-width:13.94999981;stroke-miterlimit:4;stroke-dasharray:none;stroke-opacity:1"
       d="M 52.636262,3.608681 L 53.25209,12.681182 C 53.359602,12.680796 53.466835,12.673485 53.574308,12.674017 C 54.631098,12.679308 55.683662,12.730033 56.732158,12.824385 L 56.094835,3.737568 C 54.947161,3.6522016 53.79122,3.6085348 52.636262,3.608681 z M 39.933331,5.3988221 C 38.892279,5.7008079 37.857887,6.0423597 36.832773,6.4227863 C 36.775282,6.4441345 36.718256,6.465722 36.660937,6.4872431 L 40.448893,15.02986 C 40.718697,14.92797 40.991638,14.82551 41.265217,14.729123 C 42.088626,14.438942 42.916302,14.183255 43.749946,13.955762 L 39.933331,5.3988221 z M 68.074557,6.2366339 L 65.625638,14.736262 C 66.723145,15.117433 67.801257,15.549701 68.85507,16.032336 L 71.296864,7.5040491 C 70.240858,7.041021 69.164527,6.6194399 68.074557,6.2366339 z M 24.91033,12.924639 C 23.989285,13.614841 23.095437,14.337238 22.232256,15.087138 L 28.84868,21.961349 C 29.719159,21.203992 30.625861,20.480412 31.569716,19.798824 L 24.91033,12.924639 z M 81.307405,13.569088 L 76.21621,20.557869 C 77.120918,21.283576 77.987488,22.059237 78.81551,22.877901 L 83.91387,15.84617 C 83.076383,15.049599 82.204722,14.292734 81.307405,13.569088 z M 53.517029,16.497783 L 54.011109,23.694212 C 55.186445,23.691713 56.353938,23.769462 57.512645,23.923353 L 57.004235,16.698292 C 55.849756,16.572635 54.683937,16.502595 53.517029,16.497783 z M 102.72483,16.676797 L 94.096273,22.47691 C 94.685861,23.46091 95.23936,24.47204 95.757553,25.513012 L 104.39325,19.677102 C 103.8669,18.660016 103.31283,17.66081 102.72483,16.676797 z M 45.325263,17.493121 C 44.385674,17.73081 43.455431,18.012883 42.532632,18.338065 C 42.355093,18.400634 42.178552,18.466247 42.002741,18.531409 L 45.017361,25.34115 C 45.390384,25.201429 45.765626,25.064965 46.148751,24.940159 C 46.88472,24.700423 47.626658,24.494066 48.375707,24.324357 L 45.325263,17.493121 z M 64.558705,18.42399 L 62.625321,25.133503 C 63.7362,25.518861 64.819151,25.982102 65.861918,26.515502 L 67.788137,19.763026 C 66.738976,19.258631 65.659296,18.814585 64.558705,18.42399 z M 34.254941,22.584316 C 33.297487,23.253755 32.382078,23.970037 31.505285,24.725334 L 36.796962,30.224711 C 37.676347,29.463313 38.605846,28.74812 39.589606,28.097996 L 34.254941,22.584316 z M 73.960595,23.658414 L 69.957814,29.150613 C 70.87075,29.88064 71.732522,30.683711 72.528495,31.549418 L 76.531262,26.021422 C 75.71757,25.185092 74.863189,24.391127 73.960595,23.658414 z M 90.916968,24.617928 L 83.885224,29.343943 C 84.476168,30.33431 85.020402,31.368078 85.51068,32.437324 L 92.556727,27.675524 C 92.049368,26.625234 91.503725,25.606301 90.916968,24.617928 z M 13.138268,25.613266 C 12.51671,26.577114 11.925499,27.55993 11.369608,28.563443 L 20.098403,32.838328 C 20.6569,31.827663 21.254757,30.841311 21.895722,29.880986 L 13.138268,25.613266 z M 54.268896,27.517978 L 54.626938,32.716592 C 55.815128,32.703326 56.999809,32.814281 58.157106,33.045988 L 57.791913,27.833044 C 56.631385,27.636297 55.454109,27.529131 54.268896,27.517978 z M 49.965353,27.897488 C 49.07976,28.065668 48.203286,28.288548 47.33742,28.570595 C 47.077001,28.655416 46.81912,28.742537 46.564058,28.835547 L 48.783862,33.840817 C 49.272585,33.654266 49.772315,33.486298 50.287584,33.339559 C 50.920627,33.159309 51.560329,33.019017 52.206638,32.917101 L 49.965353,27.897488 z M 61.558401,28.814053 L 60.183567,33.590195 C 61.313508,33.967325 62.399782,34.461631 63.412999,35.072448 L 64.787833,30.274825 C 63.757907,29.699645 62.676113,29.21386 61.558401,28.814053 z M 42.303504,30.904957 C 41.295857,31.529 40.342138,32.224081 39.453581,32.981544 L 43.399056,37.084579 C 44.280834,36.311324 45.243857,35.618609 46.284803,35.022321 L 42.303504,30.904957 z M 80.705892,31.47781 L 75.228023,35.165524 C 75.824896,36.161394 76.351663,37.211445 76.796214,38.323361 L 82.295565,34.607014 C 81.825053,33.520408 81.293514,32.476046 80.705892,31.47781 z M 25.375777,31.570899 C 24.71894,32.525468 24.115806,33.516327 23.549825,34.528228 L 30.552896,37.958168 C 31.119422,36.936909 31.738149,35.947101 32.421824,35.00084 L 25.375777,31.570899 z M 67.695048,32.244007 L 64.895239,36.089254 C 65.829576,36.8152 66.679797,37.652687 67.415779,38.595478 L 70.222766,34.721571 C 69.456237,33.817395 68.609765,32.987725 67.695048,32.244007 z M 109.49162,34.50676 L 99.602774,36.948527 C 99.813399,38.088637 99.979931,39.231818 100.09687,40.378468 L 110,37.908054 C 109.86856,36.772318 109.69783,35.6371 109.49162,34.50676 z M 35.930524,36.712234 C 35.21936,37.642876 34.574593,38.619791 33.99718,39.64093 L 39.288883,42.233066 C 39.856858,41.197211 40.51965,40.219393 41.265217,39.304383 L 35.930524,36.712234 z M 50.84612,37.170517 C 50.674058,37.2264 50.505944,37.287626 50.337724,37.349531 L 50.380686,37.435442 C 50.533833,37.344201 50.689199,37.25591 50.84612,37.170517 z M 72.055883,37.292239 L 68.275066,39.834261 C 68.887518,40.824042 69.390571,41.902833 69.750154,43.078009 L 73.545288,40.51452 C 73.145627,39.372243 72.647014,38.297985 72.055883,37.292239 z M 95.879275,37.872257 L 87.866523,39.855729 C 88.078091,41.00957 88.22402,42.166721 88.303311,43.328645 L 96.337545,41.323665 C 96.236759,40.17009 96.083852,39.019439 95.879275,37.872257 z M 49.063118,37.893725 C 47.969944,38.424985 46.968372,39.085756 46.069992,39.855729 L 46.750237,40.564647 C 47.495338,39.654396 48.355263,38.839016 49.306575,38.144347 L 49.063118,37.893725 z M 84.157314,40.779458 L 77.963402,42.311825 C 78.182002,43.475849 78.301557,44.65298 78.321403,45.827691 L 84.529672,44.273842 C 84.479784,43.106908 84.359085,41.939335 84.157314,40.779458 z M 44.838347,41.044397 C 44.033216,41.917787 43.334919,42.891963 42.747457,43.930131 L 44.408724,44.739277 C 44.800436,43.620222 45.332733,42.569373 45.98404,41.602934 L 44.838347,41.044397 z M 6.1566641,42.046887 C 5.8917253,43.164333 5.6699616,44.292107 5.4764317,45.4267 L 15.350907,46.479317 C 15.543985,45.337771 15.777579,44.20476 16.059799,43.085174 L 6.1566641,42.046887 z M 74.254193,43.228391 L 70.237083,44.223715 C 70.664805,45.300618 70.966804,46.442483 71.110659,47.632175 L 74.490472,46.787218 C 74.533328,45.602577 74.459141,44.407661 74.254193,43.228391 z M 19.919402,43.486178 C 19.619876,44.606707 19.368602,45.741367 19.167522,46.887486 L 27.130147,47.739581 C 27.327971,46.584397 27.586741,45.438292 27.910647,44.316792 L 19.919402,43.486178 z M 31.791705,44.72496 C 31.437346,45.841794 31.149623,46.981678 30.939584,48.140571 L 37.026117,48.792197 C 37.223222,47.623056 37.52009,46.475489 37.906871,45.362257 L 31.791705,44.72496 z M 41.845221,45.777577 C 41.393771,46.874472 41.060401,48.022637 40.842718,49.200353 L 43.635376,49.501089 C 43.634272,49.429787 43.635376,49.357859 43.635376,49.286291 C 43.635376,48.152694 43.770683,47.053632 44.029201,45.999553 L 41.845221,45.777577 z M 71.203761,48.878122 C 71.207776,49.01432 71.210913,49.149082 71.210913,49.286291 C 71.210913,50.344171 71.093312,51.375786 70.867214,52.365341 L 73.258855,52.615964 C 73.699391,51.518524 74.03195,50.376061 74.239863,49.200353 L 71.203761,48.878122 z M 78.042135,49.608521 C 77.852819,50.774406 77.567848,51.919621 77.190027,53.031284 L 83.305206,53.668581 C 83.652866,52.553727 83.931642,51.41605 84.135846,50.260134 L 78.042135,49.608521 z M 87.945296,50.668276 C 87.752564,51.820603 87.497249,52.957429 87.179126,54.076736 L 95.170357,54.907376 C 95.465324,53.788867 95.710949,52.656866 95.907895,51.513233 L 87.945296,50.668276 z M 43.7213,50.825809 L 40.563463,51.613487 C 40.511714,52.797902 40.582432,53.991463 40.778275,55.172315 L 44.559092,54.234269 C 44.143533,53.157193 43.854002,52.013614 43.7213,50.825809 z M 99.724523,51.921389 C 99.534994,53.062549 99.308512,54.196039 99.029934,55.315532 L 108.9259,56.346654 C 109.18741,55.231043 109.40863,54.106499 109.59901,52.973992 L 99.724523,51.921389 z M 36.732532,52.573002 L 30.517099,54.126863 C 30.561776,55.293266 30.678886,56.461291 30.875127,57.621234 L 37.069066,56.088867 C 36.857843,54.923913 36.745253,53.74754 36.732532,52.573002 z M 70.523489,53.582643 C 70.152992,54.709766 69.638016,55.776805 69.005452,56.754796 L 70.301526,57.384941 C 71.100649,56.502871 71.790851,55.530503 72.370949,54.484891 L 70.523489,53.582643 z M 26.736295,55.072074 L 18.709239,57.077027 C 18.806357,58.229938 18.952471,59.381666 19.153219,60.528449 L 27.158767,58.544964 C 26.952369,57.391122 26.810734,56.233532 26.736295,55.072074 z M 45.096135,55.458722 L 41.472863,57.907667 C 41.866157,59.054344 42.35508,60.134078 42.940787,61.144264 L 46.721591,58.602242 C 46.315496,57.934053 45.956923,57.227847 45.661836,56.475541 C 45.459852,56.146052 45.270523,55.805597 45.096135,55.458722 z M 75.822357,56.181956 C 75.261468,57.220788 74.613151,58.205585 73.874683,59.124968 L 79.195019,61.717117 C 79.902263,60.782461 80.540915,59.798727 81.114047,58.774092 L 75.822357,56.181956 z M 68.267914,57.79311 C 67.540878,58.718036 66.698221,59.543439 65.76169,60.256345 L 66.091072,60.592892 C 67.173026,60.056501 68.159631,59.387927 69.048401,58.616572 L 68.267914,57.79311 z M 14.942738,58.022238 L 5.0396171,60.492651 C 5.1682382,61.628375 5.3375087,62.76346 5.5408619,63.893959 L 15.422515,61.445014 C 15.216118,60.306991 15.055953,59.166522 14.942738,58.022238 z M 47.595181,59.876836 L 44.781055,63.757881 C 45.542666,64.662668 46.391903,65.490318 47.301583,66.235472 L 50.101405,62.397389 C 49.169832,61.666525 48.327095,60.824599 47.595181,59.876836 z M 38.221937,60.098825 L 32.715422,63.815186 C 33.181733,64.903414 33.707224,65.951405 34.290765,66.951529 L 39.768634,63.270966 C 39.176333,62.271653 38.66133,61.214091 38.221937,60.098825 z M 84.565496,60.464005 C 84.002652,61.488162 83.37688,62.471829 82.696568,63.42136 L 89.742602,66.858439 C 90.397591,65.900321 91.00482,64.909316 91.568581,63.893959 L 84.565496,60.464005 z M 64.701908,60.993896 C 64.438458,61.158075 64.167671,61.312817 63.892776,61.45933 C 64.191784,61.369883 64.485701,61.265827 64.77353,61.158594 L 64.701908,60.993896 z M 71.719323,61.387722 C 70.844258,62.162532 69.888479,62.8574 68.85507,63.457145 L 72.829231,67.567344 C 73.832226,66.940562 74.780601,66.242969 75.664824,65.483605 L 71.719323,61.387722 z M 51.612291,63.442828 L 50.244635,68.240438 C 51.268021,68.813132 52.342132,69.301828 53.452586,69.70121 L 54.834571,64.932233 C 53.70802,64.553295 52.622118,64.054337 51.612291,63.442828 z M 66.327378,64.667281 C 65.820577,64.862725 65.301799,65.037552 64.766352,65.190034 C 64.15152,65.3651 63.524898,65.497017 62.897438,65.598176 L 65.13871,70.617775 C 66.007514,70.450605 66.866813,70.228615 67.716529,69.951833 C 67.994495,69.861296 68.268153,69.765268 68.540018,69.6654 L 66.327378,64.667281 z M 56.896843,65.483605 L 57.2692,70.696535 C 58.429662,70.892538 59.607111,70.993948 60.792217,71.00445 L 60.434176,65.813001 C 59.244085,65.826666 58.056014,65.715684 56.896843,65.483605 z M 95.020002,65.583846 C 94.463659,66.597781 93.861788,67.584678 93.22267,68.548353 L 101.98012,72.816085 C 102.5999,71.850071 103.18767,70.864317 103.74161,69.858743 L 95.020002,65.583846 z M 29.493141,65.992001 L 22.447081,70.753827 C 22.951729,71.805447 23.502742,72.821562 24.086881,73.81141 L 31.104282,69.09256 C 30.516673,68.100013 29.979857,67.063321 29.493141,65.992001 z M 42.482505,66.930061 L 38.472573,72.450879 C 39.285294,73.290279 40.141111,74.085454 41.043227,74.821051 L 45.046007,69.336031 C 44.133962,68.603066 43.276935,67.798905 42.482505,66.930061 z M 78.321403,68.247603 C 77.446006,69.010224 76.522662,69.722226 75.543102,70.374305 L 80.870603,75.887984 C 81.825996,75.216379 82.738427,74.497053 83.61312,73.739802 L 78.321403,68.247603 z M 49.163372,71.999774 L 47.237166,78.745072 C 48.284665,79.249972 49.360504,79.699894 50.459446,80.091273 L 52.392804,73.374609 C 51.284942,72.988745 50.203228,72.532975 49.163372,71.999774 z M 19.246295,72.916326 L 10.603411,78.752237 C 11.126575,79.769096 11.68688,80.768635 12.271843,81.752541 L 20.900411,75.952428 C 20.313693,74.969253 19.76159,73.956448 19.246295,72.916326 z M 70.093866,73.159797 C 69.702234,73.30748 69.307996,73.451056 68.905197,73.582269 C 68.185884,73.816581 67.460204,74.016305 66.728369,74.183768 L 69.7788,81.015003 C 70.701201,80.780026 71.61516,80.503696 72.521317,80.184363 C 72.71813,80.115001 72.913827,80.04209 73.108486,79.969551 L 70.093866,73.159797 z M 57.541291,74.599075 L 58.056865,81.824149 C 59.211411,81.949567 60.377123,82.020085 61.544085,82.024644 L 61.050005,74.828216 C 59.872263,74.831247 58.702363,74.753032 57.541291,74.599075 z M 36.188325,75.601564 L 31.089952,82.62613 C 31.925444,83.423658 32.793929,84.185628 33.689279,84.910365 L 38.787625,77.92161 C 37.884659,77.194334 37.014419,76.421717 36.188325,75.601564 z M 86.276877,76.510965 C 85.409589,77.269133 84.503458,77.990692 83.563006,78.673477 L 90.215214,85.547675 C 91.134956,84.855691 92.031476,84.136764 92.893301,83.385162 L 86.276877,76.510965 z M 46.170219,82.475762 L 43.728465,91.004062 C 44.782119,91.46713 45.856004,91.895477 46.943581,92.278656 L 49.392487,83.778988 C 48.296243,83.397113 47.222743,82.958955 46.170219,82.475762 z M 74.662361,83.478238 C 74.373828,83.587705 74.081533,83.697304 73.788732,83.800469 C 72.981833,84.084829 72.170759,84.330294 71.354143,84.552336 L 75.177909,93.116447 C 76.199806,92.818609 77.214658,92.480321 78.221162,92.106806 C 78.297809,92.078346 78.373923,92.049674 78.450304,92.020868 L 74.662361,83.478238 z M 58.328969,85.705207 L 58.97343,94.792031 C 60.118764,94.877025 61.272247,94.921104 62.424825,94.920918 L 61.80901,85.855576 C 60.645584,85.860175 59.482797,85.808559 58.328969,85.705207 z"
       id="path2187"
       sodipodi:nodetypes="ccsccccsccsccccccccccccccccccccccccccccsccscccccccccccccccccccccccccccccccccsccscccccccccccccccccccccccccccccccccccccccccccccccccccccccccccccccccccccccccccccccccccccccccscccsccccccccccccccccccccccccccccccccccccccccccccccccccccccccccccccccccccccccccccccccccccccccccsccsccccccccccccccccccccccccccccccccccccccsccscccccccccccccccccccccccsccsccccccc" />
    <text
       xml:space="preserve"
       style="font-size:28.9899292px;font-style:normal;font-weight:normal;fill:#000000;fill-opacity:1;stroke:none;stroke-width:1px;stroke-linecap:butt;stroke-linejoin:miter;stroke-opacity:1;font-family:Bitstream Vera Sans"
       x="508.48495"
       y="32.599052"
       id="text3770"
       transform="scale(0.9952591,1.0047635)"><tspan
         sodipodi:role="line"
         id="tspan3772"
         x="508.48495"
         y="32.599052">sol</tspan></text>
    <text
       xml:space="preserve"
       style="font-size:29.12837029px;font-style:normal;font-weight:normal;fill:#000000;fill-opacity:1;stroke:none;stroke-width:1px;stroke-linecap:butt;stroke-linejoin:miter;stroke-opacity:1;font-family:Bitstream Vera Sans"
       x="552.99341"
       y="32.709862"
       id="text3774"
       transform="scale(1.0000119,0.9999881)"><tspan
         sodipodi:role="line"
         id="tspan3776"
         x="552.99341"
         y="32.709862"
         style="font-weight:bold">genomics</tspan></text>
    <text
       xml:space="preserve"
       style="font-size:29.12837029px;font-style:normal;font-weight:normal;fill:#000000;fill-opacity:1;stroke:none;stroke-width:1px;stroke-linecap:butt;stroke-linejoin:miter;stroke-opacity:1;font-family:Bitstream Vera Sans"
       x="715.63519"
       y="32.709862"
       id="text3778"
       transform="scale(1.0000119,0.9999881)"><tspan
         sodipodi:role="line"
         id="tspan3780"
         x="715.63519"
         y="32.709862">network</tspan></text>
    <text
       id="text3622"
       y="85.052864"
       x="777.51697"
       style="font-size:12.83837605px;font-style:normal;font-variant:normal;font-weight:normal;font-stretch:normal;fill:#000000;fill-opacity:1;stroke:none;stroke-width:1px;stroke-linecap:butt;stroke-linejoin:miter;stroke-opacity:1;font-family:Sans;-inkscape-font-specification:Sans"
       xml:space="preserve"
       transform="scale(1.0006214,0.999379)"><tspan
         y="85.052864"
         x="777.51697"
         id="tspan3624"
         sodipodi:role="line">(log out)</tspan></text>
    <g
       id="g3827"
       transform="translate(231.88149,-26.539639)">
      <text
         transform="scale(1.0006214,0.999379)"
         id="text3626"
         y="111.60895"
         x="308.89871"
         style="font-size:12.83837605px;font-style:normal;font-variant:normal;font-weight:normal;font-stretch:normal;fill:#000000;fill-opacity:1;stroke:none;stroke-width:1px;stroke-linecap:butt;stroke-linejoin:miter;stroke-opacity:1;font-family:Sans;-inkscape-font-specification:Sans"
         xml:space="preserve"><tspan
           y="111.60895"
           x="308.89871"
           id="tspan3628"
           sodipodi:role="line">you are logged in as</tspan></text>
      <text
         transform="scale(1.0006214,0.999379)"
         xml:space="preserve"
         style="font-size:12.83837605px;font-style:normal;font-variant:normal;font-weight:normal;font-stretch:normal;fill:#000000;fill-opacity:1;stroke:none;stroke-width:1px;stroke-linecap:butt;stroke-linejoin:miter;stroke-opacity:1;font-family:Sans;-inkscape-font-specification:Sans"
         x="445.84146"
         y="111.60895"
         id="text3630"><tspan
           sodipodi:role="line"
           id="tspan3632"
           x="445.84146"
           y="111.60895"
           style="font-weight:bold">Robert Buels</tspan></text>
    </g>
    <text
       xml:space="preserve"
       style="font-size:22.80011559px;font-style:normal;font-variant:normal;font-weight:normal;font-stretch:normal;fill:#000000;fill-opacity:1;stroke:none;stroke-width:1px;stroke-linecap:butt;stroke-linejoin:miter;stroke-opacity:1;font-family:Umpush;-inkscape-font-specification:Umpush"
       x="405.00012"
       y="61.399918"
       id="text3837"><tspan
         sodipodi:role="line"
         id="tspan3839"
         x="405.00012"
         y="61.399918"
         style="font-size:15.76247406px">data types</tspan></text>
    <g
       id="g4387"
       transform="translate(4,0)">
      <rect
         style="fill:url(#linearGradient4395);fill-opacity:1;fill-rule:evenodd;stroke:#000000;stroke-width:1;stroke-linecap:butt;stroke-linejoin:miter;stroke-miterlimit:4;stroke-dasharray:none;stroke-opacity:1"
         id="rect2437"
         width="255"
         height="21"
         x="124.49997"
         y="14.5" />
      <text
         transform="scale(0.9550816,1.047031)"
         xml:space="preserve"
         style="font-size:13.88781643px;font-style:normal;font-variant:normal;font-weight:normal;font-stretch:normal;fill:#4d4d4d;fill-opacity:1;stroke:none;stroke-width:1px;stroke-linecap:butt;stroke-linejoin:miter;stroke-opacity:1;font-family:Verdana;-inkscape-font-specification:Verdana"
         x="137.16113"
         y="26.742285"
         id="text3618"><tspan
           style="font-size:12px"
           sodipodi:role="line"
           id="tspan3620"
           x="137.16113"
           y="26.742285">try the new super sol search</tspan></text>
      <rect
         ry="0.80000001"
         rx="0.80000001"
         y="14"
         x="384"
         height="23"
         width="98.641304"
         id="rect2455"
         style="fill:#ffffff;fill-rule:evenodd;stroke:#000000;stroke-width:2;stroke-linecap:butt;stroke-linejoin:miter;stroke-miterlimit:4;stroke-dasharray:none;stroke-opacity:1" />
      <text
         transform="scale(0.9967197,1.003291)"
         xml:space="preserve"
         style="font-size:27.08857918px;font-style:normal;font-variant:normal;font-weight:normal;font-stretch:normal;fill:#000000;fill-opacity:1;stroke:none;stroke-width:1px;stroke-linecap:butt;stroke-linejoin:miter;stroke-opacity:1;font-family:Umpush;-inkscape-font-specification:Umpush"
         x="393.45636"
         y="30.489489"
         id="text2457"><tspan
           sodipodi:role="line"
           id="tspan2459"
           x="393.45636"
           y="30.489489"
           style="font-size:13.99998188px;font-style:normal;font-variant:normal;font-weight:bold;font-stretch:normal;font-family:Bitstream Vera Sans;-inkscape-font-specification:Bitstream Vera Sans">sol search</tspan></text>
    </g>
    <text
       xml:space="preserve"
       style="font-size:13.93906021px;font-style:normal;font-variant:normal;font-weight:normal;font-stretch:normal;fill:#ffffff;fill-opacity:1;stroke:none;stroke-width:1px;stroke-linecap:butt;stroke-linejoin:miter;stroke-opacity:1;font-family:Sans;-inkscape-font-specification:Sans"
       x="744.42981"
       y="63.760311"
       id="text3634"
       transform="scale(1.0272099,0.9735109)"><tspan
         sodipodi:role="line"
         id="tspan3636"
         x="744.42981"
         y="63.760311"
         style="font-weight:bold;fill:#ffffff">My SGN</tspan></text>
    <rect
       y="47.5"
       x="498.52289"
       height="20"
       width="69.892746"
       id="rect3544"
       style="fill:#ffffff;fill-opacity:1;fill-rule:evenodd;stroke:#000000;stroke-width:1.00000012;stroke-linecap:butt;stroke-linejoin:miter;stroke-miterlimit:4;stroke-dasharray:none;stroke-opacity:1"
       inkscape:export-filename="/crypt/rob/cxgn/main/sgn-tools/art/sgn2/front2.png"
       inkscape:export-xdpi="90"
       inkscape:export-ydpi="90" />
    <text
       id="text3316"
       y="61.399918"
       x="513.50012"
       style="font-size:22.80011559px;font-style:normal;font-variant:normal;font-weight:normal;font-stretch:normal;fill:#000000;fill-opacity:1;stroke:none;stroke-width:1px;stroke-linecap:butt;stroke-linejoin:miter;stroke-opacity:1;font-family:Umpush;-inkscape-font-specification:Umpush"
       xml:space="preserve"><tspan
         style="font-size:15.76247406px"
         y="61.399918"
         x="513.50012"
         id="tspan3318"
         sodipodi:role="line">maps</tspan></text>
    <rect
       style="fill:#ffffff;fill-opacity:1;fill-rule:evenodd;stroke:#000000;stroke-width:1.00000012;stroke-linecap:butt;stroke-linejoin:miter;stroke-miterlimit:4;stroke-dasharray:none;stroke-opacity:1"
       id="rect3542"
       width="111.91197"
       height="20"
       x="568.50366"
       y="47.5"
       inkscape:export-filename="/crypt/rob/cxgn/main/sgn-tools/art/sgn2/front2.png"
       inkscape:export-xdpi="90"
       inkscape:export-ydpi="90" />
    <text
       xml:space="preserve"
       style="font-size:22.80011559px;font-style:normal;font-variant:normal;font-weight:normal;font-stretch:normal;fill:#000000;fill-opacity:1;stroke:none;stroke-width:1px;stroke-linecap:butt;stroke-linejoin:miter;stroke-opacity:1;font-family:Umpush;-inkscape-font-specification:Umpush"
       x="583.00012"
       y="61.399918"
       id="text3320"><tspan
         sodipodi:role="line"
         id="tspan3322"
         x="583.00012"
         y="61.399918"
         style="font-size:15.76247406px">sequencing</tspan></text>
    <rect
       y="47.5"
       x="680.49292"
       height="20"
       width="79.922768"
       id="rect3540"
       style="fill:#ffffff;fill-opacity:1;fill-rule:evenodd;stroke:#000000;stroke-width:1.00000012;stroke-linecap:butt;stroke-linejoin:miter;stroke-miterlimit:4;stroke-dasharray:none;stroke-opacity:1"
       inkscape:export-filename="/crypt/rob/cxgn/main/sgn-tools/art/sgn2/front2.png"
       inkscape:export-xdpi="90"
       inkscape:export-ydpi="90" />
    <text
       id="text3324"
       y="62.399918"
       x="704.00012"
       style="font-size:22.80011559px;font-style:normal;font-variant:normal;font-weight:normal;font-stretch:normal;fill:#000000;fill-opacity:1;stroke:none;stroke-width:1px;stroke-linecap:butt;stroke-linejoin:miter;stroke-opacity:1;font-family:Umpush;-inkscape-font-specification:Umpush"
       xml:space="preserve"><tspan
         style="font-size:15.76247406px"
         y="62.399918"
         x="704.00012"
         id="tspan3326"
         sodipodi:role="line">tools</tspan></text>
    <text
       xml:space="preserve"
       style="font-size:25.43307877px;font-style:normal;font-variant:normal;font-weight:normal;font-stretch:normal;fill:#000000;fill-opacity:1;stroke:none;stroke-width:1px;stroke-linecap:butt;stroke-linejoin:miter;stroke-opacity:1;font-family:Sans;-inkscape-font-specification:Sans"
       x="120.5"
       y="116.5"
       id="text3656"><tspan
         sodipodi:role="line"
         id="tspan3658"
         x="120.5"
         y="116.5"
         style="font-weight:bold">Title of the page</tspan></text>
    <path
       style="fill:#aa0000;fill-opacity:1;fill-rule:evenodd;stroke:none;stroke-width:1px;stroke-linecap:butt;stroke-linejoin:miter;stroke-opacity:1"
       d="M 392,54 L 397,49 L 392,49 L 392,54 z"
       id="path3377" />
    <use
       x="0"
       y="0"
       xlink:href="#path3377"
       id="use3381"
       transform="translate(108,0)"
       width="1000"
       height="765"
       style="fill:#ffffff;fill-opacity:1"
       inkscape:export-filename="/crypt/rob/cxgn/main/sgn-tools/art/sgn2/front2.png"
       inkscape:export-xdpi="90"
       inkscape:export-ydpi="90" />
    <use
       x="0"
       y="0"
       xlink:href="#use3381"
       id="use3383"
       transform="translate(70,0)"
       width="1000"
       height="765" />
    <use
       x="0"
       y="0"
       xlink:href="#use3383"
       id="use3385"
       transform="translate(112,0)"
       width="1000"
       height="765" />
    <rect
       style="fill:#b7c8c4;fill-opacity:1;stroke:#000000;stroke-width:1;stroke-miterlimit:4;stroke-dasharray:none;stroke-opacity:1"
       id="rect3446"
       width="124.54243"
       height="272"
       x="0.50000501"
       y="140.5"
       rx="0"
       ry="0" />
    <text
       xml:space="preserve"
       style="font-size:19.32618332px;font-style:normal;font-weight:normal;fill:#000000;fill-opacity:1;stroke:none;stroke-width:1px;stroke-linecap:butt;stroke-linejoin:miter;stroke-opacity:1;font-family:Bitstream Vera Sans"
       x="4.8298998"
       y="158.5"
       id="text3448"><tspan
         sodipodi:role="line"
         id="tspan3450"
         x="4.8298998"
         y="158.5"
         style="font-style:italic;font-weight:bold">actions</tspan></text>
    <text
       xml:space="preserve"
       style="font-size:10.70112991px;font-style:normal;font-weight:normal;fill:#000000;fill-opacity:1;stroke:none;stroke-width:1px;stroke-linecap:butt;stroke-linejoin:miter;stroke-opacity:1;font-family:Bitstream Vera Sans"
       x="9.8298998"
       y="182.5"
       id="text3452"><tspan
         sodipodi:role="line"
         id="tspan3454"
         x="9.8298998"
         y="182.5">- add to list:</tspan><tspan
         sodipodi:role="line"
         x="9.8298998"
         y="195.87642"
         id="tspan3464">  &lt;list dropdown&gt;</tspan></text>
    <text
       xml:space="preserve"
       style="font-size:13.56939507px;font-style:normal;font-weight:normal;fill:#000000;fill-opacity:1;stroke:none;stroke-width:1px;stroke-linecap:butt;stroke-linejoin:miter;stroke-opacity:1;font-family:Bitstream Vera Sans"
       x="9.9512987"
       y="393.57312"
       id="text3489"><tspan
         sodipodi:role="line"
         x="9.9512987"
         y="393.57312"
         id="tspan3491">view web svc</tspan><tspan
         id="tspan3493"
         sodipodi:role="line"
         x="9.9512987"
         y="410.53485" /></text>
    <text
       id="text3497"
       y="406.26654"
       x="5.3533373"
       style="font-size:8.89129162px;font-style:normal;font-weight:normal;fill:#0000ff;fill-opacity:1;stroke:none;stroke-width:1px;stroke-linecap:butt;stroke-linejoin:miter;stroke-opacity:1;font-family:Bitstream Vera Sans"
       xml:space="preserve"><tspan
         y="406.26654"
         x="5.3533373"
         sodipodi:role="line"
         id="tspan3501">(SSWAP) (JSON) (PON)</tspan></text>
    <rect
       y="140.88383"
       x="266.04742"
       height="215.61615"
       width="566.03296"
       id="rect2449"
       style="fill:#ffffff;fill-opacity:1;stroke:#000000;stroke-width:2;stroke-linejoin:round;stroke-miterlimit:4;stroke-dasharray:none;stroke-opacity:1" />
    <image
       y="156.5"
       x="283.5"
       id="image3406"
       height="139.74454"
       width="533"
       sodipodi:absref="/crypt/rob/cxgn/core/sgn-tools/art/sgn2/snapshot2.png"
       xlink:href="/crypt/rob/cxgn/core/sgn-tools/art/sgn2/snapshot2.png" />
    <path
       style="fill:none;fill-rule:evenodd;stroke:#000000;stroke-width:1px;stroke-linecap:butt;stroke-linejoin:miter;stroke-opacity:1"
       d="M 829,126.43988 C 829,126.77321 829,127.10655 829,126.43988 z"
       id="path3330" />
    <rect
       style="fill:#b7c8c4;fill-opacity:1;stroke:#000000;stroke-width:0.99999994;stroke-linejoin:round;stroke-miterlimit:4;stroke-dasharray:none;stroke-opacity:1"
       id="rect3660"
       width="136.03795"
       height="215.99873"
       x="136.49242"
       y="140.50002" />
    <text
       xml:space="preserve"
       style="font-size:15.99774361px;font-style:normal;font-variant:normal;font-weight:normal;font-stretch:normal;fill:#000000;fill-opacity:1;stroke:none;stroke-width:1px;stroke-linecap:butt;stroke-linejoin:miter;stroke-opacity:1;font-family:Sans;-inkscape-font-specification:Sans"
       x="139.71303"
       y="158.43022"
       id="text3662"><tspan
         sodipodi:role="line"
         x="139.71303"
         y="158.43022"
         style="font-weight:bold"
         id="tspan4412">Clone</tspan><tspan
         sodipodi:role="line"
         x="139.71303"
         y="178.4274"
         style="font-weight:bold"
         id="tspan4416">Summary</tspan></text>
    <text
       id="text2534"
       y="196.93988"
       x="149.5"
       style="font-size:14.01893806px;font-style:normal;font-variant:normal;font-weight:normal;font-stretch:normal;fill:#000000;fill-opacity:1;stroke:none;stroke-width:1px;stroke-linecap:butt;stroke-linejoin:miter;stroke-opacity:1;font-family:Sans;-inkscape-font-specification:Sans"
       xml:space="preserve"><tspan
         style="font-weight:normal"
         y="196.93988"
         x="149.5"
         sodipodi:role="line"
         id="tspan2538">more section</tspan><tspan
         style="font-weight:normal"
         y="214.46355"
         x="149.5"
         sodipodi:role="line"
         id="tspan2540">info</tspan></text>
    <rect
       style="fill:none;fill-opacity:1;stroke:#000000;stroke-width:2;stroke-linejoin:round;stroke-miterlimit:4;stroke-dasharray:none;stroke-opacity:1"
       id="rect3412"
       width="567.75006"
       height="215.48947"
       x="264.33035"
       y="396.88385" />
    <image
       xlink:href="/crypt/rob/cxgn/core/sgn-tools/art/sgn2/snapshot2.png"
       sodipodi:absref="/crypt/rob/cxgn/core/sgn-tools/art/sgn2/snapshot2.png"
       width="528"
       height="138.43361"
       id="image3414"
       x="288.5"
       y="409.1857" />
    <rect
       y="396.5"
       x="136.49242"
       height="216.27162"
       width="136.03795"
       id="rect3416"
       style="fill:#ffffff;fill-opacity:1;stroke:#000000;stroke-width:0.99999994;stroke-linejoin:round;stroke-miterlimit:4;stroke-dasharray:none;stroke-opacity:1" />
    <text
       xml:space="preserve"
       style="font-size:14.01893806px;font-style:normal;font-variant:normal;font-weight:normal;font-stretch:normal;fill:#000000;fill-opacity:1;stroke:none;stroke-width:1px;stroke-linecap:butt;stroke-linejoin:miter;stroke-opacity:1;font-family:Sans;-inkscape-font-specification:Sans"
       x="149.5"
       y="452.93988"
       id="text3422"><tspan
         id="tspan3424"
         sodipodi:role="line"
         x="149.5"
         y="452.93988"
         style="font-weight:normal">more section</tspan><tspan
         id="tspan3426"
         sodipodi:role="line"
         x="149.5"
         y="470.46356"
         style="font-weight:normal">info</tspan></text>
    <rect
       y="612.88385"
       x="264.32776"
       height="215.48947"
       width="567.75269"
       id="rect3430"
       style="fill:none;fill-opacity:1;stroke:#000000;stroke-width:2;stroke-linejoin:round;stroke-miterlimit:4;stroke-dasharray:none;stroke-opacity:1" />
    <image
       y="645.29993"
       x="279.80762"
       id="image3432"
       height="140.71263"
       width="536.69238"
       sodipodi:absref="/crypt/rob/cxgn/core/sgn-tools/art/sgn2/snapshot2.png"
       xlink:href="/crypt/rob/cxgn/core/sgn-tools/art/sgn2/snapshot2.png" />
    <rect
       style="fill:#ececec;fill-opacity:1;stroke:#000000;stroke-width:0.99999994;stroke-linejoin:round;stroke-miterlimit:4;stroke-dasharray:none;stroke-opacity:1"
       id="rect3434"
       width="136.03795"
       height="216.27162"
       x="136.49242"
       y="612.5" />
    <text
       id="text3440"
       y="668.93988"
       x="149.5"
       style="font-size:14.01893806px;font-style:normal;font-variant:normal;font-weight:normal;font-stretch:normal;fill:#000000;fill-opacity:1;stroke:none;stroke-width:1px;stroke-linecap:butt;stroke-linejoin:miter;stroke-opacity:1;font-family:Sans;-inkscape-font-specification:Sans"
       xml:space="preserve"><tspan
         style="font-weight:normal"
         y="668.93988"
         x="149.5"
         sodipodi:role="line"
         id="tspan3442">more section</tspan><tspan
         style="font-weight:normal"
         y="686.46356"
         x="149.5"
         sodipodi:role="line"
         id="tspan3444">info</tspan></text>
    <g
       id="g3519"
       transform="matrix(-1,0,0,-1,441,308.43988)">
      <rect
         y="146.5"
         x="176.5"
         height="12"
         width="16"
         id="rect3517"
         style="fill:#0000ff;fill-opacity:1;stroke:#000000;stroke-width:1;stroke-miterlimit:4;stroke-dasharray:none;stroke-opacity:1" />
      <text
         xml:space="preserve"
         style="font-size:40px;font-style:normal;font-weight:normal;fill:#000000;fill-opacity:1;stroke:none;stroke-width:1px;stroke-linecap:butt;stroke-linejoin:miter;stroke-opacity:1;font-family:Bitstream Vera Sans"
         x="-342"
         y="408"
         id="text4251"
         transform="translate(-72,-3.4398804)"><tspan
           sodipodi:role="line"
           id="tspan4253"
           x="-342"
           y="408"></tspan></text>
      <path
         style="fill:#ffffff;fill-rule:evenodd;stroke:none;stroke-width:1px;stroke-linecap:butt;stroke-linejoin:miter;stroke-opacity:1"
         d="M 252.5,152.5 L 256.5,159.4282 L 260.5,152.5 L 252.5,152.5 z"
         id="path4333"
         transform="translate(-72,-3.4398804)" />
    </g>
    <use
       x="0"
       y="0"
       xlink:href="#g3519"
       id="use3532"
       transform="translate(0,258)"
       width="1000"
       height="765" />
    <use
       x="0"
       y="0"
       xlink:href="#use3532"
       id="use3534"
       transform="translate(0,214)"
       width="1000"
       height="765" />
    <text
       xml:space="preserve"
       style="font-size:17.39588356px;font-style:normal;font-weight:normal;fill:#000000;fill-opacity:1;stroke:none;stroke-width:1px;stroke-linecap:butt;stroke-linejoin:miter;stroke-opacity:1;font-family:Bitstream Vera Sans"
       x="-470.68732"
       y="217.5"
       id="text3485"><tspan
         sodipodi:role="line"
         id="tspan3487"
         x="-470.68732"
         y="217.5">(extract and list all cross-references on this page) -&gt;</tspan></text>
    <text
       id="text3505"
       y="244.5"
       x="-683.651"
       style="font-size:17.39588356px;font-style:normal;font-weight:normal;fill:#000000;fill-opacity:1;stroke:none;stroke-width:1px;stroke-linecap:butt;stroke-linejoin:miter;stroke-opacity:1;font-family:Bitstream Vera Sans"
       xml:space="preserve"><tspan
         y="244.5"
         x="-683.651"
         id="tspan3507"
         sodipodi:role="line">(autogenerated info pages about each web service type, to call this page) -&gt;</tspan></text>
    <text
       id="text3509"
       y="185.5"
       x="-765.5"
       style="font-size:17.39588356px;font-style:normal;font-weight:normal;fill:#000000;fill-opacity:1;stroke:none;stroke-width:1px;stroke-linecap:butt;stroke-linejoin:miter;stroke-opacity:1;font-family:Bitstream Vera Sans"
       xml:space="preserve"><tspan
         y="185.5"
         x="-765.5"
         id="tspan3511"
         sodipodi:role="line">(for each SGN core datatype on this page, gives option to add to one of user's lists) -&gt;</tspan></text>
    <text
       id="text4159"
       y="284.5"
       x="4.8298998"
       style="font-size:19.32618332px;font-style:normal;font-weight:normal;fill:#000000;fill-opacity:1;stroke:none;stroke-width:1px;stroke-linecap:butt;stroke-linejoin:miter;stroke-opacity:1;font-family:Bitstream Vera Sans"
       xml:space="preserve"><tspan
         style="font-style:italic;font-weight:bold"
         y="284.5"
         x="4.8298998"
         sodipodi:role="line"
         id="tspan4163">related</tspan><tspan
         style="font-style:italic;font-weight:bold"
         y="308.65771"
         x="4.8298998"
         sodipodi:role="line"
         id="tspan4167">items</tspan></text>
    <text
       xml:space="preserve"
       style="font-size:16.05566978px;font-style:normal;font-weight:normal;fill:#000000;fill-opacity:1;stroke:none;stroke-width:1px;stroke-linecap:butt;stroke-linejoin:miter;stroke-opacity:1;font-family:Bitstream Vera Sans"
       x="9.8298998"
       y="334.5"
       id="text4169"><tspan
         sodipodi:role="line"
         x="9.8298998"
         y="334.5"
         id="tspan4171">- cross-refs</tspan><tspan
         id="tspan4173"
         sodipodi:role="line"
         x="9.8298998"
         y="354.56958" /></text>
    <path
       style="fill:none;fill-rule:evenodd;stroke:#000000;stroke-width:1px;stroke-linecap:butt;stroke-linejoin:miter;stroke-opacity:1"
       d="M 120.53572,380.5 L 0.5357143,380.5"
       id="path4175" />
    <text
       xml:space="preserve"
       style="font-size:40px;font-style:normal;font-weight:normal;fill:#000000;fill-opacity:1;stroke:none;stroke-width:1px;stroke-linecap:butt;stroke-linejoin:miter;stroke-opacity:1;font-family:Bitstream Vera Sans"
       x="-588.31287"
       y="371.84863"
       id="text4259"><tspan
         sodipodi:role="line"
         x="-588.31287"
         y="371.84863"
         id="tspan4263">interface cues:</tspan></text>
    <rect
       style="opacity:1;fill:#0000ff;fill-opacity:1;stroke:#000000;stroke-width:1;stroke-miterlimit:4;stroke-dasharray:none;stroke-opacity:1"
       id="rect4267"
       width="31.5"
       height="31.5"
       x="-599.5"
       y="445" />
    <text
       xml:space="preserve"
       style="font-size:40px;font-style:normal;font-weight:normal;fill:#000000;fill-opacity:1;stroke:none;stroke-width:1px;stroke-linecap:butt;stroke-linejoin:miter;stroke-opacity:1;font-family:Bitstream Vera Sans"
       x="-543.5"
       y="476.5"
       id="text4269"><tspan
         sodipodi:role="line"
         id="tspan4271"
         x="-543.5"
         y="476.5">implies user-specific</tspan></text>
    <rect
       y="356.50098"
       x="267.62231"
       height="39.999249"
       width="564.45807"
       id="rect4375"
       style="fill:#ffffff;fill-opacity:1;stroke:#000000;stroke-width:2;stroke-linejoin:round;stroke-miterlimit:4;stroke-dasharray:none;stroke-opacity:1" />
    <rect
       y="357.05487"
       x="136.50023"
       height="38.857231"
       width="136.00758"
       id="rect4369"
       style="fill:#ececec;fill-opacity:1;stroke:#000000;stroke-width:0.99999994;stroke-linejoin:round;stroke-miterlimit:4;stroke-dasharray:none;stroke-opacity:1" />
    <use
       x="0"
       y="0"
       xlink:href="#g3519"
       id="use4377"
       transform="matrix(-1,0,0,-1,513,522.43988)"
       width="1000"
       height="765" />
    <text
       xml:space="preserve"
       style="font-size:22.42060089px;font-style:normal;font-weight:normal;fill:#000000;fill-opacity:1;stroke:none;stroke-width:1px;stroke-linecap:butt;stroke-linejoin:miter;stroke-opacity:1;font-family:Bitstream Vera Sans"
       x="295.45923"
       y="380.15665"
       id="text4383"><tspan
         sodipodi:role="line"
         id="tspan4385"
         x="295.45923"
         y="380.15665">content summary</tspan></text>
    <use
       x="0"
       y="0"
       xlink:href="#text3662"
       id="use4406"
       transform="translate(0,218)"
       width="840"
       height="765" />
    <use
       x="0"
       y="0"
       xlink:href="#use4406"
       id="use4408"
       transform="translate(0,38)"
       width="840"
       height="765" />
    <use
       x="0"
       y="0"
       xlink:href="#use4408"
       id="use4410"
       transform="translate(0,216)"
       width="840"
       height="765" />
  </g>
</svg>
