<?xml version="1.0" encoding="UTF-8" standalone="no"?>
<!-- Created with Inkscape (http://www.inkscape.org/) -->
<svg
   xmlns:dc="http://purl.org/dc/elements/1.1/"
   xmlns:cc="http://creativecommons.org/ns#"
   xmlns:rdf="http://www.w3.org/1999/02/22-rdf-syntax-ns#"
   xmlns:svg="http://www.w3.org/2000/svg"
   xmlns="http://www.w3.org/2000/svg"
   xmlns:xlink="http://www.w3.org/1999/xlink"
   xmlns:sodipodi="http://sodipodi.sourceforge.net/DTD/sodipodi-0.dtd"
   xmlns:inkscape="http://www.inkscape.org/namespaces/inkscape"
   width="1000"
   height="1052"
   id="svg2"
   sodipodi:version="0.32"
   inkscape:version="0.46"
   version="1.0"
   sodipodi:docname="front10.svg"
   inkscape:output_extension="org.inkscape.output.svg.inkscape"
   inkscape:export-filename="/crypt/rob/cxgn/core/sgn-tools/art/sgn2/front7.png"
   inkscape:export-xdpi="90"
   inkscape:export-ydpi="90">
  <defs
     id="defs4">
    <linearGradient
       id="linearGradient4383">
      <stop
         style="stop-color:#aa4400;stop-opacity:1;"
         offset="0"
         id="stop4385" />
      <stop
         style="stop-color:#000000;stop-opacity:1;"
         offset="1"
         id="stop4387" />
    </linearGradient>
    <linearGradient
       id="linearGradient4282">
      <stop
         id="stop4284"
         offset="0"
         style="stop-color:#aaaaaa;stop-opacity:1;" />
      <stop
         id="stop4286"
         offset="1"
         style="stop-color:#bababa;stop-opacity:1;" />
    </linearGradient>
    <linearGradient
       id="linearGradient3354">
      <stop
         id="stop3356"
         offset="0"
         style="stop-color:#c0c0c0;stop-opacity:1;" />
      <stop
         id="stop3358"
         offset="1"
         style="stop-color:#ffffff;stop-opacity:1;" />
    </linearGradient>
    <linearGradient
       id="linearGradient3304">
      <stop
         style="stop-color:#e5e5e5;stop-opacity:1;"
         offset="0"
         id="stop3306" />
      <stop
         style="stop-color:#ededed;stop-opacity:0;"
         offset="1"
         id="stop3308" />
    </linearGradient>
    <linearGradient
       id="linearGradient3282">
      <stop
         style="stop-color:#ececec;stop-opacity:1;"
         offset="0"
         id="stop3284" />
      <stop
         style="stop-color:#ffffff;stop-opacity:1;"
         offset="1"
         id="stop3287" />
    </linearGradient>
    <linearGradient
       id="linearGradient3284">
      <stop
         style="stop-color:#ebebeb;stop-opacity:1;"
         offset="0"
         id="stop3286" />
      <stop
         style="stop-color:#ffffff;stop-opacity:0;"
         offset="1"
         id="stop3288" />
    </linearGradient>
    <linearGradient
       id="linearGradient3420">
      <stop
         style="stop-color:#b7b7ff;stop-opacity:1;"
         offset="0"
         id="stop3422" />
      <stop
         style="stop-color:#d6d6fd;stop-opacity:1;"
         offset="1"
         id="stop3424" />
    </linearGradient>
    <linearGradient
       id="linearGradient5109">
      <stop
         style="stop-color:#bcbcbc;stop-opacity:1;"
         offset="0"
         id="stop5111" />
      <stop
         style="stop-color:#f0f0f0;stop-opacity:1;"
         offset="1"
         id="stop5113" />
    </linearGradient>
    <linearGradient
       id="linearGradient5065">
      <stop
         id="stop5067"
         offset="0"
         style="stop-color:#cbcbcb;stop-opacity:1;" />
      <stop
         id="stop5069"
         offset="1"
         style="stop-color:#fbfbfb;stop-opacity:1;" />
    </linearGradient>
    <linearGradient
       id="linearGradient4731">
      <stop
         style="stop-color:#c5c5c5;stop-opacity:1;"
         offset="0"
         id="stop4733" />
      <stop
         style="stop-color:#fbfbfb;stop-opacity:1;"
         offset="1"
         id="stop4735" />
    </linearGradient>
    <linearGradient
       id="linearGradient4711">
      <stop
         style="stop-color:#3f9b28;stop-opacity:1;"
         offset="0"
         id="stop4713" />
      <stop
         style="stop-color:#66d14e;stop-opacity:1;"
         offset="1"
         id="stop4715" />
    </linearGradient>
    <linearGradient
       id="linearGradient3488">
      <stop
         id="stop3490"
         offset="0"
         style="stop-color:#000000;stop-opacity:1" />
      <stop
         style="stop-color:#4e4e4e;stop-opacity:1;"
         offset="0.31917229"
         id="stop3496" />
      <stop
         id="stop3492"
         offset="1"
         style="stop-color:#e4e4e4;stop-opacity:0;" />
    </linearGradient>
    <linearGradient
       id="linearGradient3289">
      <stop
         style="stop-color:#ffffff;stop-opacity:1;"
         offset="0"
         id="stop3291" />
      <stop
         style="stop-color:#fdfdfd;stop-opacity:1;"
         offset="1"
         id="stop3293" />
    </linearGradient>
    <linearGradient
       id="linearGradient3350">
      <stop
         style="stop-color:#e5e1de;stop-opacity:1;"
         offset="0"
         id="stop3352" />
      <stop
         style="stop-color:#fffdf9;stop-opacity:1;"
         offset="1"
         id="stop3354" />
    </linearGradient>
    <linearGradient
       id="linearGradient3161">
      <stop
         style="stop-color:#f7ff12;stop-opacity:1;"
         offset="0"
         id="stop3163" />
      <stop
         style="stop-color:#f20000;stop-opacity:1;"
         offset="1"
         id="stop3165" />
    </linearGradient>
    <inkscape:perspective
       sodipodi:type="inkscape:persp3d"
       inkscape:vp_x="0 : 526.18109 : 1"
       inkscape:vp_y="0 : 1000 : 0"
       inkscape:vp_z="744.09448 : 526.18109 : 1"
       inkscape:persp3d-origin="372.04724 : 350.78739 : 1"
       id="perspective10" />
    <inkscape:perspective
       id="perspective2390"
       inkscape:persp3d-origin="372.04724 : 350.78739 : 1"
       inkscape:vp_z="744.09448 : 526.18109 : 1"
       inkscape:vp_y="0 : 1000 : 0"
       inkscape:vp_x="0 : 526.18109 : 1"
       sodipodi:type="inkscape:persp3d" />
    <clipPath
       clipPathUnits="userSpaceOnUse"
       id="clipPath3470">
      <rect
         rx="0.077317901"
         y="-49.375546"
         x="535.42584"
         height="19.041536"
         width="265.97363"
         id="rect3472"
         style="opacity:0.2;fill:#ff4d1f;fill-opacity:1;stroke:none;stroke-width:0.88159186;stroke-miterlimit:4;stroke-dasharray:none;stroke-opacity:1" />
    </clipPath>
    <inkscape:perspective
       id="perspective3666"
       inkscape:persp3d-origin="372.04724 : 350.78739 : 1"
       inkscape:vp_z="744.09448 : 526.18109 : 1"
       inkscape:vp_y="0 : 1000 : 0"
       inkscape:vp_x="0 : 526.18109 : 1"
       sodipodi:type="inkscape:persp3d" />
    <inkscape:perspective
       id="perspective3845"
       inkscape:persp3d-origin="372.04724 : 350.78739 : 1"
       inkscape:vp_z="744.09448 : 526.18109 : 1"
       inkscape:vp_y="0 : 1000 : 0"
       inkscape:vp_x="0 : 526.18109 : 1"
       sodipodi:type="inkscape:persp3d" />
    <linearGradient
       inkscape:collect="always"
       xlink:href="#linearGradient3350"
       id="linearGradient4748"
       gradientUnits="userSpaceOnUse"
       gradientTransform="matrix(0.9180569,0,0,0.9634159,90.837695,-36.184378)"
       x1="624.68182"
       y1="87.005478"
       x2="624.68182"
       y2="96.238503" />
    <linearGradient
       inkscape:collect="always"
       xlink:href="#linearGradient4731"
       id="linearGradient4836"
       gradientUnits="userSpaceOnUse"
       gradientTransform="translate(-4,0)"
       x1="222.99998"
       y1="98"
       x2="222.99998"
       y2="66" />
    <linearGradient
       inkscape:collect="always"
       xlink:href="#linearGradient5065"
       id="linearGradient5063"
       gradientUnits="userSpaceOnUse"
       gradientTransform="translate(-4.0000073,0)"
       x1="222.99998"
       y1="98"
       x2="222.99998"
       y2="66" />
    <linearGradient
       inkscape:collect="always"
       xlink:href="#linearGradient4731"
       id="linearGradient5085"
       gradientUnits="userSpaceOnUse"
       gradientTransform="matrix(0.8790698,0,0,1,673.55811,0)"
       x1="222.99998"
       y1="98"
       x2="222.99998"
       y2="66" />
    <linearGradient
       inkscape:collect="always"
       xlink:href="#linearGradient4731"
       id="linearGradient3260"
       gradientUnits="userSpaceOnUse"
       gradientTransform="matrix(0.9708903,0,0,0.8604417,46.158546,-6.7436699)"
       x1="222.99998"
       y1="98"
       x2="222.99998"
       y2="66" />
    <linearGradient
       inkscape:collect="always"
       xlink:href="#linearGradient4731"
       id="linearGradient3268"
       gradientUnits="userSpaceOnUse"
       x1="222.99998"
       y1="98"
       x2="222.99998"
       y2="66"
       gradientTransform="matrix(0.9117353,0,0,0.8613341,38.551109,-6.8092705)" />
    <linearGradient
       inkscape:collect="always"
       xlink:href="#linearGradient4731"
       id="linearGradient3273"
       gradientUnits="userSpaceOnUse"
       gradientTransform="matrix(0.8308048,0,0,0.856218,329.76203,-6.4332342)"
       x1="222.99998"
       y1="98"
       x2="222.99998"
       y2="66" />
    <linearGradient
       inkscape:collect="always"
       xlink:href="#linearGradient4711"
       id="linearGradient3280"
       gradientUnits="userSpaceOnUse"
       gradientTransform="matrix(1.0643336,0,0,0.8765952,74.551999,-3.736283)"
       x1="231"
       y1="93.032227"
       x2="231"
       y2="61.963768" />
    <linearGradient
       inkscape:collect="always"
       xlink:href="#linearGradient4731"
       id="linearGradient3283"
       gradientUnits="userSpaceOnUse"
       gradientTransform="matrix(0.9998114,0,0,0.8590853,194.61959,-6.6439833)"
       x1="222.99998"
       y1="98"
       x2="222.99998"
       y2="66" />
    <inkscape:perspective
       id="perspective2553"
       inkscape:persp3d-origin="372.04724 : 350.78739 : 1"
       inkscape:vp_z="744.09448 : 526.18109 : 1"
       inkscape:vp_y="0 : 1000 : 0"
       inkscape:vp_x="0 : 526.18109 : 1"
       sodipodi:type="inkscape:persp3d" />
    <inkscape:perspective
       id="perspective2628"
       inkscape:persp3d-origin="372.04724 : 350.78739 : 1"
       inkscape:vp_z="744.09448 : 526.18109 : 1"
       inkscape:vp_y="0 : 1000 : 0"
       inkscape:vp_x="0 : 526.18109 : 1"
       sodipodi:type="inkscape:persp3d" />
    <linearGradient
       inkscape:collect="always"
       xlink:href="#linearGradient3420"
       id="linearGradient3426"
       x1="306"
       y1="155"
       x2="306"
       y2="137"
       gradientUnits="userSpaceOnUse"
       spreadMethod="reflect"
       gradientTransform="matrix(0.9904174,0,0,1.0001961,4.6188109,-13.528036)" />
    <linearGradient
       inkscape:collect="always"
       xlink:href="#linearGradient3161"
       id="linearGradient2533"
       gradientUnits="userSpaceOnUse"
       gradientTransform="matrix(1.35637,6.883503e-2,-6.883503e-2,1.35637,-363.86081,-525.17943)"
       x1="-54.234585"
       y1="285.37189"
       x2="149.24025"
       y2="432.80035" />
    <linearGradient
       inkscape:collect="always"
       xlink:href="#linearGradient3161"
       id="linearGradient3373"
       gradientUnits="userSpaceOnUse"
       gradientTransform="matrix(0.1163866,5.9065463e-3,-5.9065463e-3,0.1163866,112.89263,15.761153)"
       x1="86.898064"
       y1="119.21311"
       x2="222.47614"
       y2="243.21469" />
    <filter
       inkscape:collect="always"
       id="filter4094"
       x="-0.29481052"
       width="1.589621"
       y="-1.2908932"
       height="3.5817864">
      <feGaussianBlur
         inkscape:collect="always"
         stdDeviation="5.2932"
         id="feGaussianBlur4096" />
    </filter>
    <linearGradient
       inkscape:collect="always"
       xlink:href="#linearGradient3304"
       id="linearGradient3310"
       x1="526.60028"
       y1="104.78242"
       x2="526.60028"
       y2="-3.6003284"
       gradientUnits="userSpaceOnUse" />
    <linearGradient
       inkscape:collect="always"
       xlink:href="#linearGradient3354"
       id="linearGradient3351"
       gradientUnits="userSpaceOnUse"
       gradientTransform="matrix(2.1233901,0,0,1,-951.3148,1.3084412e-3)"
       x1="842.0929"
       y1="25.753942"
       x2="842.0929"
       y2="5.0768166" />
    <linearGradient
       inkscape:collect="always"
       xlink:href="#linearGradient3282"
       id="linearGradient3361"
       gradientUnits="userSpaceOnUse"
       x1="685"
       y1="26.000006"
       x2="685"
       y2="5.0000038"
       gradientTransform="matrix(2.1233901,0,0,1,-951.32978,0)" />
    <filter
       inkscape:collect="always"
       id="filter3900">
      <feGaussianBlur
         inkscape:collect="always"
         stdDeviation="0.51489695"
         id="feGaussianBlur3902" />
    </filter>
    <filter
       inkscape:collect="always"
       id="filter4112">
      <feGaussianBlur
         inkscape:collect="always"
         stdDeviation="0.4525573"
         id="feGaussianBlur4114" />
    </filter>
    <filter
       inkscape:collect="always"
       id="filter4377"
       x="-0.02614218"
       width="1.0522844"
       y="-0.29288495"
       height="1.5857699">
      <feGaussianBlur
         inkscape:collect="always"
         stdDeviation="0.92212455"
         id="feGaussianBlur4379" />
    </filter>
    <linearGradient
       inkscape:collect="always"
       xlink:href="#linearGradient4282"
       id="linearGradient4381"
       gradientUnits="userSpaceOnUse"
       gradientTransform="matrix(1.0003321,0,0,0.8353126,5.5611648,12.995522)"
       spreadMethod="pad"
       x1="838.96942"
       y1="92.582664"
       x2="838.96942"
       y2="72.653831" />
    <linearGradient
       inkscape:collect="always"
       xlink:href="#linearGradient4383"
       id="linearGradient4389"
       x1="127.03861"
       y1="33.192257"
       x2="146.46701"
       y2="59.528206"
       gradientUnits="userSpaceOnUse"
       gradientTransform="matrix(1.0038365,0,0,1.0087509,-0.8326067,9.3413915e-2)" />
    <filter
       inkscape:collect="always"
       id="filter4403"
       x="-0.01906541"
       width="1.0381308"
       y="-0.37763555"
       height="1.7552711">
      <feGaussianBlur
         inkscape:collect="always"
         stdDeviation="0.58558215"
         id="feGaussianBlur4405" />
    </filter>
    <linearGradient
       inkscape:collect="always"
       xlink:href="#linearGradient3420"
       id="linearGradient4424"
       gradientUnits="userSpaceOnUse"
       gradientTransform="matrix(0.9904174,0,0,1.0001961,4.6188109,-13.528036)"
       spreadMethod="reflect"
       x1="306"
       y1="155"
       x2="306"
       y2="137" />
    <linearGradient
       inkscape:collect="always"
       xlink:href="#linearGradient3420"
       id="linearGradient4434"
       gradientUnits="userSpaceOnUse"
       gradientTransform="matrix(0.9904174,0,0,1.0001961,4.6188109,-13.528036)"
       spreadMethod="reflect"
       x1="306"
       y1="155"
       x2="306"
       y2="137" />
    <linearGradient
       inkscape:collect="always"
       xlink:href="#linearGradient3420"
       id="linearGradient4444"
       gradientUnits="userSpaceOnUse"
       gradientTransform="matrix(0.9904174,0,0,1.0001961,4.6188109,-13.528036)"
       spreadMethod="reflect"
       x1="306"
       y1="155"
       x2="306"
       y2="137" />
    <linearGradient
       inkscape:collect="always"
       xlink:href="#linearGradient3420"
       id="linearGradient4456"
       gradientUnits="userSpaceOnUse"
       gradientTransform="matrix(0.9904174,0,0,1.0001961,4.6188109,-13.528036)"
       spreadMethod="reflect"
       x1="306"
       y1="155"
       x2="306"
       y2="137" />
    <linearGradient
       inkscape:collect="always"
       xlink:href="#linearGradient3420"
       id="linearGradient4470"
       gradientUnits="userSpaceOnUse"
       gradientTransform="matrix(0.9904174,0,0,1.0001961,4.6188109,-13.528036)"
       spreadMethod="reflect"
       x1="306"
       y1="155"
       x2="306"
       y2="137" />
  </defs>
  <sodipodi:namedview
     id="base"
     pagecolor="#ffffff"
     bordercolor="#ebebeb"
     borderopacity="1"
     gridtolerance="10000"
     guidetolerance="10"
     objecttolerance="10"
     inkscape:pageopacity="0.0"
     inkscape:pageshadow="2"
     inkscape:zoom="2"
     inkscape:cx="225.65402"
     inkscape:cy="478.59544"
     inkscape:document-units="px"
     inkscape:current-layer="g4462"
     showgrid="false"
     inkscape:window-width="1031"
     inkscape:window-height="775"
     inkscape:window-x="16"
     inkscape:window-y="840"
     showborder="false"
     showguides="true"
     inkscape:guide-bbox="true"
     inkscape:showpageshadow="false" />
  <metadata
     id="metadata7">
    <rdf:RDF>
      <cc:Work
         rdf:about="">
        <dc:format>image/svg+xml</dc:format>
        <dc:type
           rdf:resource="http://purl.org/dc/dcmitype/StillImage" />
      </cc:Work>
    </rdf:RDF>
  </metadata>
  <g
     inkscape:label="Layer 1"
     inkscape:groupmode="layer"
     id="layer1">
    <rect
       style="opacity:1;fill:url(#linearGradient3310);fill-opacity:1;stroke:none;stroke-width:0.79934263000000005;stroke-miterlimit:4;stroke-dasharray:none;stroke-opacity:1"
       id="rect4919"
       width="885.20062"
       height="83.200653"
       x="49.399666"
       y="-3.6003284"
       rx="0"
       ry="0" />
    <path
       style="fill:none;fill-rule:evenodd;stroke:#000000;stroke-width:0.10172123;stroke-linecap:butt;stroke-linejoin:miter;stroke-miterlimit:4;stroke-dasharray:none;stroke-opacity:1"
       d="M 55.064698,79.1875 L 932.9353,79.1875"
       id="path3320" />
    <rect
       style="fill:#666666;fill-opacity:1;stroke:none;stroke-width:1.32814956;stroke-miterlimit:4;stroke-dasharray:none;stroke-opacity:1;filter:url(#filter3900)"
       id="rect4253"
       width="663.32904"
       height="23.682529"
       x="189.25511"
       y="47.12719"
       rx="3.4259629"
       ry="0"
       transform="matrix(0.9998116,0,0,1.0316689,-0.8393361,-2.992467)" />
    <g
       style="fill:#564843;fill-opacity:1"
       transform="matrix(0.4590698,0,0,0.3579709,185.7508,17.976702)"
       id="g3298">
      <text
         id="text3904"
         y="38.820499"
         x="77.85051"
         style="font-size:50.9580307px;font-style:normal;font-weight:bold;fill:#564843;fill-opacity:1;stroke:none;stroke-width:1.45788825;stroke-linecap:butt;stroke-linejoin:miter;stroke-miterlimit:4;stroke-dasharray:none;stroke-opacity:1;font-family:Bitstream Vera Sans;-inkscape-font-specification:Bitstream Vera Sans Bold"
         xml:space="preserve"
         transform="scale(0.7979138,1.2532682)"><tspan
           y="38.820499"
           x="77.85051"
           id="tspan3906"
           sodipodi:role="line"
           style="font-size:50.9580307px;font-weight:bold;fill:#564843;fill-opacity:1;stroke:none;stroke-width:1.45788825;stroke-miterlimit:4;stroke-dasharray:none;stroke-opacity:1;-inkscape-font-specification:Bitstream Vera Sans Bold">sol genomics network</tspan></text>
    </g>
    <g
       id="g3334"
       transform="matrix(-0.7290307,2.2054749e-2,2.6826298e-2,0.8867572,387.98881,-170.99187)">
      <path
         id="path3298"
         d="M 324.65392,19.197183 C 312.11755,19.351641 299.77895,22.682297 289.41302,28.257369 C 277.41136,34.487398 267.08042,43.009458 260.76792,53.323598 C 255.3299,62.578167 253.8087,73.454708 257.70277,83.270368 C 261.87361,94.384133 271.40957,103.79636 282.69968,110.90965 C 297.81171,120.31433 315.92635,126.28275 334.52339,129.67623 C 350.678,132.6076 367.37492,133.52234 383.89782,132.72482 C 400.54932,131.87155 417.09705,129.15923 432.63692,124.27098 C 447.50209,119.47446 461.67427,112.72846 472.61816,103.27491 C 480.09737,96.783256 485.92347,88.919388 488.32087,80.262447 C 491.6743,68.088019 487.59544,54.794311 477.78424,45.116851 C 473.49419,41.114557 467.89721,38.128668 462.10629,35.671602 C 453.63833,32.172949 444.17867,30.632141 434.76908,29.798819 C 419.18894,28.264861 403.42835,28.437066 387.85458,26.837572 C 373.15105,25.609255 358.75259,22.859065 344.25714,20.646687 C 337.79387,19.730586 331.23099,19.045066 324.65392,19.197183 z"
         style="opacity:0.33999999;fill:#cccccc;fill-opacity:1;stroke:#f8f8f8;stroke-width:1.3656826;stroke-miterlimit:4;stroke-opacity:1" />
      <path
         style="opacity:0.33999999;fill:#cccccc;fill-opacity:1;stroke:#f8f8f8;stroke-width:1.24712288;stroke-miterlimit:4;stroke-opacity:1"
         d="M 328.80775,24.136063 C 317.3597,24.277112 306.09226,27.318622 296.62623,32.409702 C 285.66648,38.09888 276.23241,45.88111 270.46792,55.299842 C 265.50199,63.750989 264.11285,73.683299 267.66886,82.646827 C 271.47762,92.795766 280.18573,101.39088 290.4957,107.88664 C 304.2958,116.47487 320.83785,121.92515 337.82041,125.02403 C 352.57258,127.70092 367.81998,128.53625 382.90847,127.80796 C 398.1144,127.02877 413.22556,124.55191 427.41636,120.08803 C 440.99103,115.70791 453.93287,109.54756 463.92668,100.9147 C 470.7566,94.986613 476.07691,87.805435 478.26619,79.900034 C 481.32849,68.782512 477.60373,56.642878 468.64428,47.805552 C 464.72666,44.150712 459.61558,41.424038 454.32739,39.180279 C 446.59456,35.985357 437.95613,34.578312 429.36342,33.817333 C 415.13584,32.416544 400.74349,32.573799 386.52173,31.113163 C 373.09467,29.99148 359.94619,27.480044 346.70914,25.45973 C 340.80697,24.623159 334.81384,23.997152 328.80775,24.136063 z"
         id="path3303" />
      <path
         id="path3305"
         d="M 333.79234,30.062719 C 323.65028,30.187677 313.66823,32.882212 305.28209,37.392502 C 295.57263,42.432658 287.21479,49.327092 282.10792,57.671335 C 277.7085,65.158376 276.47783,73.957609 279.62817,81.898578 C 283.00243,90.889726 290.71712,98.50431 299.85093,104.25903 C 312.07671,111.86752 326.73165,116.69603 341.77684,119.44139 C 354.84608,121.8129 368.35406,122.55294 381.72125,121.90773 C 395.19249,121.21743 408.57977,119.02313 421.15169,115.06849 C 433.17776,111.18805 444.64319,105.73048 453.49691,98.082453 C 459.54767,92.830641 464.26104,86.468692 466.20057,79.465139 C 468.91352,69.615903 465.61368,58.861158 457.67633,51.031994 C 454.20563,47.794098 449.67762,45.378483 444.99271,43.390691 C 438.14204,40.560246 430.48908,39.313717 422.87662,38.63955 C 410.27213,37.398563 397.52166,37.537878 384.92231,36.243872 C 373.02701,35.25015 361.37851,33.025219 349.65154,31.235382 C 344.42269,30.494247 339.11326,29.939655 333.79234,30.062719 z"
         style="opacity:0.33999999;fill:#cccccc;fill-opacity:1;stroke:#f8f8f8;stroke-width:1.10485113;stroke-miterlimit:4;stroke-opacity:1" />
      <path
         style="opacity:0.33999999;fill:#cccccc;fill-opacity:1;stroke:#f8f8f8;stroke-width:1.01000333;stroke-miterlimit:4;stroke-opacity:1"
         d="M 337.1154,34.013823 C 327.844,34.128054 318.71888,36.591272 311.05266,40.714368 C 302.17673,45.321844 294.53638,51.624413 289.86792,59.252331 C 285.84617,66.096634 284.72115,74.140482 287.60105,81.399745 C 290.68564,89.619033 297.73805,96.57993 306.08775,101.84063 C 317.26399,108.79595 330.66085,113.20995 344.41446,115.71963 C 356.36175,117.88755 368.71011,118.56406 380.92977,117.97424 C 393.24455,117.3432 405.48258,115.33728 416.97524,111.72213 C 427.96891,108.17481 438.45007,103.18576 446.54373,96.194288 C 452.07505,91.393327 456.38379,85.57753 458.15682,79.175209 C 460.63687,70.171497 457.62032,60.340011 450.36436,53.182955 C 447.19161,50.223022 443.05231,48.014779 438.76959,46.197633 C 432.50702,43.610172 425.51105,42.470653 418.55209,41.854361 C 407.02965,40.719909 395.37377,40.847264 383.85603,39.664344 C 372.9819,38.75593 362.33339,36.722002 351.61314,35.085817 C 346.83317,34.408306 341.97954,33.901324 337.1154,34.013823 z"
         id="path3307" />
      <path
         id="path3309"
         d="M 339.96209,37.398524 C 331.43654,37.503566 323.0455,39.768627 315.996,43.560035 C 307.83411,47.796856 300.8084,53.592406 296.5155,60.606686 C 292.81728,66.90039 291.78277,74.297139 294.43099,80.972421 C 297.26743,88.530497 303.7525,94.931416 311.4305,99.768911 C 321.70765,106.1647 334.02678,110.22361 346.67397,112.5314 C 357.66014,114.52492 369.01512,115.147 380.25175,114.60463 C 391.57585,114.02436 402.82938,112.17981 413.3975,108.85548 C 423.50677,105.59353 433.14475,101.00583 440.58731,94.576797 C 445.67365,90.162056 449.63577,84.814119 451.26617,78.926841 C 453.54671,70.647445 450.77283,61.606866 444.10058,55.025569 C 441.18307,52.303752 437.37676,50.273154 433.43857,48.602191 C 427.6798,46.222882 421.24663,45.175033 414.84749,44.608319 C 404.25199,43.56513 393.53379,43.68224 382.94261,42.594481 C 372.94326,41.759146 363.15138,39.88884 353.29354,38.38428 C 348.8981,37.761272 344.43493,37.295075 339.96209,37.398524 z"
         style="opacity:0.33999999;fill:#cccccc;fill-opacity:1;stroke:#f8f8f8;stroke-width:0.92875224;stroke-miterlimit:4;stroke-opacity:1" />
    </g>
    <path
       style="opacity:0.33999999;fill:#cccccc;fill-opacity:1;stroke:#f8f8f8;stroke-width:1.15332055;stroke-miterlimit:4;stroke-opacity:1"
       d="M 416.9375,-149.0625 C 400.24793,-148.55098 383.61403,-146.38138 367.30428,-142.82456 C 351.0993,-139.20013 335.22518,-133.70967 320.74858,-125.49861 C 311.98961,-120.54196 303.75198,-114.72902 295.52491,-108.94926 C 290.10247,-105.03566 284.69976,-101.03988 279.8125,-96.46875 C 277.56976,-93.809144 277.14317,-89.188124 280.14631,-86.902169 C 284.24509,-83.169356 290.14921,-82.866828 295.41403,-82.875 C 310.02832,-83.085563 323.89224,-88.235444 338.07177,-91.132053 C 353.12722,-94.277001 368.45493,-96.173317 383.83889,-96.476498 C 397.86033,-96.98765 411.87156,-98.17274 425.71962,-100.45597 C 442.33102,-102.59814 459.19801,-103.56658 475.88648,-101.73372 C 488.3798,-100.20383 500.13297,-95.448487 512.26328,-92.358743 C 520.87767,-90.265756 529.68408,-88.808152 538.57001,-88.790213 C 545.52769,-88.646935 552.59842,-88.325901 559.44451,-89.790664 C 562.24861,-90.463508 565.10007,-93.099042 564.3125,-96.21875 C 563.0544,-99.891065 559.32201,-101.7681 556.24506,-103.71623 C 546.09746,-109.9928 535.05805,-114.58522 524.34116,-119.76477 C 513.57765,-124.8603 503.38274,-131.07596 492.52325,-135.97906 C 483.09072,-140.28469 473.16887,-143.58871 462.91193,-145.22595 C 454.21562,-146.77015 445.43105,-147.82937 436.62901,-148.53666 C 430.07928,-149.01783 423.50398,-149.24464 416.9375,-149.0625 z"
       id="path3293" />
    <image
       y="101.36218"
       x="16"
       id="image2392"
       height="722"
       width="934"
       sodipodi:absref="/crypt/rob/cxgn/core/sgn-tools/art/sgn2/pastedpic_08072009_125402.png"
       xlink:href="pastedpic_08072009_125402.png"
       sodipodi:insensitive="true" />
    <g
       id="g2563"
       transform="translate(-88,-10)">
      <rect
         y="108"
         x="63"
         height="540"
         width="145"
         id="rect2559"
         style="opacity:1;fill:#ffffff;fill-opacity:1;stroke:none;stroke-width:2;stroke-miterlimit:4;stroke-dasharray:none;stroke-opacity:1" />
      <image
         xlink:href="/crypt/rob/cxgn/curr/art/sgn2/snap17.png"
         sodipodi:absref="/crypt/rob/cxgn/curr/art/sgn2/snap17.png"
         width="753"
         height="690"
         id="image2555"
         x="195"
         y="94" />
    </g>
    <rect
       style="fill:url(#linearGradient3273);fill-opacity:1;stroke:#b1b1b1;stroke-width:0.84341574;stroke-miterlimit:4;stroke-dasharray:none;stroke-opacity:1"
       id="use4745"
       width="88.480721"
       height="23.978397"
       x="471.41425"
       y="44.509579"
       rx="0"
       ry="0" />
    <rect
       ry="0"
       rx="1.5967039"
       y="44.450443"
       x="541.79803"
       height="24.09668"
       width="308.74316"
       id="rect5091"
       style="fill:url(#linearGradient3260);fill-opacity:1;stroke:#b1b1b1;stroke-width:0.91399902;stroke-miterlimit:4;stroke-dasharray:none;stroke-opacity:1" />
    <g
       id="g4754"
       transform="matrix(0.9420984,0,0,0.9658046,5.399507,-22.891495)">
      <rect
         rx="6.0281987"
         y="74.082642"
         x="794.42584"
         height="16.85335"
         width="90.148338"
         id="rect3256"
         style="fill:url(#linearGradient4381);fill-opacity:1;stroke:#000000;stroke-width:0.80586869;stroke-miterlimit:4;stroke-dasharray:none;stroke-opacity:1"
         ry="5.0337591" />
      <path
         style="opacity:1;fill:#ffffff;fill-opacity:0.60956176;stroke:none;stroke-width:0.7687003;stroke-miterlimit:4;stroke-dasharray:none;stroke-opacity:1;filter:url(#filter4377)"
         d="M 755.5,48.65625 C 752.74703,48.65625 750.46531,50.311898 749.9375,52.53125 C 749.95812,52.5341 749.97938,52.528486 750,52.53125 C 755.8739,53.418777 761.78469,53.956186 767.65625,54.90625 C 772.58776,55.690068 777.51501,56.424023 782.46875,56.15625 C 790.73669,55.819623 799.01325,55.299174 807.28125,54.96875 C 813.50929,54.801733 819.74592,54.655876 825.96875,54.125 C 828.85885,53.765842 831.74666,53.511072 834.59375,52.46875 C 834.03634,50.283031 831.78771,48.656251 829.0625,48.65625 L 755.5,48.65625 z"
         transform="matrix(1.0379506,0,0,1.4978731,15.481827,3.400322)"
         id="rect4306" />
      <text
         xml:space="preserve"
         style="font-size:10.73327541px;font-style:normal;font-variant:normal;font-weight:normal;font-stretch:normal;fill:#000000;fill-opacity:1;stroke:none;stroke-width:1px;stroke-linecap:butt;stroke-linejoin:miter;stroke-opacity:1;font-family:Verdana;-inkscape-font-specification:Verdana"
         x="798.40228"
         y="86.898331"
         id="text3371"
         transform="scale(1.0125034,0.987651)"><tspan
           sodipodi:role="line"
           id="tspan3373"
           x="798.40228"
           y="86.898331"
           style="font-weight:bold">sol search</tspan></text>
    </g>
    <rect
       ry="6.3443556"
       rx="6.1019802"
       y="47.747704"
       x="553.72644"
       height="18.265356"
       width="193.94728"
       id="rect3391"
       style="fill:url(#linearGradient4748);fill-opacity:1;stroke:#000000;stroke-width:0.85339516;stroke-miterlimit:4;stroke-dasharray:none;stroke-opacity:1"
       inkscape:export-filename="/crypt/rob/cxgn/core/sgn-tools/art/sgn2/front6.png"
       inkscape:export-xdpi="90"
       inkscape:export-ydpi="90" />
    <text
       xml:space="preserve"
       style="font-size:17.55874443px;font-style:normal;font-weight:normal;fill:#000000;fill-opacity:1;stroke:none;stroke-width:1px;stroke-linecap:butt;stroke-linejoin:miter;stroke-opacity:1;font-family:Bitstream Vera Sans"
       x="639.49548"
       y="385.901"
       id="text4838"><tspan
         sodipodi:role="line"
         id="tspan4840"
         x="639.49548"
         y="385.901"
         style="font-weight:bold">Jobs</tspan></text>
    <rect
       style="fill:url(#linearGradient3283);fill-opacity:1;stroke:#b1b1b1;stroke-width:0.92678112;stroke-miterlimit:4;stroke-dasharray:none;stroke-opacity:1"
       id="use4743"
       width="106.47993"
       height="24.058699"
       x="365.0874"
       y="44.469433"
       rx="0"
       ry="0" />
    <text
       xml:space="preserve"
       style="font-size:15.70515347px;font-style:normal;font-weight:normal;fill:#000000;fill-opacity:1;stroke:none;stroke-width:1px;stroke-linecap:butt;stroke-linejoin:miter;stroke-opacity:1;font-family:Bitstream Vera Sans"
       x="369.28506"
       y="62.520588"
       id="text3282"
       transform="scale(1.0321933,0.9688107)"><tspan
         sodipodi:role="line"
         id="tspan3284"
         x="369.28506"
         y="62.520588">genomes</tspan></text>
    <text
       xml:space="preserve"
       style="font-size:15.70515347px;font-style:normal;font-weight:normal;fill:#000000;fill-opacity:1;stroke:none;stroke-width:1px;stroke-linecap:butt;stroke-linejoin:miter;stroke-opacity:1;font-family:Bitstream Vera Sans"
       x="474.13367"
       y="62.520588"
       id="text3286"
       transform="scale(1.0321933,0.9688107)"><tspan
         sodipodi:role="line"
         id="tspan3288"
         x="474.13367"
         y="62.520588">tools</tspan></text>
    <rect
       style="fill:url(#linearGradient3268);fill-opacity:1;stroke:#b1b1b1;stroke-width:0.88617641;stroke-miterlimit:4;stroke-dasharray:none;stroke-opacity:1"
       id="use5071"
       width="101.20262"
       height="24.121675"
       x="189.44331"
       y="44.437943"
       rx="1.3676029"
       ry="0" />
    <rect
       style="fill:url(#linearGradient3280);fill-opacity:1;stroke:#727272;stroke-width:0.96591395;stroke-miterlimit:4;stroke-dasharray:none;stroke-opacity:1"
       id="rect3939"
       width="75.567696"
       height="24.549065"
       x="290.61172"
       y="44.474251"
       rx="0"
       ry="0" />
    <text
       id="text3306"
       y="62.944084"
       x="207.30374"
       style="font-size:15.70515347px;font-style:normal;font-weight:normal;fill:#000000;fill-opacity:1;stroke:none;stroke-width:1px;stroke-linecap:butt;stroke-linejoin:miter;stroke-opacity:1;font-family:Bitstream Vera Sans"
       xml:space="preserve"
       transform="scale(1.0321933,0.9688107)"><tspan
         y="62.944084"
         x="207.30374"
         id="tspan3308"
         sodipodi:role="line">search</tspan></text>
    <text
       xml:space="preserve"
       style="font-size:13.21165562px;font-style:normal;font-variant:normal;font-weight:normal;font-stretch:normal;fill:#000000;fill-opacity:1;stroke:none;stroke-width:1px;stroke-linecap:butt;stroke-linejoin:miter;stroke-opacity:1;font-family:Times New Roman;-inkscape-font-specification:'Times New Roman,'"
       x="548.03375"
       y="62.81155"
       id="text3766"
       transform="scale(1.0321933,0.9688107)"><tspan
         sodipodi:role="line"
         id="tspan3768"
         x="548.03375"
         y="62.81155">TG124</tspan></text>
    <g
       id="g4411">
      <rect
         ry="0"
         rx="0"
         y="117.49765"
         x="120.49765"
         height="24.004705"
         width="723.0047"
         id="rect2648"
         style="opacity:1;fill:url(#linearGradient3426);fill-opacity:1;stroke:#757575;stroke-width:0.99529469;stroke-miterlimit:4;stroke-dasharray:none;stroke-opacity:1" />
      <text
         id="text2502"
         y="134"
         x="125.5"
         style="font-size:10px;font-style:normal;font-weight:normal;fill:#000000;fill-opacity:1;stroke:none;stroke-width:1px;stroke-linecap:butt;stroke-linejoin:miter;stroke-opacity:1;font-family:Bitstream Vera Sans"
         xml:space="preserve"><tspan
           style="font-size:14px;font-weight:bold"
           y="134"
           x="125.5"
           id="tspan2504"
           sodipodi:role="line">Locus details</tspan></text>
    </g>
    <rect
       style="fill:#808080;fill-opacity:1;stroke:none;stroke-width:0.87761354000000003;stroke-miterlimit:4;stroke-dasharray:none;stroke-opacity:1;filter:url(#filter4112)"
       id="rect4102"
       width="93.997414"
       height="41.287106"
       x="752.56384"
       y="-14.936192"
       rx="3.2513416"
       ry="6.814322"
       transform="matrix(2.1529573,0,0,1.0272482,-974.79895,0.4069845)" />
    <rect
       ry="7"
       rx="7"
       y="-15.561192"
       x="646.65686"
       height="41.287106"
       width="199.59317"
       id="rect2515"
       style="fill:url(#linearGradient3361);fill-opacity:1;stroke:none;stroke-width:0.87761354;stroke-miterlimit:4;stroke-dasharray:none;stroke-opacity:1" />
    <g
       transform="translate(0,-112)"
       id="g2585">
      <rect
         style="opacity:1;fill:#f2f2f2;fill-opacity:1;stroke:#d7d7d7;stroke-width:1.1102587;stroke-miterlimit:4;stroke-dasharray:none;stroke-opacity:1"
         id="rect2587"
         width="202.88974"
         height="65.889748"
         x="647.55511"
         y="-25.44487"
         rx="0"
         ry="0" />
      <rect
         ry="0"
         rx="0"
         y="-25.561192"
         x="647.43878"
         height="41.122391"
         width="203.12239"
         id="rect2589"
         style="opacity:1;fill:#ececec;fill-opacity:1;stroke:#d7d7d7;stroke-width:0.87761348;stroke-miterlimit:4;stroke-dasharray:none;stroke-opacity:1" />
      <text
         id="text2591"
         y="9.4706192"
         x="672.04486"
         style="font-size:10.759758px;font-style:normal;font-weight:normal;fill:#000000;fill-opacity:1;stroke:none;stroke-width:1px;stroke-linecap:butt;stroke-linejoin:miter;stroke-opacity:1;font-family:Bitstream Vera Sans"
         xml:space="preserve"
         transform="scale(0.9837497,1.0165187)"><tspan
           y="9.4706192"
           x="672.04486"
           id="tspan2593"
           sodipodi:role="line"
           style="font-size:11.68748951px;font-style:normal;font-variant:normal;font-weight:normal;font-stretch:normal;text-align:start;line-height:125%;writing-mode:lr-tb;text-anchor:start;font-family:Arial Black;-inkscape-font-specification:'Arial Black,'">Robert Buels:</tspan></text>
      <text
         xml:space="preserve"
         style="font-size:11.75346851px;font-style:normal;font-weight:normal;fill:#000000;fill-opacity:1;stroke:none;stroke-width:1px;stroke-linecap:butt;stroke-linejoin:miter;stroke-opacity:1;font-family:Bitstream Vera Sans"
         x="670.96179"
         y="30.675552"
         id="text2595"
         transform="scale(0.9837497,1.0165187)"><tspan
           style="font-weight:bold;fill:#000000;fill-opacity:1;stroke:none;stroke-opacity:1"
           sodipodi:role="line"
           id="tspan2597"
           x="670.96179"
           y="30.675552">MySGN    |   Data   |   Hotlist</tspan></text>
      <text
         transform="scale(0.9837497,1.0165187)"
         id="text2599"
         y="9.0330524"
         x="812.2572"
         style="font-size:11.75346851px;font-style:normal;font-weight:normal;fill:#000000;fill-opacity:1;stroke:none;stroke-width:1px;stroke-linecap:butt;stroke-linejoin:miter;stroke-opacity:1;font-family:Bitstream Vera Sans"
         xml:space="preserve"><tspan
           y="9.0330524"
           x="812.2572"
           id="tspan2601"
           sodipodi:role="line"
           style="font-weight:bold;fill:#000000;fill-opacity:1;stroke:none;stroke-opacity:1">logout</tspan></text>
    </g>
    <g
       id="g2651"
       transform="translate(0,-22)">
      <rect
         ry="0"
         rx="0"
         y="-195.43658"
         x="647.56335"
         height="67.873199"
         width="202.8732"
         id="rect2605"
         style="fill:#cccccc;fill-opacity:1;stroke:#8e8e8e;stroke-width:1.1267997;stroke-miterlimit:4;stroke-dasharray:none;stroke-opacity:1" />
      <g
         transform="translate(-128,84)"
         id="g2635">
        <g
           id="g4897"
           transform="matrix(1.0836124,0,0,1,22.407185,-267.5)">
          <rect
             ry="5.2931237"
             rx="4.8753333"
             y="35"
             x="761"
             height="16"
             width="54.605263"
             id="rect4889"
             style="opacity:1;fill:#666666;fill-opacity:1;stroke:#000000;stroke-width:1;stroke-miterlimit:4;stroke-dasharray:none;stroke-opacity:1" />
          <text
             transform="scale(0.9874685,1.0126906)"
             id="text3405"
             y="45.283722"
             x="782.25195"
             style="font-size:9.87468433px;font-style:normal;font-weight:normal;fill:#ffffff;fill-opacity:1;stroke:none;stroke-width:1px;stroke-linecap:butt;stroke-linejoin:miter;stroke-opacity:1;font-family:Bitstream Vera Sans"
             xml:space="preserve"><tspan
               style="font-weight:bold"
               y="45.283722"
               x="782.25195"
               id="tspan3407"
               sodipodi:role="line">log in</tspan></text>
        </g>
        <path
           style="opacity:0.26000001;fill:#f1efef;fill-opacity:1;stroke:none;stroke-width:2;stroke-miterlimit:4;stroke-opacity:1"
           d="M 844.9375,-236.34375 C 843.54519,-236.2301 841.99228,-235.67022 841.38272,-234.30745 C 840.64815,-232.95287 841.01323,-231.1513 842.15545,-230.13032 C 843.30445,-229.03604 844.82119,-228.34144 846.40625,-228.21875 C 850.69889,-227.63751 854.97506,-226.94773 859.25,-226.25 C 861.79146,-225.88272 864.35359,-225.69182 866.92101,-225.6642 C 872.51672,-225.49944 878.11589,-225.39197 883.71378,-225.41639 C 886.51997,-225.54165 889.32089,-225.74929 892.11167,-226.071 C 895.25331,-226.38452 898.3917,-226.72906 901.53125,-227.0625 C 902.94501,-227.35108 904.15714,-228.22967 905.04867,-229.3416 C 905.98626,-230.37471 906.58261,-231.87277 906.125,-233.25 C 905.83385,-234.31354 904.98869,-235.19342 903.94179,-235.54204 C 902.5445,-236.1085 901.04421,-235.68053 899.59557,-235.72631 C 896.74435,-235.62338 893.90524,-235.30375 891.05186,-235.23128 C 885.15435,-234.85001 879.24167,-235.09833 873.34389,-235.33814 C 864.03135,-235.68376 854.7188,-236.02938 845.40625,-236.375 C 845.25,-236.36458 845.09375,-236.35417 844.9375,-236.34375 z"
           id="rect3252" />
      </g>
      <rect
         ry="0"
         rx="0"
         y="-189.5"
         x="703.30621"
         height="16"
         width="136.21748"
         id="rect4885"
         style="fill:#ffffff;fill-opacity:1;stroke:#2d2d2d;stroke-width:1.02792203;stroke-miterlimit:4;stroke-dasharray:none;stroke-opacity:1" />
      <rect
         style="fill:#ffffff;fill-opacity:1;stroke:#2d2d2d;stroke-width:1.02792203;stroke-miterlimit:4;stroke-dasharray:none;stroke-opacity:1"
         id="rect3403"
         width="113.21748"
         height="16"
         x="725.94904"
         y="-169.5"
         rx="0"
         ry="0" />
      <text
         transform="scale(1.0444927,0.9574025)"
         xml:space="preserve"
         style="font-size:10.44492722px;font-style:normal;font-weight:normal;fill:#000000;fill-opacity:1;stroke:none;stroke-width:1px;stroke-linecap:butt;stroke-linejoin:miter;stroke-opacity:1;font-family:Bitstream Vera Sans"
         x="628.89008"
         y="-165.02985"
         id="text3429"><tspan
           sodipodi:role="line"
           id="tspan3431"
           x="628.89008"
           y="-165.02985"
           style="font-weight:bold">password:</tspan></text>
      <text
         transform="scale(1.0444927,0.9574025)"
         id="text4881"
         y="-185.91969"
         x="629.39148"
         style="font-size:10.44492722px;font-style:normal;font-weight:normal;fill:#000000;fill-opacity:1;stroke:none;stroke-width:1px;stroke-linecap:butt;stroke-linejoin:miter;stroke-opacity:1;font-family:Bitstream Vera Sans"
         xml:space="preserve"><tspan
           style="font-weight:bold"
           y="-185.91969"
           x="629.39148"
           id="tspan4883"
           sodipodi:role="line">email:</tspan></text>
      <text
         xml:space="preserve"
         style="font-size:10px;font-style:normal;font-weight:normal;fill:#000000;fill-opacity:1;stroke:none;stroke-width:1px;stroke-linecap:butt;stroke-linejoin:miter;stroke-opacity:1;font-family:Bitstream Vera Sans"
         x="795"
         y="-133"
         id="text5840"><tspan
           sodipodi:role="line"
           id="tspan5842"
           x="795"
           y="-133">(X) Cancel</tspan></text>
      <path
         style="fill:none;fill-rule:evenodd;stroke:#000000;stroke-width:1px;stroke-linecap:butt;stroke-linejoin:miter;stroke-opacity:1"
         d="M 795.56249,-131.5 L 848.18744,-131.5"
         id="path2530" />
    </g>
    <g
       id="g2526"
       transform="matrix(1.3727515,0,0,1.3727515,-326.62517,-94.999765)" />
    <rect
       y="47.154533"
       x="291.1875"
       height="3.72157"
       width="73.7145"
       id="rect3264"
       style="opacity:0.54000005;fill:#ffffff;fill-opacity:1;stroke:none;stroke-width:2;stroke-miterlimit:4;stroke-dasharray:none;stroke-opacity:1;filter:url(#filter4403)"
       transform="matrix(1,0,0,1.8061114,0,-27.011806)" />
    <text
       xml:space="preserve"
       style="font-size:15.70515347000000084px;font-style:normal;font-weight:normal;fill:#000000;fill-opacity:1;stroke:none;stroke-width:1px;stroke-linecap:butt;stroke-linejoin:miter;stroke-opacity:1;font-family:Bitstream Vera Sans"
       x="298.4314"
       y="62.520588"
       id="text3278"
       transform="scale(1.0321933,0.9688107)"><tspan
         sodipodi:role="line"
         id="tspan3280"
         x="298.4314"
         y="62.520588">maps</tspan></text>
    <g
       id="g3892"
       transform="matrix(1.1343809,0,0,1.1343809,-0.8412817,-2.084213)">
      <path
         sodipodi:type="arc"
         style="opacity:1;fill:#c4c4c4;fill-opacity:1;stroke:none;stroke-width:0.87317944;stroke-miterlimit:4;stroke-dasharray:none;stroke-opacity:1;filter:url(#filter4094)"
         id="path3924"
         sodipodi:cx="149.25"
         sodipodi:cy="66.625"
         sodipodi:rx="21.25"
         sodipodi:ry="4.625"
         d="M 170.5,66.625 A 21.25,4.625 0 1 1 128,66.625 A 21.25,4.625 0 1 1 170.5,66.625 z"
         transform="matrix(1.0708096,0,0,0.3812056,-28.003002,38.587922)" />
      <path
         sodipodi:nodetypes="ccsccccsccsccccccccccccccccccccccccccccsccscccccccccccccccccccccccccccccccccsccscccccccccccccccccccccccccccccccccccccccccccccccccccccccccccccccccccccccccccccccccccccccccscccsccccccccccccccccccccccccccccccccccccccccccccccccccccccccccccccccccccccccccccccccccccccccccsccsccccccccccccccccccccccccccccccccccccccsccscccccccccccccccccccccccsccsccccccc"
         id="path2187"
         d="M 127.84393,14.729807 L 128.18228,19.778046 C 128.24133,19.777833 128.30025,19.773763 128.35929,19.774061 C 128.93989,19.777002 129.51816,19.805231 130.0942,19.857735 L 129.74409,14.801526 C 129.11355,14.754022 128.47848,14.729735 127.84393,14.729807 z M 120.86495,15.725906 C 120.29303,15.893931 119.72471,16.083995 119.16151,16.295679 C 119.12993,16.307546 119.0986,16.319557 119.06709,16.331535 L 121.14819,21.084931 C 121.29643,21.028239 121.44639,20.971227 121.59669,20.917586 C 122.0491,20.756128 122.50379,20.613855 122.96181,20.487271 L 120.86495,15.725906 z M 136.32573,16.192083 L 134.98028,20.921571 C 135.58325,21.133656 136.17559,21.374187 136.75454,21.642748 L 138.09606,16.897324 C 137.51588,16.639677 136.92455,16.405091 136.32573,16.192083 z M 112.61134,19.913517 C 112.1053,20.297565 111.61425,20.699534 111.14,21.116807 L 114.77507,24.941833 C 115.25331,24.520419 115.75145,24.117795 116.27,23.738544 L 112.61134,19.913517 z M 143.59582,20.272114 L 140.79871,24.160892 C 141.29578,24.564704 141.77187,24.9963 142.22678,25.451839 L 145.02783,21.539154 C 144.56772,21.095909 144.08881,20.674768 143.59582,20.272114 z M 128.32782,21.901735 L 128.59927,25.906059 C 129.245,25.904677 129.88642,25.947923 130.52302,26.033562 L 130.24371,22.013297 C 129.60942,21.943375 128.96892,21.904405 128.32782,21.901735 z M 155.36252,22.001345 L 150.62203,25.228712 C 150.94593,25.776241 151.25003,26.338871 151.53473,26.918099 L 156.27917,23.670809 C 155.98999,23.104869 155.68559,22.548871 155.36252,22.001345 z M 123.82729,22.455566 C 123.31107,22.587836 122.80001,22.744781 122.29302,22.925725 C 122.19547,22.960541 122.09849,22.997045 122.0019,23.033305 L 123.65813,26.822474 C 123.86306,26.744726 124.06921,26.668789 124.27969,26.599347 C 124.68405,26.46595 125.09168,26.35112 125.50318,26.256689 L 123.82729,22.455566 z M 134.39412,22.973539 L 133.33193,26.706925 C 133.94224,26.921355 134.53718,27.179117 135.1101,27.475915 L 136.16836,23.718622 C 135.59196,23.43796 134.99877,23.190882 134.39412,22.973539 z M 117.74526,25.288478 C 117.21923,25.660976 116.71631,26.059535 116.2346,26.479816 L 119.14186,29.539839 C 119.62498,29.116176 120.13563,28.71822 120.67613,28.35647 L 117.74526,25.288478 z M 139.55951,25.886138 L 137.36037,28.942177 C 137.86194,29.348393 138.33539,29.795249 138.77269,30.276952 L 140.97184,27.200993 C 140.52478,26.735633 140.05538,26.293839 139.55951,25.886138 z M 148.87529,26.42005 L 145.01209,29.049756 C 145.33676,29.600828 145.63574,30.17605 145.90512,30.771018 L 149.77619,28.121389 C 149.49746,27.536978 149.19767,26.970009 148.87529,26.42005 z M 106.14379,26.973879 C 105.80231,27.510202 105.47749,28.057072 105.17209,28.615456 L 109.96766,30.994145 C 110.27452,30.431773 110.60298,29.882938 110.95512,29.348585 L 106.14379,26.973879 z M 128.7409,28.033734 L 128.9376,30.92641 C 129.5904,30.919022 130.24127,30.980769 130.87709,31.109691 L 130.67645,28.209046 C 130.03885,28.099569 129.39206,28.039931 128.7409,28.033734 z M 126.37655,28.244905 C 125.89,28.338476 125.40848,28.462498 124.93275,28.61944 C 124.78968,28.66664 124.64802,28.715113 124.50785,28.766862 L 125.72741,31.551961 C 125.99593,31.448151 126.27049,31.354694 126.55358,31.273054 C 126.90137,31.172748 127.25281,31.094688 127.60789,31.037972 L 126.37655,28.244905 z M 132.74575,28.75491 L 131.99041,31.412505 C 132.61119,31.622361 133.20799,31.897404 133.76467,32.237277 L 134.52001,29.567727 C 133.95416,29.247682 133.35982,28.977376 132.74575,28.75491 z M 122.16712,29.918354 C 121.61352,30.265587 121.08957,30.652353 120.60136,31.073833 L 122.76903,33.356896 C 123.25348,32.926626 123.78255,32.541188 124.35444,32.209388 L 122.16712,29.918354 z M 143.26536,30.237107 L 140.25583,32.289076 C 140.58375,32.843207 140.87316,33.427495 141.11739,34.046199 L 144.13873,31.978292 C 143.88023,31.373676 143.58822,30.792558 143.26536,30.237107 z M 112.86707,30.288906 C 112.50621,30.820064 112.17484,31.371407 111.86387,31.934463 L 115.71137,33.842993 C 116.02262,33.274728 116.36252,32.723967 116.73816,32.197435 L 112.86707,30.288906 z M 136.11722,30.663438 L 134.579,32.803063 C 135.09234,33.207012 135.55943,33.673011 135.9638,34.197607 L 137.50594,32.042045 C 137.08481,31.538929 136.61976,31.07728 136.11722,30.663438 z M 159.08019,31.922511 L 153.6473,33.281192 C 153.76299,33.915594 153.85449,34.551694 153.91875,35.189723 L 159.35952,33.815104 C 159.28728,33.183148 159.19351,32.55147 159.08019,31.922511 z M 118.66583,33.149708 C 118.2751,33.667556 117.92089,34.211141 117.60363,34.779328 L 120.51089,36.221682 C 120.82294,35.645296 121.18707,35.101209 121.59669,34.592062 L 118.66583,33.149708 z M 126.86044,33.404709 C 126.76591,33.435803 126.67353,33.46988 126.58112,33.504319 L 126.60471,33.552133 C 126.68885,33.50136 126.77423,33.452235 126.86044,33.404709 z M 138.51306,33.472445 L 136.43587,34.886907 C 136.77237,35.437654 137.04873,36.037934 137.2463,36.691843 L 139.33135,35.265426 C 139.11176,34.629827 138.83782,34.032079 138.51306,33.472445 z M 151.60158,33.795182 L 147.19942,34.898859 C 147.31563,35.5409 147.39582,36.18477 147.43938,36.831296 L 151.85337,35.715664 C 151.798,35.073769 151.71399,34.433516 151.60158,33.795182 z M 125.88085,33.807134 C 125.28028,34.102741 124.73,34.470411 124.23643,34.898859 L 124.61015,35.293317 C 125.01952,34.786825 125.49194,34.333127 126.01462,33.946589 L 125.88085,33.807134 z M 145.16157,35.412848 L 141.75863,36.265511 C 141.87874,36.913208 141.94442,37.568202 141.95532,38.221854 L 145.36614,37.357238 C 145.33875,36.707919 145.27242,36.058238 145.16157,35.412848 z M 123.55977,35.560272 C 123.11743,36.046248 122.73377,36.588309 122.41104,37.165988 L 123.32372,37.616225 C 123.53893,36.993542 123.83138,36.40881 124.18923,35.871056 L 123.55977,35.560272 z M 102.3081,36.118089 C 102.16252,36.739875 102.04071,37.367403 101.93436,37.998727 L 107.35941,38.584434 C 107.46548,37.949244 107.59382,37.318791 107.74886,36.695826 L 102.3081,36.118089 z M 139.72079,36.775514 L 137.51381,37.329347 C 137.7488,37.928572 137.91472,38.563949 137.99374,39.225924 L 139.85062,38.755765 C 139.87415,38.096587 139.83342,37.431696 139.72079,36.775514 z M 109.86932,36.918954 C 109.70478,37.542453 109.56671,38.173818 109.45625,38.811545 L 113.8309,39.285689 C 113.93958,38.642897 114.08176,38.00518 114.2597,37.381144 L 109.86932,36.918954 z M 116.39196,37.608256 C 116.19727,38.229701 116.03921,38.863973 115.9238,39.508817 L 119.26773,39.871398 C 119.37602,39.220852 119.53911,38.582306 119.75164,37.962867 L 116.39196,37.608256 z M 121.91536,38.193964 C 121.66732,38.804318 121.48417,39.443186 121.36457,40.098507 L 122.89885,40.265854 C 122.89824,40.226169 122.89885,40.186152 122.89885,40.146322 C 122.89885,39.51556 122.9732,38.904013 123.11522,38.317479 L 121.91536,38.193964 z M 138.0449,39.919209 C 138.04712,39.994995 138.04882,40.069977 138.04882,40.146322 C 138.04882,40.734964 137.98421,41.308994 137.85999,41.859615 L 139.17396,41.999069 C 139.41601,41.388409 139.5987,40.752714 139.71292,40.098507 L 138.0449,39.919209 z M 141.8019,40.325618 C 141.69788,40.97437 141.54132,41.6116 141.33377,42.230166 L 144.69343,42.584777 C 144.88443,41.96444 145.03757,41.3314 145.14976,40.6882 L 141.8019,40.325618 z M 147.24267,40.915312 C 147.1368,41.556501 146.99651,42.189076 146.82174,42.811889 L 151.21212,43.27408 C 151.37416,42.651711 151.50911,42.021823 151.61732,41.385471 L 147.24267,40.915312 z M 122.94607,41.002969 L 121.21113,41.441254 C 121.18272,42.100301 121.22156,42.764438 121.32918,43.4215 L 123.40634,42.899543 C 123.17804,42.300225 123.01897,41.6639 122.94607,41.002969 z M 153.71416,41.612581 C 153.61006,42.24756 153.4856,42.878276 153.33258,43.50119 L 158.7694,44.074943 C 158.91307,43.454182 159.03461,42.828452 159.13921,42.198288 L 153.71416,41.612581 z M 119.10644,41.975162 L 115.6917,42.839777 C 115.71622,43.48881 115.78057,44.138728 115.8884,44.784169 L 119.29134,43.931505 C 119.17528,43.283288 119.11343,42.628711 119.10644,41.975162 z M 137.67116,42.536962 C 137.46761,43.164128 137.18467,43.757866 136.83713,44.302056 L 137.54922,44.652682 C 137.98825,44.161872 138.36744,43.620816 138.68614,43.038998 L 137.67116,42.536962 z M 113.61451,43.365719 L 109.20447,44.481354 C 109.25784,45.122864 109.33811,45.763728 109.44839,46.401836 L 113.84664,45.298155 C 113.73324,44.656124 113.65541,44.012 113.61451,43.365719 z M 123.70139,43.580876 L 121.71076,44.943545 C 121.92686,45.581591 122.19546,46.182401 122.51726,46.744495 L 124.59442,45.330032 C 124.37131,44.958217 124.17432,44.56527 124.0122,44.146664 C 123.90123,43.963323 123.79722,43.773881 123.70139,43.580876 z M 140.58235,43.983302 C 140.2742,44.561341 139.91801,45.109314 139.5123,45.620892 L 142.43529,47.063248 C 142.82384,46.543168 143.1747,45.995795 143.48961,45.425655 L 140.58235,43.983302 z M 136.43195,44.879793 C 136.03252,45.394466 135.56956,45.853741 135.05503,46.250426 L 135.23598,46.437696 C 135.83043,46.139228 136.37245,45.767212 136.86074,45.338 L 136.43195,44.879793 z M 107.13517,45.007295 L 101.6944,46.381914 C 101.76506,47.013866 101.85804,47.645463 101.96977,48.274507 L 107.39876,46.91184 C 107.28535,46.278601 107.19737,45.644007 107.13517,45.007295 z M 125.07438,46.039254 L 123.52831,48.198802 C 123.94672,48.70224 124.41329,49.162773 124.91308,49.577404 L 126.45128,47.441764 C 125.93949,47.035092 125.4765,46.566618 125.07438,46.039254 z M 119.92473,46.162772 L 116.89946,48.230678 C 117.15564,48.83621 117.44434,49.419338 117.76492,49.975847 L 120.77449,47.927863 C 120.44907,47.371812 120.16612,46.783349 119.92473,46.162772 z M 145.38583,46.365976 C 145.0766,46.93585 144.73279,47.483191 144.35903,48.011534 L 148.23013,49.92405 C 148.58996,49.390915 148.92359,48.839486 149.23331,48.274507 L 145.38583,46.365976 z M 134.47279,46.660824 C 134.32805,46.752175 134.17929,46.838281 134.02825,46.919809 C 134.19253,46.870039 134.35399,46.81214 134.51213,46.752462 L 134.47279,46.660824 z M 138.32815,46.879966 C 137.84738,47.311091 137.3223,47.697736 136.75454,48.031458 L 138.93792,50.318505 C 139.48898,49.969735 140.01002,49.581576 140.49581,49.159045 L 138.32815,46.879966 z M 127.28137,48.023487 L 126.52997,50.69304 C 127.09221,51.011698 127.68234,51.283633 128.29242,51.505858 L 129.05169,48.852244 C 128.43275,48.641388 127.83615,48.363746 127.28137,48.023487 z M 135.36582,48.704821 C 135.08739,48.813572 134.80237,48.910845 134.5082,48.995681 C 134.1704,49.093104 133.82617,49.166503 133.48142,49.222795 L 134.71277,52.01586 C 135.1901,51.922848 135.66219,51.799322 136.12903,51.645311 C 136.28173,51.594934 136.43209,51.541494 136.58145,51.485935 L 135.36582,48.704821 z M 130.1847,49.159045 L 130.38926,52.05969 C 131.02682,52.168747 131.67372,52.225175 132.32481,52.231018 L 132.12812,49.342328 C 131.47427,49.349937 130.82154,49.288185 130.1847,49.159045 z M 151.12952,49.214824 C 150.82386,49.779012 150.49319,50.328152 150.14207,50.864368 L 154.95339,53.239074 C 155.2939,52.70155 155.61684,52.153048 155.92117,51.593513 L 151.12952,49.214824 z M 115.12913,49.441938 L 111.25804,52.091564 C 111.5353,52.676726 111.838,53.242116 112.15893,53.792904 L 116.01429,51.167182 C 115.69147,50.614901 115.39654,50.038052 115.12913,49.441938 z M 122.26546,49.963895 L 120.0624,53.035869 C 120.50892,53.502938 120.97911,53.945398 121.47473,54.354706 L 123.67387,51.302652 C 123.17279,50.894818 122.70193,50.447354 122.26546,49.963895 z M 141.95532,50.697024 C 141.4744,51.121368 140.9671,51.517552 140.42891,51.880392 L 143.35585,54.948384 C 143.88075,54.57468 144.38205,54.174422 144.8626,53.753061 L 141.95532,50.697024 z M 125.93593,52.78485 L 124.87767,56.538161 C 125.45318,56.819098 126.04424,57.069455 126.648,57.28723 L 127.71019,53.549857 C 127.10154,53.335152 126.50723,53.081542 125.93593,52.78485 z M 109.49952,53.294856 L 104.75113,56.542145 C 105.03857,57.10795 105.34639,57.664137 105.66776,58.21161 L 110.40828,54.984244 C 110.08596,54.437165 109.78264,53.873607 109.49952,53.294856 z M 137.43513,53.430323 C 137.21997,53.512497 137.00337,53.592399 136.78207,53.665404 C 136.38688,53.795781 135.9882,53.906918 135.58612,54.000095 L 137.26203,57.801215 C 137.76878,57.670479 138.2709,57.516708 138.76877,57.339024 C 138.8769,57.300434 138.9844,57.259859 139.09136,57.219492 L 137.43513,53.430323 z M 130.53875,54.231189 L 130.82202,58.251454 C 131.45632,58.321243 132.09676,58.360486 132.73788,58.363017 L 132.46643,54.358691 C 131.81939,54.360376 131.17663,54.316851 130.53875,54.231189 z M 118.80745,54.789008 L 116.00641,58.697707 C 116.46542,59.141476 116.94257,59.565456 117.43446,59.968734 L 120.23553,56.079953 C 119.73942,55.675267 119.26131,55.245364 118.80745,54.789008 z M 146.32606,55.295027 C 145.84957,55.716895 145.35174,56.118393 144.83505,56.498318 L 148.48977,60.323345 C 148.99508,59.938303 149.48762,59.538272 149.9611,59.120054 L 146.32606,55.295027 z M 124.29151,58.614036 L 122.95,63.359459 C 123.52887,63.617125 124.11887,63.855476 124.71637,64.068684 L 126.06182,59.339197 C 125.45953,59.126704 124.86976,58.882905 124.29151,58.614036 z M 139.94503,59.17185 C 139.78654,59.232755 139.62595,59.293737 139.46509,59.351149 C 139.02176,59.509374 138.57617,59.645954 138.12752,59.769512 L 140.22827,64.534859 C 140.78972,64.369129 141.34729,64.180898 141.90025,63.973058 C 141.94238,63.957231 141.98416,63.94127 142.02616,63.925245 L 139.94503,59.17185 z M 130.97151,60.411001 L 131.32556,65.467209 C 131.95481,65.5145 132.58855,65.539031 133.22178,65.538929 L 132.88344,60.494673 C 132.24424,60.497235 131.60542,60.468511 130.97151,60.411001 z"
         style="opacity:1;fill:url(#linearGradient4389);fill-opacity:1;stroke:none;stroke-width:13.94999981;stroke-miterlimit:4;stroke-dasharray:none;stroke-opacity:1" />
      <path
         style="opacity:1;fill:url(#linearGradient3373);fill-opacity:1;stroke:none;stroke-width:13.94999981;stroke-miterlimit:4;stroke-dasharray:none;stroke-opacity:1"
         d="M 128.34503,15.374999 L 128.67982,20.307335 C 128.73827,20.307126 128.79657,20.30315 128.855,20.303442 C 129.42952,20.306315 130.00176,20.333896 130.57178,20.385194 L 130.22531,15.445072 C 129.60136,15.39866 128.97293,15.374929 128.34503,15.374999 z M 121.43897,16.34823 C 120.87301,16.512396 120.31065,16.698096 119.75334,16.904919 C 119.72209,16.916516 119.69109,16.928249 119.65991,16.939955 L 121.71927,21.584215 C 121.86595,21.528824 122.01434,21.473121 122.16306,21.420712 C 122.61073,21.262961 123.0607,21.123954 123.51391,21.000276 L 121.43897,16.34823 z M 136.73817,16.803702 L 135.40679,21.424605 C 136.00346,21.631822 136.58959,21.866828 137.1625,22.129224 L 138.48999,17.49275 C 137.91589,17.241021 137.33074,17.011821 136.73817,16.803702 z M 113.27162,20.439695 C 112.77088,20.814927 112.28494,21.207667 111.81566,21.615358 L 115.41273,25.352567 C 115.88598,24.940826 116.37891,24.547445 116.89204,24.176903 L 113.27162,20.439695 z M 143.9323,20.790058 L 141.16443,24.589553 C 141.6563,24.984095 142.12741,25.405782 142.57756,25.850861 L 145.34932,22.028008 C 144.89403,21.594941 144.42013,21.183469 143.9323,20.790058 z M 128.82385,22.382265 L 129.09247,26.294654 C 129.73144,26.293303 130.36616,26.335557 130.99611,26.419228 L 130.71971,22.491267 C 130.09206,22.42295 129.45825,22.384874 128.82385,22.382265 z M 155.57604,22.479588 L 150.88506,25.632857 C 151.2056,26.167815 151.5065,26.717527 151.78822,27.283457 L 156.48309,24.110723 C 156.19694,23.557775 155.89572,23.014543 155.57604,22.479588 z M 124.37035,22.923381 C 123.85953,23.052614 123.3538,23.205955 122.85211,23.382746 C 122.75558,23.416761 122.65961,23.452428 122.56403,23.487855 L 124.20295,27.190027 C 124.40575,27.114066 124.60974,27.039871 124.81803,26.972023 C 125.21816,26.84169 125.62152,26.729497 126.02873,26.637232 L 124.37035,22.923381 z M 134.82675,23.429462 L 133.77566,27.077132 C 134.37959,27.286637 134.96833,27.538483 135.53526,27.828467 L 136.58245,24.157438 C 136.01207,23.88322 135.42509,23.641815 134.82675,23.429462 z M 118.35188,25.691251 C 117.83135,26.055197 117.33368,26.444606 116.857,26.855236 L 119.73387,29.845003 C 120.21196,29.431068 120.71728,29.042249 121.25212,28.688804 L 118.35188,25.691251 z M 139.93816,26.27519 L 137.76201,29.261064 C 138.25834,29.657953 138.72684,30.09455 139.15957,30.565194 L 141.33572,27.559855 C 140.89335,27.105181 140.42886,26.673531 139.93816,26.27519 z M 149.1566,26.796842 L 145.33375,29.366173 C 145.65503,29.904595 145.9509,30.466609 146.21745,31.047916 L 150.04808,28.459121 C 149.77225,27.888128 149.47561,27.334175 149.1566,26.796842 z M 106.87165,27.337958 C 106.53373,27.861966 106.21232,28.396282 105.9101,28.941844 L 110.65557,31.26592 C 110.9592,30.71646 111.28424,30.180228 111.6327,29.658142 L 106.87165,27.337958 z M 129.23261,28.373477 L 129.42726,31.199741 C 130.07323,31.192524 130.71729,31.252851 131.34647,31.378815 L 131.14793,28.544765 C 130.517,28.437802 129.87697,28.379533 129.23261,28.373477 z M 126.89296,28.579802 C 126.4115,28.671223 125.93501,28.792397 125.46426,28.945737 C 125.32269,28.991853 125.1825,29.039212 125.04382,29.089775 L 126.25063,31.81093 C 126.51634,31.709502 126.78802,31.618191 127.06815,31.538425 C 127.41231,31.440424 127.76008,31.364157 128.11145,31.308742 L 126.89296,28.579802 z M 133.19561,29.078096 L 132.44817,31.674677 C 133.06246,31.879714 133.65303,32.148442 134.20388,32.480513 L 134.95132,29.872253 C 134.39138,29.559555 133.80327,29.295455 133.19561,29.078096 z M 122.72753,30.21483 C 122.17972,30.554089 121.66124,30.931975 121.17815,31.343779 L 123.32315,33.574425 C 123.80254,33.154035 124.32609,32.777444 124.892,32.453262 L 122.72753,30.21483 z M 143.60529,30.526264 L 140.6272,32.531121 C 140.9517,33.072529 141.23808,33.643404 141.47976,34.247901 L 144.46952,32.227473 C 144.21373,31.636737 143.92476,31.068961 143.60529,30.526264 z M 113.52466,30.576872 C 113.16757,31.095837 112.83967,31.63452 112.53196,32.184651 L 116.33924,34.049362 C 116.64723,33.494144 116.9836,32.956027 117.3553,32.441584 L 113.52466,30.576872 z M 136.53185,30.942807 L 135.00971,33.033308 C 135.51766,33.427981 135.97989,33.883282 136.38002,34.395832 L 137.90605,32.28976 C 137.48933,31.798197 137.02914,31.347147 136.53185,30.942807 z M 159.25485,32.172972 L 153.87872,33.500459 C 153.99322,34.120295 154.08376,34.741792 154.14733,35.365171 L 159.53125,34.022111 C 159.45978,33.404667 159.36697,32.787492 159.25485,32.172972 z M 119.26283,33.371993 C 118.87619,33.877951 118.52567,34.409057 118.21174,34.964199 L 121.08861,36.373438 C 121.3974,35.810285 121.75773,35.278689 122.16306,34.781232 L 119.26283,33.371993 z M 127.37179,33.62114 C 127.27826,33.65152 127.18685,33.684815 127.0954,33.718463 L 127.11875,33.765178 C 127.20201,33.715572 127.28649,33.667575 127.37179,33.62114 z M 138.90264,33.68732 L 136.84717,35.069308 C 137.18014,35.607409 137.45363,36.193907 137.64912,36.832804 L 139.71237,35.439136 C 139.49509,34.818131 139.22402,34.234105 138.90264,33.68732 z M 151.8544,34.002647 L 147.49822,35.080987 C 147.61324,35.708285 147.69258,36.337372 147.73569,36.969056 L 152.10355,35.879037 C 152.04876,35.25188 151.96562,34.626326 151.8544,34.002647 z M 126.40246,34.014326 C 125.80814,34.303145 125.26363,34.662375 124.77521,35.080987 L 125.14504,35.466387 C 125.55012,34.971523 126.01762,34.528243 126.53482,34.150578 L 126.40246,34.014326 z M 145.48168,35.583174 L 142.1143,36.416261 C 142.23316,37.049086 142.29815,37.689044 142.30895,38.327687 L 145.68411,37.482922 C 145.65699,36.84851 145.59137,36.213746 145.48168,35.583174 z M 124.10563,35.727213 C 123.66791,36.20203 123.28828,36.731647 122.9689,37.296062 L 123.87205,37.735962 C 124.08501,37.127576 124.3744,36.556269 124.7285,36.030861 L 124.10563,35.727213 z M 103.07605,36.272222 C 102.932,36.879734 102.81145,37.492854 102.70622,38.109683 L 108.07456,38.681943 C 108.17954,38.061335 108.30653,37.445357 108.45996,36.836696 L 103.07605,36.272222 z M 140.09777,36.914555 L 137.91384,37.455672 C 138.14637,38.041138 138.31056,38.661927 138.38877,39.308704 L 140.22623,38.849339 C 140.24952,38.205297 140.2092,37.555671 140.09777,36.914555 z M 110.55825,37.0547 C 110.39542,37.663883 110.2588,38.280754 110.14949,38.90384 L 114.47843,39.367098 C 114.58598,38.739064 114.72667,38.115988 114.90275,37.50628 L 110.55825,37.0547 z M 117.01272,37.728176 C 116.82007,38.335353 116.66366,38.955064 116.54946,39.585102 L 119.85845,39.939358 C 119.96561,39.303749 120.127,38.679864 120.33728,38.074647 L 117.01272,37.728176 z M 122.47839,38.300436 C 122.23295,38.896779 122.05172,39.520979 121.93338,40.161255 L 123.45162,40.324758 C 123.45102,40.285984 123.45162,40.246885 123.45162,40.20797 C 123.45162,39.591692 123.52519,38.994183 123.66573,38.421117 L 122.47839,38.300436 z M 138.43938,39.986073 C 138.44157,40.060118 138.44327,40.13338 138.44327,40.20797 C 138.44327,40.783099 138.37932,41.343949 138.25641,41.881928 L 139.55665,42.01818 C 139.79616,41.42154 139.97694,40.800439 140.08998,40.161255 L 138.43938,39.986073 z M 142.15712,40.383151 C 142.05419,41.017007 141.89926,41.639606 141.69387,42.24397 L 145.01842,42.59044 C 145.20743,41.984346 145.35899,41.36584 145.47,40.737408 L 142.15712,40.383151 z M 147.54104,40.959304 C 147.43626,41.585773 147.29745,42.203825 147.1245,42.812337 L 151.469,43.263916 C 151.62935,42.655838 151.76289,42.040412 151.86997,41.41867 L 147.54104,40.959304 z M 123.49833,41.044949 L 121.78155,41.473171 C 121.75341,42.11709 121.79187,42.765976 121.89834,43.407954 L 123.95381,42.897981 C 123.72789,42.312422 123.57048,41.690707 123.49833,41.044949 z M 153.9449,41.640566 C 153.84187,42.260967 153.71873,42.877201 153.56729,43.485813 L 158.94731,44.046394 C 159.08947,43.439883 159.20974,42.828521 159.31325,42.212826 L 153.9449,41.640566 z M 119.69884,41.994823 L 116.31978,42.839587 C 116.34406,43.473719 116.40773,44.108713 116.51443,44.739335 L 119.8818,43.906249 C 119.76697,43.272915 119.70575,42.633368 119.69884,41.994823 z M 138.06955,42.543725 C 137.86813,43.15649 137.58815,43.736596 137.24425,44.268291 L 137.94887,44.610868 C 138.38333,44.131325 138.75856,43.602692 139.07393,43.034234 L 138.06955,42.543725 z M 114.26431,43.353454 L 109.90035,44.443473 C 109.95316,45.070256 110.03259,45.696404 110.14171,46.319863 L 114.494,45.241522 C 114.38178,44.614231 114.30477,43.984897 114.26431,43.353454 z M 124.24577,43.563671 L 122.27595,44.895052 C 122.48978,45.518449 122.75557,46.105465 123.074,46.654654 L 125.12947,45.272666 C 124.90869,44.909389 124.71375,44.525463 124.55332,44.116467 C 124.44351,43.937336 124.34059,43.752245 124.24577,43.563671 z M 140.95032,43.956857 C 140.64538,44.521624 140.29292,45.057016 139.89144,45.556849 L 142.78389,46.966088 C 143.16839,46.45795 143.51559,45.923144 143.82719,45.366096 L 140.95032,43.956857 z M 136.84328,44.832765 C 136.44803,45.335621 135.98991,45.784352 135.48076,46.171931 L 135.65983,46.354899 C 136.24804,46.063283 136.78441,45.699811 137.26761,45.280452 L 136.84328,44.832765 z M 107.85267,44.957339 L 102.46875,46.300398 C 102.53868,46.917841 102.6307,47.534937 102.74125,48.149538 L 108.11349,46.818157 C 108.00128,46.199457 107.91421,45.579434 107.85267,44.957339 z M 125.6044,45.965606 L 124.07449,48.075572 C 124.48853,48.567453 124.95023,49.017412 125.4448,49.422524 L 126.96693,47.335916 C 126.46047,46.93858 126.00232,46.480863 125.6044,45.965606 z M 120.50857,46.086287 L 117.51491,48.106715 C 117.76842,48.698345 118.0541,49.268085 118.37135,49.811817 L 121.34944,47.810853 C 121.02744,47.267569 120.74745,46.692618 120.50857,46.086287 z M 145.70358,46.284826 C 145.3976,46.841616 145.05738,47.376389 144.68753,47.892604 L 148.51816,49.761209 C 148.87424,49.240315 149.20437,48.701547 149.51086,48.149538 L 145.70358,46.284826 z M 134.9046,46.572903 C 134.76138,46.662159 134.61416,46.746287 134.4647,46.825943 C 134.62726,46.777317 134.78705,46.720748 134.94353,46.66244 L 134.9046,46.572903 z M 138.71967,46.787014 C 138.24394,47.208242 137.72433,47.586009 137.1625,47.912069 L 139.32307,50.146608 C 139.86837,49.805846 140.38397,49.4266 140.86467,49.013767 L 138.71967,46.787014 z M 127.78834,47.904283 L 127.04479,50.512543 C 127.60116,50.823886 128.1851,51.089577 128.78882,51.3067 L 129.54015,48.714012 C 128.9277,48.507997 128.33733,48.23673 127.78834,47.904283 z M 135.7883,48.569974 C 135.51277,48.676226 135.23073,48.771268 134.93964,48.854157 C 134.60538,48.94934 134.26472,49.021056 133.92359,49.076054 L 135.14207,51.804994 C 135.61441,51.714116 136.08157,51.593427 136.54353,51.442952 C 136.69464,51.393731 136.84341,51.34152 136.99121,51.287235 L 135.7883,48.569974 z M 130.66132,49.013767 L 130.86375,51.847817 C 131.49464,51.954371 132.13478,52.009503 132.77907,52.015212 L 132.58442,49.192842 C 131.93741,49.200277 131.29151,49.139943 130.66132,49.013767 z M 151.38725,49.068268 C 151.08479,49.619502 150.75759,50.156034 150.41013,50.679939 L 155.17117,53.000123 C 155.50812,52.47494 155.82767,51.939031 156.12883,51.392344 L 151.38725,49.068268 z M 115.76309,49.290165 L 111.93245,51.87896 C 112.20681,52.450687 112.50636,53.003097 112.82393,53.541239 L 116.639,50.975801 C 116.31955,50.436198 116.02771,49.872595 115.76309,49.290165 z M 122.82486,49.800138 L 120.64482,52.801583 C 121.08667,53.257928 121.55194,53.69023 122.04238,54.090142 L 124.21852,51.108161 C 123.72269,50.70969 123.25675,50.272499 122.82486,49.800138 z M 142.30895,50.516436 C 141.83303,50.931037 141.33104,51.318126 140.79849,51.672635 L 143.69483,54.670188 C 144.21424,54.305066 144.7103,53.913996 145.18582,53.50231 L 142.30895,50.516436 z M 126.45696,52.556329 L 125.40976,56.223465 C 125.97925,56.497953 126.56412,56.742562 127.16158,56.955335 L 128.21267,53.303771 C 127.61037,53.093995 127.02228,52.846208 126.45696,52.556329 z M 110.19231,53.054624 L 105.49355,56.227358 C 105.77797,56.780173 106.08259,57.323591 106.4006,57.858493 L 111.09158,54.705224 C 110.77262,54.170708 110.47247,53.620088 110.19231,53.054624 z M 137.83598,53.186983 C 137.62306,53.267269 137.40873,53.345335 137.18975,53.416666 C 136.79869,53.54405 136.40417,53.652635 136.0063,53.743671 L 137.66469,57.457522 C 138.16616,57.329786 138.66303,57.179546 139.15568,57.005943 C 139.26268,56.968238 139.36906,56.928594 139.4749,56.889155 L 137.83598,53.186983 z M 131.01168,53.969461 L 131.29197,57.897423 C 131.91965,57.965609 132.5534,58.003952 133.18782,58.006425 L 132.91921,54.094035 C 132.27893,54.095681 131.6429,54.053155 131.01168,53.969461 z M 119.40297,54.514471 L 116.63121,58.33343 C 117.08542,58.76701 117.55759,59.181256 118.04434,59.575274 L 120.81611,55.775778 C 120.3252,55.380384 119.85209,54.960351 119.40297,54.514471 z M 146.63399,55.008872 C 146.16249,55.421056 145.66985,55.813336 145.15857,56.184536 L 148.7751,59.921744 C 149.27512,59.545542 149.76253,59.154697 150.23105,58.74608 L 146.63399,55.008872 z M 124.82971,58.251679 L 123.50223,62.888153 C 124.07505,63.139903 124.65889,63.37278 125.25015,63.581094 L 126.58153,58.960191 C 125.98554,58.752579 125.40192,58.514376 124.82971,58.251679 z M 140.31966,58.796688 C 140.16281,58.856196 140.00391,58.915776 139.84473,58.97187 C 139.40604,59.126462 138.9651,59.259905 138.52113,59.380627 L 140.59995,64.036566 C 141.15551,63.874641 141.70726,63.690731 142.25445,63.487664 C 142.29612,63.4722 142.33748,63.456605 142.37902,63.440948 L 140.31966,58.796688 z M 131.4399,60.007388 L 131.79026,64.947511 C 132.41295,64.993715 133.04004,65.017682 133.66665,65.017583 L 133.33186,60.08914 C 132.69935,60.091642 132.06719,60.063578 131.4399,60.007388 z"
         id="path3371"
         sodipodi:nodetypes="ccsccccsccsccccccccccccccccccccccccccccsccscccccccccccccccccccccccccccccccccsccscccccccccccccccccccccccccccccccccccccccccccccccccccccccccccccccccccccccccccccccccccccccccscccsccccccccccccccccccccccccccccccccccccccccccccccccccccccccccccccccccccccccccccccccccccccccccsccsccccccccccccccccccccccccccccccccccccccsccscccccccccccccccccccccccsccsccccccc" />
    </g>
    <text
       transform="scale(0.9837497,1.0165187)"
       xml:space="preserve"
       style="font-size:10.759758px;font-style:normal;font-weight:normal;fill:#000000;fill-opacity:1;stroke:none;stroke-width:1px;stroke-linecap:butt;stroke-linejoin:miter;stroke-opacity:1;font-family:Bitstream Vera Sans"
       x="773.69366"
       y="17.340616"
       id="text3912"><tspan
         style="font-size:11.68748951px;font-style:normal;font-variant:normal;font-weight:normal;font-stretch:normal;text-align:start;line-height:125%;writing-mode:lr-tb;text-anchor:start;font-family:Arial Black;-inkscape-font-specification:'Arial Black,'"
         sodipodi:role="line"
         id="tspan3914"
         x="773.69366"
         y="17.340616">help</tspan></text>
    <text
       transform="scale(0.9837497,1.0165187)"
       xml:space="preserve"
       style="font-size:10.759758px;font-style:normal;font-weight:normal;fill:#000000;fill-opacity:1;stroke:none;stroke-width:1px;stroke-linecap:butt;stroke-linejoin:miter;stroke-opacity:1;font-family:Bitstream Vera Sans"
       x="671.53516"
       y="17.340616"
       id="text3328"><tspan
         style="font-size:11.68748951px;font-style:normal;font-variant:normal;font-weight:normal;font-stretch:normal;text-align:start;line-height:125%;writing-mode:lr-tb;text-anchor:start;font-family:Arial Black;-inkscape-font-specification:'Arial Black,'"
         sodipodi:role="line"
         id="tspan3330"
         x="671.53516"
         y="17.340616">about</tspan></text>
    <text
       id="text3332"
       y="17.340616"
       x="718.29486"
       style="font-size:10.759758px;font-style:normal;font-weight:normal;fill:#000000;fill-opacity:1;stroke:none;stroke-width:1px;stroke-linecap:butt;stroke-linejoin:miter;stroke-opacity:1;font-family:Bitstream Vera Sans"
       xml:space="preserve"
       transform="scale(0.9837497,1.0165187)"><tspan
         y="17.340616"
         x="718.29486"
         id="tspan3334"
         sodipodi:role="line"
         style="font-size:11.68748951px;font-style:normal;font-variant:normal;font-weight:normal;font-stretch:normal;text-align:start;line-height:125%;writing-mode:lr-tb;text-anchor:start;font-family:Arial Black;-inkscape-font-specification:'Arial Black,'">cite us</tspan></text>
    <path
       style="fill:url(#linearGradient3351);fill-opacity:1;stroke:none;stroke-width:0.87761354000000003;stroke-miterlimit:4;stroke-dasharray:none;stroke-opacity:1"
       d="M 796.125 -15.5625 L 796.125 25.71875 L 816.125 25.71875 L 819.25 25.71875 L 839.25 25.71875 C 843.128 25.71875 846.24998 22.59675 846.25 18.71875 L 846.25 -8.5625 C 846.25 -12.4405 843.12798 -15.5625 839.25 -15.5625 L 819.25 -15.5625 L 816.125 -15.5625 L 796.125 -15.5625 z "
       id="rect3340" />
    <text
       id="text3812"
       y="17.340616"
       x="815.87872"
       style="font-size:10.759758px;font-style:normal;font-weight:normal;fill:#000000;fill-opacity:1;stroke:none;stroke-width:1px;stroke-linecap:butt;stroke-linejoin:miter;stroke-opacity:1;font-family:Bitstream Vera Sans"
       xml:space="preserve"
       transform="scale(0.9837497,1.0165187)"><tspan
         y="17.340616"
         x="815.87872"
         id="tspan3814"
         sodipodi:role="line"
         style="font-size:11.68748951px;font-style:normal;font-variant:normal;font-weight:normal;font-stretch:normal;text-align:start;line-height:125%;writing-mode:lr-tb;text-anchor:start;font-family:Arial Black;-inkscape-font-specification:'Arial Black,'">log in</tspan></text>
    <path
       style="fill:#808080;fill-rule:evenodd;stroke:#666666;stroke-width:0.99435353px;stroke-linecap:butt;stroke-linejoin:miter;stroke-opacity:1"
       d="M 796.5,-14.841616 L 796.5,25.880618"
       id="path3369" />
    <g
       id="g4448"
       transform="translate(0,384)">
      <rect
         style="opacity:1;fill:url(#linearGradient4456);fill-opacity:1;stroke:#757575;stroke-width:0.99529469;stroke-miterlimit:4;stroke-dasharray:none;stroke-opacity:1"
         id="rect4450"
         width="723.0047"
         height="24.004705"
         x="120.49765"
         y="117.49765"
         rx="0"
         ry="0" />
      <text
         xml:space="preserve"
         style="font-size:10px;font-style:normal;font-weight:normal;fill:#000000;fill-opacity:1;stroke:none;stroke-width:1px;stroke-linecap:butt;stroke-linejoin:miter;stroke-opacity:1;font-family:Bitstream Vera Sans"
         x="125.5"
         y="134"
         id="text4452"><tspan
           sodipodi:role="line"
           id="tspan4454"
           x="125.5"
           y="134"
           style="font-size:14px;font-weight:bold">Notes and figures</tspan></text>
    </g>
    <g
       transform="translate(0,413)"
       id="g4462">
      <rect
         ry="0"
         rx="0"
         y="117.49765"
         x="120.49765"
         height="24.004705"
         width="723.0047"
         id="rect4464"
         style="opacity:1;fill:url(#linearGradient4470);fill-opacity:1;stroke:#757575;stroke-width:0.99529469;stroke-miterlimit:4;stroke-dasharray:none;stroke-opacity:1" />
      <text
         id="text4466"
         y="134"
         x="125.5"
         style="font-size:10px;font-style:normal;font-weight:normal;fill:#000000;fill-opacity:1;stroke:none;stroke-width:1px;stroke-linecap:butt;stroke-linejoin:miter;stroke-opacity:1;font-family:Bitstream Vera Sans"
         xml:space="preserve"><tspan
           style="font-size:14px;font-weight:bold"
           y="134"
           x="125.5"
           id="tspan4468"
           sodipodi:role="line">Accessions and images</tspan></text>
    </g>
  </g>
</svg>
