<?xml version="1.0" encoding="UTF-8" standalone="no"?>
<!-- Created with Inkscape (http://www.inkscape.org/) -->
<svg
   xmlns:dc="http://purl.org/dc/elements/1.1/"
   xmlns:cc="http://creativecommons.org/ns#"
   xmlns:rdf="http://www.w3.org/1999/02/22-rdf-syntax-ns#"
   xmlns:svg="http://www.w3.org/2000/svg"
   xmlns="http://www.w3.org/2000/svg"
   xmlns:xlink="http://www.w3.org/1999/xlink"
   xmlns:sodipodi="http://sodipodi.sourceforge.net/DTD/sodipodi-0.dtd"
   xmlns:inkscape="http://www.inkscape.org/namespaces/inkscape"
   width="1000"
   height="1052"
   id="svg2"
   sodipodi:version="0.32"
   inkscape:version="0.46"
   version="1.0"
   sodipodi:docname="front9.svg"
   inkscape:output_extension="org.inkscape.output.svg.inkscape"
   inkscape:export-filename="/crypt/rob/cxgn/core/sgn-tools/art/sgn2/front7.png"
   inkscape:export-xdpi="90"
   inkscape:export-ydpi="90">
  <defs
     id="defs4">
    <linearGradient
       id="linearGradient3420">
      <stop
         style="stop-color:#b7b7ff;stop-opacity:1;"
         offset="0"
         id="stop3422" />
      <stop
         style="stop-color:#d6d6fd;stop-opacity:1;"
         offset="1"
         id="stop3424" />
    </linearGradient>
    <linearGradient
       id="linearGradient5109">
      <stop
         style="stop-color:#f99002;stop-opacity:1;"
         offset="0"
         id="stop5111" />
      <stop
         style="stop-color:#f0f0f0;stop-opacity:1;"
         offset="1"
         id="stop5113" />
    </linearGradient>
    <linearGradient
       id="linearGradient5065">
      <stop
         id="stop5067"
         offset="0"
         style="stop-color:#cbcbcb;stop-opacity:1;" />
      <stop
         id="stop5069"
         offset="1"
         style="stop-color:#fbfbfb;stop-opacity:1;" />
    </linearGradient>
    <linearGradient
       id="linearGradient4731">
      <stop
         style="stop-color:#ababab;stop-opacity:1;"
         offset="0"
         id="stop4733" />
      <stop
         style="stop-color:#fbfbfb;stop-opacity:1;"
         offset="1"
         id="stop4735" />
    </linearGradient>
    <linearGradient
       id="linearGradient4711">
      <stop
         style="stop-color:#115400;stop-opacity:1;"
         offset="0"
         id="stop4713" />
      <stop
         style="stop-color:#4acc2c;stop-opacity:1;"
         offset="1"
         id="stop4715" />
    </linearGradient>
    <linearGradient
       id="linearGradient3488">
      <stop
         id="stop3490"
         offset="0"
         style="stop-color:#000000;stop-opacity:1" />
      <stop
         style="stop-color:#4e4e4e;stop-opacity:1;"
         offset="0.31917229"
         id="stop3496" />
      <stop
         id="stop3492"
         offset="1"
         style="stop-color:#e4e4e4;stop-opacity:0;" />
    </linearGradient>
    <linearGradient
       id="linearGradient3289">
      <stop
         style="stop-color:#ece9e9;stop-opacity:1;"
         offset="0"
         id="stop3291" />
      <stop
         style="stop-color:#fdfdfd;stop-opacity:1;"
         offset="1"
         id="stop3293" />
    </linearGradient>
    <linearGradient
       id="linearGradient3350">
      <stop
         style="stop-color:#e5e1de;stop-opacity:1;"
         offset="0"
         id="stop3352" />
      <stop
         style="stop-color:#fffdf9;stop-opacity:1;"
         offset="1"
         id="stop3354" />
    </linearGradient>
    <linearGradient
       id="linearGradient3161">
      <stop
         style="stop-color:#f7ff12;stop-opacity:1;"
         offset="0"
         id="stop3163" />
      <stop
         style="stop-color:#f20000;stop-opacity:1;"
         offset="1"
         id="stop3165" />
    </linearGradient>
    <inkscape:perspective
       sodipodi:type="inkscape:persp3d"
       inkscape:vp_x="0 : 526.18109 : 1"
       inkscape:vp_y="0 : 1000 : 0"
       inkscape:vp_z="744.09448 : 526.18109 : 1"
       inkscape:persp3d-origin="372.04724 : 350.78739 : 1"
       id="perspective10" />
    <inkscape:perspective
       id="perspective2390"
       inkscape:persp3d-origin="372.04724 : 350.78739 : 1"
       inkscape:vp_z="744.09448 : 526.18109 : 1"
       inkscape:vp_y="0 : 1000 : 0"
       inkscape:vp_x="0 : 526.18109 : 1"
       sodipodi:type="inkscape:persp3d" />
    <linearGradient
       inkscape:collect="always"
       xlink:href="#linearGradient3289"
       id="linearGradient3295"
       x1="417.49802"
       y1="-0.048662286"
       x2="417.49802"
       y2="87.901924"
       gradientUnits="userSpaceOnUse"
       gradientTransform="matrix(0.9999719,0,0,1.0586247,2.0137778,-8.0551432)" />
    <clipPath
       clipPathUnits="userSpaceOnUse"
       id="clipPath3470">
      <rect
         rx="0.077317901"
         y="-49.375546"
         x="535.42584"
         height="19.041536"
         width="265.97363"
         id="rect3472"
         style="opacity:0.2;fill:#ff4d1f;fill-opacity:1;stroke:none;stroke-width:0.88159186;stroke-miterlimit:4;stroke-dasharray:none;stroke-opacity:1" />
    </clipPath>
    <inkscape:perspective
       id="perspective3666"
       inkscape:persp3d-origin="372.04724 : 350.78739 : 1"
       inkscape:vp_z="744.09448 : 526.18109 : 1"
       inkscape:vp_y="0 : 1000 : 0"
       inkscape:vp_x="0 : 526.18109 : 1"
       sodipodi:type="inkscape:persp3d" />
    <inkscape:perspective
       id="perspective3845"
       inkscape:persp3d-origin="372.04724 : 350.78739 : 1"
       inkscape:vp_z="744.09448 : 526.18109 : 1"
       inkscape:vp_y="0 : 1000 : 0"
       inkscape:vp_x="0 : 526.18109 : 1"
       sodipodi:type="inkscape:persp3d" />
    <linearGradient
       inkscape:collect="always"
       xlink:href="#linearGradient3350"
       id="linearGradient4748"
       gradientUnits="userSpaceOnUse"
       gradientTransform="matrix(0.7783487,0,0,1.0039492,78.95381,-28.036031)"
       x1="624.68182"
       y1="87.005478"
       x2="624.68182"
       y2="96.238503" />
    <linearGradient
       inkscape:collect="always"
       xlink:href="#linearGradient4731"
       id="linearGradient4836"
       gradientUnits="userSpaceOnUse"
       gradientTransform="translate(-4,0)"
       x1="222.99998"
       y1="98"
       x2="222.99998"
       y2="66" />
    <linearGradient
       inkscape:collect="always"
       xlink:href="#linearGradient5065"
       id="linearGradient5063"
       gradientUnits="userSpaceOnUse"
       gradientTransform="translate(-4.0000073,0)"
       x1="222.99998"
       y1="98"
       x2="222.99998"
       y2="66" />
    <linearGradient
       inkscape:collect="always"
       xlink:href="#linearGradient4731"
       id="linearGradient5085"
       gradientUnits="userSpaceOnUse"
       gradientTransform="matrix(0.8790698,0,0,1,673.55811,0)"
       x1="222.99998"
       y1="98"
       x2="222.99998"
       y2="66" />
    <linearGradient
       inkscape:collect="always"
       xlink:href="#linearGradient5109"
       id="linearGradient5115"
       x1="839.5"
       y1="80.362183"
       x2="839.5"
       y2="69.362183"
       gradientUnits="userSpaceOnUse"
       spreadMethod="pad"
       gradientTransform="translate(0,-1)" />
    <linearGradient
       inkscape:collect="always"
       xlink:href="#linearGradient4731"
       id="linearGradient3260"
       gradientUnits="userSpaceOnUse"
       gradientTransform="matrix(0.9686023,0,0,1.0005554,-54.979279,-5.0408135)"
       x1="222.99998"
       y1="98"
       x2="222.99998"
       y2="66" />
    <linearGradient
       inkscape:collect="always"
       xlink:href="#linearGradient4731"
       id="linearGradient3263"
       gradientUnits="userSpaceOnUse"
       gradientTransform="matrix(1.0794815,0,0,0.9964454,551.65897,-4.7386396)"
       x1="222.99998"
       y1="98"
       x2="222.99998"
       y2="66" />
    <linearGradient
       inkscape:collect="always"
       xlink:href="#linearGradient4731"
       id="linearGradient3268"
       gradientUnits="userSpaceOnUse"
       x1="222.99998"
       y1="98"
       x2="222.99998"
       y2="66"
       gradientTransform="translate(-52,-5)" />
    <linearGradient
       inkscape:collect="always"
       xlink:href="#linearGradient4731"
       id="linearGradient3273"
       gradientUnits="userSpaceOnUse"
       gradientTransform="matrix(0.6217406,0,0,1,288.30329,-5)"
       x1="222.99998"
       y1="98"
       x2="222.99998"
       y2="66" />
    <linearGradient
       inkscape:collect="always"
       xlink:href="#linearGradient4711"
       id="linearGradient3280"
       gradientUnits="userSpaceOnUse"
       gradientTransform="translate(21.5,-0.5000001)"
       x1="231"
       y1="93.032227"
       x2="231"
       y2="61.963768" />
    <linearGradient
       inkscape:collect="always"
       xlink:href="#linearGradient4731"
       id="linearGradient3283"
       gradientUnits="userSpaceOnUse"
       gradientTransform="matrix(0.9392581,0,0,1,134.32613,-5)"
       x1="222.99998"
       y1="98"
       x2="222.99998"
       y2="66" />
    <inkscape:perspective
       id="perspective2553"
       inkscape:persp3d-origin="372.04724 : 350.78739 : 1"
       inkscape:vp_z="744.09448 : 526.18109 : 1"
       inkscape:vp_y="0 : 1000 : 0"
       inkscape:vp_x="0 : 526.18109 : 1"
       sodipodi:type="inkscape:persp3d" />
    <inkscape:perspective
       id="perspective2628"
       inkscape:persp3d-origin="372.04724 : 350.78739 : 1"
       inkscape:vp_z="744.09448 : 526.18109 : 1"
       inkscape:vp_y="0 : 1000 : 0"
       inkscape:vp_x="0 : 526.18109 : 1"
       sodipodi:type="inkscape:persp3d" />
    <linearGradient
       inkscape:collect="always"
       xlink:href="#linearGradient3420"
       id="linearGradient3426"
       x1="306"
       y1="155"
       x2="306"
       y2="137"
       gradientUnits="userSpaceOnUse"
       spreadMethod="reflect"
       gradientTransform="translate(-0.5,0.5)" />
    <linearGradient
       inkscape:collect="always"
       xlink:href="#linearGradient3161"
       id="linearGradient3335"
       gradientUnits="userSpaceOnUse"
       gradientTransform="matrix(0.1116378,5.6655565e-3,-5.6655565e-3,0.1116378,131.21415,8.7406548)"
       x1="-18.926355"
       y1="41.726402"
       x2="222.47614"
       y2="243.21469" />
  </defs>
  <sodipodi:namedview
     id="base"
     pagecolor="#ffffff"
     bordercolor="#ebebeb"
     borderopacity="1"
     gridtolerance="10000"
     guidetolerance="10"
     objecttolerance="10"
     inkscape:pageopacity="0.0"
     inkscape:pageshadow="2"
     inkscape:zoom="4"
     inkscape:cx="184.59701"
     inkscape:cy="1022.6139"
     inkscape:document-units="px"
     inkscape:current-layer="g3338"
     showgrid="false"
     inkscape:window-width="1235"
     inkscape:window-height="774"
     inkscape:window-x="253"
     inkscape:window-y="150"
     showborder="true"
     showguides="true"
     inkscape:guide-bbox="true"
     inkscape:showpageshadow="false" />
  <metadata
     id="metadata7">
    <rdf:RDF>
      <cc:Work
         rdf:about="">
        <dc:format>image/svg+xml</dc:format>
        <dc:type
           rdf:resource="http://purl.org/dc/dcmitype/StillImage" />
      </cc:Work>
    </rdf:RDF>
  </metadata>
  <g
     inkscape:label="Layer 1"
     inkscape:groupmode="layer"
     id="layer1">
    <rect
       style="opacity:1;fill:url(#linearGradient3295);fill-opacity:1;stroke:none;stroke-width:1.02888048;stroke-miterlimit:4;stroke-dasharray:none;stroke-opacity:1"
       id="rect2430"
       width="1769.9712"
       height="465.72849"
       x="-465.48553"
       y="-381.24292"
       rx="4.9998603"
       ry="5.2931237" />
    <text
       id="text3325"
       y="20.893658"
       x="180.82524"
       style="font-size:13.16582298px;font-style:normal;font-weight:normal;fill:#808080;fill-opacity:1;stroke:none;stroke-width:1px;stroke-linecap:butt;stroke-linejoin:miter;stroke-opacity:1;font-family:Bitstream Vera Sans"
       xml:space="preserve"
       transform="scale(0.9580355,1.0438027)"><tspan
         y="20.893658"
         x="180.82524"
         id="tspan3327"
         sodipodi:role="line"
         style="font-size:13.16582298px;font-weight:bold;fill:#808080">sol</tspan></text>
    <rect
       style="opacity:1;fill:#cccccc;fill-opacity:1;stroke:none;stroke-width:1;stroke-miterlimit:4;stroke-dasharray:none;stroke-opacity:1"
       id="rect4919"
       width="1119"
       height="1"
       x="-39.5"
       y="88.970589"
       rx="0"
       ry="0" />
    <g
       id="g3338">
      <path
         style="fill:#ff7c04;fill-opacity:1;stroke:none;stroke-width:13.94999980999999956;stroke-miterlimit:4;stroke-dasharray:none;stroke-opacity:1"
         d="M 142.079,7.8778967 L 142.36209,12.048536 C 142.41151,12.048359 142.46081,12.044998 142.51022,12.045243 C 142.99601,12.047675 143.47989,12.070993 143.96188,12.114367 L 143.6689,7.9371461 C 143.14132,7.8979031 142.60993,7.8778295 142.079,7.8778967 z M 136.23944,8.7008261 C 135.76087,8.8396493 135.28536,8.996664 134.81411,9.1715464 C 134.78769,9.1813602 134.76147,9.191284 134.73512,9.2011773 L 136.47645,13.128226 C 136.60048,13.081387 136.72595,13.034286 136.85171,12.989977 C 137.23024,12.85658 137.61072,12.739041 137.99395,12.634462 L 136.23944,8.7008261 z M 149.17599,9.085972 L 148.05022,12.993258 C 148.55475,13.168483 149.05035,13.367197 149.53479,13.589065 L 150.65729,9.668604 C 150.17184,9.4557495 149.67705,9.2619483 149.17599,9.085972 z M 129.33336,12.160454 C 128.90995,12.47774 128.49905,12.809827 128.10224,13.154557 L 131.14383,16.314638 C 131.54398,15.96648 131.9608,15.633849 132.39468,15.320523 L 129.33336,12.160454 z M 155.25914,12.456707 L 152.91872,15.669457 C 153.33461,16.003065 153.73297,16.359637 154.11362,16.735977 L 156.45734,13.503484 C 156.07234,13.1373 155.67164,12.789368 155.25914,12.456707 z M 142.48388,13.803031 L 142.71102,17.111236 C 143.25131,17.110087 143.78801,17.145829 144.32067,17.216572 L 144.08696,13.895205 C 143.55624,13.837441 143.0203,13.805244 142.48388,13.803031 z M 165.10475,13.885324 L 161.1382,16.551642 C 161.40923,17.003987 161.66367,17.468804 161.90189,17.94734 L 165.87172,15.264567 C 165.62976,14.797012 165.37506,14.337676 165.10475,13.885324 z M 138.71812,14.260589 C 138.28619,14.369855 137.85856,14.499524 137.43435,14.649011 C 137.35273,14.677774 137.27157,14.707936 137.19075,14.737891 L 138.57658,17.868335 C 138.74806,17.804105 138.92056,17.741373 139.09668,17.683999 C 139.435,17.573792 139.77607,17.47893 140.12041,17.400914 L 138.71812,14.260589 z M 147.55975,14.68851 L 146.67097,17.772879 C 147.18164,17.950029 147.67948,18.162981 148.15884,18.408186 L 149.04432,15.304067 C 148.56202,15.072196 148.06569,14.868067 147.55975,14.68851 z M 133.62908,16.601016 C 133.18894,16.908758 132.76812,17.238033 132.36506,17.585244 L 134.79765,20.113312 C 135.20191,19.763297 135.6292,19.434522 136.08144,19.13566 L 133.62908,16.601016 z M 151.88181,17.09478 L 150.04173,19.619548 C 150.4614,19.955143 150.85756,20.324315 151.22347,20.722281 L 153.06355,18.181057 C 152.68949,17.796595 152.29673,17.431608 151.88181,17.09478 z M 159.67667,17.535869 L 156.44417,19.708423 C 156.71583,20.163695 156.96601,20.638919 157.19139,21.130452 L 160.43047,18.941449 C 160.19723,18.458629 159.9464,17.990225 159.67667,17.535869 z M 123.92173,17.993427 C 123.636,18.436509 123.36423,18.88831 123.10868,19.349626 L 127.12131,21.314794 C 127.37805,20.850191 127.65289,20.396764 127.94754,19.955301 L 123.92173,17.993427 z M 142.82952,18.869025 L 142.99411,21.258832 C 143.54032,21.252734 144.08491,21.30374 144.61693,21.410256 L 144.44905,19.013861 C 143.91555,18.923416 143.37436,18.874152 142.82952,18.869025 z M 140.85117,19.043486 C 140.44407,19.120798 140.04115,19.223257 139.6431,19.352914 C 139.52339,19.391906 139.40485,19.431956 139.2876,19.474712 L 140.30804,21.775639 C 140.53271,21.689882 140.76243,21.612667 140.9993,21.545211 C 141.29031,21.462349 141.58439,21.397857 141.88149,21.351006 L 140.85117,19.043486 z M 146.18051,19.464831 L 145.5485,21.660428 C 146.06792,21.833795 146.56729,22.061028 147.03307,22.341821 L 147.66508,20.13635 C 147.19162,19.871939 146.69432,19.648623 146.18051,19.464831 z M 137.32901,20.426022 C 136.8658,20.712895 136.42737,21.032424 136.0189,21.380631 L 137.83265,23.266801 C 138.238,22.911335 138.6807,22.592892 139.15922,22.318778 L 137.32901,20.426022 z M 154.98263,20.689363 L 152.46445,22.384608 C 152.73883,22.842412 152.98098,23.325121 153.18534,23.83627 L 155.7134,22.127861 C 155.49711,21.628347 155.25276,21.148253 154.98263,20.689363 z M 129.54732,20.732156 C 129.24538,21.170972 128.96811,21.626471 128.70793,22.091643 L 131.92726,23.668391 C 132.18768,23.198917 132.47211,22.743901 132.7864,22.308903 L 129.54732,20.732156 z M 149.00153,21.041584 L 147.71446,22.809249 C 148.14397,23.142967 148.53482,23.52796 148.87315,23.961363 L 150.16352,22.180523 C 149.81115,21.764872 149.42203,21.383472 149.00153,21.041584 z M 168.21545,22.081774 L 163.66954,23.204258 C 163.76636,23.728367 163.84292,24.253888 163.89668,24.781004 L 168.44915,23.645353 C 168.38873,23.123254 168.31025,22.601392 168.21545,22.081774 z M 134.39935,23.095634 C 134.07243,23.523451 133.77602,23.972539 133.51059,24.441958 L 135.94319,25.633565 C 136.20429,25.157381 136.50898,24.707878 136.85171,24.287247 L 134.39935,23.095634 z M 141.25606,23.306307 C 141.17697,23.331996 141.09968,23.360142 141.02235,23.3886 L 141.0421,23.428093 C 141.1125,23.386149 141.18393,23.345562 141.25606,23.306307 z M 151.00621,23.362262 L 149.26816,24.530832 C 149.54971,24.985836 149.78096,25.481756 149.94626,26.021986 L 151.69089,24.843548 C 151.50717,24.318442 151.27795,23.824605 151.00621,23.362262 z M 161.95784,23.628897 L 158.27437,24.540701 C 158.37163,25.071123 158.43872,25.603066 158.47517,26.137203 L 162.16851,25.215513 C 162.12218,24.685213 162.05189,24.156258 161.95784,23.628897 z M 140.43642,23.638766 C 139.93389,23.882987 139.47346,24.186744 139.06047,24.540701 L 139.37318,24.866591 C 139.71571,24.448148 140.11101,24.073317 140.54833,23.753977 L 140.43642,23.638766 z M 156.56925,24.96534 L 153.7219,25.669771 C 153.82239,26.204873 153.87735,26.746001 153.88648,27.286017 L 156.74042,26.571712 C 156.71749,26.035271 156.662,25.498536 156.56925,24.96534 z M 138.49428,25.087133 C 138.12416,25.488631 137.80315,25.93646 137.5331,26.413707 L 138.29679,26.785672 C 138.47686,26.271242 138.72155,25.788166 139.02097,25.343893 L 138.49428,25.087133 z M 120.71229,25.547978 C 120.59049,26.061669 120.48855,26.580108 120.39957,27.101681 L 124.93888,27.58557 C 125.02764,27.060801 125.13502,26.539954 125.26477,26.02528 L 120.71229,25.547978 z M 152.01677,26.091116 L 150.17011,26.548668 C 150.36673,27.043721 150.50556,27.568637 150.57169,28.11554 L 152.12539,27.727113 C 152.14509,27.182532 152.11099,26.633228 152.01677,26.091116 z M 127.03902,26.209621 C 126.90133,26.72473 126.78582,27.246334 126.69338,27.773206 L 130.35381,28.164915 C 130.44475,27.633875 130.56371,27.10701 130.7126,26.591455 L 127.03902,26.209621 z M 132.49673,26.779091 C 132.33383,27.292501 132.20157,27.816506 132.10501,28.34925 L 134.90299,28.648803 C 134.9936,28.111348 135.13008,27.58381 135.30788,27.072057 L 132.49673,26.779091 z M 137.11834,27.26298 C 136.91081,27.767223 136.75756,28.295036 136.65749,28.836433 L 137.94127,28.974682 C 137.94077,28.941904 137.94127,28.908839 137.94127,28.875939 C 137.94127,28.354823 138.00348,27.849584 138.12232,27.365022 L 137.11834,27.26298 z M 150.61449,28.688303 C 150.61633,28.750913 150.61778,28.812864 150.61778,28.875939 C 150.61778,29.362247 150.56371,29.836481 150.45978,30.291381 L 151.55922,30.406592 C 151.76173,29.902098 151.91461,29.376907 152.01019,28.836433 L 150.61449,28.688303 z M 153.7581,29.024068 C 153.67107,29.560027 153.54006,30.086483 153.36638,30.597515 L 156.17753,30.890481 C 156.33735,30.377982 156.46551,29.854991 156.55938,29.323615 L 153.7581,29.024068 z M 158.31059,29.511239 C 158.22199,30.040964 158.10462,30.563564 157.95838,31.07811 L 161.63195,31.459957 C 161.76755,30.945777 161.88046,30.425395 161.971,29.899666 L 158.31059,29.511239 z M 137.98078,29.583657 L 136.52912,29.945753 C 136.50533,30.49023 136.53784,31.03891 136.62787,31.581749 L 138.36591,31.150529 C 138.17488,30.655396 138.04178,30.129691 137.98078,29.583657 z M 163.72551,30.087295 C 163.63838,30.611888 163.53427,31.132954 163.40621,31.647586 L 167.95539,32.121594 C 168.07561,31.608746 168.1773,31.091792 168.26482,30.571178 L 163.72551,30.087295 z M 134.76803,30.386842 L 131.91079,31.101154 C 131.93133,31.637351 131.98517,32.174293 132.07538,32.707519 L 134.92273,32.003089 C 134.82564,31.467558 134.77388,30.926779 134.76803,30.386842 z M 150.30177,30.850975 C 150.13145,31.369115 149.89471,31.859634 149.60392,32.309217 L 150.19973,32.598895 C 150.56709,32.193407 150.88437,31.746408 151.15105,31.26574 L 150.30177,30.850975 z M 130.17275,31.535668 L 126.4827,32.457347 C 126.52736,32.987341 126.59453,33.516791 126.68681,34.043969 L 130.36697,33.132159 C 130.27208,32.601737 130.20697,32.069592 130.17275,31.535668 z M 138.61279,31.713411 L 136.94716,32.839193 C 137.12797,33.366321 137.35272,33.862676 137.62198,34.327059 L 139.36002,33.15849 C 139.17333,32.851323 139.0085,32.526679 138.87284,32.180843 C 138.77999,32.029377 138.69296,31.87287 138.61279,31.713411 z M 152.73766,32.045882 C 152.47982,32.523434 152.18179,32.976146 151.84231,33.398787 L 154.28808,34.590401 C 154.6132,34.160738 154.90679,33.708515 155.17026,33.237489 L 152.73766,32.045882 z M 149.26488,32.786531 C 148.93066,33.21172 148.54329,33.591159 148.11276,33.918882 L 148.26418,34.073593 C 148.76156,33.827014 149.2151,33.51967 149.62367,33.165077 L 149.26488,32.786531 z M 124.75125,32.891861 L 120.19877,34.027512 C 120.2579,34.549605 120.33571,35.071405 120.4292,35.591097 L 124.9718,34.465314 C 124.87691,33.942164 124.80329,33.41789 124.75125,32.891861 z M 139.7616,33.744421 L 138.46795,35.528541 C 138.81806,35.944473 139.20846,36.324944 139.62664,36.667492 L 140.91372,34.903122 C 140.48547,34.567143 140.09807,34.180109 139.7616,33.744421 z M 135.45271,33.84647 L 132.92136,35.554885 C 133.13573,36.055144 133.3773,36.536906 133.64555,36.996664 L 136.16373,35.304706 C 135.89146,34.845321 135.6547,34.359159 135.45271,33.84647 z M 156.75689,34.014344 C 156.49815,34.48515 156.21048,34.937342 155.89774,35.373843 L 159.13681,36.953871 C 159.43791,36.513423 159.71705,36.057857 159.97621,35.591097 L 156.75689,34.014344 z M 147.62558,34.257935 C 147.50447,34.333408 147.37999,34.404543 147.25362,34.471895 C 147.39108,34.430777 147.52619,34.382942 147.65851,34.333647 L 147.62558,34.257935 z M 150.85149,34.438977 C 150.44922,34.795158 150.00985,35.11459 149.53479,35.390293 L 151.36172,37.279755 C 151.8228,36.991623 152.25876,36.670939 152.66524,36.321858 L 150.85149,34.438977 z M 141.60827,35.383711 L 140.97955,37.589177 C 141.45001,37.852445 141.94378,38.077099 142.45426,38.260695 L 143.08955,36.068392 C 142.57168,35.894194 142.07249,35.664822 141.60827,35.383711 z M 148.37281,35.946593 C 148.13983,36.036439 147.90135,36.116807 147.65521,36.186903 C 147.37257,36.267381 147.08451,36.328024 146.79606,36.374526 L 147.82638,38.682041 C 148.22577,38.605193 148.62079,38.503144 149.0114,38.375907 C 149.13919,38.334286 149.26499,38.290143 149.38996,38.244233 L 148.37281,35.946593 z M 144.03759,36.321858 L 144.20876,38.718247 C 144.74222,38.808349 145.2835,38.854968 145.8283,38.859795 L 145.6637,36.473282 C 145.11661,36.479563 144.57046,36.428545 144.03759,36.321858 z M 161.56284,36.367939 C 161.30708,36.834046 161.0304,37.287723 160.7366,37.730725 L 164.76241,39.692606 C 165.04732,39.248528 165.31752,38.795376 165.57216,38.333113 L 161.56284,36.367939 z M 131.44008,36.555569 L 128.201,38.744584 C 128.43299,39.228015 128.68628,39.695123 128.95481,40.150158 L 132.18072,37.980898 C 131.9106,37.524623 131.66383,37.048055 131.44008,36.555569 z M 137.4113,36.986795 L 135.56793,39.52472 C 135.94154,39.910593 136.33496,40.276136 136.74966,40.614291 L 138.58975,38.092822 C 138.17048,37.755877 137.7765,37.386204 137.4113,36.986795 z M 153.88648,37.592471 C 153.48405,37.943048 153.05959,38.270356 152.60929,38.570117 L 155.05834,41.104761 C 155.49754,40.796023 155.91698,40.465348 156.31908,40.117239 L 153.88648,37.592471 z M 140.4825,39.317347 L 139.59702,42.418166 C 140.07856,42.650269 140.57312,42.857099 141.0783,43.037016 L 141.96707,39.94936 C 141.4578,39.771978 140.96052,39.56246 140.4825,39.317347 z M 126.7296,39.738687 L 122.75645,42.42146 C 122.99695,42.888911 123.25453,43.3484 123.52344,43.800702 L 127.48999,41.134385 C 127.22028,40.682419 126.96648,40.216832 126.7296,39.738687 z M 150.10427,39.850611 C 149.92424,39.918501 149.743,39.984502 149.55784,40.044821 C 149.22717,40.152535 148.89357,40.244348 148.55715,40.321331 L 149.95943,43.461656 C 150.38346,43.353637 150.80361,43.226607 151.22017,43.07981 C 151.31065,43.047924 151.40061,43.014407 151.49009,42.981061 L 150.10427,39.850611 z M 144.33384,40.512248 L 144.57085,43.833621 C 145.10159,43.891275 145.63748,43.923693 146.17393,43.925789 L 145.94679,40.617584 C 145.40539,40.618977 144.86759,40.583022 144.33384,40.512248 z M 134.51786,40.973093 L 132.17414,44.202292 C 132.55821,44.568917 132.95745,44.919195 133.36905,45.252357 L 135.71276,42.03962 C 135.29767,41.705291 134.89762,41.350118 134.51786,40.973093 z M 157.54361,41.391145 C 157.14492,41.739676 156.72837,42.071377 156.29604,42.385254 L 159.35407,45.545329 C 159.77688,45.227223 160.18901,44.896732 160.58519,44.55122 L 157.54361,41.391145 z M 139.10655,44.133168 L 137.98407,48.053635 C 138.46844,48.266508 138.9621,48.463419 139.46206,48.639567 L 140.58783,44.732262 C 140.08389,44.556714 139.59039,44.355292 139.10655,44.133168 z M 152.20441,44.594007 C 152.07177,44.644329 151.9374,44.694712 151.8028,44.742137 C 151.43187,44.872857 151.05902,44.985698 150.68362,45.087771 L 152.44141,49.0247 C 152.91117,48.887784 153.3777,48.732272 153.84039,48.560567 C 153.87563,48.547484 153.91062,48.534304 153.94573,48.521062 L 152.20441,44.594007 z M 144.69593,45.617747 L 144.99219,49.794968 C 145.51871,49.83404 146.04896,49.854303 146.5788,49.854217 L 146.29571,45.686871 C 145.76088,45.688985 145.22634,45.665258 144.69593,45.617747 z"
         id="path3285"
         sodipodi:nodetypes="ccsccccsccsccccccccccccccccccccccccccccsccscccccccccccccccccccccccccccccccccsccscccccccccccccccccccccccccccccccccccccccccccccccccccccccccccccccccccccccccccccccccccccccccscccsccccccccccccccccccccccccccccccccccccccccccccccccccccccccccccccccccccccccccccccccccccccccccsccsccccccccccccccccccccccccccccccccccccccsccscccccccccccccccccccccccsccsccccccc" />
      <path
         sodipodi:nodetypes="ccsccccsccsccccccccccccccccccccccccccccsccscccccccccccccccccccccccccccccccccsccscccccccccccccccccccccccccccccccccccccccccccccccccccccccccccccccccccccccccccccccccccccccccscccsccccccccccccccccccccccccccccccccccccccccccccccccccccccccccccccccccccccccccccccccccccccccccsccsccccccccccccccccccccccccccccccccccccccsccscccccccccccccccccccccccsccsccccccc"
         id="path2187"
         d="M 142.329,8.3778967 L 142.61209,12.548536 C 142.66151,12.548359 142.71081,12.544998 142.76022,12.545243 C 143.24601,12.547675 143.72989,12.570993 144.21188,12.614367 L 143.9189,8.4371461 C 143.39132,8.3979031 142.85993,8.3778295 142.329,8.3778967 z M 136.48944,9.2008261 C 136.01087,9.3396493 135.53536,9.496664 135.06411,9.6715464 C 135.03769,9.6813602 135.01147,9.691284 134.98512,9.7011773 L 136.72645,13.628226 C 136.85048,13.581387 136.97595,13.534286 137.10171,13.489977 C 137.48024,13.35658 137.86072,13.239041 138.24395,13.134462 L 136.48944,9.2008261 z M 149.42599,9.585972 L 148.30022,13.493258 C 148.80475,13.668483 149.30035,13.867197 149.78479,14.089065 L 150.90729,10.168604 C 150.42184,9.9557495 149.92705,9.7619483 149.42599,9.585972 z M 129.58336,12.660454 C 129.15995,12.97774 128.74905,13.309827 128.35224,13.654557 L 131.39383,16.814638 C 131.79398,16.46648 132.2108,16.133849 132.64468,15.820523 L 129.58336,12.660454 z M 155.50914,12.956707 L 153.16872,16.169457 C 153.58461,16.503065 153.98297,16.859637 154.36362,17.235977 L 156.70734,14.003484 C 156.32234,13.6373 155.92164,13.289368 155.50914,12.956707 z M 142.73388,14.303031 L 142.96102,17.611236 C 143.50131,17.610087 144.03801,17.645829 144.57067,17.716572 L 144.33696,14.395205 C 143.80624,14.337441 143.2703,14.305244 142.73388,14.303031 z M 165.35475,14.385324 L 161.3882,17.051642 C 161.65923,17.503987 161.91367,17.968804 162.15189,18.44734 L 166.12172,15.764567 C 165.87976,15.297012 165.62506,14.837676 165.35475,14.385324 z M 138.96812,14.760589 C 138.53619,14.869855 138.10856,14.999524 137.68435,15.149011 C 137.60273,15.177774 137.52157,15.207936 137.44075,15.237891 L 138.82658,18.368335 C 138.99806,18.304105 139.17056,18.241373 139.34668,18.183999 C 139.685,18.073792 140.02607,17.97893 140.37041,17.900914 L 138.96812,14.760589 z M 147.80975,15.18851 L 146.92097,18.272879 C 147.43164,18.450029 147.92948,18.662981 148.40884,18.908186 L 149.29432,15.804067 C 148.81202,15.572196 148.31569,15.368067 147.80975,15.18851 z M 133.87908,17.101016 C 133.43894,17.408758 133.01812,17.738033 132.61506,18.085244 L 135.04765,20.613312 C 135.45191,20.263297 135.8792,19.934522 136.33144,19.63566 L 133.87908,17.101016 z M 152.13181,17.59478 L 150.29173,20.119548 C 150.7114,20.455143 151.10756,20.824315 151.47347,21.222281 L 153.31355,18.681057 C 152.93949,18.296595 152.54673,17.931608 152.13181,17.59478 z M 159.92667,18.035869 L 156.69417,20.208423 C 156.96583,20.663695 157.21601,21.138919 157.44139,21.630452 L 160.68047,19.441449 C 160.44723,18.958629 160.1964,18.490225 159.92667,18.035869 z M 124.17173,18.493427 C 123.886,18.936509 123.61423,19.38831 123.35868,19.849626 L 127.37131,21.814794 C 127.62805,21.350191 127.90289,20.896764 128.19754,20.455301 L 124.17173,18.493427 z M 143.07952,19.369025 L 143.24411,21.758832 C 143.79032,21.752734 144.33491,21.80374 144.86693,21.910256 L 144.69905,19.513861 C 144.16555,19.423416 143.62436,19.374152 143.07952,19.369025 z M 141.10117,19.543486 C 140.69407,19.620798 140.29115,19.723257 139.8931,19.852914 C 139.77339,19.891906 139.65485,19.931956 139.5376,19.974712 L 140.55804,22.275639 C 140.78271,22.189882 141.01243,22.112667 141.2493,22.045211 C 141.54031,21.962349 141.83439,21.897857 142.13149,21.851006 L 141.10117,19.543486 z M 146.43051,19.964831 L 145.7985,22.160428 C 146.31792,22.333795 146.81729,22.561028 147.28307,22.841821 L 147.91508,20.63635 C 147.44162,20.371939 146.94432,20.148623 146.43051,19.964831 z M 137.57901,20.926022 C 137.1158,21.212895 136.67737,21.532424 136.2689,21.880631 L 138.08265,23.766801 C 138.488,23.411335 138.9307,23.092892 139.40922,22.818778 L 137.57901,20.926022 z M 155.23263,21.189363 L 152.71445,22.884608 C 152.98883,23.342412 153.23098,23.825121 153.43534,24.33627 L 155.9634,22.627861 C 155.74711,22.128347 155.50276,21.648253 155.23263,21.189363 z M 129.79732,21.232156 C 129.49538,21.670972 129.21811,22.126471 128.95793,22.591643 L 132.17726,24.168391 C 132.43768,23.698917 132.72211,23.243901 133.0364,22.808903 L 129.79732,21.232156 z M 149.25153,21.541584 L 147.96446,23.309249 C 148.39397,23.642967 148.78482,24.02796 149.12315,24.461363 L 150.41352,22.680523 C 150.06115,22.264872 149.67203,21.883472 149.25153,21.541584 z M 168.46545,22.581774 L 163.91954,23.704258 C 164.01636,24.228367 164.09292,24.753888 164.14668,25.281004 L 168.69915,24.145353 C 168.63873,23.623254 168.56025,23.101392 168.46545,22.581774 z M 134.64935,23.595634 C 134.32243,24.023451 134.02602,24.472539 133.76059,24.941958 L 136.19319,26.133565 C 136.45429,25.657381 136.75898,25.207878 137.10171,24.787247 L 134.64935,23.595634 z M 141.50606,23.806307 C 141.42697,23.831996 141.34968,23.860142 141.27235,23.8886 L 141.2921,23.928093 C 141.3625,23.886149 141.43393,23.845562 141.50606,23.806307 z M 151.25621,23.862262 L 149.51816,25.030832 C 149.79971,25.485836 150.03096,25.981756 150.19626,26.521986 L 151.94089,25.343548 C 151.75717,24.818442 151.52795,24.324605 151.25621,23.862262 z M 162.20784,24.128897 L 158.52437,25.040701 C 158.62163,25.571123 158.68872,26.103066 158.72517,26.637203 L 162.41851,25.715513 C 162.37218,25.185213 162.30189,24.656258 162.20784,24.128897 z M 140.68642,24.138766 C 140.18389,24.382987 139.72346,24.686744 139.31047,25.040701 L 139.62318,25.366591 C 139.96571,24.948148 140.36101,24.573317 140.79833,24.253977 L 140.68642,24.138766 z M 156.81925,25.46534 L 153.9719,26.169771 C 154.07239,26.704873 154.12735,27.246001 154.13648,27.786017 L 156.99042,27.071712 C 156.96749,26.535271 156.912,25.998536 156.81925,25.46534 z M 138.74428,25.587133 C 138.37416,25.988631 138.05315,26.43646 137.7831,26.913707 L 138.54679,27.285672 C 138.72686,26.771242 138.97155,26.288166 139.27097,25.843893 L 138.74428,25.587133 z M 120.96229,26.047978 C 120.84049,26.561669 120.73855,27.080108 120.64957,27.601681 L 125.18888,28.08557 C 125.27764,27.560801 125.38502,27.039954 125.51477,26.52528 L 120.96229,26.047978 z M 152.26677,26.591116 L 150.42011,27.048668 C 150.61673,27.543721 150.75556,28.068637 150.82169,28.61554 L 152.37539,28.227113 C 152.39509,27.682532 152.36099,27.133228 152.26677,26.591116 z M 127.28902,26.709621 C 127.15133,27.22473 127.03582,27.746334 126.94338,28.273206 L 130.60381,28.664915 C 130.69475,28.133875 130.81371,27.60701 130.9626,27.091455 L 127.28902,26.709621 z M 132.74673,27.279091 C 132.58383,27.792501 132.45157,28.316506 132.35501,28.84925 L 135.15299,29.148803 C 135.2436,28.611348 135.38008,28.08381 135.55788,27.572057 L 132.74673,27.279091 z M 137.36834,27.76298 C 137.16081,28.267223 137.00756,28.795036 136.90749,29.336433 L 138.19127,29.474682 C 138.19077,29.441904 138.19127,29.408839 138.19127,29.375939 C 138.19127,28.854823 138.25348,28.349584 138.37232,27.865022 L 137.36834,27.76298 z M 150.86449,29.188303 C 150.86633,29.250913 150.86778,29.312864 150.86778,29.375939 C 150.86778,29.862247 150.81371,30.336481 150.70978,30.791381 L 151.80922,30.906592 C 152.01173,30.402098 152.16461,29.876907 152.26019,29.336433 L 150.86449,29.188303 z M 154.0081,29.524068 C 153.92107,30.060027 153.79006,30.586483 153.61638,31.097515 L 156.42753,31.390481 C 156.58735,30.877982 156.71551,30.354991 156.80938,29.823615 L 154.0081,29.524068 z M 158.56059,30.011239 C 158.47199,30.540964 158.35462,31.063564 158.20838,31.57811 L 161.88195,31.959957 C 162.01755,31.445777 162.13046,30.925395 162.221,30.399666 L 158.56059,30.011239 z M 138.23078,30.083657 L 136.77912,30.445753 C 136.75533,30.99023 136.78784,31.53891 136.87787,32.081749 L 138.61591,31.650529 C 138.42488,31.155396 138.29178,30.629691 138.23078,30.083657 z M 163.97551,30.587295 C 163.88838,31.111888 163.78427,31.632954 163.65621,32.147586 L 168.20539,32.621594 C 168.32561,32.108746 168.4273,31.591792 168.51482,31.071178 L 163.97551,30.587295 z M 135.01803,30.886842 L 132.16079,31.601154 C 132.18133,32.137351 132.23517,32.674293 132.32538,33.207519 L 135.17273,32.503089 C 135.07564,31.967558 135.02388,31.426779 135.01803,30.886842 z M 150.55177,31.350975 C 150.38145,31.869115 150.14471,32.359634 149.85392,32.809217 L 150.44973,33.098895 C 150.81709,32.693407 151.13437,32.246408 151.40105,31.76574 L 150.55177,31.350975 z M 130.42275,32.035668 L 126.7327,32.957347 C 126.77736,33.487341 126.84453,34.016791 126.93681,34.543969 L 130.61697,33.632159 C 130.52208,33.101737 130.45697,32.569592 130.42275,32.035668 z M 138.86279,32.213411 L 137.19716,33.339193 C 137.37797,33.866321 137.60272,34.362676 137.87198,34.827059 L 139.61002,33.65849 C 139.42333,33.351323 139.2585,33.026679 139.12284,32.680843 C 139.02999,32.529377 138.94296,32.37287 138.86279,32.213411 z M 152.98766,32.545882 C 152.72982,33.023434 152.43179,33.476146 152.09231,33.898787 L 154.53808,35.090401 C 154.8632,34.660738 155.15679,34.208515 155.42026,33.737489 L 152.98766,32.545882 z M 149.51488,33.286531 C 149.18066,33.71172 148.79329,34.091159 148.36276,34.418882 L 148.51418,34.573593 C 149.01156,34.327014 149.4651,34.01967 149.87367,33.665077 L 149.51488,33.286531 z M 125.00125,33.391861 L 120.44877,34.527512 C 120.5079,35.049605 120.58571,35.571405 120.6792,36.091097 L 125.2218,34.965314 C 125.12691,34.442164 125.05329,33.91789 125.00125,33.391861 z M 140.0116,34.244421 L 138.71795,36.028541 C 139.06806,36.444473 139.45846,36.824944 139.87664,37.167492 L 141.16372,35.403122 C 140.73547,35.067143 140.34807,34.680109 140.0116,34.244421 z M 135.70271,34.34647 L 133.17136,36.054885 C 133.38573,36.555144 133.6273,37.036906 133.89555,37.496664 L 136.41373,35.804706 C 136.14146,35.345321 135.9047,34.859159 135.70271,34.34647 z M 157.00689,34.514344 C 156.74815,34.98515 156.46048,35.437342 156.14774,35.873843 L 159.38681,37.453871 C 159.68791,37.013423 159.96705,36.557857 160.22621,36.091097 L 157.00689,34.514344 z M 147.87558,34.757935 C 147.75447,34.833408 147.62999,34.904543 147.50362,34.971895 C 147.64108,34.930777 147.77619,34.882942 147.90851,34.833647 L 147.87558,34.757935 z M 151.10149,34.938977 C 150.69922,35.295158 150.25985,35.61459 149.78479,35.890293 L 151.61172,37.779755 C 152.0728,37.491623 152.50876,37.170939 152.91524,36.821858 L 151.10149,34.938977 z M 141.85827,35.883711 L 141.22955,38.089177 C 141.70001,38.352445 142.19378,38.577099 142.70426,38.760695 L 143.33955,36.568392 C 142.82168,36.394194 142.32249,36.164822 141.85827,35.883711 z M 148.62281,36.446593 C 148.38983,36.536439 148.15135,36.616807 147.90521,36.686903 C 147.62257,36.767381 147.33451,36.828024 147.04606,36.874526 L 148.07638,39.182041 C 148.47577,39.105193 148.87079,39.003144 149.2614,38.875907 C 149.38919,38.834286 149.51499,38.790143 149.63996,38.744233 L 148.62281,36.446593 z M 144.28759,36.821858 L 144.45876,39.218247 C 144.99222,39.308349 145.5335,39.354968 146.0783,39.359795 L 145.9137,36.973282 C 145.36661,36.979563 144.82046,36.928545 144.28759,36.821858 z M 161.81284,36.867939 C 161.55708,37.334046 161.2804,37.787723 160.9866,38.230725 L 165.01241,40.192606 C 165.29732,39.748528 165.56752,39.295376 165.82216,38.833113 L 161.81284,36.867939 z M 131.69008,37.055569 L 128.451,39.244584 C 128.68299,39.728015 128.93628,40.195123 129.20481,40.650158 L 132.43072,38.480898 C 132.1606,38.024623 131.91383,37.548055 131.69008,37.055569 z M 137.6613,37.486795 L 135.81793,40.02472 C 136.19154,40.410593 136.58496,40.776136 136.99966,41.114291 L 138.83975,38.592822 C 138.42048,38.255877 138.0265,37.886204 137.6613,37.486795 z M 154.13648,38.092471 C 153.73405,38.443048 153.30959,38.770356 152.85929,39.070117 L 155.30834,41.604761 C 155.74754,41.296023 156.16698,40.965348 156.56908,40.617239 L 154.13648,38.092471 z M 140.7325,39.817347 L 139.84702,42.918166 C 140.32856,43.150269 140.82312,43.357099 141.3283,43.537016 L 142.21707,40.44936 C 141.7078,40.271978 141.21052,40.06246 140.7325,39.817347 z M 126.9796,40.238687 L 123.00645,42.92146 C 123.24695,43.388911 123.50453,43.8484 123.77344,44.300702 L 127.73999,41.634385 C 127.47028,41.182419 127.21648,40.716832 126.9796,40.238687 z M 150.35427,40.350611 C 150.17424,40.418501 149.993,40.484502 149.80784,40.544821 C 149.47717,40.652535 149.14357,40.744348 148.80715,40.821331 L 150.20943,43.961656 C 150.63346,43.853637 151.05361,43.726607 151.47017,43.57981 C 151.56065,43.547924 151.65061,43.514407 151.74009,43.481061 L 150.35427,40.350611 z M 144.58384,41.012248 L 144.82085,44.333621 C 145.35159,44.391275 145.88748,44.423693 146.42393,44.425789 L 146.19679,41.117584 C 145.65539,41.118977 145.11759,41.083022 144.58384,41.012248 z M 134.76786,41.473093 L 132.42414,44.702292 C 132.80821,45.068917 133.20745,45.419195 133.61905,45.752357 L 135.96276,42.53962 C 135.54767,42.205291 135.14762,41.850118 134.76786,41.473093 z M 157.79361,41.891145 C 157.39492,42.239676 156.97837,42.571377 156.54604,42.885254 L 159.60407,46.045329 C 160.02688,45.727223 160.43901,45.396732 160.83519,45.05122 L 157.79361,41.891145 z M 139.35655,44.633168 L 138.23407,48.553635 C 138.71844,48.766508 139.2121,48.963419 139.71206,49.139567 L 140.83783,45.232262 C 140.33389,45.056714 139.84039,44.855292 139.35655,44.633168 z M 152.45441,45.094007 C 152.32177,45.144329 152.1874,45.194712 152.0528,45.242137 C 151.68187,45.372857 151.30902,45.485698 150.93362,45.587771 L 152.69141,49.5247 C 153.16117,49.387784 153.6277,49.232272 154.09039,49.060567 C 154.12563,49.047484 154.16062,49.034304 154.19573,49.021062 L 152.45441,45.094007 z M 144.94593,46.117747 L 145.24219,50.294968 C 145.76871,50.33404 146.29896,50.354303 146.8288,50.354217 L 146.54571,46.186871 C 146.01088,46.188985 145.47634,46.165258 144.94593,46.117747 z"
         style="fill:url(#linearGradient3335);fill-opacity:1;stroke:none;stroke-width:13.94999980999999956;stroke-miterlimit:4;stroke-dasharray:none;stroke-opacity:1" />
    </g>
    <image
       y="101.36218"
       x="16"
       id="image2392"
       height="722"
       width="934"
       sodipodi:absref="/crypt/rob/cxgn/core/sgn-tools/art/sgn2/pastedpic_08072009_125402.png"
       xlink:href="pastedpic_08072009_125402.png"
       sodipodi:insensitive="true" />
    <rect
       style="fill:url(#linearGradient3263);fill-opacity:1;stroke:#757575;stroke-width:1.03713274;stroke-miterlimit:4;stroke-dasharray:none;stroke-opacity:1"
       id="use4923"
       width="117.96286"
       height="27.905472"
       x="734.51849"
       y="54.575455"
       rx="0"
       ry="0" />
    <rect
       ry="0"
       rx="0"
       y="54.489716"
       x="439.49219"
       height="28.020569"
       width="308.01556"
       id="rect5091"
       style="fill:url(#linearGradient3260);fill-opacity:1;stroke:#757575;stroke-width:0.98444909;stroke-miterlimit:4;stroke-dasharray:none;stroke-opacity:1" />
    <g
       id="g4754"
       transform="translate(-150,-13)">
      <rect
         rx="6.0261974"
         y="72.802979"
         x="794.4408"
         height="18.118412"
         width="90.118408"
         id="rect3256"
         style="fill:url(#linearGradient5115);fill-opacity:1;stroke:#000000;stroke-width:0.88159204;stroke-miterlimit:4;stroke-dasharray:none;stroke-opacity:1"
         ry="6.0261979" />
      <path
         transform="matrix(0.3218955,0,0,0.5869564,717.5392,34.369564)"
         style="opacity:0.28999999;fill:#ffffff;fill-opacity:1;stroke:none;stroke-width:2;stroke-miterlimit:4;stroke-opacity:1"
         d="M 372.21875,58.3125 C 354.77106,58.585682 337.33919,59.438668 319.89211,59.73092 C 302.50039,60.286935 285.09274,60.559624 267.72391,61.659094 C 255.10705,62.590229 242.48791,63.925732 230.09364,66.514614 C 227.73105,67.129722 225.36033,67.772533 223.15625,68.84375 C 221.17537,70.891052 224.68892,72.830968 226.57968,72.732031 C 230.83302,73.570067 235.12348,74.187297 239.44946,74.497484 C 258.81888,76.063106 278.23626,76.979337 297.5979,78.655275 C 313.85969,80.037953 330.16793,81.36414 346.50305,80.891781 C 373.76692,80.297964 401.02346,79.38644 428.28743,78.803563 C 448.82464,78.508941 469.36851,78.253551 489.88847,77.317073 C 499.98197,76.646063 510.15311,76.167611 520.06887,74.042181 C 522.4278,73.380833 525.03133,73.133801 527.125,71.8125 C 528.55998,69.591914 525.50923,67.696361 523.5,67.84375 C 518.32671,66.223347 512.9163,65.625719 507.5782,64.787243 C 487.68127,62.18307 467.65586,60.665348 447.61125,59.80787 C 430.77282,59.057272 413.92489,58.472869 397.06892,58.349041 C 388.78536,58.251977 380.50259,58.239209 372.21875,58.3125 z"
         id="path2520" />
      <text
         id="text3246"
         y="85.399704"
         x="805.01923"
         style="font-size:13.1173954px;font-style:normal;font-weight:normal;fill:#000000;fill-opacity:1;stroke:none;stroke-width:1px;stroke-linecap:butt;stroke-linejoin:miter;stroke-opacity:1;font-family:Bitstream Vera Sans"
         xml:space="preserve"><tspan
           y="85.399704"
           x="805.01923"
           id="tspan3248"
           sodipodi:role="line">sol search</tspan></text>
    </g>
    <rect
       ry="6.6042109"
       rx="5.4245696"
       y="58.263252"
       x="471.401"
       height="20.197859"
       width="164.19788"
       id="rect3391"
       style="fill:url(#linearGradient4748);fill-opacity:1;stroke:#000000;stroke-width:0.80214244;stroke-miterlimit:4;stroke-dasharray:none;stroke-opacity:1"
       inkscape:export-filename="/crypt/rob/cxgn/core/sgn-tools/art/sgn2/front6.png"
       inkscape:export-xdpi="90"
       inkscape:export-ydpi="90" />
    <text
       xml:space="preserve"
       style="font-size:17.55874443px;font-style:normal;font-weight:normal;fill:#000000;fill-opacity:1;stroke:none;stroke-width:1px;stroke-linecap:butt;stroke-linejoin:miter;stroke-opacity:1;font-family:Bitstream Vera Sans"
       x="639.49548"
       y="399.901"
       id="text4838"><tspan
         sodipodi:role="line"
         id="tspan4840"
         x="639.49548"
         y="399.901"
         style="font-weight:bold">Jobs</tspan></text>
    <g
       id="g4850"
       transform="matrix(0.9604136,0,0,0.990046,-33.501411,-0.287547)">
      <text
         xml:space="preserve"
         style="font-size:11.04746151px;font-style:normal;font-weight:normal;fill:#000000;fill-opacity:1;stroke:none;stroke-width:1px;stroke-linecap:butt;stroke-linejoin:miter;stroke-opacity:1;font-family:Bitstream Vera Sans"
         x="553.09198"
         y="49.90876"
         id="text3812"><tspan
           style="font-size:12px;font-style:normal;font-variant:normal;font-weight:normal;font-stretch:normal;text-align:start;line-height:125%;writing-mode:lr-tb;text-anchor:start;font-family:Arial Black;-inkscape-font-specification:'Arial Black,'"
           sodipodi:role="line"
           id="tspan3814"
           x="553.09198"
           y="49.90876">Robert Buels:</tspan></text>
      <text
         id="text3816"
         y="48.710365"
         x="879.89673"
         style="font-size:10.79747772px;font-style:normal;font-weight:normal;fill:#000000;fill-opacity:1;stroke:none;stroke-width:1px;stroke-linecap:butt;stroke-linejoin:miter;stroke-opacity:1;font-family:Bitstream Vera Sans"
         xml:space="preserve"><tspan
           y="48.710365"
           x="879.89673"
           id="tspan3818"
           sodipodi:role="line"
           style="font-weight:normal">log out</tspan></text>
      <text
         id="text3820"
         y="49.459488"
         x="650.0874"
         style="font-size:12.0677433px;font-style:normal;font-weight:normal;fill:#000000;fill-opacity:1;stroke:none;stroke-width:1px;stroke-linecap:butt;stroke-linejoin:miter;stroke-opacity:1;font-family:Bitstream Vera Sans"
         xml:space="preserve"><tspan
           y="49.459488"
           x="650.0874"
           id="tspan3822"
           sodipodi:role="line"
           style="font-weight:bold;fill:#000000;fill-opacity:1;stroke:none;stroke-opacity:1">MySGN  |  Data  |  Hotlist  |  Help</tspan></text>
    </g>
    <text
       id="text3399"
       y="72.496048"
       x="759.28094"
       style="font-size:14.13369656px;font-style:normal;font-weight:normal;fill:#000000;fill-opacity:1;stroke:none;stroke-width:1px;stroke-linecap:butt;stroke-linejoin:miter;stroke-opacity:1;font-family:Bitstream Vera Sans"
       xml:space="preserve"><tspan
         y="72.496048"
         x="759.28094"
         id="tspan3401"
         sodipodi:role="line"
         style="font-weight:bold">data types</tspan></text>
    <rect
       style="fill:url(#linearGradient3283);fill-opacity:1;stroke:#757575;stroke-width:0.96915329;stroke-miterlimit:4;stroke-dasharray:none;stroke-opacity:1"
       id="use4743"
       width="100.031"
       height="28.005018"
       x="294.4696"
       y="54.49749"
       rx="0"
       ry="0" />
    <rect
       style="fill:url(#linearGradient3280);fill-opacity:1;stroke:#757575;stroke-width:1;stroke-miterlimit:4;stroke-dasharray:none;stroke-opacity:1"
       id="rect3939"
       width="71.000008"
       height="28.005018"
       x="224.5"
       y="54.49749"
       rx="0"
       ry="0" />
    <text
       xml:space="preserve"
       style="font-size:16.53158951px;font-style:normal;font-weight:normal;fill:#ffffff;fill-opacity:1;stroke:none;stroke-width:1px;stroke-linecap:butt;stroke-linejoin:miter;stroke-opacity:1;font-family:Bitstream Vera Sans"
       x="235.52771"
       y="72.916298"
       id="text3278"><tspan
         sodipodi:role="line"
         id="tspan3280"
         x="235.52771"
         y="72.916298">maps</tspan></text>
    <text
       xml:space="preserve"
       style="font-size:16.53158951px;font-style:normal;font-weight:normal;fill:#000000;fill-opacity:1;stroke:none;stroke-width:1px;stroke-linecap:butt;stroke-linejoin:miter;stroke-opacity:1;font-family:Bitstream Vera Sans"
       x="307.93906"
       y="72.916298"
       id="text3282"><tspan
         sodipodi:role="line"
         id="tspan3284"
         x="307.93906"
         y="72.916298">genomes</tspan></text>
    <rect
       style="fill:url(#linearGradient3273);fill-opacity:1;stroke:#757575;stroke-width:0.78850532;stroke-miterlimit:4;stroke-dasharray:none;stroke-opacity:1"
       id="use4745"
       width="66.215378"
       height="28.005018"
       x="394.31006"
       y="54.49749"
       rx="0"
       ry="0" />
    <text
       xml:space="preserve"
       style="font-size:16.53158951px;font-style:normal;font-weight:normal;fill:#000000;fill-opacity:1;stroke:none;stroke-width:1px;stroke-linecap:butt;stroke-linejoin:miter;stroke-opacity:1;font-family:Bitstream Vera Sans"
       x="405.62161"
       y="72.916298"
       id="text3286"><tspan
         sodipodi:role="line"
         id="tspan3288"
         x="405.62161"
         y="72.916298">tools</tspan></text>
    <rect
       style="fill:url(#linearGradient3268);fill-opacity:1;stroke:#757575;stroke-width:1;stroke-miterlimit:4;stroke-dasharray:none;stroke-opacity:1"
       id="use5071"
       width="111"
       height="28.005018"
       x="113.5"
       y="54.49749"
       rx="0"
       ry="0" />
    <text
       id="text3306"
       y="73.362076"
       x="126.40889"
       style="font-size:16.53158951px;font-style:normal;font-weight:normal;fill:#000000;fill-opacity:1;stroke:none;stroke-width:1px;stroke-linecap:butt;stroke-linejoin:miter;stroke-opacity:1;font-family:Bitstream Vera Sans"
       xml:space="preserve"><tspan
         y="73.362076"
         x="126.40889"
         id="tspan3308"
         sodipodi:role="line">phenomes</tspan></text>
    <text
       xml:space="preserve"
       style="font-size:14px;font-style:normal;font-variant:normal;font-weight:normal;font-stretch:normal;fill:#000000;fill-opacity:1;stroke:none;stroke-width:1px;stroke-linecap:butt;stroke-linejoin:miter;stroke-opacity:1;font-family:Times New Roman;-inkscape-font-specification:'Times New Roman,'"
       x="481"
       y="73"
       id="text3766"><tspan
         sodipodi:role="line"
         id="tspan3768"
         x="481"
         y="73">TG124</tspan></text>
    <g
       id="g2487"
       transform="translate(-2,-282)">
      <g
         transform="matrix(1.0909651,0,0,1,-82.852374,7)"
         id="g4902">
        <rect
           ry="0"
           rx="0"
           y="32.461231"
           x="582.47937"
           height="20.077539"
           width="339.0582"
           id="rect4879"
           style="opacity:1;fill:#f1efef;fill-opacity:1;stroke:#575757;stroke-width:0.90782505;stroke-miterlimit:4;stroke-dasharray:none;stroke-opacity:1" />
        <text
           xml:space="preserve"
           style="font-size:10px;font-style:normal;font-weight:normal;fill:#000000;fill-opacity:1;stroke:none;stroke-width:1px;stroke-linecap:butt;stroke-linejoin:miter;stroke-opacity:1;font-family:Bitstream Vera Sans"
           x="592.36292"
           y="46"
           id="text4881"><tspan
             sodipodi:role="line"
             id="tspan4883"
             x="592.36292"
             y="46"
             style="font-weight:bold">user:</tspan></text>
        <rect
           style="opacity:1;fill:#ffffff;fill-opacity:1;stroke:#2d2d2d;stroke-width:0.98413521;stroke-miterlimit:4;stroke-dasharray:none;stroke-opacity:1"
           id="rect4885"
           width="91.041092"
           height="16"
           x="626.10004"
           y="34.5"
           rx="0"
           ry="0" />
        <g
           id="g4897"
           transform="matrix(0.9932604,0,0,1,98.316215,-0.5)">
          <rect
             ry="5.2931237"
             rx="4.8753333"
             y="35"
             x="761"
             height="16"
             width="54.605263"
             id="rect4889"
             style="opacity:1;fill:#666666;fill-opacity:1;stroke:#000000;stroke-width:1;stroke-miterlimit:4;stroke-dasharray:none;stroke-opacity:1" />
          <text
             transform="scale(0.9874685,1.0126906)"
             id="text3405"
             y="45.283722"
             x="782.25195"
             style="font-size:9.87468433px;font-style:normal;font-weight:normal;fill:#ffffff;fill-opacity:1;stroke:none;stroke-width:1px;stroke-linecap:butt;stroke-linejoin:miter;stroke-opacity:1;font-family:Bitstream Vera Sans"
             xml:space="preserve"><tspan
               style="font-weight:bold"
               y="45.283722"
               x="782.25195"
               id="tspan3407"
               sodipodi:role="line">log in</tspan></text>
        </g>
        <rect
           ry="0"
           rx="0"
           y="34.5"
           x="750.07104"
           height="16"
           width="91.041092"
           id="rect3403"
           style="opacity:1;fill:#ffffff;fill-opacity:1;stroke:#2d2d2d;stroke-width:0.98413521;stroke-miterlimit:4;stroke-dasharray:none;stroke-opacity:1" />
        <text
           id="text3429"
           y="46"
           x="720.20972"
           style="font-size:10px;font-style:normal;font-weight:normal;fill:#000000;fill-opacity:1;stroke:none;stroke-width:1px;stroke-linecap:butt;stroke-linejoin:miter;stroke-opacity:1;font-family:Bitstream Vera Sans"
           xml:space="preserve"><tspan
             style="font-weight:bold"
             y="46"
             x="720.20972"
             id="tspan3431"
             sodipodi:role="line">pw:</tspan></text>
      </g>
      <path
         id="rect3252"
         d="M 846.9375,37.65625 C 845.54519,37.769904 843.99228,38.329784 843.38272,39.69255 C 842.64815,41.047131 843.01323,42.848701 844.15545,43.869676 C 845.30445,44.963957 846.82119,45.658558 848.40625,45.78125 C 852.69889,46.36249 856.97506,47.052274 861.25,47.75 C 863.79146,48.117279 866.35359,48.308178 868.92101,48.335795 C 874.51672,48.500562 880.11589,48.608029 885.71378,48.58361 C 888.51997,48.45835 891.32089,48.25071 894.11167,47.928998 C 897.25331,47.615479 900.3917,47.27094 903.53125,46.9375 C 904.94501,46.648917 906.15714,45.770332 907.04867,44.658395 C 907.98626,43.625287 908.58261,42.127233 908.125,40.75 C 907.83385,39.686456 906.98869,38.806575 905.94179,38.457964 C 904.5445,37.891497 903.04421,38.319474 901.59557,38.273693 C 898.74435,38.376621 895.90524,38.696251 893.05186,38.768722 C 887.15435,39.149986 881.24167,38.901672 875.34389,38.661861 C 866.03135,38.316241 856.7188,37.97062 847.40625,37.625 C 847.25,37.635417 847.09375,37.645833 846.9375,37.65625 z"
         style="opacity:0.26000001;fill:#f1efef;fill-opacity:1;stroke:none;stroke-width:2;stroke-miterlimit:4;stroke-opacity:1" />
    </g>
    <rect
       y="56.75"
       x="225.75"
       height="3.75"
       width="69.25"
       id="rect3264"
       style="opacity:0.6;fill:#f2f2f2;fill-opacity:1;stroke:none;stroke-width:2;stroke-miterlimit:4;stroke-dasharray:none;stroke-opacity:1" />
    <g
       id="g2563"
       transform="translate(-88,4)">
      <rect
         y="108"
         x="63"
         height="540"
         width="145"
         id="rect2559"
         style="opacity:1;fill:#ffffff;fill-opacity:1;stroke:none;stroke-width:2;stroke-miterlimit:4;stroke-dasharray:none;stroke-opacity:1" />
      <image
         xlink:href="/crypt/rob/cxgn/curr/art/sgn2/snap17.png"
         sodipodi:absref="/crypt/rob/cxgn/curr/art/sgn2/snap17.png"
         width="753"
         height="690"
         id="image2555"
         x="195"
         y="94" />
    </g>
    <text
       transform="scale(0.9580355,1.0438027)"
       xml:space="preserve"
       style="font-size:13.16582298px;font-style:normal;font-weight:normal;fill:#808080;fill-opacity:1;stroke:none;stroke-width:1px;stroke-linecap:butt;stroke-linejoin:miter;stroke-opacity:1;font-family:Bitstream Vera Sans"
       x="179.80226"
       y="33.253342"
       id="text2640"><tspan
         style="font-size:13.16582298px;font-weight:bold;fill:#808080"
         sodipodi:role="line"
         id="tspan2642"
         x="179.80226"
         y="33.253342">genomics</tspan></text>
    <text
       id="text2644"
       y="46.783127"
       x="179.66376"
       style="font-size:13.16582298px;font-style:normal;font-weight:normal;fill:#808080;fill-opacity:1;stroke:none;stroke-width:1px;stroke-linecap:butt;stroke-linejoin:miter;stroke-opacity:1;font-family:Bitstream Vera Sans"
       xml:space="preserve"
       transform="scale(0.9580355,1.0438027)"><tspan
         y="46.783127"
         x="179.66376"
         id="tspan2646"
         sodipodi:role="line"
         style="font-size:13.16582298px;font-weight:bold;fill:#808080">network</tspan></text>
    <rect
       style="opacity:1;fill:url(#linearGradient3426);fill-opacity:1;stroke:#757575;stroke-width:1;stroke-miterlimit:4;stroke-dasharray:none;stroke-opacity:1"
       id="rect2648"
       width="730"
       height="24"
       x="116.5"
       y="131.5"
       rx="0"
       ry="0" />
  </g>
</svg>
