<?xml version="1.0" encoding="UTF-8" standalone="no"?>
<!-- Created with Inkscape (http://www.inkscape.org/) -->
<svg
   xmlns:dc="http://purl.org/dc/elements/1.1/"
   xmlns:cc="http://creativecommons.org/ns#"
   xmlns:rdf="http://www.w3.org/1999/02/22-rdf-syntax-ns#"
   xmlns:svg="http://www.w3.org/2000/svg"
   xmlns="http://www.w3.org/2000/svg"
   xmlns:xlink="http://www.w3.org/1999/xlink"
   xmlns:sodipodi="http://sodipodi.sourceforge.net/DTD/sodipodi-0.dtd"
   xmlns:inkscape="http://www.inkscape.org/namespaces/inkscape"
   width="1000"
   height="1052"
   id="svg2"
   sodipodi:version="0.32"
   inkscape:version="0.46"
   version="1.0"
   sodipodi:docname="front8.svg"
   inkscape:output_extension="org.inkscape.output.svg.inkscape"
   inkscape:export-filename="/crypt/rob/cxgn/core/sgn-tools/art/sgn2/front7.png"
   inkscape:export-xdpi="90"
   inkscape:export-ydpi="90">
  <defs
     id="defs4">
    <linearGradient
       id="linearGradient5109">
      <stop
         style="stop-color:#f99002;stop-opacity:1;"
         offset="0"
         id="stop5111" />
      <stop
         style="stop-color:#f0f0f0;stop-opacity:1;"
         offset="1"
         id="stop5113" />
    </linearGradient>
    <linearGradient
       id="linearGradient5065">
      <stop
         id="stop5067"
         offset="0"
         style="stop-color:#cbcbcb;stop-opacity:1;" />
      <stop
         id="stop5069"
         offset="1"
         style="stop-color:#fbfbfb;stop-opacity:1;" />
    </linearGradient>
    <linearGradient
       id="linearGradient4731">
      <stop
         style="stop-color:#ababab;stop-opacity:1;"
         offset="0"
         id="stop4733" />
      <stop
         style="stop-color:#fbfbfb;stop-opacity:1;"
         offset="1"
         id="stop4735" />
    </linearGradient>
    <linearGradient
       id="linearGradient4711">
      <stop
         style="stop-color:#115400;stop-opacity:1;"
         offset="0"
         id="stop4713" />
      <stop
         style="stop-color:#4acc2c;stop-opacity:1;"
         offset="1"
         id="stop4715" />
    </linearGradient>
    <linearGradient
       id="linearGradient3488">
      <stop
         id="stop3490"
         offset="0"
         style="stop-color:#000000;stop-opacity:1" />
      <stop
         style="stop-color:#4e4e4e;stop-opacity:1;"
         offset="0.31917229"
         id="stop3496" />
      <stop
         id="stop3492"
         offset="1"
         style="stop-color:#e4e4e4;stop-opacity:0;" />
    </linearGradient>
    <linearGradient
       id="linearGradient3289">
      <stop
         style="stop-color:#ece9e9;stop-opacity:1;"
         offset="0"
         id="stop3291" />
      <stop
         style="stop-color:#fdfdfd;stop-opacity:1;"
         offset="1"
         id="stop3293" />
    </linearGradient>
    <linearGradient
       id="linearGradient3350">
      <stop
         style="stop-color:#e5e1de;stop-opacity:1;"
         offset="0"
         id="stop3352" />
      <stop
         style="stop-color:#fffdf9;stop-opacity:1;"
         offset="1"
         id="stop3354" />
    </linearGradient>
    <linearGradient
       id="linearGradient3161">
      <stop
         style="stop-color:#f7ff12;stop-opacity:1;"
         offset="0"
         id="stop3163" />
      <stop
         style="stop-color:#f20000;stop-opacity:1;"
         offset="1"
         id="stop3165" />
    </linearGradient>
    <inkscape:perspective
       sodipodi:type="inkscape:persp3d"
       inkscape:vp_x="0 : 526.18109 : 1"
       inkscape:vp_y="0 : 1000 : 0"
       inkscape:vp_z="744.09448 : 526.18109 : 1"
       inkscape:persp3d-origin="372.04724 : 350.78739 : 1"
       id="perspective10" />
    <inkscape:perspective
       id="perspective2390"
       inkscape:persp3d-origin="372.04724 : 350.78739 : 1"
       inkscape:vp_z="744.09448 : 526.18109 : 1"
       inkscape:vp_y="0 : 1000 : 0"
       inkscape:vp_x="0 : 526.18109 : 1"
       sodipodi:type="inkscape:persp3d" />
    <linearGradient
       inkscape:collect="always"
       xlink:href="#linearGradient3289"
       id="linearGradient3295"
       x1="417.49802"
       y1="-0.048662286"
       x2="417.49802"
       y2="87.901924"
       gradientUnits="userSpaceOnUse"
       gradientTransform="matrix(0.9999719,0,0,1.0586247,2.0137778,2.9448568)" />
    <clipPath
       clipPathUnits="userSpaceOnUse"
       id="clipPath3470">
      <rect
         rx="0.077317901"
         y="-49.375546"
         x="535.42584"
         height="19.041536"
         width="265.97363"
         id="rect3472"
         style="opacity:0.2;fill:#ff4d1f;fill-opacity:1;stroke:none;stroke-width:0.88159186;stroke-miterlimit:4;stroke-dasharray:none;stroke-opacity:1" />
    </clipPath>
    <inkscape:perspective
       id="perspective3666"
       inkscape:persp3d-origin="372.04724 : 350.78739 : 1"
       inkscape:vp_z="744.09448 : 526.18109 : 1"
       inkscape:vp_y="0 : 1000 : 0"
       inkscape:vp_x="0 : 526.18109 : 1"
       sodipodi:type="inkscape:persp3d" />
    <inkscape:perspective
       id="perspective3845"
       inkscape:persp3d-origin="372.04724 : 350.78739 : 1"
       inkscape:vp_z="744.09448 : 526.18109 : 1"
       inkscape:vp_y="0 : 1000 : 0"
       inkscape:vp_x="0 : 526.18109 : 1"
       sodipodi:type="inkscape:persp3d" />
    <linearGradient
       inkscape:collect="always"
       xlink:href="#linearGradient3350"
       id="linearGradient4748"
       gradientUnits="userSpaceOnUse"
       gradientTransform="matrix(0.7783487,0,0,1.0039492,170.95381,-23.036031)"
       x1="624.68182"
       y1="87.005478"
       x2="624.68182"
       y2="96.238503" />
    <linearGradient
       inkscape:collect="always"
       xlink:href="#linearGradient4731"
       id="linearGradient4836"
       gradientUnits="userSpaceOnUse"
       gradientTransform="translate(-4,0)"
       x1="222.99998"
       y1="98"
       x2="222.99998"
       y2="66" />
    <linearGradient
       inkscape:collect="always"
       xlink:href="#linearGradient5065"
       id="linearGradient5063"
       gradientUnits="userSpaceOnUse"
       gradientTransform="translate(-4.0000073,0)"
       x1="222.99998"
       y1="98"
       x2="222.99998"
       y2="66" />
    <linearGradient
       inkscape:collect="always"
       xlink:href="#linearGradient4731"
       id="linearGradient5085"
       gradientUnits="userSpaceOnUse"
       gradientTransform="matrix(0.8790698,0,0,1,673.55811,0)"
       x1="222.99998"
       y1="98"
       x2="222.99998"
       y2="66" />
    <linearGradient
       inkscape:collect="always"
       xlink:href="#linearGradient5109"
       id="linearGradient5115"
       x1="839.5"
       y1="80.362183"
       x2="839.5"
       y2="69.362183"
       gradientUnits="userSpaceOnUse"
       spreadMethod="pad"
       gradientTransform="translate(0,-1)" />
    <linearGradient
       inkscape:collect="always"
       xlink:href="#linearGradient4731"
       id="linearGradient3260"
       gradientUnits="userSpaceOnUse"
       gradientTransform="matrix(0.9686023,0,0,1.0005554,37.020721,-4.0813539e-2)"
       x1="222.99998"
       y1="98"
       x2="222.99998"
       y2="66" />
    <linearGradient
       inkscape:collect="always"
       xlink:href="#linearGradient4731"
       id="linearGradient3263"
       gradientUnits="userSpaceOnUse"
       gradientTransform="matrix(1.0794815,0,0,0.9964454,643.65897,0.2613604)"
       x1="222.99998"
       y1="98"
       x2="222.99998"
       y2="66" />
    <linearGradient
       inkscape:collect="always"
       xlink:href="#linearGradient4731"
       id="linearGradient3268"
       gradientUnits="userSpaceOnUse"
       x1="222.99998"
       y1="98"
       x2="222.99998"
       y2="66"
       gradientTransform="translate(40,0)" />
    <linearGradient
       inkscape:collect="always"
       xlink:href="#linearGradient4731"
       id="linearGradient3273"
       gradientUnits="userSpaceOnUse"
       gradientTransform="matrix(0.6217406,0,0,1,380.30329,1.162818e-8)"
       x1="222.99998"
       y1="98"
       x2="222.99998"
       y2="66" />
    <linearGradient
       inkscape:collect="always"
       xlink:href="#linearGradient4711"
       id="linearGradient3280"
       gradientUnits="userSpaceOnUse"
       gradientTransform="translate(113.5,4.4999999)"
       x1="231"
       y1="93.032227"
       x2="231"
       y2="61.963768" />
    <linearGradient
       inkscape:collect="always"
       xlink:href="#linearGradient4731"
       id="linearGradient3283"
       gradientUnits="userSpaceOnUse"
       gradientTransform="matrix(0.9392581,0,0,1,226.32613,1.162818e-8)"
       x1="222.99998"
       y1="98"
       x2="222.99998"
       y2="66" />
    <linearGradient
       inkscape:collect="always"
       xlink:href="#linearGradient3161"
       id="linearGradient3451"
       gradientUnits="userSpaceOnUse"
       gradientTransform="matrix(0.182692,9.2715177e-3,-9.2715177e-3,0.182692,114.83693,36.361171)"
       x1="86.898064"
       y1="119.21311"
       x2="222.47614"
       y2="243.21469" />
  </defs>
  <sodipodi:namedview
     id="base"
     pagecolor="#ffffff"
     bordercolor="#ebebeb"
     borderopacity="1"
     gridtolerance="10000"
     guidetolerance="10"
     objecttolerance="10"
     inkscape:pageopacity="0.0"
     inkscape:pageshadow="2"
     inkscape:zoom="1"
     inkscape:cx="588.13196"
     inkscape:cy="737.26829"
     inkscape:document-units="px"
     inkscape:current-layer="layer1"
     showgrid="false"
     inkscape:window-width="1119"
     inkscape:window-height="788"
     inkscape:window-x="53"
     inkscape:window-y="41"
     showborder="true"
     showguides="true"
     inkscape:guide-bbox="true"
     inkscape:showpageshadow="false" />
  <metadata
     id="metadata7">
    <rdf:RDF>
      <cc:Work
         rdf:about="">
        <dc:format>image/svg+xml</dc:format>
        <dc:type
           rdf:resource="http://purl.org/dc/dcmitype/StillImage" />
      </cc:Work>
    </rdf:RDF>
  </metadata>
  <g
     inkscape:label="Layer 1"
     inkscape:groupmode="layer"
     id="layer1">
    <rect
       style="opacity:1;fill:url(#linearGradient3295);fill-opacity:1;stroke:none;stroke-width:1.02888047999999999;stroke-miterlimit:4;stroke-dasharray:none;stroke-opacity:1"
       id="rect2430"
       width="1769.9712"
       height="465.72849"
       x="-465.48553"
       y="-370.24292"
       rx="4.9998603"
       ry="5.2931237" />
    <rect
       style="opacity:1;fill:#cccccc;fill-opacity:1;stroke:none;stroke-width:1;stroke-miterlimit:4;stroke-dasharray:none;stroke-opacity:1"
       id="rect4919"
       width="1119"
       height="1"
       x="-39.5"
       y="88.970589"
       rx="0"
       ry="0" />
    <g
       id="g3443"
       transform="matrix(1.1310252,0,0,1.1310252,21.923774,-10.685753)">
      <g
         transform="matrix(1.0391081,0,0,1.0391081,-24.552227,-15.890363)"
         id="g3250">
        <path
           sodipodi:nodetypes="ccsccccsccsccccccccccccccccccccccccccccsccscccccccccccccccccccccccccccccccccsccscccccccccccccccccccccccccccccccccccccccccccccccccccccccccccccccccccccccccccccccccccccccccscccsccccccccccccccccccccccccccccccccccccccccccccccccccccccccccccccccccccccccccccccccccccccccccsccsccccccccccccccccccccccccccccccccccccccsccscccccccccccccccccccccccsccsccccccc"
           id="path2516"
           d="M 132.09386,36.212303 L 132.56794,43.036691 C 132.64882,43.036272 132.72948,43.030645 132.81034,43.030917 C 133.60533,43.033638 134.39723,43.070545 135.18612,43.140275 L 134.69585,36.305143 C 133.83237,36.24229 132.96271,36.210818 132.09386,36.212303 z M 122.53975,37.574134 C 121.75693,37.802554 120.97919,38.060735 120.20844,38.348147 C 120.16524,38.364275 120.12236,38.380582 120.07926,38.396841 L 122.93907,44.81882 C 123.14192,44.741849 123.34712,44.664444 123.5528,44.591608 C 124.17193,44.372328 124.79426,44.178992 125.42112,44.006859 L 122.53975,37.574134 z M 143.71099,38.17089 L 141.87884,44.567959 C 142.70493,44.853401 143.51649,45.177306 144.30984,45.53913 L 146.13661,39.12051 C 145.34163,38.773438 144.53142,38.457571 143.71099,38.17089 z M 111.24711,43.253603 C 110.55504,43.773929 109.88348,44.318443 109.23501,44.883611 L 114.22066,50.047103 C 114.87459,49.476317 115.55584,48.930897 116.26507,48.417023 L 111.24711,43.253603 z M 153.67462,43.67123 L 149.85291,48.934857 C 150.53437,49.479719 151.18721,50.062206 151.81109,50.677089 L 155.63814,45.381142 C 155.00716,44.78289 154.35052,44.21455 153.67462,43.67123 z M 132.7718,45.907552 L 133.15206,51.320736 C 134.03625,51.317456 134.91462,51.374555 135.78648,51.488945 L 135.39542,46.054237 C 134.52676,45.961083 133.64964,45.909781 132.7718,45.907552 z M 169.79035,45.983602 L 163.30612,50.357226 C 163.75083,51.096773 164.16843,51.856772 164.55949,52.639264 L 171.04906,48.238702 C 170.65189,47.47419 170.23387,46.723161 169.79035,45.983602 z M 126.61043,46.666089 C 125.90387,46.846018 125.20441,47.059326 124.51058,47.305055 C 124.37709,47.352336 124.24436,47.401907 124.11216,47.451136 L 126.38815,52.570419 C 126.6686,52.464864 126.95073,52.361758 127.2388,52.267412 C 127.79217,52.086184 128.35007,51.930061 128.91338,51.801499 L 126.61043,46.666089 z M 141.08059,47.343457 L 139.63413,52.393233 C 140.47028,52.681809 141.28552,53.029009 142.07061,53.429036 L 143.51164,48.346948 C 142.72177,47.968748 141.90901,47.635985 141.08059,47.343457 z M 118.28845,50.509312 C 117.56896,51.014062 116.88116,51.554002 116.22246,52.123245 L 120.20987,56.254047 C 120.87053,55.680209 121.56892,55.141073 122.30822,54.650821 L 118.28845,50.509312 z M 148.15974,51.270041 L 145.15504,55.406514 C 145.8427,55.954617 146.49196,56.557729 147.09179,57.20804 L 150.09643,53.044637 C 149.48331,52.416447 148.83962,51.820175 148.15974,51.270041 z M 160.91692,51.971671 L 155.63267,55.535364 C 156.0784,56.279698 156.48906,57.056739 156.85916,57.860534 L 162.15413,54.269905 C 161.7712,53.48039 161.35951,52.714511 160.91692,51.971671 z M 102.40627,52.813105 C 101.93983,53.538934 101.49625,54.278998 101.07925,55.034589 L 107.65089,58.240126 C 108.06983,57.479152 108.51843,56.736421 108.99947,56.013218 L 102.40627,52.813105 z M 133.35054,54.196995 L 133.62608,58.107414 C 134.51993,58.096019 135.41127,58.178077 136.28217,58.351009 L 136.00124,54.429818 C 135.12795,54.283191 134.24218,54.203973 133.35054,54.196995 z M 130.1135,54.487622 C 129.44748,54.615196 128.78839,54.783911 128.13734,54.997121 C 127.94152,55.061242 127.74764,55.127089 127.55588,55.197362 L 129.23176,58.960114 C 129.5992,58.819192 129.97494,58.692236 130.36239,58.581233 C 130.83841,58.444879 131.31947,58.338577 131.80556,58.261137 L 130.1135,54.487622 z M 138.83589,55.16333 L 137.8073,58.757994 C 138.65778,59.040358 139.47556,59.410923 140.23852,59.869226 L 141.26707,56.258403 C 140.49159,55.82693 139.6772,55.462769 138.83589,55.16333 z M 124.35318,56.759226 C 123.59588,57.229886 122.87924,57.753921 122.21168,58.324809 L 125.18471,61.406767 C 125.84713,60.824008 126.57078,60.301739 127.35316,59.85192 L 124.35318,56.759226 z M 153.24344,57.144428 L 149.12691,59.92517 C 149.57712,60.673641 149.97465,61.462953 150.31041,62.298902 L 154.44306,59.496592 C 154.08781,58.679714 153.6867,57.894688 153.24344,57.144428 z M 111.61947,57.280371 C 111.12649,57.999262 110.67394,58.74539 110.24937,59.507303 L 115.52177,62.07926 C 115.94674,61.310306 116.41101,60.564949 116.9242,59.852274 L 111.61947,57.280371 z M 143.45648,57.736327 L 141.3548,60.632391 C 142.05855,61.177397 142.69916,61.806414 143.25396,62.514786 L 145.361,59.597153 C 144.78328,58.917868 144.14549,58.294727 143.45648,57.736327 z M 174.90216,59.388775 L 167.46582,61.237465 C 167.62564,62.094903 167.75227,62.954703 167.84161,63.817172 L 175.28866,61.946918 C 175.18842,61.092675 175.05863,60.238868 174.90216,59.388775 z M 119.56579,61.135555 C 119.0319,61.836511 118.548,62.572199 118.11485,63.341075 L 122.09881,65.284798 C 122.52486,64.504863 123.02231,63.768475 123.58209,63.079238 L 119.56579,61.135555 z M 130.78712,61.462546 C 130.65777,61.504791 130.53136,61.551051 130.40489,61.597821 L 130.4373,61.6624 C 130.55241,61.593578 130.6692,61.526973 130.78712,61.462546 z M 146.74309,61.528849 L 143.90186,63.445681 C 144.36378,64.18955 144.7435,65.00051 145.01541,65.884151 L 147.86739,63.951152 C 147.56536,63.09231 147.18899,62.284754 146.74309,61.528849 z M 164.66579,61.936809 L 158.64027,63.438493 C 158.8008,64.306259 158.91196,65.176595 158.973,66.0506 L 165.01465,64.532711 C 164.93746,63.665011 164.82105,62.799574 164.66579,61.936809 z M 129.44667,62.008729 C 128.62493,62.40969 127.87224,62.907973 127.19732,63.488283 L 127.70989,64.020782 C 128.26934,63.335125 128.91529,62.720701 129.63012,62.196979 L 129.44667,62.008729 z M 155.85098,64.137821 L 151.19321,65.297977 C 151.35905,66.173396 151.45039,67.058792 151.46672,67.942487 L 156.13527,66.766154 C 156.09634,65.888344 156.00415,65.010139 155.85098,64.137821 z M 126.27218,64.383969 C 125.66754,65.041967 125.14337,65.775659 124.70267,66.557357 L 125.95338,67.164088 C 126.24673,66.321771 126.64592,65.530599 127.13475,64.802784 L 126.27218,64.383969 z M 97.173713,65.184209 C 96.975724,66.025163 96.810248,66.873836 96.66599,67.727605 L 104.09565,68.507711 C 104.23955,67.648712 104.41393,66.796085 104.62493,65.9535 L 97.173713,65.184209 z M 148.40392,65.991915 L 145.38309,66.74547 C 145.70614,67.555099 145.93469,68.413748 146.04433,69.308566 L 148.58591,68.668891 C 148.61674,67.777651 148.5595,66.87882 148.40392,65.991915 z M 107.52892,66.250572 C 107.30492,67.093887 107.11724,67.947776 106.96734,68.810224 L 112.95852,69.441758 C 113.10597,68.572493 113.29929,67.709986 113.5416,66.865911 L 107.52892,66.250572 z M 116.46175,67.168347 C 116.1965,68.008949 115.98143,68.86681 115.8248,69.738879 L 120.40437,70.221838 C 120.55127,69.342074 120.77323,68.478421 121.06287,67.640492 L 116.46175,67.168347 z M 124.02613,67.94824 C 123.68782,68.773957 123.4384,69.638103 123.27605,70.524341 L 125.37727,70.747254 C 125.37636,70.693616 125.3771,70.639504 125.37702,70.585664 C 125.37566,69.732876 125.47616,68.905906 125.66938,68.112628 L 124.02613,67.94824 z M 146.11585,70.245763 C 146.11903,70.348219 146.12156,70.449595 146.12171,70.552815 C 146.12298,71.348644 146.03574,72.124853 145.86682,72.869552 L 147.66632,73.055242 C 147.99642,72.229129 148.24524,71.369273 148.40025,70.484556 L 146.11585,70.245763 z M 151.26114,70.787087 C 151.12011,71.664391 150.90709,72.52626 150.62419,73.362999 L 155.22531,73.835143 C 155.48552,72.99604 155.69388,72.13985 155.84612,71.270027 L 151.26114,70.787087 z M 158.71241,71.572528 C 158.5688,72.439637 158.37808,73.29516 158.14009,74.137578 L 164.15277,74.752938 C 164.37334,73.911147 164.55677,73.059266 164.70357,72.198692 L 158.71241,71.572528 z M 125.4435,71.74372 L 123.06884,72.340042 C 123.03132,73.231122 123.08594,74.128937 123.23468,75.017042 L 126.07781,74.306859 C 125.76392,73.497085 125.54474,72.637132 125.4435,71.74372 z M 167.57525,72.501195 C 167.43403,73.3599 167.265,74.212879 167.05676,75.05539 L 174.50259,75.8193 C 174.69799,74.979729 174.86307,74.133487 175.00494,73.281292 L 167.57525,72.501195 z M 120.18802,73.066434 L 115.5141,74.242787 C 115.54909,75.120202 115.63858,75.998752 115.78759,76.871127 L 120.44537,75.71097 C 120.28509,74.834843 120.19899,73.950008 120.18802,73.066434 z M 145.6097,73.78572 C 145.33232,74.63408 144.94618,75.437413 144.47147,76.173895 L 145.44725,76.646401 C 146.04736,75.981879 146.56544,75.249558 147.00058,74.462268 L 145.6097,73.78572 z M 112.67097,74.95836 L 106.63471,76.476221 C 106.70916,77.343424 106.82045,78.209679 106.97283,79.072148 L 112.99294,77.570464 C 112.83628,76.702691 112.72836,75.83202 112.67097,74.95836 z M 126.48329,75.227359 L 123.76046,77.073983 C 124.0577,77.936143 124.42679,78.74783 124.86863,79.507081 L 127.70985,77.590249 C 127.40354,77.088063 127.13296,76.557222 126.91006,75.991624 C 126.75772,75.743995 126.61489,75.488101 126.48329,75.227359 z M 149.59906,75.734835 C 149.17835,76.517002 148.6918,77.258624 148.13735,77.951143 L 152.14285,79.894842 C 152.67379,79.19087 153.15307,78.450061 153.58301,77.678558 L 149.59906,75.734835 z M 143.91787,76.955883 C 143.37204,77.652558 142.7391,78.274501 142.03541,78.811926 L 142.2836,79.064713 C 143.0969,78.659905 143.83831,78.15577 144.506,77.574432 L 143.91787,76.955883 z M 103.80237,77.191776 L 96.355338,79.062032 C 96.453451,79.916268 96.582133,80.769975 96.73647,81.620191 L 104.16736,79.766112 C 104.01072,78.910238 103.88889,78.05247 103.80237,77.191776 z M 128.36854,78.548067 L 126.25614,81.471076 C 126.83017,82.150828 127.47003,82.772446 128.15525,83.331931 L 130.25694,80.44126 C 129.55527,79.89255 128.92028,79.260184 128.36854,78.548067 z M 121.31745,78.726233 L 117.1794,81.528559 C 117.5315,82.346663 117.92807,83.134426 118.36824,83.88611 L 122.48478,81.110747 C 122.03802,80.359684 121.64932,79.564708 121.31745,78.726233 z M 156.1815,78.945746 C 155.7593,79.716875 155.28972,80.45762 154.77906,81.172749 L 160.08378,83.750022 C 160.57539,83.028463 161.03101,82.282221 161.45391,81.51771 L 156.1815,78.945746 z M 141.23903,79.368037 C 141.04104,79.491861 140.83751,79.608593 140.63088,79.719141 C 140.85572,79.651495 141.07671,79.572865 141.2931,79.491852 L 141.23903,79.368037 z M 146.5186,79.655948 C 145.86123,80.239869 145.14303,80.763747 144.36633,81.216158 L 147.36094,84.30347 C 148.11473,83.830755 148.82734,83.304837 149.49163,82.732524 L 146.5186,79.655948 z M 131.39481,81.225928 L 130.37164,84.836733 C 131.14222,85.266344 131.95084,85.632704 132.78669,85.93183 L 133.82065,82.342549 C 132.97272,82.058821 132.15522,81.684755 131.39481,81.225928 z M 142.46623,82.129538 C 142.0852,82.277171 141.69514,82.409309 141.29251,82.524657 C 140.83018,82.65709 140.35894,82.757075 139.88703,82.833923 L 141.57909,86.607428 C 142.23249,86.480633 142.87866,86.31261 143.51756,86.103378 C 143.72656,86.034937 143.93232,85.962371 144.13671,85.886917 L 142.46623,82.129538 z M 135.37274,82.754881 L 135.65907,86.676053 C 136.53229,86.822121 137.4182,86.897007 138.30976,86.903496 L 138.03422,82.998467 C 137.13895,83.010165 136.24504,82.92809 135.37274,82.754881 z M 164.05238,82.784877 C 163.63506,83.548309 163.18345,84.291454 162.7038,85.017175 L 169.297,88.217299 C 169.7621,87.489841 170.20309,86.747572 170.61862,85.990433 L 164.05238,82.784877 z M 114.75792,83.169985 L 109.46293,86.760635 C 109.84383,87.551152 110.25955,88.314905 110.70017,89.058858 L 115.97365,85.500573 C 115.53042,84.754594 115.12536,83.975345 114.75792,83.169985 z M 124.53075,83.860201 L 121.52071,88.018213 C 122.13311,88.648714 122.77788,89.245893 123.45739,89.798198 L 126.46211,85.667125 C 125.77512,85.116812 125.12942,84.512873 124.53075,83.860201 z M 151.49343,84.808676 C 150.83579,85.383428 150.14201,85.920157 149.40589,86.411874 L 153.42026,90.553393 C 154.13818,90.047015 154.82374,89.504789 155.48085,88.934078 L 151.49343,84.808676 z M 129.56271,87.666118 L 128.12169,92.742806 C 128.91031,93.121388 129.72019,93.458575 130.54737,93.751697 L 131.99381,88.696539 C 131.15993,88.40758 130.34562,88.065999 129.56271,87.666118 z M 107.05761,88.391266 L 100.56262,92.791836 C 100.95742,93.556182 101.38013,94.307453 101.82135,95.046935 L 108.30559,90.673312 C 107.86304,89.934382 107.44651,89.173121 107.05761,88.391266 z M 145.30982,88.513853 C 145.01538,88.62542 144.71897,88.733899 144.4161,88.833089 C 143.87526,89.010216 143.32958,89.16133 142.77922,89.288181 L 145.08216,94.423591 C 145.77578,94.245723 146.46302,94.036754 147.14433,93.795445 C 147.2923,93.74303 147.43944,93.687948 147.58579,93.633145 L 145.30982,88.513853 z M 135.86841,89.611555 L 136.26487,95.046264 C 137.13356,95.139238 138.01062,95.1909 138.88849,95.19294 L 138.50823,89.779755 C 137.62225,89.783438 136.74205,89.725992 135.86841,89.611555 z M 119.80606,90.391151 L 115.97899,95.681708 C 116.60847,96.280682 117.26272,96.852866 117.93715,97.397009 L 121.76424,92.133392 C 121.08408,91.587348 120.4285,91.007156 119.80606,90.391151 z M 157.48807,91.015612 C 156.83651,91.587004 156.15571,92.130903 155.44903,92.645672 L 160.46158,97.809112 C 161.15267,97.287447 161.82626,96.745539 162.4737,96.179093 L 157.48807,91.015612 z M 127.32348,95.550623 L 125.49675,101.96926 C 126.28995,102.31637 127.09833,102.63733 127.91695,102.92429 L 129.74911,96.527184 C 128.92398,96.24121 128.11586,95.912869 127.32348,95.550623 z M 148.75892,96.270831 C 148.542,96.353525 148.32224,96.436323 148.10209,96.514281 C 147.49541,96.729162 146.88554,96.914789 146.27148,97.082801 L 149.15825,103.52092 C 149.92665,103.29564 150.6897,103.03994 151.44644,102.75776 C 151.50407,102.73625 151.5613,102.71459 151.61872,102.69283 L 148.75892,96.270831 z M 136.47419,97.965606 L 136.96984,104.80074 C 137.83156,104.86332 138.69936,104.8951 139.56643,104.89358 L 139.09236,98.07458 C 138.21713,98.079427 137.34232,98.041982 136.47419,97.965606 z"
           style="fill:#000000;fill-opacity:1;stroke:none;stroke-width:13.94999981;stroke-miterlimit:4;stroke-dasharray:none;stroke-opacity:1" />
        <path
           style="fill:url(#linearGradient3451);fill-opacity:1;stroke:none;stroke-width:13.94999981;stroke-miterlimit:4;stroke-dasharray:none;stroke-opacity:1"
           d="M 133.02605,35.767528 L 133.48932,42.592658 C 133.5702,42.592368 133.65087,42.586868 133.73173,42.587268 C 134.52672,42.591248 135.31856,42.629408 136.10733,42.700388 L 135.62788,35.864488 C 134.76451,35.800268 133.8949,35.767418 133.02605,35.767528 z M 123.46979,37.114228 C 122.68662,37.341408 121.90846,37.598358 121.13727,37.884548 C 121.09404,37.900608 121.05113,37.916848 121.008,37.933038 L 123.85764,44.359538 C 124.06062,44.282888 124.26594,44.205808 124.47174,44.133298 C 125.0912,43.914998 125.71384,43.722648 126.34098,43.551508 L 123.46979,37.114228 z M 144.64007,37.744508 L 142.79778,44.138668 C 143.62342,44.425418 144.43447,44.750608 145.22724,45.113688 L 147.06417,38.697968 C 146.26975,38.349638 145.46004,38.032488 144.64007,37.744508 z M 112.16818,42.775808 C 111.47528,43.295038 110.80286,43.838488 110.1535,44.402628 L 115.13096,49.574008 C 115.7858,49.004258 116.46791,48.459918 117.17795,47.947168 L 112.16818,42.775808 z M 154.59497,43.260618 L 150.76493,48.518188 C 151.44553,49.064128 152.09744,49.647648 152.72035,50.263518 L 156.55578,44.973638 C 155.92575,44.374388 155.27001,43.805008 154.59497,43.260618 z M 133.68863,45.463838 L 134.06033,50.877618 C 134.94451,50.875738 135.82279,50.934228 136.69448,51.049998 L 136.31202,45.614678 C 135.44351,45.520148 134.56647,45.467458 133.68863,45.463838 z M 170.70702,45.598508 L 164.21587,49.961858 C 164.65941,50.702108 165.0758,51.462768 165.46563,52.245878 L 171.96215,47.855598 C 171.56619,47.090458 171.14937,46.338768 170.70702,45.598508 z M 127.52607,46.212618 C 126.81923,46.391428 126.11943,46.603628 125.42521,46.848258 C 125.29165,46.895328 125.15884,46.944688 125.02657,46.993708 L 127.29444,52.116588 C 127.57506,52.011478 127.85735,51.908818 128.14557,51.814928 C 128.69923,51.634578 129.25738,51.479338 129.82088,51.351668 L 127.52607,46.212618 z M 141.99514,46.912898 L 140.54068,51.960378 C 141.37638,52.250278 142.19107,52.598768 142.97553,53.000038 L 144.4246,47.920238 C 143.63533,47.540788 142.8231,47.206738 141.99514,46.912898 z M 119.19801,50.042658 C 118.47773,50.546268 117.78907,51.085118 117.12947,51.653318 L 121.11034,55.790428 C 121.7719,55.217638 122.47114,54.679608 123.21122,54.190528 L 119.19801,50.042658 z M 149.06806,50.850688 L 146.05682,54.982398 C 146.74361,55.531588 147.39191,56.135728 147.99071,56.786988 L 151.00194,52.628348 C 150.38981,51.999188 149.74707,51.401898 149.06806,50.850688 z M 161.82412,51.572518 L 156.53423,55.127838 C 156.97879,55.872878 157.38821,56.650568 157.75704,57.454948 L 163.05769,53.872708 C 162.67601,53.082588 162.26553,52.316058 161.82412,51.572518 z M 103.31221,52.321298 C 102.84462,53.046388 102.39987,53.785748 101.98167,54.540678 L 108.54823,57.756618 C 108.96837,56.996308 109.41815,56.254288 109.90033,55.531848 L 103.31221,52.321298 z M 134.25425,53.754188 L 134.5236,57.665038 C 135.41746,57.655058 136.30867,57.738528 137.1793,57.912838 L 136.90457,53.991208 C 136.03152,53.843198 135.14587,53.762578 134.25425,53.754188 z M 131.01675,54.039688 C 130.35053,54.166208 129.69117,54.333878 129.03978,54.546058 C 128.84387,54.609868 128.64988,54.675408 128.45801,54.745378 L 130.12793,58.510778 C 130.4956,58.370438 130.87153,58.244078 131.25916,58.133688 C 131.73539,57.998088 132.21663,57.892548 132.70283,57.815878 L 131.01675,54.039688 z M 139.73806,54.729208 L 138.70378,58.322238 C 139.55381,58.605948 140.37101,58.977808 141.13324,59.437318 L 142.16751,55.828128 C 141.39271,55.395428 140.57889,55.029978 139.73806,54.729208 z M 125.25284,56.302168 C 124.4948,56.771628 123.77733,57.294528 123.10887,57.864358 L 126.07702,60.95102 C 126.74036,60.36931 127.46483,59.848188 128.24792,59.399608 L 125.25284,56.302168 z M 154.14246,56.733118 L 150.02153,59.507338 C 150.47055,60.25652 150.86683,61.04646 151.20126,61.88294 L 155.33835,59.087178 C 154.98439,58.269738 154.58452,57.484078 154.14246,56.733118 z M 112.51833,56.803148 C 112.0242,57.521258 111.57047,58.266668 111.14469,59.027908 L 116.41302,61.60821 C 116.8392,60.83993 117.30466,60.09531 117.81898,59.383448 L 112.51833,56.803148 z M 144.35457,57.309518 L 142.24831,60.20225 C 142.9512,60.74837 143.59081,61.3784 144.14448,62.08765 L 146.25614,59.173358 C 145.67949,58.493158 145.0427,57.869008 144.35457,57.309518 z M 175.79759,59.011758 L 168.35834,60.84867 C 168.51679,61.70636 168.64207,62.56636 168.73004,63.42897 L 176.18004,61.57051 C 176.08116,60.71611 175.95272,59.862098 175.79759,59.011758 z M 120.45853,60.67091 C 119.92353,61.37102 119.43847,62.10594 119.0041,62.87413 L 122.98498,64.82416 C 123.41226,64.0449 123.91087,63.3093 124.47174,62.62095 L 120.45853,60.67091 z M 131.67933,61.01567 C 131.54991,61.05771 131.42343,61.10377 131.29688,61.15034 L 131.32919,61.21497 C 131.44441,61.14633 131.5613,61.07991 131.67933,61.01567 z M 147.63517,61.10724 L 144.79091,63.01957 C 145.25165,63.76417 145.63009,64.57573 145.9006,65.4598 L 148.75563,63.53132 C 148.45497,62.672 148.07987,61.86385 147.63517,61.10724 z M 165.5572,61.54358 L 159.52931,63.03572 C 159.68847,63.90374 159.79825,64.77425 159.8579,65.64835 L 165.90195,64.14003 C 165.82613,63.27221 165.7111,62.40659 165.5572,61.54358 z M 130.33801,61.55973 C 129.51564,61.95939 128.76216,62.45648 128.08632,63.03572 L 128.59805,63.56903 C 129.15859,62.88426 129.8055,62.27086 130.52116,61.74827 L 130.33801,61.55973 z M 156.73892,63.73063 L 152.07932,64.88341 C 152.24377,65.75909 152.33371,66.64463 152.34864,67.52835 L 157.01904,66.35941 C 156.98151,65.48154 156.89071,64.60319 156.73892,63.73063 z M 127.15977,63.92994 C 126.55408,64.58698 126.02875,65.31984 125.58682,66.10084 L 126.83657,66.70955 C 127.13125,65.8677 127.53169,65.07716 128.02167,64.35012 L 127.15977,63.92994 z M 98.06005,64.6841 C 97.86073,65.52474 97.69391,66.37315 97.5483,67.22669 L 104.97674,68.01856 C 105.122,67.15979 105.29773,66.30744 105.51005,65.46519 L 98.06005,64.6841 z M 149.28893,65.57293 L 146.26691,66.3217 C 146.58868,67.13184 146.81587,67.99085 146.92409,68.88584 L 149.46668,68.25019 C 149.49892,67.359 149.44311,66.46008 149.28893,65.57293 z M 108.41357,65.76686 C 108.18824,66.60982 107.99921,67.46341 107.84794,68.32562 L 113.83812,68.96664 C 113.98694,68.09761 114.18162,67.23541 114.42527,66.39172 L 108.41357,65.76686 z M 117.34494,66.69878 C 117.07836,67.53896 116.86193,68.39648 116.70391,69.2683 L 121.28272,69.75851 C 121.43101,68.87898 121.65434,68.01568 121.94531,67.17821 L 117.34494,66.69878 z M 124.90807,67.49065 C 124.56846,68.31583 124.31767,69.17958 124.15391,70.06556 L 126.25478,70.2918 C 126.25396,70.23816 126.25478,70.18405 126.25478,70.13021 C 126.25478,69.27742 126.35658,68.45061 126.55106,67.65764 L 124.90807,67.49065 z M 146.99413,69.82315 C 146.99715,69.92561 146.99951,70.02699 146.99951,70.13021 C 146.99951,70.92604 146.91104,71.70211 146.74095,72.44654 L 148.54015,72.63508 C 148.87156,71.80949 149.12174,70.95003 149.27815,70.06556 L 146.99413,69.82315 z M 152.13855,70.37262 C 151.99613,71.2497 151.78175,72.11123 151.49752,72.94752 L 156.09789,73.42695 C 156.35943,72.58826 156.56915,71.7324 156.72277,70.86282 L 152.13855,70.37262 z M 159.58857,71.16986 C 159.44358,72.03674 159.25151,72.89196 159.01219,73.734 L 165.02389,74.35888 C 165.24579,73.51744 165.43057,72.66585 165.57873,71.80551 L 159.58857,71.16986 z M 126.31943,71.28837 L 123.94383,71.88093 C 123.9049,72.77195 123.9581,73.66985 124.10543,74.55819 L 126.94969,73.85251 C 126.63707,73.04224 126.41926,72.18194 126.31943,71.28837 z M 168.44993,72.11256 C 168.30735,72.97104 168.13697,73.82375 167.9274,74.66593 L 175.37201,75.44163 C 175.56874,74.60237 175.73516,73.75639 175.87838,72.90442 L 168.44993,72.11256 z M 121.06187,72.60276 L 116.38608,73.77171 C 116.41969,74.64918 116.50779,75.52787 116.65542,76.40048 L 121.31503,75.2477 C 121.15614,74.37132 121.07144,73.48635 121.06187,72.60276 z M 146.48237,73.3623 C 146.20365,74.21022 145.81624,75.01294 145.34037,75.74867 L 146.31539,76.22272 C 146.91656,75.55915 147.43579,74.82765 147.87219,74.04105 L 146.48237,73.3623 z M 113.54183,74.48278 L 107.50317,75.99108 C 107.57625,76.8584 107.68617,77.72483 107.83718,78.58754 L 113.85966,77.09539 C 113.70437,76.22737 113.59783,75.35653 113.54183,74.48278 z M 127.3537,74.77365 L 124.62795,76.61596 C 124.92383,77.47859 125.29164,78.29086 125.73227,79.05081 L 128.57652,77.13848 C 128.27101,76.63581 128.00127,76.10454 127.77927,75.53859 C 127.62732,75.29072 127.48489,75.0346 127.3537,74.77365 z M 150.46864,75.31773 C 150.04669,76.09923 149.55897,76.84008 149.00343,77.53172 L 153.00585,79.48176 C 153.5379,78.77863 154.01835,78.03858 154.44951,77.26776 L 150.46864,75.31773 z M 144.78553,76.52978 C 144.23859,77.22559 143.60467,77.84653 142.90013,78.38284 L 143.14792,78.63602 C 143.96186,78.2325 144.70407,77.72954 145.37268,77.14926 L 144.78553,76.52978 z M 104.6697,76.70215 L 97.2197,78.56061 C 97.31646,79.415 97.44379,80.26891 97.59678,81.11937 L 105.03062,79.27706 C 104.87534,78.42094 104.75486,77.56298 104.6697,76.70215 z M 129.2337,78.09734 L 127.11667,81.017 C 127.68962,81.69766 128.32849,82.32029 129.01283,82.88086 L 131.1191,79.99352 C 130.41829,79.4437 129.78431,78.81033 129.2337,78.09734 z M 122.18233,78.26434 L 118.03985,81.06011 C 118.39065,81.87877 118.78597,82.66716 119.22496,83.41954 L 123.34589,80.6507 C 122.90032,79.89893 122.51288,79.10334 122.18233,78.26434 z M 157.04599,78.53906 C 156.62257,79.30952 156.15181,80.04952 155.64002,80.76384 L 160.94066,83.34951 C 161.4334,82.62873 161.89021,81.88321 162.31432,81.11937 L 157.04599,78.53906 z M 142.10287,78.93769 C 141.90468,79.0612 141.70097,79.17761 141.49417,79.28783 C 141.71911,79.22054 141.94022,79.14226 142.15675,79.06159 L 142.10287,78.93769 z M 147.38198,79.23396 C 146.72368,79.81684 146.00466,80.33958 145.22724,80.79076 L 148.21695,83.88281 C 148.97149,83.41129 149.68494,82.8865 150.35013,82.31524 L 147.38198,79.23396 z M 132.25572,80.77999 L 131.22684,84.38917 C 131.99673,84.82 132.80477,85.18764 133.64015,85.48809 L 134.67979,81.90045 C 133.83231,81.61538 133.0154,81.24002 132.25572,80.77999 z M 143.32569,81.70113 C 142.94443,81.84816 142.55416,81.97968 142.15135,82.09439 C 141.68882,82.22609 141.21742,82.32533 140.74539,82.40143 L 142.43147,86.17761 C 143.08506,86.05185 143.7315,85.88485 144.37073,85.67663 C 144.57984,85.60852 144.78571,85.53628 144.99023,85.46115 L 143.32569,81.70113 z M 136.23123,82.31524 L 136.51134,86.23686 C 137.38433,86.38431 138.27012,86.4606 139.16167,86.4685 L 138.89231,82.56304 C 137.99702,82.57332 137.10325,82.48983 136.23123,82.31524 z M 164.91078,82.39065 C 164.49225,83.15342 164.03947,83.89585 163.55867,84.62081 L 170.14679,87.83137 C 170.61304,87.10465 171.05521,86.36308 171.47193,85.6066 L 164.91078,82.39065 z M 115.61577,82.6977 L 110.31511,86.27996 C 110.69475,87.07108 111.10926,87.83549 111.5487,88.58014 L 116.82781,85.03021 C 116.38576,84.28353 115.98193,83.50364 115.61577,82.6977 z M 125.3875,83.40339 L 122.37087,87.55663 C 122.98228,88.1881 123.6261,88.7863 124.30474,89.33968 L 127.31599,85.21337 C 126.62987,84.66197 125.98514,84.05701 125.3875,83.40339 z M 152.34864,84.39456 C 151.69009,84.96827 150.99547,85.5039 150.25856,85.99445 L 154.26637,90.14232 C 154.9851,89.63708 155.67151,89.09594 156.32953,88.52627 L 152.34864,84.39456 z M 130.41343,87.21727 L 128.96437,92.29167 C 129.75239,92.6715 130.56173,93.00997 131.38844,93.3044 L 132.84289,88.25154 C 132.00947,87.96126 131.1957,87.61839 130.41343,87.21727 z M 107.9072,87.90678 L 101.40526,92.29706 C 101.79884,93.06203 102.22036,93.81397 102.66042,94.55415 L 109.15157,90.1908 C 108.71019,89.45117 108.29486,88.68925 107.9072,87.90678 z M 146.15917,88.08994 C 145.86455,88.20104 145.56797,88.30905 145.26495,88.40776 C 144.72382,88.58403 144.1779,88.73428 143.62735,88.86026 L 145.92215,93.99931 C 146.61606,93.82254 147.30362,93.61466 147.98531,93.37443 C 148.13337,93.32225 148.28059,93.2674 148.42703,93.21283 L 146.15917,88.08994 z M 136.71604,89.17269 L 137.10389,94.60802 C 137.97243,94.70237 138.8494,94.75542 139.72728,94.75885 L 139.35558,89.34507 C 138.4696,89.34735 137.58949,89.28851 136.71604,89.17269 z M 120.65247,89.92685 L 116.81703,95.21134 C 117.44556,95.81131 118.09891,96.38453 118.77247,96.92974 L 122.60789,91.67219 C 121.9286,91.12507 121.27393,90.54384 120.65247,89.92685 z M 158.33344,90.61098 C 157.68099,91.18134 156.99932,91.72416 156.29183,92.23781 L 161.2962,97.40918 C 161.98811,96.88861 162.66255,96.34777 163.31089,95.78235 L 158.33344,90.61098 z M 128.16172,95.09822 L 126.32482,101.51395 C 127.11747,101.86231 127.92534,102.18455 128.74351,102.47281 L 130.58579,96.07862 C 129.76111,95.79134 128.95352,95.46172 128.16172,95.09822 z M 149.59599,95.85237 C 149.37893,95.93472 149.15904,96.01717 148.93877,96.09478 C 148.33175,96.3087 147.72159,96.49336 147.10726,96.6604 L 149.98383,103.10307 C 150.75259,102.87901 151.51605,102.62452 152.27323,102.34353 C 152.33089,102.32212 152.38815,102.30055 152.44561,102.27888 L 149.59599,95.85237 z M 137.30858,97.52769 L 137.79341,104.36359 C 138.65503,104.42753 139.52278,104.46069 140.38985,104.46055 L 139.92658,97.64081 C 139.05134,97.64427 138.17659,97.60544 137.30858,97.52769 z"
           id="path2187"
           sodipodi:nodetypes="ccsccccsccsccccccccccccccccccccccccccccsccscccccccccccccccccccccccccccccccccsccscccccccccccccccccccccccccccccccccccccccccccccccccccccccccccccccccccccccccccccccccccccccccscccsccccccccccccccccccccccccccccccccccccccccccccccccccccccccccccccccccccccccccccccccccccccccccsccsccccccccccccccccccccccccccccccccccccccsccscccccccccccccccccccccccsccsccccccc" />
      </g>
    </g>
    <image
       y="101.36218"
       x="16"
       id="image2392"
       height="722"
       width="934"
       sodipodi:absref="/crypt/rob/cxgn/core/sgn-tools/art/sgn2/pastedpic_08072009_125402.png"
       xlink:href="pastedpic_08072009_125402.png"
       sodipodi:insensitive="true" />
    <rect
       style="fill:url(#linearGradient3263);fill-opacity:1;stroke:#757575;stroke-width:1.03713274;stroke-miterlimit:4;stroke-dasharray:none;stroke-opacity:1"
       id="use4923"
       width="117.96286"
       height="27.905472"
       x="826.51849"
       y="59.575455"
       rx="0"
       ry="0" />
    <rect
       ry="0"
       rx="0"
       y="59.489716"
       x="531.49219"
       height="28.020569"
       width="308.01556"
       id="rect5091"
       style="fill:url(#linearGradient3260);fill-opacity:1;stroke:#757575;stroke-width:0.98444909;stroke-miterlimit:4;stroke-dasharray:none;stroke-opacity:1" />
    <text
       id="text3325"
       y="45.218014"
       x="221.83008"
       style="font-size:23.91481209px;font-style:normal;font-weight:normal;fill:#000000;fill-opacity:1;stroke:none;stroke-width:1px;stroke-linecap:butt;stroke-linejoin:miter;stroke-opacity:1;font-family:Bitstream Vera Sans"
       xml:space="preserve"
       transform="scale(0.9580355,1.0438027)"><tspan
         y="45.218014"
         x="221.83008"
         id="tspan3327"
         sodipodi:role="line"
         style="font-size:23.91481209px;font-weight:bold">sol genomics network</tspan></text>
    <g
       id="g4754"
       transform="translate(-58,-8)">
      <rect
         rx="6.0261974"
         y="72.802979"
         x="794.4408"
         height="18.118412"
         width="90.118408"
         id="rect3256"
         style="fill:url(#linearGradient5115);fill-opacity:1;stroke:#000000;stroke-width:0.88159204;stroke-miterlimit:4;stroke-dasharray:none;stroke-opacity:1"
         ry="6.0261979" />
      <path
         transform="matrix(0.3218955,0,0,0.5869564,717.5392,34.369564)"
         style="opacity:0.28999999;fill:#ffffff;fill-opacity:1;stroke:none;stroke-width:2;stroke-miterlimit:4;stroke-opacity:1"
         d="M 372.21875 58.3125 C 354.77106 58.585682 337.33919 59.438668 319.89211 59.73092 C 302.50039 60.286935 285.09274 60.559624 267.72391 61.659094 C 255.10705 62.590229 242.48791 63.925732 230.09364 66.514614 C 227.73105 67.129722 225.36033 67.772533 223.15625 68.84375 C 221.17537 70.891052 224.68892 72.830968 226.57968 72.732031 C 230.83302 73.570067 235.12348 74.187297 239.44946 74.497484 C 258.81888 76.063106 278.23626 76.979337 297.5979 78.655275 C 313.85969 80.037953 330.16793 81.36414 346.50305 80.891781 C 373.76692 80.297964 401.02346 79.38644 428.28743 78.803563 C 448.82464 78.508941 469.36851 78.253551 489.88847 77.317073 C 499.98197 76.646063 510.15311 76.167611 520.06887 74.042181 C 522.4278 73.380833 525.03133 73.133801 527.125 71.8125 C 528.55998 69.591914 525.50923 67.696361 523.5 67.84375 C 518.32671 66.223347 512.9163 65.625719 507.5782 64.787243 C 487.68127 62.18307 467.65586 60.665348 447.61125 59.80787 C 430.77282 59.057272 413.92489 58.472869 397.06892 58.349041 C 388.78536 58.251977 380.50259 58.239209 372.21875 58.3125 z "
         id="path2520" />
      <text
         id="text3246"
         y="85.399704"
         x="805.01923"
         style="font-size:13.1173954px;font-style:normal;font-weight:normal;fill:#000000;fill-opacity:1;stroke:none;stroke-width:1px;stroke-linecap:butt;stroke-linejoin:miter;stroke-opacity:1;font-family:Bitstream Vera Sans"
         xml:space="preserve"><tspan
           y="85.399704"
           x="805.01923"
           id="tspan3248"
           sodipodi:role="line">sol search</tspan></text>
    </g>
    <rect
       ry="6.6042109"
       rx="5.4245696"
       y="63.263252"
       x="563.401"
       height="20.197859"
       width="164.19788"
       id="rect3391"
       style="fill:url(#linearGradient4748);fill-opacity:1;stroke:#000000;stroke-width:0.80214244;stroke-miterlimit:4;stroke-dasharray:none;stroke-opacity:1"
       inkscape:export-filename="/crypt/rob/cxgn/core/sgn-tools/art/sgn2/front6.png"
       inkscape:export-xdpi="90"
       inkscape:export-ydpi="90" />
    <text
       xml:space="preserve"
       style="font-size:17.55874443px;font-style:normal;font-weight:normal;fill:#000000;fill-opacity:1;stroke:none;stroke-width:1px;stroke-linecap:butt;stroke-linejoin:miter;stroke-opacity:1;font-family:Bitstream Vera Sans"
       x="639.49548"
       y="399.901"
       id="text4838"><tspan
         sodipodi:role="line"
         id="tspan4840"
         x="639.49548"
         y="399.901"
         style="font-weight:bold">Jobs</tspan></text>
    <g
       id="g4850"
       transform="matrix(0.9604136,0,0,0.990046,58.498589,4.712453)">
      <text
         xml:space="preserve"
         style="font-size:11.04746151px;font-style:normal;font-weight:normal;fill:#000000;fill-opacity:1;stroke:none;stroke-width:1px;stroke-linecap:butt;stroke-linejoin:miter;stroke-opacity:1;font-family:Bitstream Vera Sans"
         x="553.09198"
         y="49.90876"
         id="text3812"><tspan
           style="font-size:12px;font-style:normal;font-variant:normal;font-weight:normal;font-stretch:normal;text-align:start;line-height:125%;writing-mode:lr-tb;text-anchor:start;font-family:Arial Black;-inkscape-font-specification:'Arial Black,'"
           sodipodi:role="line"
           id="tspan3814"
           x="553.09198"
           y="49.90876">Robert Buels:</tspan></text>
      <text
         id="text3816"
         y="48.710365"
         x="879.89673"
         style="font-size:10.79747772px;font-style:normal;font-weight:normal;fill:#000000;fill-opacity:1;stroke:none;stroke-width:1px;stroke-linecap:butt;stroke-linejoin:miter;stroke-opacity:1;font-family:Bitstream Vera Sans"
         xml:space="preserve"><tspan
           y="48.710365"
           x="879.89673"
           id="tspan3818"
           sodipodi:role="line"
           style="font-weight:normal">log out</tspan></text>
      <text
         id="text3820"
         y="49.459488"
         x="650.0874"
         style="font-size:12.0677433px;font-style:normal;font-weight:normal;fill:#000000;fill-opacity:1;stroke:none;stroke-width:1px;stroke-linecap:butt;stroke-linejoin:miter;stroke-opacity:1;font-family:Bitstream Vera Sans"
         xml:space="preserve"><tspan
           y="49.459488"
           x="650.0874"
           id="tspan3822"
           sodipodi:role="line"
           style="font-weight:bold;fill:#000000;fill-opacity:1;stroke:none;stroke-opacity:1">MySGN  |  Data  |  Hotlist  |  Help</tspan></text>
    </g>
    <text
       id="text3399"
       y="77.496048"
       x="851.28094"
       style="font-size:14.13369656px;font-style:normal;font-weight:normal;fill:#000000;fill-opacity:1;stroke:none;stroke-width:1px;stroke-linecap:butt;stroke-linejoin:miter;stroke-opacity:1;font-family:Bitstream Vera Sans"
       xml:space="preserve"><tspan
         y="77.496048"
         x="851.28094"
         id="tspan3401"
         sodipodi:role="line"
         style="font-weight:bold">data types</tspan></text>
    <rect
       style="fill:url(#linearGradient3283);fill-opacity:1;stroke:#757575;stroke-width:0.96915329;stroke-miterlimit:4;stroke-dasharray:none;stroke-opacity:1"
       id="use4743"
       width="100.031"
       height="28.005018"
       x="386.4696"
       y="59.49749"
       rx="0"
       ry="0" />
    <rect
       style="fill:url(#linearGradient3280);fill-opacity:1;stroke:#757575;stroke-width:1;stroke-miterlimit:4;stroke-dasharray:none;stroke-opacity:1"
       id="rect3939"
       width="71.000008"
       height="28.005018"
       x="316.5"
       y="59.49749"
       rx="0"
       ry="0" />
    <text
       xml:space="preserve"
       style="font-size:16.53158951px;font-style:normal;font-weight:normal;fill:#ffffff;fill-opacity:1;stroke:none;stroke-width:1px;stroke-linecap:butt;stroke-linejoin:miter;stroke-opacity:1;font-family:Bitstream Vera Sans"
       x="327.52771"
       y="77.916298"
       id="text3278"><tspan
         sodipodi:role="line"
         id="tspan3280"
         x="327.52771"
         y="77.916298">maps</tspan></text>
    <text
       xml:space="preserve"
       style="font-size:16.53158951px;font-style:normal;font-weight:normal;fill:#000000;fill-opacity:1;stroke:none;stroke-width:1px;stroke-linecap:butt;stroke-linejoin:miter;stroke-opacity:1;font-family:Bitstream Vera Sans"
       x="399.93906"
       y="77.916298"
       id="text3282"><tspan
         sodipodi:role="line"
         id="tspan3284"
         x="399.93906"
         y="77.916298">genomes</tspan></text>
    <rect
       style="fill:url(#linearGradient3273);fill-opacity:1;stroke:#757575;stroke-width:0.78850532;stroke-miterlimit:4;stroke-dasharray:none;stroke-opacity:1"
       id="use4745"
       width="66.215378"
       height="28.005018"
       x="486.31006"
       y="59.49749"
       rx="0"
       ry="0" />
    <text
       xml:space="preserve"
       style="font-size:16.53158951px;font-style:normal;font-weight:normal;fill:#000000;fill-opacity:1;stroke:none;stroke-width:1px;stroke-linecap:butt;stroke-linejoin:miter;stroke-opacity:1;font-family:Bitstream Vera Sans"
       x="497.62161"
       y="77.916298"
       id="text3286"><tspan
         sodipodi:role="line"
         id="tspan3288"
         x="497.62161"
         y="77.916298">tools</tspan></text>
    <rect
       style="fill:url(#linearGradient3268);fill-opacity:1;stroke:#757575;stroke-width:1;stroke-miterlimit:4;stroke-dasharray:none;stroke-opacity:1"
       id="use5071"
       width="111"
       height="28.005018"
       x="205.5"
       y="59.49749"
       rx="0"
       ry="0" />
    <text
       id="text3306"
       y="78.362076"
       x="218.40889"
       style="font-size:16.53158951px;font-style:normal;font-weight:normal;fill:#000000;fill-opacity:1;stroke:none;stroke-width:1px;stroke-linecap:butt;stroke-linejoin:miter;stroke-opacity:1;font-family:Bitstream Vera Sans"
       xml:space="preserve"><tspan
         y="78.362076"
         x="218.40889"
         id="tspan3308"
         sodipodi:role="line">phenomes</tspan></text>
    <text
       xml:space="preserve"
       style="font-size:14px;font-style:normal;font-variant:normal;font-weight:normal;font-stretch:normal;fill:#000000;fill-opacity:1;stroke:none;stroke-width:1px;stroke-linecap:butt;stroke-linejoin:miter;stroke-opacity:1;font-family:Times New Roman;-inkscape-font-specification:'Times New Roman,'"
       x="573"
       y="78"
       id="text3766"><tspan
         sodipodi:role="line"
         id="tspan3768"
         x="573"
         y="78">TG124</tspan></text>
    <g
       id="g2487"
       transform="translate(-2,-282)">
      <g
         transform="matrix(1.0909651,0,0,1,-82.852374,7)"
         id="g4902">
        <rect
           ry="0"
           rx="0"
           y="32.461231"
           x="582.47937"
           height="20.077539"
           width="339.0582"
           id="rect4879"
           style="opacity:1;fill:#f1efef;fill-opacity:1;stroke:#575757;stroke-width:0.90782505;stroke-miterlimit:4;stroke-dasharray:none;stroke-opacity:1" />
        <text
           xml:space="preserve"
           style="font-size:10px;font-style:normal;font-weight:normal;fill:#000000;fill-opacity:1;stroke:none;stroke-width:1px;stroke-linecap:butt;stroke-linejoin:miter;stroke-opacity:1;font-family:Bitstream Vera Sans"
           x="592.36292"
           y="46"
           id="text4881"><tspan
             sodipodi:role="line"
             id="tspan4883"
             x="592.36292"
             y="46"
             style="font-weight:bold">user:</tspan></text>
        <rect
           style="opacity:1;fill:#ffffff;fill-opacity:1;stroke:#2d2d2d;stroke-width:0.98413521;stroke-miterlimit:4;stroke-dasharray:none;stroke-opacity:1"
           id="rect4885"
           width="91.041092"
           height="16"
           x="626.10004"
           y="34.5"
           rx="0"
           ry="0" />
        <g
           id="g4897"
           transform="matrix(0.9932604,0,0,1,98.316215,-0.5)">
          <rect
             ry="5.2931237"
             rx="4.8753333"
             y="35"
             x="761"
             height="16"
             width="54.605263"
             id="rect4889"
             style="opacity:1;fill:#666666;fill-opacity:1;stroke:#000000;stroke-width:1;stroke-miterlimit:4;stroke-dasharray:none;stroke-opacity:1" />
          <text
             transform="scale(0.9874685,1.0126906)"
             id="text3405"
             y="45.283722"
             x="782.25195"
             style="font-size:9.87468433px;font-style:normal;font-weight:normal;fill:#ffffff;fill-opacity:1;stroke:none;stroke-width:1px;stroke-linecap:butt;stroke-linejoin:miter;stroke-opacity:1;font-family:Bitstream Vera Sans"
             xml:space="preserve"><tspan
               style="font-weight:bold"
               y="45.283722"
               x="782.25195"
               id="tspan3407"
               sodipodi:role="line">log in</tspan></text>
        </g>
        <rect
           ry="0"
           rx="0"
           y="34.5"
           x="750.07104"
           height="16"
           width="91.041092"
           id="rect3403"
           style="opacity:1;fill:#ffffff;fill-opacity:1;stroke:#2d2d2d;stroke-width:0.98413521;stroke-miterlimit:4;stroke-dasharray:none;stroke-opacity:1" />
        <text
           id="text3429"
           y="46"
           x="720.20972"
           style="font-size:10px;font-style:normal;font-weight:normal;fill:#000000;fill-opacity:1;stroke:none;stroke-width:1px;stroke-linecap:butt;stroke-linejoin:miter;stroke-opacity:1;font-family:Bitstream Vera Sans"
           xml:space="preserve"><tspan
             style="font-weight:bold"
             y="46"
             x="720.20972"
             id="tspan3431"
             sodipodi:role="line">pw:</tspan></text>
      </g>
      <path
         id="rect3252"
         d="M 846.9375,37.65625 C 845.54519,37.769904 843.99228,38.329784 843.38272,39.69255 C 842.64815,41.047131 843.01323,42.848701 844.15545,43.869676 C 845.30445,44.963957 846.82119,45.658558 848.40625,45.78125 C 852.69889,46.36249 856.97506,47.052274 861.25,47.75 C 863.79146,48.117279 866.35359,48.308178 868.92101,48.335795 C 874.51672,48.500562 880.11589,48.608029 885.71378,48.58361 C 888.51997,48.45835 891.32089,48.25071 894.11167,47.928998 C 897.25331,47.615479 900.3917,47.27094 903.53125,46.9375 C 904.94501,46.648917 906.15714,45.770332 907.04867,44.658395 C 907.98626,43.625287 908.58261,42.127233 908.125,40.75 C 907.83385,39.686456 906.98869,38.806575 905.94179,38.457964 C 904.5445,37.891497 903.04421,38.319474 901.59557,38.273693 C 898.74435,38.376621 895.90524,38.696251 893.05186,38.768722 C 887.15435,39.149986 881.24167,38.901672 875.34389,38.661861 C 866.03135,38.316241 856.7188,37.97062 847.40625,37.625 C 847.25,37.635417 847.09375,37.645833 846.9375,37.65625 z"
         style="opacity:0.26000001;fill:#f1efef;fill-opacity:1;stroke:none;stroke-width:2;stroke-miterlimit:4;stroke-opacity:1" />
    </g>
    <rect
       y="61.75"
       x="317.75"
       height="3.75"
       width="69.25"
       id="rect3264"
       style="opacity:0.6;fill:#f2f2f2;fill-opacity:1;stroke:none;stroke-width:2;stroke-miterlimit:4;stroke-dasharray:none;stroke-opacity:1" />
  </g>
</svg>
