<?xml version="1.0" encoding="UTF-8" standalone="no"?>
<!-- Created with Inkscape (http://www.inkscape.org/) -->
<svg
   xmlns:dc="http://purl.org/dc/elements/1.1/"
   xmlns:cc="http://creativecommons.org/ns#"
   xmlns:rdf="http://www.w3.org/1999/02/22-rdf-syntax-ns#"
   xmlns:svg="http://www.w3.org/2000/svg"
   xmlns="http://www.w3.org/2000/svg"
   xmlns:xlink="http://www.w3.org/1999/xlink"
   xmlns:sodipodi="http://sodipodi.sourceforge.net/DTD/sodipodi-0.dtd"
   xmlns:inkscape="http://www.inkscape.org/namespaces/inkscape"
   width="1000"
   height="1052"
   id="svg2"
   sodipodi:version="0.32"
   inkscape:version="0.46"
   version="1.0"
   sodipodi:docname="front6.svg"
   inkscape:output_extension="org.inkscape.output.svg.inkscape"
   inkscape:export-filename="/crypt/rob/cxgn/core/sgn-tools/art/sgn2/front6.png"
   inkscape:export-xdpi="90"
   inkscape:export-ydpi="90">
  <defs
     id="defs4">
    <linearGradient
       id="linearGradient3488">
      <stop
         id="stop3490"
         offset="0"
         style="stop-color:#000000;stop-opacity:1" />
      <stop
         style="stop-color:#4e4e4e;stop-opacity:1;"
         offset="0.31917229"
         id="stop3496" />
      <stop
         id="stop3492"
         offset="1"
         style="stop-color:#e4e4e4;stop-opacity:0;" />
    </linearGradient>
    <linearGradient
       id="linearGradient3289">
      <stop
         style="stop-color:#e4e1e1;stop-opacity:1;"
         offset="0"
         id="stop3291" />
      <stop
         style="stop-color:#fdfdfd;stop-opacity:1;"
         offset="1"
         id="stop3293" />
    </linearGradient>
    <linearGradient
       id="linearGradient3350">
      <stop
         style="stop-color:#d0cad6;stop-opacity:1"
         offset="0"
         id="stop3352" />
      <stop
         style="stop-color:#ffffff;stop-opacity:1;"
         offset="1"
         id="stop3354" />
    </linearGradient>
    <linearGradient
       id="linearGradient3161">
      <stop
         style="stop-color:#f7ff12;stop-opacity:1;"
         offset="0"
         id="stop3163" />
      <stop
         style="stop-color:#f20000;stop-opacity:1;"
         offset="1"
         id="stop3165" />
    </linearGradient>
    <inkscape:perspective
       sodipodi:type="inkscape:persp3d"
       inkscape:vp_x="0 : 526.18109 : 1"
       inkscape:vp_y="0 : 1000 : 0"
       inkscape:vp_z="744.09448 : 526.18109 : 1"
       inkscape:persp3d-origin="372.04724 : 350.78739 : 1"
       id="perspective10" />
    <inkscape:perspective
       id="perspective2390"
       inkscape:persp3d-origin="372.04724 : 350.78739 : 1"
       inkscape:vp_z="744.09448 : 526.18109 : 1"
       inkscape:vp_y="0 : 1000 : 0"
       inkscape:vp_x="0 : 526.18109 : 1"
       sodipodi:type="inkscape:persp3d" />
    <linearGradient
       inkscape:collect="always"
       xlink:href="#linearGradient3161"
       id="linearGradient3254"
       gradientUnits="userSpaceOnUse"
       gradientTransform="matrix(0.182692,9.2715177e-3,-9.2715177e-3,0.182692,106.56445,32.197358)"
       x1="86.898064"
       y1="119.21311"
       x2="222.47614"
       y2="243.21469" />
    <linearGradient
       inkscape:collect="always"
       xlink:href="#linearGradient3289"
       id="linearGradient3295"
       x1="418.40671"
       y1="-0.73781741"
       x2="418.40671"
       y2="98.192665"
       gradientUnits="userSpaceOnUse"
       gradientTransform="matrix(0.999972,0,0,1.0586247,1.3781317e-2,0.944858)" />
    <clipPath
       clipPathUnits="userSpaceOnUse"
       id="clipPath3470">
      <rect
         rx="0.077317901"
         y="-49.375546"
         x="535.42584"
         height="19.041536"
         width="265.97363"
         id="rect3472"
         style="opacity:0.2;fill:#ff4d1f;fill-opacity:1;stroke:none;stroke-width:0.88159186;stroke-miterlimit:4;stroke-dasharray:none;stroke-opacity:1" />
    </clipPath>
    <linearGradient
       inkscape:collect="always"
       xlink:href="#linearGradient3350"
       id="linearGradient3482"
       gradientUnits="userSpaceOnUse"
       gradientTransform="matrix(0.9438829,0,0,1,42.530361,-44.656843)"
       x1="624.68182"
       y1="87.005478"
       x2="624.68182"
       y2="96.238503" />
    <inkscape:perspective
       id="perspective3666"
       inkscape:persp3d-origin="372.04724 : 350.78739 : 1"
       inkscape:vp_z="744.09448 : 526.18109 : 1"
       inkscape:vp_y="0 : 1000 : 0"
       inkscape:vp_x="0 : 526.18109 : 1"
       sodipodi:type="inkscape:persp3d" />
    <inkscape:perspective
       id="perspective3845"
       inkscape:persp3d-origin="372.04724 : 350.78739 : 1"
       inkscape:vp_z="744.09448 : 526.18109 : 1"
       inkscape:vp_y="0 : 1000 : 0"
       inkscape:vp_x="0 : 526.18109 : 1"
       sodipodi:type="inkscape:persp3d" />
  </defs>
  <sodipodi:namedview
     id="base"
     pagecolor="#ffffff"
     bordercolor="#666666"
     borderopacity="1.0"
     gridtolerance="10000"
     guidetolerance="10"
     objecttolerance="10"
     inkscape:pageopacity="0.0"
     inkscape:pageshadow="2"
     inkscape:zoom="2"
     inkscape:cx="522.58462"
     inkscape:cy="1014.9073"
     inkscape:document-units="px"
     inkscape:current-layer="layer1"
     showgrid="false"
     inkscape:window-width="688"
     inkscape:window-height="783"
     inkscape:window-x="11"
     inkscape:window-y="180"
     showborder="false"
     showguides="true"
     inkscape:guide-bbox="true" />
  <metadata
     id="metadata7">
    <rdf:RDF>
      <cc:Work
         rdf:about="">
        <dc:format>image/svg+xml</dc:format>
        <dc:type
           rdf:resource="http://purl.org/dc/dcmitype/StillImage" />
      </cc:Work>
    </rdf:RDF>
  </metadata>
  <g
     inkscape:label="Layer 1"
     inkscape:groupmode="layer"
     id="layer1">
    <rect
       style="opacity:1;fill:#4400aa;fill-opacity:1;stroke:#8b8b8b;stroke-width:1;stroke-miterlimit:4;stroke-dasharray:none;stroke-opacity:1"
       id="rect4360"
       width="1056.4175"
       height="36.769554"
       x="-45.254833"
       y="-11.488599"
       rx="5.0000005"
       ry="5"
       inkscape:export-xdpi="90"
       inkscape:export-ydpi="90" />
    <rect
       style="opacity:1;fill:url(#linearGradient3295);fill-opacity:1;stroke:#8b8b8b;stroke-width:1.02888048;stroke-miterlimit:4;stroke-dasharray:none;stroke-opacity:1"
       id="rect2430"
       width="1029.9712"
       height="101.62798"
       x="-23.485559"
       y="1.857586"
       rx="4.9998603"
       ry="5.2931237" />
    <image
       y="107.36218"
       x="16"
       id="image2392"
       height="722"
       width="934"
       sodipodi:absref="/crypt/rob/cxgn/core/sgn-tools/art/sgn2/pastedpic_08072009_125402.png"
       xlink:href="pastedpic_08072009_125402.png" />
    <rect
       rx="0.026633266"
       y="45.459846"
       x="792.52661"
       height="21.11841"
       width="91.618446"
       id="rect3258"
       style="fill:#000000;fill-opacity:1;stroke:#000000;stroke-width:0.88159204;stroke-miterlimit:4;stroke-dasharray:none;stroke-opacity:1" />
    <rect
       style="fill:#ffffff;fill-opacity:1;stroke:#000000;stroke-width:0.88159204;stroke-miterlimit:4;stroke-dasharray:none;stroke-opacity:1"
       id="rect3256"
       width="90.118408"
       height="21.11841"
       x="792.4408"
       y="43.802979"
       rx="0.026197208" />
    <text
       xml:space="preserve"
       style="font-size:15.77287197px;font-style:normal;font-weight:normal;fill:#000000;fill-opacity:1;stroke:none;stroke-width:1px;stroke-linecap:butt;stroke-linejoin:miter;stroke-opacity:1;font-family:Bitstream Vera Sans"
       x="797.7002"
       y="59.362106"
       id="text3246"><tspan
         sodipodi:role="line"
         id="tspan3248"
         x="797.7002"
         y="59.362106">sol search</tspan></text>
    <g
       id="g3250"
       transform="matrix(1.2008228,0,0,1.2008228,-43.549665,-32.145119)">
      <path
         style="opacity:0.88999999;fill:#000000;fill-opacity:1;stroke:none;stroke-width:13.94999981;stroke-miterlimit:4;stroke-dasharray:none;stroke-opacity:1"
         d="M 132.19211,36.421493 L 132.65537,43.246623 C 132.73626,43.246333 132.81693,43.240833 132.89779,43.241233 C 133.69278,43.245213 134.48461,43.283373 135.27338,43.354353 L 134.79396,36.518453 C 133.93057,36.454233 133.06097,36.421383 132.19211,36.421493 z M 122.63586,37.768193 C 121.8527,37.995373 121.07453,38.252323 120.30334,38.538513 C 120.2601,38.554573 120.21719,38.570813 120.17407,38.587003 L 123.0237,45.013503 C 123.22667,44.936853 123.432,44.859773 123.63781,44.787263 C 124.25726,44.568963 124.8799,44.376623 125.50704,44.205473 L 122.63586,37.768193 z M 143.80614,38.398473 L 141.96385,44.792643 C 142.78947,45.079383 143.60054,45.404573 144.39331,45.767653 L 146.23023,39.351933 C 145.43582,39.003603 144.62609,38.686453 143.80614,38.398473 z M 111.33426,43.429773 C 110.64136,43.949003 109.96892,44.492453 109.31957,45.056593 L 114.29701,50.227973 C 114.95188,49.658223 115.63397,49.113883 116.34401,48.601133 L 111.33426,43.429773 z M 153.76103,43.914583 L 149.93099,49.172153 C 150.61161,49.718093 151.26351,50.301613 151.88641,50.917483 L 155.72185,45.627603 C 155.09183,45.028353 154.43607,44.458973 153.76103,43.914583 z M 132.8547,46.117803 L 133.22638,51.531583 C 134.11057,51.529713 134.98887,51.588193 135.86056,51.703963 L 135.47808,46.268643 C 134.60958,46.174113 133.73254,46.121423 132.8547,46.117803 z M 169.87307,46.252473 L 163.38193,50.615823 C 163.82547,51.356073 164.24186,52.116733 164.63169,52.899843 L 171.12821,48.509563 C 170.73225,47.744423 170.31544,46.992733 169.87307,46.252473 z M 126.69215,46.866583 C 125.9853,47.045403 125.28548,47.257593 124.59128,47.502223 C 124.45771,47.549293 124.3249,47.598653 124.19265,47.647673 L 126.4605,52.770553 C 126.74113,52.665443 127.0234,52.562783 127.31163,52.468893 C 127.8653,52.288543 128.42344,52.133303 128.98693,52.005633 L 126.69215,46.866583 z M 141.16119,47.566863 L 139.70676,52.614343 C 140.54245,52.904243 141.35712,53.252733 142.14161,53.654003 L 143.59066,48.574203 C 142.80139,48.194753 141.98917,47.860703 141.16119,47.566863 z M 118.36409,50.696623 C 117.6438,51.200233 116.95514,51.739083 116.29554,52.307283 L 120.2764,56.444393 C 120.93796,55.871603 121.63721,55.333573 122.37728,54.844493 L 118.36409,50.696623 z M 148.23414,51.504653 L 145.22288,55.636363 C 145.90967,56.185563 146.55797,56.789693 147.15677,57.440953 L 150.16801,53.282313 C 149.55587,52.653153 148.91313,52.055863 148.23414,51.504653 z M 160.99017,52.226483 L 155.70029,55.781803 C 156.14485,56.526843 156.55426,57.304533 156.9231,58.108923 L 162.22377,54.526673 C 161.84207,53.736553 161.4316,52.970023 160.99017,52.226483 z M 102.47827,52.975263 C 102.01067,53.700353 101.56592,54.439713 101.14774,55.194643 L 107.7143,58.410583 C 108.13443,57.650273 108.58421,56.908253 109.06638,56.185823 L 102.47827,52.975263 z M 133.4203,54.408153 L 133.68965,58.319003 C 134.58352,58.309023 135.47473,58.392503 136.34536,58.566803 L 136.07064,54.645183 C 135.19758,54.497163 134.31195,54.416543 133.4203,54.408153 z M 130.18281,54.693653 C 129.51658,54.820173 128.85725,54.987843 128.20585,55.200023 C 128.00994,55.263833 127.81596,55.329373 127.62407,55.399343 L 129.29398,59.164743 C 129.66167,59.024403 130.03761,58.898043 130.42522,58.787653 C 130.90146,58.652053 131.38269,58.546513 131.8689,58.469843 L 130.18281,54.693653 z M 138.90412,55.383173 L 137.86983,58.976203 C 138.71987,59.259913 139.53707,59.631773 140.2993,60.091283 L 141.33358,56.482093 C 140.55878,56.049393 139.74496,55.683943 138.90412,55.383173 z M 124.41889,56.956143 C 123.66086,57.425593 122.94341,57.948493 122.27494,58.518323 L 125.24308,61.604985 C 125.90643,61.023275 126.63089,60.502155 127.41397,60.053573 L 124.41889,56.956143 z M 153.30853,57.387083 L 149.18759,60.161305 C 149.63662,60.910485 150.03291,61.700425 150.36732,62.536905 L 154.5044,59.741143 C 154.15045,58.923703 153.7506,58.138043 153.30853,57.387083 z M 111.68441,57.457113 C 111.19028,58.175223 110.73655,58.920633 110.31075,59.681873 L 115.57908,62.262175 C 116.00527,61.493895 116.47072,60.749275 116.98506,60.037413 L 111.68441,57.457113 z M 143.52064,57.963483 L 141.41437,60.856215 C 142.11725,61.402335 142.75687,62.032365 143.31055,62.741615 L 145.42219,59.827323 C 144.84557,59.147123 144.20878,58.522973 143.52064,57.963483 z M 174.96365,59.665723 L 167.52441,61.502635 C 167.68285,62.360325 167.80813,63.220325 167.89611,64.082935 L 175.34611,62.224475 C 175.24723,61.370075 175.1188,60.516065 174.96365,59.665723 z M 119.62461,61.324875 C 119.0896,62.024985 118.60455,62.759905 118.17015,63.528095 L 122.15104,65.478125 C 122.57832,64.698865 123.07692,63.963265 123.63781,63.274915 L 119.62461,61.324875 z M 130.84539,61.669635 C 130.71597,61.711675 130.58948,61.757735 130.46293,61.804305 L 130.49526,61.868935 C 130.61047,61.800295 130.72736,61.733875 130.84539,61.669635 z M 146.80123,61.761205 L 143.95697,63.673535 C 144.41771,64.418135 144.79615,65.229695 145.06665,66.113765 L 147.92168,64.185285 C 147.62103,63.325965 147.24595,62.517815 146.80123,61.761205 z M 164.72325,62.197545 L 158.69538,63.689695 C 158.85453,64.557715 158.96431,65.428215 159.02397,66.302325 L 165.06801,64.793995 C 164.99219,63.926175 164.87716,63.060555 164.72325,62.197545 z M 129.50407,62.213695 C 128.6817,62.613355 127.92823,63.110445 127.25238,63.689695 L 127.76413,64.222995 C 128.32465,63.538225 128.97157,62.924825 129.68724,62.402235 L 129.50407,62.213695 z M 155.90499,64.384595 L 151.24538,65.537375 C 151.40984,66.413055 151.49977,67.298595 151.51471,68.182315 L 156.1851,67.013375 C 156.14757,66.135505 156.05677,65.257155 155.90499,64.384595 z M 126.32584,64.583915 C 125.72014,65.240945 125.19482,65.973805 124.75288,66.754805 L 126.00262,67.363515 C 126.2973,66.521665 126.69775,65.731125 127.18773,65.004085 L 126.32584,64.583915 z M 97.226096,65.338065 C 97.026776,66.178705 96.859976,67.027115 96.714366,67.880655 L 104.14282,68.672525 C 104.28807,67.813755 104.4638,66.961405 104.67611,66.119155 L 97.226096,65.338065 z M 148.45499,66.226895 L 145.43297,66.975665 C 145.75474,67.785805 145.98193,68.644815 146.09015,69.539805 L 148.63276,68.904155 C 148.66498,68.012965 148.60918,67.114045 148.45499,66.226895 z M 107.57963,66.420825 C 107.35432,67.263785 107.16527,68.117375 107.01399,68.979585 L 113.00418,69.620605 C 113.153,68.751575 113.34768,67.889375 113.59135,67.045685 L 107.57963,66.420825 z M 116.511,67.352745 C 116.24443,68.192925 116.028,69.050445 115.86997,69.922265 L 120.44879,70.412475 C 120.59707,69.532945 120.82039,68.669645 121.11137,67.832175 L 116.511,67.352745 z M 124.07413,68.144615 C 123.73452,68.969805 123.48373,69.833545 123.31997,70.719525 L 125.42085,70.945765 C 125.42002,70.892125 125.42085,70.838015 125.42085,70.784175 C 125.42085,69.931385 125.52264,69.104575 125.71712,68.311605 L 124.07413,68.144615 z M 146.16019,70.477115 C 146.16322,70.579575 146.16559,70.680955 146.16559,70.784175 C 146.16559,71.580005 146.07709,72.356075 145.90701,73.100505 L 147.70622,73.289045 C 148.03763,72.463455 148.28779,71.603995 148.44422,70.719525 L 146.16019,70.477115 z M 151.30463,71.026585 C 151.16218,71.903665 150.94781,72.765195 150.6636,73.601485 L 155.26395,74.080915 C 155.52549,73.242225 155.73522,72.386365 155.88884,71.516785 L 151.30463,71.026585 z M 158.75463,71.823825 C 158.60964,72.690705 158.41756,73.545925 158.17824,74.387965 L 164.18997,75.012845 C 164.41185,74.171405 164.59663,73.319815 164.74481,72.459475 L 158.75463,71.823825 z M 125.48549,71.942335 L 123.10988,72.534895 C 123.07096,73.425925 123.12417,74.323815 123.27149,75.212155 L 126.11576,74.506475 C 125.80312,73.696205 125.58532,72.835915 125.48549,71.942335 z M 167.61598,72.766525 C 167.47342,73.625005 167.30303,74.477715 167.09347,75.319895 L 174.53808,76.095595 C 174.73481,75.256335 174.90123,74.410355 175.04444,73.558395 L 167.61598,72.766525 z M 120.22793,73.256725 L 115.55215,74.425675 C 115.58575,75.303145 115.67386,76.181835 115.82148,77.054445 L 120.4811,75.901665 C 120.32222,75.025285 120.23749,74.140315 120.22793,73.256725 z M 145.64844,74.016265 C 145.36972,74.864185 144.9823,75.666905 144.50643,76.402635 L 145.48145,76.876685 C 146.08262,76.213115 146.60185,75.481615 147.03824,74.695015 L 145.64844,74.016265 z M 112.7079,75.136745 L 106.66924,76.645045 C 106.74232,77.512365 106.85223,78.378795 107.00323,79.241505 L 113.02572,77.749355 C 112.87043,76.881335 112.76388,76.010495 112.7079,75.136745 z M 126.51976,75.427625 L 123.79402,77.269935 C 124.0899,78.132555 124.4577,78.944825 124.89833,79.704775 L 127.74258,77.792455 C 127.43707,77.289775 127.16733,76.758505 126.94532,76.192555 C 126.79338,75.944685 126.65095,75.688565 126.51976,75.427625 z M 149.63471,75.971695 C 149.21275,76.753195 148.72503,77.494045 148.16948,78.185685 L 152.17191,80.135725 C 152.70397,79.432595 153.18441,78.692545 153.61559,77.921725 L 149.63471,75.971695 z M 143.95159,77.183745 C 143.40464,77.879565 142.77073,78.500495 142.06618,79.036805 L 142.31398,79.289985 C 143.12792,78.886465 143.87013,78.383505 144.53876,77.803225 L 143.95159,77.183745 z M 103.83576,77.356115 L 96.385756,79.214575 C 96.482516,80.068965 96.609856,80.922875 96.762826,81.773335 L 104.19668,79.931025 C 104.04141,79.074905 103.92092,78.216945 103.83576,77.356115 z M 128.39977,78.751305 L 126.28273,81.670965 C 126.85567,82.351625 127.49454,82.974255 128.17891,83.534825 L 130.28516,80.647485 C 129.58435,80.097665 128.95037,79.464295 128.39977,78.751305 z M 121.3484,78.918305 L 117.20592,81.714075 C 117.5567,82.532735 117.95203,83.321125 118.39102,84.073505 L 122.51196,81.304665 C 122.06638,80.552895 121.67895,79.757305 121.3484,78.918305 z M 156.21204,79.193025 C 155.78864,79.963485 155.31786,80.703485 154.80607,81.417805 L 160.10673,84.003485 C 160.59946,83.282695 161.05626,82.537175 161.48038,81.773335 L 156.21204,79.193025 z M 141.26894,79.591655 C 141.07075,79.715165 140.86703,79.831575 140.66023,79.941795 C 140.88517,79.874505 141.10628,79.796225 141.3228,79.715555 L 141.26894,79.591655 z M 146.54804,79.887925 C 145.88974,80.470805 145.17073,80.993545 144.39331,81.444725 L 147.38301,84.536775 C 148.13755,84.065255 148.85101,83.540465 149.51619,82.969205 L 146.54804,79.887925 z M 131.4218,81.433955 L 130.39291,85.043135 C 131.16279,85.473965 131.97083,85.841605 132.80622,86.142055 L 133.84587,82.554415 C 132.99837,82.269345 132.18146,81.893985 131.4218,81.433955 z M 142.49175,82.355105 C 142.11049,82.502125 141.72023,82.633645 141.31742,82.748355 C 140.85487,82.880055 140.38348,82.979295 139.91145,83.055395 L 141.59753,86.831575 C 142.25114,86.705815 142.89757,86.538815 143.5368,86.330595 C 143.7459,86.262485 143.95177,86.190245 144.15628,86.115115 L 142.49175,82.355105 z M 135.39728,82.969205 L 135.67739,86.890825 C 136.5504,87.038275 137.43618,87.114565 138.32773,87.122465 L 138.05837,83.217005 C 137.16307,83.227285 136.26931,83.143805 135.39728,82.969205 z M 164.07683,83.044615 C 163.65831,83.807385 163.20555,84.549815 162.72473,85.274775 L 169.31285,88.485335 C 169.77909,87.758615 170.22126,87.017045 170.63801,86.260565 L 164.07683,83.044615 z M 114.78184,83.351665 L 109.48117,86.933925 C 109.86082,87.725045 110.27532,88.489455 110.71477,89.234105 L 115.99387,85.684175 C 115.55183,84.937495 115.148,84.157605 114.78184,83.351665 z M 124.55355,84.057355 L 121.53694,88.210595 C 122.14834,88.842065 122.79217,89.440265 123.47081,89.993645 L 126.48206,85.867335 C 125.79593,85.315945 125.1512,84.710975 124.55355,84.057355 z M 151.51471,85.048525 C 150.85615,85.622235 150.16153,86.157865 149.42463,86.648415 L 153.43243,90.796285 C 154.15117,90.291045 154.83759,89.749905 155.4956,89.180235 L 151.51471,85.048525 z M 129.5795,87.871235 L 128.13044,92.945635 C 128.91845,93.325465 129.72779,93.663945 130.55451,93.958365 L 132.00895,88.905505 C 131.17553,88.615225 130.36177,88.272355 129.5795,87.871235 z M 107.07326,88.560745 L 100.57134,92.951025 C 100.96491,93.715995 101.38642,94.467935 101.82647,95.208115 L 108.31762,90.844765 C 107.87626,90.105135 107.46092,89.343215 107.07326,88.560745 z M 145.32523,88.743905 C 145.03061,88.855005 144.73405,88.963025 144.43102,89.061725 C 143.88988,89.238005 143.34397,89.388245 142.79342,89.514225 L 145.0882,94.653275 C 145.78211,94.476505 146.46967,94.268625 147.15138,94.028395 C 147.29943,93.976215 147.44665,93.921365 147.59309,93.866795 L 145.32523,88.743905 z M 135.8821,89.826655 L 136.26995,95.261985 C 137.13851,95.356335 138.01546,95.409385 138.89334,95.412815 L 138.52165,89.999035 C 137.63566,90.001315 136.75555,89.942475 135.8821,89.826655 z M 119.81853,90.580815 L 115.98309,95.865315 C 116.61162,96.465275 117.26496,97.038495 117.93853,97.583705 L 121.77395,92.326155 C 121.09466,91.779035 120.43999,91.197805 119.81853,90.580815 z M 157.49949,91.264945 C 156.84705,91.835305 156.16538,92.378125 155.45789,92.891775 L 160.46226,98.063145 C 161.15417,97.542575 161.82863,97.001735 162.47694,96.436315 L 157.49949,91.264945 z M 127.32778,95.752185 L 125.49089,102.16793 C 126.28353,102.5163 127.09141,102.83853 127.90957,103.12679 L 129.75187,96.732585 C 128.92717,96.445305 128.11959,96.115685 127.32778,95.752185 z M 148.76204,96.506335 C 148.545,96.588685 148.32511,96.671135 148.10484,96.748745 C 147.49781,96.962665 146.88765,97.147325 146.27333,97.314365 L 149.14989,103.75705 C 149.91865,103.53299 150.68212,103.2785 151.43929,102.99751 C 151.49695,102.9761 151.5542,102.95453 151.61167,102.93286 L 148.76204,96.506335 z M 136.47466,98.181655 L 136.95946,105.01757 C 137.8211,105.08151 138.68885,105.11467 139.55592,105.11453 L 139.09266,98.294775 C 138.21741,98.298235 137.34266,98.259405 136.47466,98.181655 z"
         id="path2572"
         sodipodi:nodetypes="ccsccccsccsccccccccccccccccccccccccccccsccscccccccccccccccccccccccccccccccccsccscccccccccccccccccccccccccccccccccccccccccccccccccccccccccccccccccccccccccccccccccccccccccscccsccccccccccccccccccccccccccccccccccccccccccccccccccccccccccccccccccccccccccccccccccccccccccsccsccccccccccccccccccccccccccccccccccccccsccscccccccccccccccccccccccsccsccccccc" />
      <path
         sodipodi:nodetypes="ccsccccsccsccccccccccccccccccccccccccccsccscccccccccccccccccccccccccccccccccsccscccccccccccccccccccccccccccccccccccccccccccccccccccccccccccccccccccccccccccccccccccccccccscccsccccccccccccccccccccccccccccccccccccccccccccccccccccccccccccccccccccccccccccccccccccccccccsccsccccccccccccccccccccccccccccccccccccccsccscccccccccccccccccccccccsccsccccccc"
         id="path2187"
         d="M 133.02605,35.767528 L 133.48932,42.592658 C 133.5702,42.592368 133.65087,42.586868 133.73173,42.587268 C 134.52672,42.591248 135.31856,42.629408 136.10733,42.700388 L 135.62788,35.864488 C 134.76451,35.800268 133.8949,35.767418 133.02605,35.767528 z M 123.46979,37.114228 C 122.68662,37.341408 121.90846,37.598358 121.13727,37.884548 C 121.09404,37.900608 121.05113,37.916848 121.008,37.933038 L 123.85764,44.359538 C 124.06062,44.282888 124.26594,44.205808 124.47174,44.133298 C 125.0912,43.914998 125.71384,43.722648 126.34098,43.551508 L 123.46979,37.114228 z M 144.64007,37.744508 L 142.79778,44.138668 C 143.62342,44.425418 144.43447,44.750608 145.22724,45.113688 L 147.06417,38.697968 C 146.26975,38.349638 145.46004,38.032488 144.64007,37.744508 z M 112.16818,42.775808 C 111.47528,43.295038 110.80286,43.838488 110.1535,44.402628 L 115.13096,49.574008 C 115.7858,49.004258 116.46791,48.459918 117.17795,47.947168 L 112.16818,42.775808 z M 154.59497,43.260618 L 150.76493,48.518188 C 151.44553,49.064128 152.09744,49.647648 152.72035,50.263518 L 156.55578,44.973638 C 155.92575,44.374388 155.27001,43.805008 154.59497,43.260618 z M 133.68863,45.463838 L 134.06033,50.877618 C 134.94451,50.875738 135.82279,50.934228 136.69448,51.049998 L 136.31202,45.614678 C 135.44351,45.520148 134.56647,45.467458 133.68863,45.463838 z M 170.70702,45.598508 L 164.21587,49.961858 C 164.65941,50.702108 165.0758,51.462768 165.46563,52.245878 L 171.96215,47.855598 C 171.56619,47.090458 171.14937,46.338768 170.70702,45.598508 z M 127.52607,46.212618 C 126.81923,46.391428 126.11943,46.603628 125.42521,46.848258 C 125.29165,46.895328 125.15884,46.944688 125.02657,46.993708 L 127.29444,52.116588 C 127.57506,52.011478 127.85735,51.908818 128.14557,51.814928 C 128.69923,51.634578 129.25738,51.479338 129.82088,51.351668 L 127.52607,46.212618 z M 141.99514,46.912898 L 140.54068,51.960378 C 141.37638,52.250278 142.19107,52.598768 142.97553,53.000038 L 144.4246,47.920238 C 143.63533,47.540788 142.8231,47.206738 141.99514,46.912898 z M 119.19801,50.042658 C 118.47773,50.546268 117.78907,51.085118 117.12947,51.653318 L 121.11034,55.790428 C 121.7719,55.217638 122.47114,54.679608 123.21122,54.190528 L 119.19801,50.042658 z M 149.06806,50.850688 L 146.05682,54.982398 C 146.74361,55.531588 147.39191,56.135728 147.99071,56.786988 L 151.00194,52.628348 C 150.38981,51.999188 149.74707,51.401898 149.06806,50.850688 z M 161.82412,51.572518 L 156.53423,55.127838 C 156.97879,55.872878 157.38821,56.650568 157.75704,57.454948 L 163.05769,53.872708 C 162.67601,53.082588 162.26553,52.316058 161.82412,51.572518 z M 103.31221,52.321298 C 102.84462,53.046388 102.39987,53.785748 101.98167,54.540678 L 108.54823,57.756618 C 108.96837,56.996308 109.41815,56.254288 109.90033,55.531848 L 103.31221,52.321298 z M 134.25425,53.754188 L 134.5236,57.665038 C 135.41746,57.655058 136.30867,57.738528 137.1793,57.912838 L 136.90457,53.991208 C 136.03152,53.843198 135.14587,53.762578 134.25425,53.754188 z M 131.01675,54.039688 C 130.35053,54.166208 129.69117,54.333878 129.03978,54.546058 C 128.84387,54.609868 128.64988,54.675408 128.45801,54.745378 L 130.12793,58.510778 C 130.4956,58.370438 130.87153,58.244078 131.25916,58.133688 C 131.73539,57.998088 132.21663,57.892548 132.70283,57.815878 L 131.01675,54.039688 z M 139.73806,54.729208 L 138.70378,58.322238 C 139.55381,58.605948 140.37101,58.977808 141.13324,59.437318 L 142.16751,55.828128 C 141.39271,55.395428 140.57889,55.029978 139.73806,54.729208 z M 125.25284,56.302168 C 124.4948,56.771628 123.77733,57.294528 123.10887,57.864358 L 126.07702,60.95102 C 126.74036,60.36931 127.46483,59.848188 128.24792,59.399608 L 125.25284,56.302168 z M 154.14246,56.733118 L 150.02153,59.507338 C 150.47055,60.25652 150.86683,61.04646 151.20126,61.88294 L 155.33835,59.087178 C 154.98439,58.269738 154.58452,57.484078 154.14246,56.733118 z M 112.51833,56.803148 C 112.0242,57.521258 111.57047,58.266668 111.14469,59.027908 L 116.41302,61.60821 C 116.8392,60.83993 117.30466,60.09531 117.81898,59.383448 L 112.51833,56.803148 z M 144.35457,57.309518 L 142.24831,60.20225 C 142.9512,60.74837 143.59081,61.3784 144.14448,62.08765 L 146.25614,59.173358 C 145.67949,58.493158 145.0427,57.869008 144.35457,57.309518 z M 175.79759,59.011758 L 168.35834,60.84867 C 168.51679,61.70636 168.64207,62.56636 168.73004,63.42897 L 176.18004,61.57051 C 176.08116,60.71611 175.95272,59.862098 175.79759,59.011758 z M 120.45853,60.67091 C 119.92353,61.37102 119.43847,62.10594 119.0041,62.87413 L 122.98498,64.82416 C 123.41226,64.0449 123.91087,63.3093 124.47174,62.62095 L 120.45853,60.67091 z M 131.67933,61.01567 C 131.54991,61.05771 131.42343,61.10377 131.29688,61.15034 L 131.32919,61.21497 C 131.44441,61.14633 131.5613,61.07991 131.67933,61.01567 z M 147.63517,61.10724 L 144.79091,63.01957 C 145.25165,63.76417 145.63009,64.57573 145.9006,65.4598 L 148.75563,63.53132 C 148.45497,62.672 148.07987,61.86385 147.63517,61.10724 z M 165.5572,61.54358 L 159.52931,63.03572 C 159.68847,63.90374 159.79825,64.77425 159.8579,65.64835 L 165.90195,64.14003 C 165.82613,63.27221 165.7111,62.40659 165.5572,61.54358 z M 130.33801,61.55973 C 129.51564,61.95939 128.76216,62.45648 128.08632,63.03572 L 128.59805,63.56903 C 129.15859,62.88426 129.8055,62.27086 130.52116,61.74827 L 130.33801,61.55973 z M 156.73892,63.73063 L 152.07932,64.88341 C 152.24377,65.75909 152.33371,66.64463 152.34864,67.52835 L 157.01904,66.35941 C 156.98151,65.48154 156.89071,64.60319 156.73892,63.73063 z M 127.15977,63.92994 C 126.55408,64.58698 126.02875,65.31984 125.58682,66.10084 L 126.83657,66.70955 C 127.13125,65.8677 127.53169,65.07716 128.02167,64.35012 L 127.15977,63.92994 z M 98.06005,64.6841 C 97.86073,65.52474 97.69391,66.37315 97.5483,67.22669 L 104.97674,68.01856 C 105.122,67.15979 105.29773,66.30744 105.51005,65.46519 L 98.06005,64.6841 z M 149.28893,65.57293 L 146.26691,66.3217 C 146.58868,67.13184 146.81587,67.99085 146.92409,68.88584 L 149.46668,68.25019 C 149.49892,67.359 149.44311,66.46008 149.28893,65.57293 z M 108.41357,65.76686 C 108.18824,66.60982 107.99921,67.46341 107.84794,68.32562 L 113.83812,68.96664 C 113.98694,68.09761 114.18162,67.23541 114.42527,66.39172 L 108.41357,65.76686 z M 117.34494,66.69878 C 117.07836,67.53896 116.86193,68.39648 116.70391,69.2683 L 121.28272,69.75851 C 121.43101,68.87898 121.65434,68.01568 121.94531,67.17821 L 117.34494,66.69878 z M 124.90807,67.49065 C 124.56846,68.31583 124.31767,69.17958 124.15391,70.06556 L 126.25478,70.2918 C 126.25396,70.23816 126.25478,70.18405 126.25478,70.13021 C 126.25478,69.27742 126.35658,68.45061 126.55106,67.65764 L 124.90807,67.49065 z M 146.99413,69.82315 C 146.99715,69.92561 146.99951,70.02699 146.99951,70.13021 C 146.99951,70.92604 146.91104,71.70211 146.74095,72.44654 L 148.54015,72.63508 C 148.87156,71.80949 149.12174,70.95003 149.27815,70.06556 L 146.99413,69.82315 z M 152.13855,70.37262 C 151.99613,71.2497 151.78175,72.11123 151.49752,72.94752 L 156.09789,73.42695 C 156.35943,72.58826 156.56915,71.7324 156.72277,70.86282 L 152.13855,70.37262 z M 159.58857,71.16986 C 159.44358,72.03674 159.25151,72.89196 159.01219,73.734 L 165.02389,74.35888 C 165.24579,73.51744 165.43057,72.66585 165.57873,71.80551 L 159.58857,71.16986 z M 126.31943,71.28837 L 123.94383,71.88093 C 123.9049,72.77195 123.9581,73.66985 124.10543,74.55819 L 126.94969,73.85251 C 126.63707,73.04224 126.41926,72.18194 126.31943,71.28837 z M 168.44993,72.11256 C 168.30735,72.97104 168.13697,73.82375 167.9274,74.66593 L 175.37201,75.44163 C 175.56874,74.60237 175.73516,73.75639 175.87838,72.90442 L 168.44993,72.11256 z M 121.06187,72.60276 L 116.38608,73.77171 C 116.41969,74.64918 116.50779,75.52787 116.65542,76.40048 L 121.31503,75.2477 C 121.15614,74.37132 121.07144,73.48635 121.06187,72.60276 z M 146.48237,73.3623 C 146.20365,74.21022 145.81624,75.01294 145.34037,75.74867 L 146.31539,76.22272 C 146.91656,75.55915 147.43579,74.82765 147.87219,74.04105 L 146.48237,73.3623 z M 113.54183,74.48278 L 107.50317,75.99108 C 107.57625,76.8584 107.68617,77.72483 107.83718,78.58754 L 113.85966,77.09539 C 113.70437,76.22737 113.59783,75.35653 113.54183,74.48278 z M 127.3537,74.77365 L 124.62795,76.61596 C 124.92383,77.47859 125.29164,78.29086 125.73227,79.05081 L 128.57652,77.13848 C 128.27101,76.63581 128.00127,76.10454 127.77927,75.53859 C 127.62732,75.29072 127.48489,75.0346 127.3537,74.77365 z M 150.46864,75.31773 C 150.04669,76.09923 149.55897,76.84008 149.00343,77.53172 L 153.00585,79.48176 C 153.5379,78.77863 154.01835,78.03858 154.44951,77.26776 L 150.46864,75.31773 z M 144.78553,76.52978 C 144.23859,77.22559 143.60467,77.84653 142.90013,78.38284 L 143.14792,78.63602 C 143.96186,78.2325 144.70407,77.72954 145.37268,77.14926 L 144.78553,76.52978 z M 104.6697,76.70215 L 97.2197,78.56061 C 97.31646,79.415 97.44379,80.26891 97.59678,81.11937 L 105.03062,79.27706 C 104.87534,78.42094 104.75486,77.56298 104.6697,76.70215 z M 129.2337,78.09734 L 127.11667,81.017 C 127.68962,81.69766 128.32849,82.32029 129.01283,82.88086 L 131.1191,79.99352 C 130.41829,79.4437 129.78431,78.81033 129.2337,78.09734 z M 122.18233,78.26434 L 118.03985,81.06011 C 118.39065,81.87877 118.78597,82.66716 119.22496,83.41954 L 123.34589,80.6507 C 122.90032,79.89893 122.51288,79.10334 122.18233,78.26434 z M 157.04599,78.53906 C 156.62257,79.30952 156.15181,80.04952 155.64002,80.76384 L 160.94066,83.34951 C 161.4334,82.62873 161.89021,81.88321 162.31432,81.11937 L 157.04599,78.53906 z M 142.10287,78.93769 C 141.90468,79.0612 141.70097,79.17761 141.49417,79.28783 C 141.71911,79.22054 141.94022,79.14226 142.15675,79.06159 L 142.10287,78.93769 z M 147.38198,79.23396 C 146.72368,79.81684 146.00466,80.33958 145.22724,80.79076 L 148.21695,83.88281 C 148.97149,83.41129 149.68494,82.8865 150.35013,82.31524 L 147.38198,79.23396 z M 132.25572,80.77999 L 131.22684,84.38917 C 131.99673,84.82 132.80477,85.18764 133.64015,85.48809 L 134.67979,81.90045 C 133.83231,81.61538 133.0154,81.24002 132.25572,80.77999 z M 143.32569,81.70113 C 142.94443,81.84816 142.55416,81.97968 142.15135,82.09439 C 141.68882,82.22609 141.21742,82.32533 140.74539,82.40143 L 142.43147,86.17761 C 143.08506,86.05185 143.7315,85.88485 144.37073,85.67663 C 144.57984,85.60852 144.78571,85.53628 144.99023,85.46115 L 143.32569,81.70113 z M 136.23123,82.31524 L 136.51134,86.23686 C 137.38433,86.38431 138.27012,86.4606 139.16167,86.4685 L 138.89231,82.56304 C 137.99702,82.57332 137.10325,82.48983 136.23123,82.31524 z M 164.91078,82.39065 C 164.49225,83.15342 164.03947,83.89585 163.55867,84.62081 L 170.14679,87.83137 C 170.61304,87.10465 171.05521,86.36308 171.47193,85.6066 L 164.91078,82.39065 z M 115.61577,82.6977 L 110.31511,86.27996 C 110.69475,87.07108 111.10926,87.83549 111.5487,88.58014 L 116.82781,85.03021 C 116.38576,84.28353 115.98193,83.50364 115.61577,82.6977 z M 125.3875,83.40339 L 122.37087,87.55663 C 122.98228,88.1881 123.6261,88.7863 124.30474,89.33968 L 127.31599,85.21337 C 126.62987,84.66197 125.98514,84.05701 125.3875,83.40339 z M 152.34864,84.39456 C 151.69009,84.96827 150.99547,85.5039 150.25856,85.99445 L 154.26637,90.14232 C 154.9851,89.63708 155.67151,89.09594 156.32953,88.52627 L 152.34864,84.39456 z M 130.41343,87.21727 L 128.96437,92.29167 C 129.75239,92.6715 130.56173,93.00997 131.38844,93.3044 L 132.84289,88.25154 C 132.00947,87.96126 131.1957,87.61839 130.41343,87.21727 z M 107.9072,87.90678 L 101.40526,92.29706 C 101.79884,93.06203 102.22036,93.81397 102.66042,94.55415 L 109.15157,90.1908 C 108.71019,89.45117 108.29486,88.68925 107.9072,87.90678 z M 146.15917,88.08994 C 145.86455,88.20104 145.56797,88.30905 145.26495,88.40776 C 144.72382,88.58403 144.1779,88.73428 143.62735,88.86026 L 145.92215,93.99931 C 146.61606,93.82254 147.30362,93.61466 147.98531,93.37443 C 148.13337,93.32225 148.28059,93.2674 148.42703,93.21283 L 146.15917,88.08994 z M 136.71604,89.17269 L 137.10389,94.60802 C 137.97243,94.70237 138.8494,94.75542 139.72728,94.75885 L 139.35558,89.34507 C 138.4696,89.34735 137.58949,89.28851 136.71604,89.17269 z M 120.65247,89.92685 L 116.81703,95.21134 C 117.44556,95.81131 118.09891,96.38453 118.77247,96.92974 L 122.60789,91.67219 C 121.9286,91.12507 121.27393,90.54384 120.65247,89.92685 z M 158.33344,90.61098 C 157.68099,91.18134 156.99932,91.72416 156.29183,92.23781 L 161.2962,97.40918 C 161.98811,96.88861 162.66255,96.34777 163.31089,95.78235 L 158.33344,90.61098 z M 128.16172,95.09822 L 126.32482,101.51395 C 127.11747,101.86231 127.92534,102.18455 128.74351,102.47281 L 130.58579,96.07862 C 129.76111,95.79134 128.95352,95.46172 128.16172,95.09822 z M 149.59599,95.85237 C 149.37893,95.93472 149.15904,96.01717 148.93877,96.09478 C 148.33175,96.3087 147.72159,96.49336 147.10726,96.6604 L 149.98383,103.10307 C 150.75259,102.87901 151.51605,102.62452 152.27323,102.34353 C 152.33089,102.32212 152.38815,102.30055 152.44561,102.27888 L 149.59599,95.85237 z M 137.30858,97.52769 L 137.79341,104.36359 C 138.65503,104.42753 139.52278,104.46069 140.38985,104.46055 L 139.92658,97.64081 C 139.05134,97.64427 138.17659,97.60544 137.30858,97.52769 z"
         style="fill:url(#linearGradient3254);fill-opacity:1;stroke:none;stroke-width:13.94999981;stroke-miterlimit:4;stroke-dasharray:none;stroke-opacity:1" />
    </g>
    <text
       xml:space="preserve"
       style="font-size:18.54216766px;font-style:normal;font-weight:normal;fill:#000000;fill-opacity:1;stroke:none;stroke-width:1px;stroke-linecap:butt;stroke-linejoin:miter;stroke-opacity:1;font-family:Bitstream Vera Sans"
       x="282.27548"
       y="89.443863"
       id="text3278"><tspan
         sodipodi:role="line"
         id="tspan3280"
         x="282.27548"
         y="89.443863">maps</tspan></text>
    <text
       xml:space="preserve"
       style="font-size:18.54216766px;font-style:normal;font-weight:normal;fill:#000000;fill-opacity:1;stroke:none;stroke-width:1px;stroke-linecap:butt;stroke-linejoin:miter;stroke-opacity:1;font-family:Bitstream Vera Sans"
       x="350.03409"
       y="89.443863"
       id="text3282"><tspan
         sodipodi:role="line"
         id="tspan3284"
         x="350.03409"
         y="89.443863">genomes</tspan></text>
    <text
       xml:space="preserve"
       style="font-size:18.54216766px;font-style:normal;font-weight:normal;fill:#000000;fill-opacity:1;stroke:none;stroke-width:1px;stroke-linecap:butt;stroke-linejoin:miter;stroke-opacity:1;font-family:Bitstream Vera Sans"
       x="452.8671"
       y="89.443863"
       id="text3286"><tspan
         sodipodi:role="line"
         id="tspan3288"
         x="452.8671"
         y="89.443863">tools</tspan></text>
    <text
       xml:space="preserve"
       style="font-size:13.25399017px;font-style:normal;font-weight:normal;fill:#4d4d4d;fill-opacity:1;stroke:none;stroke-width:1px;stroke-linecap:butt;stroke-linejoin:miter;stroke-opacity:1;font-family:Bitstream Vera Sans"
       x="692.38953"
       y="32.347633"
       id="text3290"><tspan
         sodipodi:role="line"
         id="tspan3292"
         x="692.38953"
         y="32.347633">home | forum | contact | help</tspan></text>
    <text
       id="text3306"
       y="89.443863"
       x="168.85857"
       style="font-size:18.54216766px;font-style:normal;font-weight:normal;fill:#000000;fill-opacity:1;stroke:none;stroke-width:1px;stroke-linecap:butt;stroke-linejoin:miter;stroke-opacity:1;font-family:Bitstream Vera Sans"
       xml:space="preserve"><tspan
         y="89.443863"
         x="168.85857"
         id="tspan3308"
         sodipodi:role="line">phenomes</tspan></text>
    <text
       id="text3325"
       y="56.049931"
       x="188.62639"
       style="font-size:26px;font-style:normal;font-weight:normal;fill:#000000;fill-opacity:1;stroke:none;stroke-width:1px;stroke-linecap:butt;stroke-linejoin:miter;stroke-opacity:1;font-family:Bitstream Vera Sans"
       xml:space="preserve"
       transform="scale(0.9580355,1.0438027)"><tspan
         y="56.049931"
         x="188.62639"
         id="tspan3327"
         sodipodi:role="line"
         style="font-size:26px;font-weight:bold">sol genomics network</tspan></text>
    <rect
       rx="0.078232087"
       y="42.802979"
       x="515.4408"
       height="23.118408"
       width="269.11844"
       id="rect3391"
       style="fill:url(#linearGradient3482);fill-opacity:1;stroke:#000000;stroke-width:0.88159186;stroke-miterlimit:4;stroke-dasharray:none;stroke-opacity:1"
       inkscape:export-filename="/crypt/rob/cxgn/core/sgn-tools/art/sgn2/front6.png"
       inkscape:export-xdpi="90"
       inkscape:export-ydpi="90" />
    <g
       id="g3824"
       transform="translate(24,114)">
      <g
         transform="translate(10.490677,-146.85613)"
         id="g3804">
        <text
           xml:space="preserve"
           style="font-size:14.46892452px;font-style:normal;font-weight:normal;fill:#000000;fill-opacity:1;stroke:none;stroke-width:1px;stroke-linecap:butt;stroke-linejoin:miter;stroke-opacity:1;font-family:Bitstream Vera Sans"
           x="762.46765"
           y="120.06743"
           id="text3806"><tspan
             sodipodi:role="line"
             id="tspan3808"
             x="762.46765"
             y="120.06743">adv. search</tspan></text>
        <rect
           ry="0.012788289"
           rx="0.01278829"
           y="123.36218"
           x="763.58582"
           height="2"
           width="80.87867"
           id="rect3810"
           style="opacity:1;fill:#000000;fill-opacity:1;stroke:#000000;stroke-width:0;stroke-miterlimit:4;stroke-dasharray:none;stroke-opacity:1" />
      </g>
      <text
         xml:space="preserve"
         style="font-size:13.72844028px;font-style:normal;font-weight:normal;fill:#000000;fill-opacity:1;stroke:none;stroke-width:1px;stroke-linecap:butt;stroke-linejoin:miter;stroke-opacity:1;font-family:Bitstream Vera Sans"
         x="563.78461"
         y="-26.101824"
         id="text3812"><tspan
           style="font-weight:bold"
           sodipodi:role="line"
           id="tspan3814"
           x="563.78461"
           y="-26.101824">Robert Buels</tspan></text>
      <text
         id="text3816"
         y="-29.289637"
         x="664.07214"
         style="font-size:10.79747772px;font-style:normal;font-weight:normal;fill:#000000;fill-opacity:1;stroke:none;stroke-width:1px;stroke-linecap:butt;stroke-linejoin:miter;stroke-opacity:1;font-family:Bitstream Vera Sans"
         xml:space="preserve"><tspan
           y="-29.289637"
           x="664.07214"
           id="tspan3818"
           sodipodi:role="line"
           style="font-weight:normal">(X)</tspan></text>
      <text
         id="text3820"
         y="-26.101824"
         x="686.77002"
         style="font-size:13.72844028px;font-style:normal;font-weight:normal;fill:#aa0000;fill-opacity:1;stroke:none;stroke-width:1px;stroke-linecap:butt;stroke-linejoin:miter;stroke-opacity:1;font-family:Bitstream Vera Sans"
         xml:space="preserve"><tspan
           y="-26.101824"
           x="686.77002"
           id="tspan3822"
           sodipodi:role="line"
           style="font-weight:bold;fill:#aa0000">MySGN</tspan></text>
    </g>
    <rect
       style="opacity:1;fill:#ffffff;fill-opacity:1;stroke:none;stroke-width:0.57199999999999995;stroke-miterlimit:4;stroke-dasharray:none;stroke-opacity:1"
       id="rect4362"
       width="1076.928"
       height="1.4279863"
       x="-62.713993"
       y="1.2860068" />
    <rect
       inkscape:export-ydpi="90"
       inkscape:export-xdpi="90"
       ry="175.80663"
       rx="0.11602516"
       y="-213.10576"
       x="29.74065"
       height="1292.8662"
       width="24.5142"
       id="rect4364"
       style="opacity:1;fill:#4400aa;fill-opacity:1;stroke:none;stroke-width:0.9032827;stroke-miterlimit:4;stroke-dasharray:none;stroke-opacity:1" />
  </g>
</svg>
