<?xml version="1.0" encoding="UTF-8" standalone="no"?>
<!-- Created with Inkscape (http://www.inkscape.org/) -->
<svg
   xmlns:dc="http://purl.org/dc/elements/1.1/"
   xmlns:cc="http://creativecommons.org/ns#"
   xmlns:rdf="http://www.w3.org/1999/02/22-rdf-syntax-ns#"
   xmlns:svg="http://www.w3.org/2000/svg"
   xmlns="http://www.w3.org/2000/svg"
   xmlns:xlink="http://www.w3.org/1999/xlink"
   xmlns:sodipodi="http://sodipodi.sourceforge.net/DTD/sodipodi-0.dtd"
   xmlns:inkscape="http://www.inkscape.org/namespaces/inkscape"
   width="1000"
   height="1052.3622"
   id="svg2"
   sodipodi:version="0.32"
   inkscape:version="0.46"
   version="1.0"
   sodipodi:docname="front5.svg"
   inkscape:output_extension="org.inkscape.output.svg.inkscape"
   inkscape:export-filename="/crypt/rob/cxgn/core/sgn-tools/art/sgn2/front5.png"
   inkscape:export-xdpi="90"
   inkscape:export-ydpi="90">
  <defs
     id="defs4">
    <linearGradient
       id="linearGradient3350">
      <stop
         style="stop-color:#f4f4f4;stop-opacity:1;"
         offset="0"
         id="stop3352" />
      <stop
         style="stop-color:#ffffff;stop-opacity:1;"
         offset="1"
         id="stop3354" />
    </linearGradient>
    <linearGradient
       id="linearGradient3161">
      <stop
         style="stop-color:#f7ff12;stop-opacity:1;"
         offset="0"
         id="stop3163" />
      <stop
         style="stop-color:#f20000;stop-opacity:1;"
         offset="1"
         id="stop3165" />
    </linearGradient>
    <inkscape:perspective
       sodipodi:type="inkscape:persp3d"
       inkscape:vp_x="0 : 526.18109 : 1"
       inkscape:vp_y="0 : 1000 : 0"
       inkscape:vp_z="744.09448 : 526.18109 : 1"
       inkscape:persp3d-origin="372.04724 : 350.78739 : 1"
       id="perspective10" />
    <inkscape:perspective
       id="perspective2390"
       inkscape:persp3d-origin="372.04724 : 350.78739 : 1"
       inkscape:vp_z="744.09448 : 526.18109 : 1"
       inkscape:vp_y="0 : 1000 : 0"
       inkscape:vp_x="0 : 526.18109 : 1"
       sodipodi:type="inkscape:persp3d" />
    <linearGradient
       inkscape:collect="always"
       xlink:href="#linearGradient3161"
       id="linearGradient3254"
       gradientUnits="userSpaceOnUse"
       gradientTransform="matrix(0.182692,9.2715177e-3,-9.2715177e-3,0.182692,106.56445,32.197358)"
       x1="86.898064"
       y1="119.21311"
       x2="222.47614"
       y2="243.21469" />
    <linearGradient
       inkscape:collect="always"
       xlink:href="#linearGradient3350"
       id="linearGradient3356"
       x1="623.62238"
       y1="87.019035"
       x2="623.62238"
       y2="111.08588"
       gradientUnits="userSpaceOnUse"
       gradientTransform="matrix(0.9438829,0,0,1,43.53034,-49.656853)" />
  </defs>
  <sodipodi:namedview
     id="base"
     pagecolor="#ffffff"
     bordercolor="#666666"
     borderopacity="1.0"
     gridtolerance="10000"
     guidetolerance="10"
     objecttolerance="10"
     inkscape:pageopacity="0.0"
     inkscape:pageshadow="2"
     inkscape:zoom="1"
     inkscape:cx="555.4048"
     inkscape:cy="854.36905"
     inkscape:document-units="px"
     inkscape:current-layer="layer1"
     showgrid="false"
     inkscape:window-width="1444"
     inkscape:window-height="796"
     inkscape:window-x="44"
     inkscape:window-y="94" />
  <metadata
     id="metadata7">
    <rdf:RDF>
      <cc:Work
         rdf:about="">
        <dc:format>image/svg+xml</dc:format>
        <dc:type
           rdf:resource="http://purl.org/dc/dcmitype/StillImage" />
      </cc:Work>
    </rdf:RDF>
  </metadata>
  <g
     inkscape:label="Layer 1"
     inkscape:groupmode="layer"
     id="layer1">
    <image
       y="101.36218"
       x="16"
       id="image2392"
       height="722"
       width="934"
       sodipodi:absref="/crypt/rob/cxgn/core/sgn-tools/art/sgn2/pastedpic_08072009_125402.png"
       xlink:href="pastedpic_08072009_125402.png" />
    <rect
       rx="0.026633266"
       y="39.459846"
       x="792.52661"
       height="21.11841"
       width="91.618446"
       id="rect3258"
       style="fill:#000000;fill-opacity:1;stroke:#000000;stroke-width:0.88159204;stroke-miterlimit:4;stroke-dasharray:none;stroke-opacity:1" />
    <rect
       style="fill:#ffffff;fill-opacity:1;stroke:#000000;stroke-width:0.88159204;stroke-miterlimit:4;stroke-dasharray:none;stroke-opacity:1"
       id="rect3256"
       width="90.118408"
       height="21.11841"
       x="792.4408"
       y="37.802979"
       rx="0.026197208" />
    <rect
       style="fill:url(#linearGradient3356);fill-opacity:1;stroke:#000000;stroke-width:0.88159186;stroke-miterlimit:4;stroke-dasharray:none;stroke-opacity:1"
       id="rect2474"
       width="269.11844"
       height="23.118408"
       x="516.4408"
       y="37.802979"
       rx="0.078232087" />
    <text
       xml:space="preserve"
       style="font-size:15.77287197px;font-style:normal;font-weight:normal;fill:#000000;fill-opacity:1;stroke:none;stroke-width:1px;stroke-linecap:butt;stroke-linejoin:miter;stroke-opacity:1;font-family:Bitstream Vera Sans"
       x="797.7002"
       y="53.362106"
       id="text3246"><tspan
         sodipodi:role="line"
         id="tspan3248"
         x="797.7002"
         y="53.362106">sol search</tspan></text>
    <rect
       style="opacity:1;fill:#999999;fill-opacity:1;stroke:#000000;stroke-width:0;stroke-miterlimit:4;stroke-dasharray:none;stroke-opacity:1"
       id="rect3272"
       width="807"
       height="1"
       x="78"
       y="96.362183"
       rx="0.08467561" />
    <g
       id="g3250"
       transform="matrix(1.2008228,0,0,1.2008228,-50.549665,-34.645119)">
      <path
         style="opacity:0.88999999;fill:#000000;fill-opacity:1;stroke:none;stroke-width:13.94999981;stroke-miterlimit:4;stroke-dasharray:none;stroke-opacity:1"
         d="M 132.54751,36.263818 L 133.01077,43.088948 C 133.09166,43.088658 133.17233,43.083158 133.25319,43.083558 C 134.04818,43.087538 134.84001,43.125698 135.62878,43.196678 L 135.14936,36.360778 C 134.28597,36.296558 133.41637,36.263708 132.54751,36.263818 z M 122.99126,37.610518 C 122.2081,37.837698 121.42993,38.094648 120.65874,38.380838 C 120.6155,38.396898 120.57259,38.413138 120.52947,38.429328 L 123.3791,44.855828 C 123.58207,44.779178 123.7874,44.702098 123.99321,44.629588 C 124.61266,44.411288 125.2353,44.218948 125.86244,44.047798 L 122.99126,37.610518 z M 144.16154,38.240798 L 142.31925,44.634968 C 143.14487,44.921708 143.95594,45.246898 144.74871,45.609978 L 146.58563,39.194258 C 145.79122,38.845928 144.98149,38.528778 144.16154,38.240798 z M 111.68966,43.272098 C 110.99676,43.791328 110.32432,44.334778 109.67497,44.898918 L 114.65241,50.070298 C 115.30728,49.500548 115.98937,48.956208 116.69941,48.443458 L 111.68966,43.272098 z M 154.11643,43.756908 L 150.28639,49.014478 C 150.96701,49.560418 151.61891,50.143938 152.24181,50.759808 L 156.07725,45.469928 C 155.44723,44.870678 154.79147,44.301298 154.11643,43.756908 z M 133.2101,45.960128 L 133.58178,51.373908 C 134.46597,51.372038 135.34427,51.430518 136.21596,51.546288 L 135.83348,46.110968 C 134.96498,46.016438 134.08794,45.963748 133.2101,45.960128 z M 170.22847,46.094798 L 163.73733,50.458148 C 164.18087,51.198398 164.59726,51.959058 164.98709,52.742168 L 171.48361,48.351888 C 171.08765,47.586748 170.67084,46.835058 170.22847,46.094798 z M 127.04755,46.708908 C 126.3407,46.887728 125.64088,47.099918 124.94668,47.344548 C 124.81311,47.391618 124.6803,47.440978 124.54805,47.489998 L 126.8159,52.612878 C 127.09653,52.507768 127.3788,52.405108 127.66703,52.311218 C 128.2207,52.130868 128.77884,51.975628 129.34233,51.847958 L 127.04755,46.708908 z M 141.51659,47.409188 L 140.06216,52.456668 C 140.89785,52.746568 141.71252,53.095058 142.49701,53.496328 L 143.94606,48.416528 C 143.15679,48.037078 142.34457,47.703028 141.51659,47.409188 z M 118.71949,50.538948 C 117.9992,51.042558 117.31054,51.581408 116.65094,52.149608 L 120.6318,56.286718 C 121.29336,55.713928 121.99261,55.175898 122.73268,54.686818 L 118.71949,50.538948 z M 148.58954,51.346978 L 145.57828,55.478688 C 146.26507,56.027888 146.91337,56.632018 147.51217,57.283278 L 150.52341,53.124638 C 149.91127,52.495478 149.26853,51.898188 148.58954,51.346978 z M 161.34557,52.068808 L 156.05569,55.624128 C 156.50025,56.369168 156.90966,57.146858 157.2785,57.951248 L 162.57917,54.368998 C 162.19747,53.578878 161.787,52.812348 161.34557,52.068808 z M 102.83367,52.817588 C 102.36607,53.542678 101.92132,54.282038 101.50314,55.036968 L 108.0697,58.252908 C 108.48983,57.492598 108.93961,56.750578 109.42178,56.028148 L 102.83367,52.817588 z M 133.7757,54.250478 L 134.04505,58.161328 C 134.93892,58.151348 135.83013,58.234828 136.70076,58.409128 L 136.42604,54.487508 C 135.55298,54.339488 134.66735,54.258868 133.7757,54.250478 z M 130.53821,54.535978 C 129.87198,54.662498 129.21265,54.830168 128.56125,55.042348 C 128.36534,55.106158 128.17136,55.171698 127.97947,55.241668 L 129.64938,59.007068 C 130.01707,58.866728 130.39301,58.740368 130.78062,58.629978 C 131.25686,58.494378 131.73809,58.388838 132.2243,58.312168 L 130.53821,54.535978 z M 139.25952,55.225498 L 138.22523,58.818528 C 139.07527,59.102238 139.89247,59.474098 140.6547,59.933608 L 141.68898,56.324418 C 140.91418,55.891718 140.10036,55.526268 139.25952,55.225498 z M 124.77429,56.798468 C 124.01626,57.267918 123.29881,57.790818 122.63034,58.360648 L 125.59848,61.44731 C 126.26183,60.8656 126.98629,60.34448 127.76937,59.895898 L 124.77429,56.798468 z M 153.66393,57.229408 L 149.54299,60.00363 C 149.99202,60.75281 150.38831,61.54275 150.72272,62.37923 L 154.8598,59.583468 C 154.50585,58.766028 154.106,57.980368 153.66393,57.229408 z M 112.03981,57.299438 C 111.54568,58.017548 111.09195,58.762958 110.66615,59.524198 L 115.93448,62.1045 C 116.36067,61.33622 116.82612,60.5916 117.34046,59.879738 L 112.03981,57.299438 z M 143.87604,57.805808 L 141.76977,60.69854 C 142.47265,61.24466 143.11227,61.87469 143.66595,62.58394 L 145.77759,59.669648 C 145.20097,58.989448 144.56418,58.365298 143.87604,57.805808 z M 175.31905,59.508048 L 167.87981,61.34496 C 168.03825,62.20265 168.16353,63.06265 168.25151,63.92526 L 175.70151,62.0668 C 175.60263,61.2124 175.4742,60.35839 175.31905,59.508048 z M 119.98001,61.1672 C 119.445,61.86731 118.95995,62.60223 118.52555,63.37042 L 122.50644,65.32045 C 122.93372,64.54119 123.43232,63.80559 123.99321,63.11724 L 119.98001,61.1672 z M 131.20079,61.51196 C 131.07137,61.554 130.94488,61.60006 130.81833,61.64663 L 130.85066,61.71126 C 130.96587,61.64262 131.08276,61.5762 131.20079,61.51196 z M 147.15663,61.60353 L 144.31237,63.51586 C 144.77311,64.26046 145.15155,65.07202 145.42205,65.95609 L 148.27708,64.02761 C 147.97643,63.16829 147.60135,62.36014 147.15663,61.60353 z M 165.07865,62.03987 L 159.05078,63.53202 C 159.20993,64.40004 159.31971,65.27054 159.37937,66.14465 L 165.42341,64.63632 C 165.34759,63.7685 165.23256,62.90288 165.07865,62.03987 z M 129.85947,62.05602 C 129.0371,62.45568 128.28363,62.95277 127.60778,63.53202 L 128.11953,64.06532 C 128.68005,63.38055 129.32697,62.76715 130.04264,62.24456 L 129.85947,62.05602 z M 156.26039,64.22692 L 151.60078,65.3797 C 151.76524,66.25538 151.85517,67.14092 151.87011,68.02464 L 156.5405,66.8557 C 156.50297,65.97783 156.41217,65.09948 156.26039,64.22692 z M 126.68124,64.42624 C 126.07554,65.08327 125.55022,65.81613 125.10828,66.59713 L 126.35802,67.20584 C 126.6527,66.36399 127.05315,65.57345 127.54313,64.84641 L 126.68124,64.42624 z M 97.5815,65.18039 C 97.38218,66.02103 97.21538,66.86944 97.06977,67.72298 L 104.49822,68.51485 C 104.64347,67.65608 104.8192,66.80373 105.03151,65.96148 L 97.5815,65.18039 z M 148.81039,66.06922 L 145.78837,66.81799 C 146.11014,67.62813 146.33733,68.48714 146.44555,69.38213 L 148.98816,68.74648 C 149.02038,67.85529 148.96458,66.95637 148.81039,66.06922 z M 107.93503,66.26315 C 107.70972,67.10611 107.52067,67.9597 107.36939,68.82191 L 113.35958,69.46293 C 113.5084,68.5939 113.70308,67.7317 113.94675,66.88801 L 107.93503,66.26315 z M 116.8664,67.19507 C 116.59983,68.03525 116.3834,68.89277 116.22537,69.76459 L 120.80419,70.2548 C 120.95247,69.37527 121.17579,68.51197 121.46677,67.6745 L 116.8664,67.19507 z M 124.42953,67.98694 C 124.08992,68.81213 123.83913,69.67587 123.67537,70.56185 L 125.77625,70.78809 C 125.77542,70.73445 125.77625,70.68034 125.77625,70.6265 C 125.77625,69.77371 125.87804,68.9469 126.07252,68.15393 L 124.42953,67.98694 z M 146.51559,70.31944 C 146.51862,70.4219 146.52099,70.52328 146.52099,70.6265 C 146.52099,71.42233 146.43249,72.1984 146.26241,72.94283 L 148.06162,73.13137 C 148.39303,72.30578 148.64319,71.44632 148.79962,70.56185 L 146.51559,70.31944 z M 151.66003,70.86891 C 151.51758,71.74599 151.30321,72.60752 151.019,73.44381 L 155.61935,73.92324 C 155.88089,73.08455 156.09062,72.22869 156.24424,71.35911 L 151.66003,70.86891 z M 159.11003,71.66615 C 158.96504,72.53303 158.77296,73.38825 158.53364,74.23029 L 164.54537,74.85517 C 164.76725,74.01373 164.95203,73.16214 165.10021,72.3018 L 159.11003,71.66615 z M 125.84089,71.78466 L 123.46528,72.37722 C 123.42636,73.26825 123.47957,74.16614 123.62689,75.05448 L 126.47116,74.3488 C 126.15852,73.53853 125.94072,72.67824 125.84089,71.78466 z M 167.97138,72.60885 C 167.82882,73.46733 167.65843,74.32004 167.44887,75.16222 L 174.89348,75.93792 C 175.09021,75.09866 175.25663,74.25268 175.39984,73.40072 L 167.97138,72.60885 z M 120.58333,73.09905 L 115.90755,74.268 C 115.94115,75.14547 116.02926,76.02416 116.17688,76.89677 L 120.8365,75.74399 C 120.67762,74.86761 120.59289,73.98264 120.58333,73.09905 z M 146.00384,73.85859 C 145.72512,74.70651 145.3377,75.50923 144.86183,76.24496 L 145.83685,76.71901 C 146.43802,76.05544 146.95725,75.32394 147.39364,74.53734 L 146.00384,73.85859 z M 113.0633,74.97907 L 107.02464,76.48737 C 107.09772,77.35469 107.20763,78.22112 107.35863,79.08383 L 113.38112,77.59168 C 113.22583,76.72366 113.11928,75.85282 113.0633,74.97907 z M 126.87516,75.26995 L 124.14942,77.11226 C 124.4453,77.97488 124.8131,78.78715 125.25373,79.5471 L 128.09798,77.63478 C 127.79247,77.1321 127.52273,76.60083 127.30072,76.03488 C 127.14878,75.78701 127.00635,75.53089 126.87516,75.26995 z M 149.99011,75.81402 C 149.56815,76.59552 149.08043,77.33637 148.52488,78.02801 L 152.52731,79.97805 C 153.05937,79.27492 153.53981,78.53487 153.97099,77.76405 L 149.99011,75.81402 z M 144.30699,77.02607 C 143.76004,77.72189 143.12613,78.34282 142.42158,78.87913 L 142.66938,79.13231 C 143.48332,78.72879 144.22553,78.22583 144.89416,77.64555 L 144.30699,77.02607 z M 104.19116,77.19844 L 96.74116,79.0569 C 96.83792,79.91129 96.96526,80.7652 97.11823,81.61566 L 104.55208,79.77335 C 104.39681,78.91723 104.27632,78.05927 104.19116,77.19844 z M 128.75517,78.59363 L 126.63813,81.51329 C 127.21107,82.19395 127.84994,82.81658 128.53431,83.37715 L 130.64056,80.48981 C 129.93975,79.93999 129.30577,79.30662 128.75517,78.59363 z M 121.7038,78.76063 L 117.56132,81.5564 C 117.9121,82.37506 118.30743,83.16345 118.74642,83.91583 L 122.86736,81.14699 C 122.42178,80.39522 122.03435,79.59963 121.7038,78.76063 z M 156.56744,79.03535 C 156.14404,79.80581 155.67326,80.54581 155.16147,81.26013 L 160.46213,83.84581 C 160.95486,83.12502 161.41166,82.3795 161.83578,81.61566 L 156.56744,79.03535 z M 141.62434,79.43398 C 141.42615,79.55749 141.22243,79.6739 141.01563,79.78412 C 141.24057,79.71683 141.46168,79.63855 141.6782,79.55788 L 141.62434,79.43398 z M 146.90344,79.73025 C 146.24514,80.31313 145.52613,80.83587 144.74871,81.28705 L 147.73841,84.3791 C 148.49295,83.90758 149.20641,83.38279 149.87159,82.81153 L 146.90344,79.73025 z M 131.7772,81.27628 L 130.74831,84.88546 C 131.51819,85.31629 132.32623,85.68393 133.16162,85.98438 L 134.20127,82.39674 C 133.35377,82.11167 132.53686,81.73631 131.7772,81.27628 z M 142.84715,82.19743 C 142.46589,82.34445 142.07563,82.47597 141.67282,82.59068 C 141.21027,82.72238 140.73888,82.82162 140.26685,82.89772 L 141.95293,86.6739 C 142.60654,86.54814 143.25297,86.38114 143.8922,86.17292 C 144.1013,86.10481 144.30717,86.03257 144.51168,85.95744 L 142.84715,82.19743 z M 135.75268,82.81153 L 136.03279,86.73315 C 136.9058,86.8806 137.79158,86.95689 138.68313,86.96479 L 138.41377,83.05933 C 137.51847,83.06961 136.62471,82.98613 135.75268,82.81153 z M 164.43223,82.88694 C 164.01371,83.64971 163.56095,84.39214 163.08013,85.1171 L 169.66825,88.32766 C 170.13449,87.60094 170.57666,86.85937 170.99341,86.10289 L 164.43223,82.88694 z M 115.13724,83.19399 L 109.83657,86.77625 C 110.21622,87.56737 110.63072,88.33178 111.07017,89.07643 L 116.34927,85.5265 C 115.90723,84.77982 115.5034,83.99993 115.13724,83.19399 z M 124.90895,83.89968 L 121.89234,88.05292 C 122.50374,88.68439 123.14757,89.28259 123.82621,89.83597 L 126.83746,85.70966 C 126.15133,85.15827 125.5066,84.5533 124.90895,83.89968 z M 151.87011,84.89085 C 151.21155,85.46456 150.51693,86.00019 149.78003,86.49074 L 153.78783,90.63861 C 154.50657,90.13337 155.19299,89.59223 155.851,89.02256 L 151.87011,84.89085 z M 129.9349,87.71356 L 128.48584,92.78796 C 129.27385,93.16779 130.08319,93.50627 130.90991,93.80069 L 132.36435,88.74783 C 131.53093,88.45755 130.71717,88.11468 129.9349,87.71356 z M 107.42866,88.40307 L 100.92674,92.79335 C 101.32031,93.55832 101.74182,94.31026 102.18187,95.05044 L 108.67302,90.68709 C 108.23166,89.94746 107.81632,89.18554 107.42866,88.40307 z M 145.68063,88.58623 C 145.38601,88.69733 145.08945,88.80535 144.78642,88.90405 C 144.24528,89.08033 143.69937,89.23057 143.14882,89.35655 L 145.4436,94.4956 C 146.13751,94.31883 146.82507,94.11095 147.50678,93.87072 C 147.65483,93.81854 147.80205,93.76369 147.94849,93.70912 L 145.68063,88.58623 z M 136.2375,89.66898 L 136.62535,95.10431 C 137.49391,95.19866 138.37086,95.25171 139.24874,95.25514 L 138.87705,89.84136 C 137.99106,89.84364 137.11095,89.7848 136.2375,89.66898 z M 120.17393,90.42314 L 116.33849,95.70764 C 116.96702,96.3076 117.62036,96.88082 118.29393,97.42603 L 122.12935,92.16848 C 121.45006,91.62136 120.79539,91.04013 120.17393,90.42314 z M 157.85489,91.10727 C 157.20245,91.67763 156.52078,92.22045 155.81329,92.7341 L 160.81766,97.90547 C 161.50957,97.3849 162.18403,96.84406 162.83234,96.27864 L 157.85489,91.10727 z M 127.68318,95.59451 L 125.84629,102.01024 C 126.63893,102.35861 127.44681,102.68084 128.26497,102.9691 L 130.10727,96.57491 C 129.28257,96.28763 128.47499,95.95801 127.68318,95.59451 z M 149.11744,96.34866 C 148.9004,96.43101 148.68051,96.51346 148.46024,96.59107 C 147.85321,96.80499 147.24305,96.98965 146.62873,97.15669 L 149.50529,103.59936 C 150.27405,103.3753 151.03752,103.12081 151.79469,102.83982 C 151.85235,102.81841 151.9096,102.79684 151.96707,102.77517 L 149.11744,96.34866 z M 136.83006,98.02398 L 137.31486,104.85988 C 138.1765,104.92382 139.04425,104.95698 139.91132,104.95684 L 139.44806,98.1371 C 138.57281,98.14056 137.69806,98.10173 136.83006,98.02398 z"
         id="path2572"
         sodipodi:nodetypes="ccsccccsccsccccccccccccccccccccccccccccsccscccccccccccccccccccccccccccccccccsccscccccccccccccccccccccccccccccccccccccccccccccccccccccccccccccccccccccccccccccccccccccccccscccsccccccccccccccccccccccccccccccccccccccccccccccccccccccccccccccccccccccccccccccccccccccccccsccsccccccccccccccccccccccccccccccccccccccsccscccccccccccccccccccccccsccsccccccc" />
      <path
         sodipodi:nodetypes="ccsccccsccsccccccccccccccccccccccccccccsccscccccccccccccccccccccccccccccccccsccscccccccccccccccccccccccccccccccccccccccccccccccccccccccccccccccccccccccccccccccccccccccccscccsccccccccccccccccccccccccccccccccccccccccccccccccccccccccccccccccccccccccccccccccccccccccccsccsccccccccccccccccccccccccccccccccccccccsccscccccccccccccccccccccccsccsccccccc"
         id="path2187"
         d="M 133.02605,35.767528 L 133.48932,42.592658 C 133.5702,42.592368 133.65087,42.586868 133.73173,42.587268 C 134.52672,42.591248 135.31856,42.629408 136.10733,42.700388 L 135.62788,35.864488 C 134.76451,35.800268 133.8949,35.767418 133.02605,35.767528 z M 123.46979,37.114228 C 122.68662,37.341408 121.90846,37.598358 121.13727,37.884548 C 121.09404,37.900608 121.05113,37.916848 121.008,37.933038 L 123.85764,44.359538 C 124.06062,44.282888 124.26594,44.205808 124.47174,44.133298 C 125.0912,43.914998 125.71384,43.722648 126.34098,43.551508 L 123.46979,37.114228 z M 144.64007,37.744508 L 142.79778,44.138668 C 143.62342,44.425418 144.43447,44.750608 145.22724,45.113688 L 147.06417,38.697968 C 146.26975,38.349638 145.46004,38.032488 144.64007,37.744508 z M 112.16818,42.775808 C 111.47528,43.295038 110.80286,43.838488 110.1535,44.402628 L 115.13096,49.574008 C 115.7858,49.004258 116.46791,48.459918 117.17795,47.947168 L 112.16818,42.775808 z M 154.59497,43.260618 L 150.76493,48.518188 C 151.44553,49.064128 152.09744,49.647648 152.72035,50.263518 L 156.55578,44.973638 C 155.92575,44.374388 155.27001,43.805008 154.59497,43.260618 z M 133.68863,45.463838 L 134.06033,50.877618 C 134.94451,50.875738 135.82279,50.934228 136.69448,51.049998 L 136.31202,45.614678 C 135.44351,45.520148 134.56647,45.467458 133.68863,45.463838 z M 170.70702,45.598508 L 164.21587,49.961858 C 164.65941,50.702108 165.0758,51.462768 165.46563,52.245878 L 171.96215,47.855598 C 171.56619,47.090458 171.14937,46.338768 170.70702,45.598508 z M 127.52607,46.212618 C 126.81923,46.391428 126.11943,46.603628 125.42521,46.848258 C 125.29165,46.895328 125.15884,46.944688 125.02657,46.993708 L 127.29444,52.116588 C 127.57506,52.011478 127.85735,51.908818 128.14557,51.814928 C 128.69923,51.634578 129.25738,51.479338 129.82088,51.351668 L 127.52607,46.212618 z M 141.99514,46.912898 L 140.54068,51.960378 C 141.37638,52.250278 142.19107,52.598768 142.97553,53.000038 L 144.4246,47.920238 C 143.63533,47.540788 142.8231,47.206738 141.99514,46.912898 z M 119.19801,50.042658 C 118.47773,50.546268 117.78907,51.085118 117.12947,51.653318 L 121.11034,55.790428 C 121.7719,55.217638 122.47114,54.679608 123.21122,54.190528 L 119.19801,50.042658 z M 149.06806,50.850688 L 146.05682,54.982398 C 146.74361,55.531588 147.39191,56.135728 147.99071,56.786988 L 151.00194,52.628348 C 150.38981,51.999188 149.74707,51.401898 149.06806,50.850688 z M 161.82412,51.572518 L 156.53423,55.127838 C 156.97879,55.872878 157.38821,56.650568 157.75704,57.454948 L 163.05769,53.872708 C 162.67601,53.082588 162.26553,52.316058 161.82412,51.572518 z M 103.31221,52.321298 C 102.84462,53.046388 102.39987,53.785748 101.98167,54.540678 L 108.54823,57.756618 C 108.96837,56.996308 109.41815,56.254288 109.90033,55.531848 L 103.31221,52.321298 z M 134.25425,53.754188 L 134.5236,57.665038 C 135.41746,57.655058 136.30867,57.738528 137.1793,57.912838 L 136.90457,53.991208 C 136.03152,53.843198 135.14587,53.762578 134.25425,53.754188 z M 131.01675,54.039688 C 130.35053,54.166208 129.69117,54.333878 129.03978,54.546058 C 128.84387,54.609868 128.64988,54.675408 128.45801,54.745378 L 130.12793,58.510778 C 130.4956,58.370438 130.87153,58.244078 131.25916,58.133688 C 131.73539,57.998088 132.21663,57.892548 132.70283,57.815878 L 131.01675,54.039688 z M 139.73806,54.729208 L 138.70378,58.322238 C 139.55381,58.605948 140.37101,58.977808 141.13324,59.437318 L 142.16751,55.828128 C 141.39271,55.395428 140.57889,55.029978 139.73806,54.729208 z M 125.25284,56.302168 C 124.4948,56.771628 123.77733,57.294528 123.10887,57.864358 L 126.07702,60.95102 C 126.74036,60.36931 127.46483,59.848188 128.24792,59.399608 L 125.25284,56.302168 z M 154.14246,56.733118 L 150.02153,59.507338 C 150.47055,60.25652 150.86683,61.04646 151.20126,61.88294 L 155.33835,59.087178 C 154.98439,58.269738 154.58452,57.484078 154.14246,56.733118 z M 112.51833,56.803148 C 112.0242,57.521258 111.57047,58.266668 111.14469,59.027908 L 116.41302,61.60821 C 116.8392,60.83993 117.30466,60.09531 117.81898,59.383448 L 112.51833,56.803148 z M 144.35457,57.309518 L 142.24831,60.20225 C 142.9512,60.74837 143.59081,61.3784 144.14448,62.08765 L 146.25614,59.173358 C 145.67949,58.493158 145.0427,57.869008 144.35457,57.309518 z M 175.79759,59.011758 L 168.35834,60.84867 C 168.51679,61.70636 168.64207,62.56636 168.73004,63.42897 L 176.18004,61.57051 C 176.08116,60.71611 175.95272,59.862098 175.79759,59.011758 z M 120.45853,60.67091 C 119.92353,61.37102 119.43847,62.10594 119.0041,62.87413 L 122.98498,64.82416 C 123.41226,64.0449 123.91087,63.3093 124.47174,62.62095 L 120.45853,60.67091 z M 131.67933,61.01567 C 131.54991,61.05771 131.42343,61.10377 131.29688,61.15034 L 131.32919,61.21497 C 131.44441,61.14633 131.5613,61.07991 131.67933,61.01567 z M 147.63517,61.10724 L 144.79091,63.01957 C 145.25165,63.76417 145.63009,64.57573 145.9006,65.4598 L 148.75563,63.53132 C 148.45497,62.672 148.07987,61.86385 147.63517,61.10724 z M 165.5572,61.54358 L 159.52931,63.03572 C 159.68847,63.90374 159.79825,64.77425 159.8579,65.64835 L 165.90195,64.14003 C 165.82613,63.27221 165.7111,62.40659 165.5572,61.54358 z M 130.33801,61.55973 C 129.51564,61.95939 128.76216,62.45648 128.08632,63.03572 L 128.59805,63.56903 C 129.15859,62.88426 129.8055,62.27086 130.52116,61.74827 L 130.33801,61.55973 z M 156.73892,63.73063 L 152.07932,64.88341 C 152.24377,65.75909 152.33371,66.64463 152.34864,67.52835 L 157.01904,66.35941 C 156.98151,65.48154 156.89071,64.60319 156.73892,63.73063 z M 127.15977,63.92994 C 126.55408,64.58698 126.02875,65.31984 125.58682,66.10084 L 126.83657,66.70955 C 127.13125,65.8677 127.53169,65.07716 128.02167,64.35012 L 127.15977,63.92994 z M 98.06005,64.6841 C 97.86073,65.52474 97.69391,66.37315 97.5483,67.22669 L 104.97674,68.01856 C 105.122,67.15979 105.29773,66.30744 105.51005,65.46519 L 98.06005,64.6841 z M 149.28893,65.57293 L 146.26691,66.3217 C 146.58868,67.13184 146.81587,67.99085 146.92409,68.88584 L 149.46668,68.25019 C 149.49892,67.359 149.44311,66.46008 149.28893,65.57293 z M 108.41357,65.76686 C 108.18824,66.60982 107.99921,67.46341 107.84794,68.32562 L 113.83812,68.96664 C 113.98694,68.09761 114.18162,67.23541 114.42527,66.39172 L 108.41357,65.76686 z M 117.34494,66.69878 C 117.07836,67.53896 116.86193,68.39648 116.70391,69.2683 L 121.28272,69.75851 C 121.43101,68.87898 121.65434,68.01568 121.94531,67.17821 L 117.34494,66.69878 z M 124.90807,67.49065 C 124.56846,68.31583 124.31767,69.17958 124.15391,70.06556 L 126.25478,70.2918 C 126.25396,70.23816 126.25478,70.18405 126.25478,70.13021 C 126.25478,69.27742 126.35658,68.45061 126.55106,67.65764 L 124.90807,67.49065 z M 146.99413,69.82315 C 146.99715,69.92561 146.99951,70.02699 146.99951,70.13021 C 146.99951,70.92604 146.91104,71.70211 146.74095,72.44654 L 148.54015,72.63508 C 148.87156,71.80949 149.12174,70.95003 149.27815,70.06556 L 146.99413,69.82315 z M 152.13855,70.37262 C 151.99613,71.2497 151.78175,72.11123 151.49752,72.94752 L 156.09789,73.42695 C 156.35943,72.58826 156.56915,71.7324 156.72277,70.86282 L 152.13855,70.37262 z M 159.58857,71.16986 C 159.44358,72.03674 159.25151,72.89196 159.01219,73.734 L 165.02389,74.35888 C 165.24579,73.51744 165.43057,72.66585 165.57873,71.80551 L 159.58857,71.16986 z M 126.31943,71.28837 L 123.94383,71.88093 C 123.9049,72.77195 123.9581,73.66985 124.10543,74.55819 L 126.94969,73.85251 C 126.63707,73.04224 126.41926,72.18194 126.31943,71.28837 z M 168.44993,72.11256 C 168.30735,72.97104 168.13697,73.82375 167.9274,74.66593 L 175.37201,75.44163 C 175.56874,74.60237 175.73516,73.75639 175.87838,72.90442 L 168.44993,72.11256 z M 121.06187,72.60276 L 116.38608,73.77171 C 116.41969,74.64918 116.50779,75.52787 116.65542,76.40048 L 121.31503,75.2477 C 121.15614,74.37132 121.07144,73.48635 121.06187,72.60276 z M 146.48237,73.3623 C 146.20365,74.21022 145.81624,75.01294 145.34037,75.74867 L 146.31539,76.22272 C 146.91656,75.55915 147.43579,74.82765 147.87219,74.04105 L 146.48237,73.3623 z M 113.54183,74.48278 L 107.50317,75.99108 C 107.57625,76.8584 107.68617,77.72483 107.83718,78.58754 L 113.85966,77.09539 C 113.70437,76.22737 113.59783,75.35653 113.54183,74.48278 z M 127.3537,74.77365 L 124.62795,76.61596 C 124.92383,77.47859 125.29164,78.29086 125.73227,79.05081 L 128.57652,77.13848 C 128.27101,76.63581 128.00127,76.10454 127.77927,75.53859 C 127.62732,75.29072 127.48489,75.0346 127.3537,74.77365 z M 150.46864,75.31773 C 150.04669,76.09923 149.55897,76.84008 149.00343,77.53172 L 153.00585,79.48176 C 153.5379,78.77863 154.01835,78.03858 154.44951,77.26776 L 150.46864,75.31773 z M 144.78553,76.52978 C 144.23859,77.22559 143.60467,77.84653 142.90013,78.38284 L 143.14792,78.63602 C 143.96186,78.2325 144.70407,77.72954 145.37268,77.14926 L 144.78553,76.52978 z M 104.6697,76.70215 L 97.2197,78.56061 C 97.31646,79.415 97.44379,80.26891 97.59678,81.11937 L 105.03062,79.27706 C 104.87534,78.42094 104.75486,77.56298 104.6697,76.70215 z M 129.2337,78.09734 L 127.11667,81.017 C 127.68962,81.69766 128.32849,82.32029 129.01283,82.88086 L 131.1191,79.99352 C 130.41829,79.4437 129.78431,78.81033 129.2337,78.09734 z M 122.18233,78.26434 L 118.03985,81.06011 C 118.39065,81.87877 118.78597,82.66716 119.22496,83.41954 L 123.34589,80.6507 C 122.90032,79.89893 122.51288,79.10334 122.18233,78.26434 z M 157.04599,78.53906 C 156.62257,79.30952 156.15181,80.04952 155.64002,80.76384 L 160.94066,83.34951 C 161.4334,82.62873 161.89021,81.88321 162.31432,81.11937 L 157.04599,78.53906 z M 142.10287,78.93769 C 141.90468,79.0612 141.70097,79.17761 141.49417,79.28783 C 141.71911,79.22054 141.94022,79.14226 142.15675,79.06159 L 142.10287,78.93769 z M 147.38198,79.23396 C 146.72368,79.81684 146.00466,80.33958 145.22724,80.79076 L 148.21695,83.88281 C 148.97149,83.41129 149.68494,82.8865 150.35013,82.31524 L 147.38198,79.23396 z M 132.25572,80.77999 L 131.22684,84.38917 C 131.99673,84.82 132.80477,85.18764 133.64015,85.48809 L 134.67979,81.90045 C 133.83231,81.61538 133.0154,81.24002 132.25572,80.77999 z M 143.32569,81.70113 C 142.94443,81.84816 142.55416,81.97968 142.15135,82.09439 C 141.68882,82.22609 141.21742,82.32533 140.74539,82.40143 L 142.43147,86.17761 C 143.08506,86.05185 143.7315,85.88485 144.37073,85.67663 C 144.57984,85.60852 144.78571,85.53628 144.99023,85.46115 L 143.32569,81.70113 z M 136.23123,82.31524 L 136.51134,86.23686 C 137.38433,86.38431 138.27012,86.4606 139.16167,86.4685 L 138.89231,82.56304 C 137.99702,82.57332 137.10325,82.48983 136.23123,82.31524 z M 164.91078,82.39065 C 164.49225,83.15342 164.03947,83.89585 163.55867,84.62081 L 170.14679,87.83137 C 170.61304,87.10465 171.05521,86.36308 171.47193,85.6066 L 164.91078,82.39065 z M 115.61577,82.6977 L 110.31511,86.27996 C 110.69475,87.07108 111.10926,87.83549 111.5487,88.58014 L 116.82781,85.03021 C 116.38576,84.28353 115.98193,83.50364 115.61577,82.6977 z M 125.3875,83.40339 L 122.37087,87.55663 C 122.98228,88.1881 123.6261,88.7863 124.30474,89.33968 L 127.31599,85.21337 C 126.62987,84.66197 125.98514,84.05701 125.3875,83.40339 z M 152.34864,84.39456 C 151.69009,84.96827 150.99547,85.5039 150.25856,85.99445 L 154.26637,90.14232 C 154.9851,89.63708 155.67151,89.09594 156.32953,88.52627 L 152.34864,84.39456 z M 130.41343,87.21727 L 128.96437,92.29167 C 129.75239,92.6715 130.56173,93.00997 131.38844,93.3044 L 132.84289,88.25154 C 132.00947,87.96126 131.1957,87.61839 130.41343,87.21727 z M 107.9072,87.90678 L 101.40526,92.29706 C 101.79884,93.06203 102.22036,93.81397 102.66042,94.55415 L 109.15157,90.1908 C 108.71019,89.45117 108.29486,88.68925 107.9072,87.90678 z M 146.15917,88.08994 C 145.86455,88.20104 145.56797,88.30905 145.26495,88.40776 C 144.72382,88.58403 144.1779,88.73428 143.62735,88.86026 L 145.92215,93.99931 C 146.61606,93.82254 147.30362,93.61466 147.98531,93.37443 C 148.13337,93.32225 148.28059,93.2674 148.42703,93.21283 L 146.15917,88.08994 z M 136.71604,89.17269 L 137.10389,94.60802 C 137.97243,94.70237 138.8494,94.75542 139.72728,94.75885 L 139.35558,89.34507 C 138.4696,89.34735 137.58949,89.28851 136.71604,89.17269 z M 120.65247,89.92685 L 116.81703,95.21134 C 117.44556,95.81131 118.09891,96.38453 118.77247,96.92974 L 122.60789,91.67219 C 121.9286,91.12507 121.27393,90.54384 120.65247,89.92685 z M 158.33344,90.61098 C 157.68099,91.18134 156.99932,91.72416 156.29183,92.23781 L 161.2962,97.40918 C 161.98811,96.88861 162.66255,96.34777 163.31089,95.78235 L 158.33344,90.61098 z M 128.16172,95.09822 L 126.32482,101.51395 C 127.11747,101.86231 127.92534,102.18455 128.74351,102.47281 L 130.58579,96.07862 C 129.76111,95.79134 128.95352,95.46172 128.16172,95.09822 z M 149.59599,95.85237 C 149.37893,95.93472 149.15904,96.01717 148.93877,96.09478 C 148.33175,96.3087 147.72159,96.49336 147.10726,96.6604 L 149.98383,103.10307 C 150.75259,102.87901 151.51605,102.62452 152.27323,102.34353 C 152.33089,102.32212 152.38815,102.30055 152.44561,102.27888 L 149.59599,95.85237 z M 137.30858,97.52769 L 137.79341,104.36359 C 138.65503,104.42753 139.52278,104.46069 140.38985,104.46055 L 139.92658,97.64081 C 139.05134,97.64427 138.17659,97.60544 137.30858,97.52769 z"
         style="fill:url(#linearGradient3254);fill-opacity:1;stroke:none;stroke-width:13.94999981;stroke-miterlimit:4;stroke-dasharray:none;stroke-opacity:1" />
    </g>
    <text
       xml:space="preserve"
       style="font-size:18.54216766px;font-style:normal;font-weight:normal;fill:#000000;fill-opacity:1;stroke:none;stroke-width:1px;stroke-linecap:butt;stroke-linejoin:miter;stroke-opacity:1;font-family:Bitstream Vera Sans"
       x="274.4711"
       y="83.443863"
       id="text3278"><tspan
         sodipodi:role="line"
         id="tspan3280"
         x="274.4711"
         y="83.443863">maps</tspan></text>
    <text
       xml:space="preserve"
       style="font-size:18.54216766px;font-style:normal;font-weight:normal;fill:#000000;fill-opacity:1;stroke:none;stroke-width:1px;stroke-linecap:butt;stroke-linejoin:miter;stroke-opacity:1;font-family:Bitstream Vera Sans"
       x="344.18536"
       y="83.443863"
       id="text3282"><tspan
         sodipodi:role="line"
         id="tspan3284"
         x="344.18536"
         y="83.443863">genomes</tspan></text>
    <text
       xml:space="preserve"
       style="font-size:18.54216766px;font-style:normal;font-weight:normal;fill:#000000;fill-opacity:1;stroke:none;stroke-width:1px;stroke-linecap:butt;stroke-linejoin:miter;stroke-opacity:1;font-family:Bitstream Vera Sans"
       x="452.86713"
       y="83.443863"
       id="text3286"><tspan
         sodipodi:role="line"
         id="tspan3288"
         x="452.86713"
         y="83.443863">tools</tspan></text>
    <text
       xml:space="preserve"
       style="font-size:13.25399016999999979px;font-style:normal;font-weight:normal;fill:#4d4d4d;fill-opacity:1;stroke:none;stroke-width:1px;stroke-linecap:butt;stroke-linejoin:miter;stroke-opacity:1;font-family:Bitstream Vera Sans"
       x="692.38953"
       y="26.347633"
       id="text3290"><tspan
         sodipodi:role="line"
         id="tspan3292"
         x="692.38953"
         y="26.347633">home | forum | contact | help</tspan></text>
    <text
       id="text3306"
       y="83.443863"
       x="168.85857"
       style="font-size:18.54216766px;font-style:normal;font-weight:normal;fill:#000000;fill-opacity:1;stroke:none;stroke-width:1px;stroke-linecap:butt;stroke-linejoin:miter;stroke-opacity:1;font-family:Bitstream Vera Sans"
       xml:space="preserve"><tspan
         y="83.443863"
         x="168.85857"
         id="tspan3308"
         sodipodi:role="line">phenomes</tspan></text>
    <text
       id="text3325"
       y="49.832283"
       x="194.11844"
       style="font-size:25.85426903px;font-style:normal;font-weight:normal;fill:#000000;fill-opacity:1;stroke:none;stroke-width:1px;stroke-linecap:butt;stroke-linejoin:miter;stroke-opacity:1;font-family:Bitstream Vera Sans"
       xml:space="preserve"
       transform="scale(0.9580355,1.0438027)"><tspan
         y="49.832283"
         x="194.11844"
         id="tspan3327"
         sodipodi:role="line"
         style="font-weight:bold">sol genomics network</tspan></text>
    <g
       id="g3792">
      <g
         transform="translate(38.707107,-37.979185)"
         id="g3312">
        <text
           xml:space="preserve"
           style="font-size:14.46892452px;font-style:normal;font-weight:normal;fill:#000000;fill-opacity:1;stroke:none;stroke-width:1px;stroke-linecap:butt;stroke-linejoin:miter;stroke-opacity:1;font-family:Bitstream Vera Sans"
           x="762.46765"
           y="120.06743"
           id="text3274"><tspan
             sodipodi:role="line"
             id="tspan3276"
             x="762.46765"
             y="120.06743">adv. search</tspan></text>
        <rect
           ry="0.012788289"
           rx="0.01278829"
           y="123.36218"
           x="763.58582"
           height="2"
           width="80.87867"
           id="rect3310"
           style="opacity:1;fill:#000000;fill-opacity:1;stroke:#000000;stroke-width:0;stroke-miterlimit:4;stroke-dasharray:none;stroke-opacity:1" />
      </g>
      <text
         xml:space="preserve"
         style="font-size:13.72844028px;font-style:normal;font-weight:normal;fill:#000000;fill-opacity:1;stroke:none;stroke-width:1px;stroke-linecap:butt;stroke-linejoin:miter;stroke-opacity:1;font-family:Bitstream Vera Sans"
         x="592.00104"
         y="82.775116"
         id="text3317"><tspan
           style="font-weight:bold"
           sodipodi:role="line"
           id="tspan3319"
           x="592.00104"
           y="82.775116">Robert Buels</tspan></text>
      <text
         id="text3321"
         y="79.587303"
         x="692.28857"
         style="font-size:10.79747772px;font-style:normal;font-weight:normal;fill:#000000;fill-opacity:1;stroke:none;stroke-width:1px;stroke-linecap:butt;stroke-linejoin:miter;stroke-opacity:1;font-family:Bitstream Vera Sans"
         xml:space="preserve"><tspan
           y="79.587303"
           x="692.28857"
           id="tspan3323"
           sodipodi:role="line"
           style="font-weight:normal">(X)</tspan></text>
      <text
         id="text3358"
         y="82.775116"
         x="714.98645"
         style="font-size:13.72844028px;font-style:normal;font-weight:normal;fill:#aa0000;fill-opacity:1;stroke:none;stroke-width:1px;stroke-linecap:butt;stroke-linejoin:miter;stroke-opacity:1;font-family:Bitstream Vera Sans"
         xml:space="preserve"><tspan
           y="82.775116"
           x="714.98645"
           id="tspan3360"
           sodipodi:role="line"
           style="font-weight:bold;fill:#aa0000">MySGN</tspan></text>
    </g>
  </g>
</svg>
