<?xml version="1.0" encoding="UTF-8" standalone="no"?>
<!-- Created with Inkscape (http://www.inkscape.org/) -->
<svg
   xmlns:dc="http://purl.org/dc/elements/1.1/"
   xmlns:cc="http://creativecommons.org/ns#"
   xmlns:rdf="http://www.w3.org/1999/02/22-rdf-syntax-ns#"
   xmlns:svg="http://www.w3.org/2000/svg"
   xmlns="http://www.w3.org/2000/svg"
   xmlns:xlink="http://www.w3.org/1999/xlink"
   xmlns:sodipodi="http://sodipodi.sourceforge.net/DTD/sodipodi-0.dtd"
   xmlns:inkscape="http://www.inkscape.org/namespaces/inkscape"
   width="1000"
   height="1052"
   id="svg2"
   sodipodi:version="0.32"
   inkscape:version="0.46"
   version="1.0"
   sodipodi:docname="front9.svg"
   inkscape:output_extension="org.inkscape.output.svg.inkscape"
   inkscape:export-filename="/crypt/rob/cxgn/core/sgn-tools/art/sgn2/front7.png"
   inkscape:export-xdpi="90"
   inkscape:export-ydpi="90">
  <defs
     id="defs4">
    <linearGradient
       inkscape:collect="always"
       id="linearGradient3282">
      <stop
         style="stop-color:#ececec;stop-opacity:1;"
         offset="0"
         id="stop3284" />
      <stop
         style="stop-color:#ececec;stop-opacity:0;"
         offset="1"
         id="stop3287" />
    </linearGradient>
    <linearGradient
       id="linearGradient3284">
      <stop
         style="stop-color:#ebebeb;stop-opacity:1;"
         offset="0"
         id="stop3286" />
      <stop
         style="stop-color:#ffffff;stop-opacity:0;"
         offset="1"
         id="stop3288" />
    </linearGradient>
    <linearGradient
       id="linearGradient3420">
      <stop
         style="stop-color:#b7b7ff;stop-opacity:1;"
         offset="0"
         id="stop3422" />
      <stop
         style="stop-color:#d6d6fd;stop-opacity:1;"
         offset="1"
         id="stop3424" />
    </linearGradient>
    <linearGradient
       id="linearGradient5109">
      <stop
         style="stop-color:#fea226;stop-opacity:1;"
         offset="0"
         id="stop5111" />
      <stop
         style="stop-color:#f0f0f0;stop-opacity:1;"
         offset="1"
         id="stop5113" />
    </linearGradient>
    <linearGradient
       id="linearGradient5065">
      <stop
         id="stop5067"
         offset="0"
         style="stop-color:#cbcbcb;stop-opacity:1;" />
      <stop
         id="stop5069"
         offset="1"
         style="stop-color:#fbfbfb;stop-opacity:1;" />
    </linearGradient>
    <linearGradient
       id="linearGradient4731">
      <stop
         style="stop-color:#b9b9b9;stop-opacity:1;"
         offset="0"
         id="stop4733" />
      <stop
         style="stop-color:#fbfbfb;stop-opacity:1;"
         offset="1"
         id="stop4735" />
    </linearGradient>
    <linearGradient
       id="linearGradient4711">
      <stop
         style="stop-color:#1f9e00;stop-opacity:1;"
         offset="0"
         id="stop4713" />
      <stop
         style="stop-color:#43d721;stop-opacity:1;"
         offset="1"
         id="stop4715" />
    </linearGradient>
    <linearGradient
       id="linearGradient3488">
      <stop
         id="stop3490"
         offset="0"
         style="stop-color:#000000;stop-opacity:1" />
      <stop
         style="stop-color:#4e4e4e;stop-opacity:1;"
         offset="0.31917229"
         id="stop3496" />
      <stop
         id="stop3492"
         offset="1"
         style="stop-color:#e4e4e4;stop-opacity:0;" />
    </linearGradient>
    <linearGradient
       id="linearGradient3289">
      <stop
         style="stop-color:#ffffff;stop-opacity:1;"
         offset="0"
         id="stop3291" />
      <stop
         style="stop-color:#fdfdfd;stop-opacity:1;"
         offset="1"
         id="stop3293" />
    </linearGradient>
    <linearGradient
       id="linearGradient3350">
      <stop
         style="stop-color:#e5e1de;stop-opacity:1;"
         offset="0"
         id="stop3352" />
      <stop
         style="stop-color:#fffdf9;stop-opacity:1;"
         offset="1"
         id="stop3354" />
    </linearGradient>
    <linearGradient
       id="linearGradient3161">
      <stop
         style="stop-color:#f7ff12;stop-opacity:1;"
         offset="0"
         id="stop3163" />
      <stop
         style="stop-color:#f20000;stop-opacity:1;"
         offset="1"
         id="stop3165" />
    </linearGradient>
    <inkscape:perspective
       sodipodi:type="inkscape:persp3d"
       inkscape:vp_x="0 : 526.18109 : 1"
       inkscape:vp_y="0 : 1000 : 0"
       inkscape:vp_z="744.09448 : 526.18109 : 1"
       inkscape:persp3d-origin="372.04724 : 350.78739 : 1"
       id="perspective10" />
    <inkscape:perspective
       id="perspective2390"
       inkscape:persp3d-origin="372.04724 : 350.78739 : 1"
       inkscape:vp_z="744.09448 : 526.18109 : 1"
       inkscape:vp_y="0 : 1000 : 0"
       inkscape:vp_x="0 : 526.18109 : 1"
       sodipodi:type="inkscape:persp3d" />
    <clipPath
       clipPathUnits="userSpaceOnUse"
       id="clipPath3470">
      <rect
         rx="0.077317901"
         y="-49.375546"
         x="535.42584"
         height="19.041536"
         width="265.97363"
         id="rect3472"
         style="opacity:0.2;fill:#ff4d1f;fill-opacity:1;stroke:none;stroke-width:0.88159186;stroke-miterlimit:4;stroke-dasharray:none;stroke-opacity:1" />
    </clipPath>
    <inkscape:perspective
       id="perspective3666"
       inkscape:persp3d-origin="372.04724 : 350.78739 : 1"
       inkscape:vp_z="744.09448 : 526.18109 : 1"
       inkscape:vp_y="0 : 1000 : 0"
       inkscape:vp_x="0 : 526.18109 : 1"
       sodipodi:type="inkscape:persp3d" />
    <inkscape:perspective
       id="perspective3845"
       inkscape:persp3d-origin="372.04724 : 350.78739 : 1"
       inkscape:vp_z="744.09448 : 526.18109 : 1"
       inkscape:vp_y="0 : 1000 : 0"
       inkscape:vp_x="0 : 526.18109 : 1"
       sodipodi:type="inkscape:persp3d" />
    <linearGradient
       inkscape:collect="always"
       xlink:href="#linearGradient3350"
       id="linearGradient4748"
       gradientUnits="userSpaceOnUse"
       gradientTransform="matrix(0.7783487,0,0,1.0039492,182.95381,-42.036031)"
       x1="624.68182"
       y1="87.005478"
       x2="624.68182"
       y2="96.238503" />
    <linearGradient
       inkscape:collect="always"
       xlink:href="#linearGradient4731"
       id="linearGradient4836"
       gradientUnits="userSpaceOnUse"
       gradientTransform="translate(-4,0)"
       x1="222.99998"
       y1="98"
       x2="222.99998"
       y2="66" />
    <linearGradient
       inkscape:collect="always"
       xlink:href="#linearGradient5065"
       id="linearGradient5063"
       gradientUnits="userSpaceOnUse"
       gradientTransform="translate(-4.0000073,0)"
       x1="222.99998"
       y1="98"
       x2="222.99998"
       y2="66" />
    <linearGradient
       inkscape:collect="always"
       xlink:href="#linearGradient4731"
       id="linearGradient5085"
       gradientUnits="userSpaceOnUse"
       gradientTransform="matrix(0.8790698,0,0,1,673.55811,0)"
       x1="222.99998"
       y1="98"
       x2="222.99998"
       y2="66" />
    <linearGradient
       inkscape:collect="always"
       xlink:href="#linearGradient5109"
       id="linearGradient5115"
       x1="839.5"
       y1="80.362183"
       x2="839.5"
       y2="69.362183"
       gradientUnits="userSpaceOnUse"
       spreadMethod="pad"
       gradientTransform="translate(0,-1)" />
    <linearGradient
       inkscape:collect="always"
       xlink:href="#linearGradient4731"
       id="linearGradient3260"
       gradientUnits="userSpaceOnUse"
       gradientTransform="matrix(0.9120886,0,0,1.0015789,94.856595,-19.116038)"
       x1="222.99998"
       y1="98"
       x2="222.99998"
       y2="66" />
    <linearGradient
       inkscape:collect="always"
       xlink:href="#linearGradient4731"
       id="linearGradient3263"
       gradientUnits="userSpaceOnUse"
       gradientTransform="matrix(1.0794815,0,0,0.9964454,277.65897,-18.73864)"
       x1="222.99998"
       y1="98"
       x2="222.99998"
       y2="66" />
    <linearGradient
       inkscape:collect="always"
       xlink:href="#linearGradient4731"
       id="linearGradient3268"
       gradientUnits="userSpaceOnUse"
       x1="222.99998"
       y1="98"
       x2="222.99998"
       y2="66"
       gradientTransform="translate(-52,-19)" />
    <linearGradient
       inkscape:collect="always"
       xlink:href="#linearGradient4731"
       id="linearGradient3273"
       gradientUnits="userSpaceOnUse"
       gradientTransform="matrix(0.7804873,0,0,0.9966623,261.2837,-18.754682)"
       x1="222.99998"
       y1="98"
       x2="222.99998"
       y2="66" />
    <linearGradient
       inkscape:collect="always"
       xlink:href="#linearGradient4711"
       id="linearGradient3280"
       gradientUnits="userSpaceOnUse"
       gradientTransform="translate(21.5,-14.5)"
       x1="231"
       y1="93.032227"
       x2="231"
       y2="61.963768" />
    <linearGradient
       inkscape:collect="always"
       xlink:href="#linearGradient4731"
       id="linearGradient3283"
       gradientUnits="userSpaceOnUse"
       gradientTransform="matrix(0.9392581,0,0,1,134.32613,-19)"
       x1="222.99998"
       y1="98"
       x2="222.99998"
       y2="66" />
    <inkscape:perspective
       id="perspective2553"
       inkscape:persp3d-origin="372.04724 : 350.78739 : 1"
       inkscape:vp_z="744.09448 : 526.18109 : 1"
       inkscape:vp_y="0 : 1000 : 0"
       inkscape:vp_x="0 : 526.18109 : 1"
       sodipodi:type="inkscape:persp3d" />
    <inkscape:perspective
       id="perspective2628"
       inkscape:persp3d-origin="372.04724 : 350.78739 : 1"
       inkscape:vp_z="744.09448 : 526.18109 : 1"
       inkscape:vp_y="0 : 1000 : 0"
       inkscape:vp_x="0 : 526.18109 : 1"
       sodipodi:type="inkscape:persp3d" />
    <linearGradient
       inkscape:collect="always"
       xlink:href="#linearGradient3420"
       id="linearGradient3426"
       x1="306"
       y1="155"
       x2="306"
       y2="137"
       gradientUnits="userSpaceOnUse"
       spreadMethod="reflect"
       gradientTransform="matrix(0.9904174,0,0,1.0001961,4.6188109,-13.528036)" />
    <linearGradient
       inkscape:collect="always"
       xlink:href="#linearGradient3161"
       id="linearGradient3335"
       gradientUnits="userSpaceOnUse"
       gradientTransform="matrix(0.1659078,8.4197298e-3,-8.4197298e-3,0.1659078,139.62727,-26.394317)"
       x1="-54.234585"
       y1="285.37189"
       x2="149.24025"
       y2="432.80035" />
    <linearGradient
       inkscape:collect="always"
       xlink:href="#linearGradient3282"
       id="linearGradient3290"
       x1="685"
       y1="26.000006"
       x2="685"
       y2="5.0000038"
       gradientUnits="userSpaceOnUse"
       gradientTransform="translate(5.782517e-6,0)" />
    <linearGradient
       inkscape:collect="always"
       xlink:href="#linearGradient3161"
       id="linearGradient2533"
       gradientUnits="userSpaceOnUse"
       gradientTransform="matrix(1.35637,6.883503e-2,-6.883503e-2,1.35637,-363.86081,-525.17943)"
       x1="-54.234585"
       y1="285.37189"
       x2="149.24025"
       y2="432.80035" />
  </defs>
  <sodipodi:namedview
     id="base"
     pagecolor="#ffffff"
     bordercolor="#ebebeb"
     borderopacity="1"
     gridtolerance="10000"
     guidetolerance="10"
     objecttolerance="10"
     inkscape:pageopacity="0.0"
     inkscape:pageshadow="2"
     inkscape:zoom="5.6568542"
     inkscape:cx="270.29758"
     inkscape:cy="998.23961"
     inkscape:document-units="px"
     inkscape:current-layer="layer1"
     showgrid="false"
     inkscape:window-width="958"
     inkscape:window-height="775"
     inkscape:window-x="669"
     inkscape:window-y="-40"
     showborder="true"
     showguides="true"
     inkscape:guide-bbox="true"
     inkscape:showpageshadow="false" />
  <metadata
     id="metadata7">
    <rdf:RDF>
      <cc:Work
         rdf:about="">
        <dc:format>image/svg+xml</dc:format>
        <dc:type
           rdf:resource="http://purl.org/dc/dcmitype/StillImage" />
      </cc:Work>
    </rdf:RDF>
  </metadata>
  <g
     inkscape:label="Layer 1"
     inkscape:groupmode="layer"
     id="layer1">
    <g
       id="g3334"
       transform="matrix(-0.7290307,2.2054749e-2,2.6826298e-2,0.8867572,387.98881,-170.99187)">
      <path
         id="path3298"
         d="M 324.65392,19.197183 C 312.11755,19.351641 299.77895,22.682297 289.41302,28.257369 C 277.41136,34.487398 267.08042,43.009458 260.76792,53.323598 C 255.3299,62.578167 253.8087,73.454708 257.70277,83.270368 C 261.87361,94.384133 271.40957,103.79636 282.69968,110.90965 C 297.81171,120.31433 315.92635,126.28275 334.52339,129.67623 C 350.678,132.6076 367.37492,133.52234 383.89782,132.72482 C 400.54932,131.87155 417.09705,129.15923 432.63692,124.27098 C 447.50209,119.47446 461.67427,112.72846 472.61816,103.27491 C 480.09737,96.783256 485.92347,88.919388 488.32087,80.262447 C 491.6743,68.088019 487.59544,54.794311 477.78424,45.116851 C 473.49419,41.114557 467.89721,38.128668 462.10629,35.671602 C 453.63833,32.172949 444.17867,30.632141 434.76908,29.798819 C 419.18894,28.264861 403.42835,28.437066 387.85458,26.837572 C 373.15105,25.609255 358.75259,22.859065 344.25714,20.646687 C 337.79387,19.730586 331.23099,19.045066 324.65392,19.197183 z"
         style="opacity:0.33999999;fill:#cccccc;fill-opacity:1;stroke:#f8f8f8;stroke-width:1.3656826;stroke-miterlimit:4;stroke-opacity:1" />
      <path
         style="opacity:0.33999999;fill:#cccccc;fill-opacity:1;stroke:#f8f8f8;stroke-width:1.24712288;stroke-miterlimit:4;stroke-opacity:1"
         d="M 328.80775,24.136063 C 317.3597,24.277112 306.09226,27.318622 296.62623,32.409702 C 285.66648,38.09888 276.23241,45.88111 270.46792,55.299842 C 265.50199,63.750989 264.11285,73.683299 267.66886,82.646827 C 271.47762,92.795766 280.18573,101.39088 290.4957,107.88664 C 304.2958,116.47487 320.83785,121.92515 337.82041,125.02403 C 352.57258,127.70092 367.81998,128.53625 382.90847,127.80796 C 398.1144,127.02877 413.22556,124.55191 427.41636,120.08803 C 440.99103,115.70791 453.93287,109.54756 463.92668,100.9147 C 470.7566,94.986613 476.07691,87.805435 478.26619,79.900034 C 481.32849,68.782512 477.60373,56.642878 468.64428,47.805552 C 464.72666,44.150712 459.61558,41.424038 454.32739,39.180279 C 446.59456,35.985357 437.95613,34.578312 429.36342,33.817333 C 415.13584,32.416544 400.74349,32.573799 386.52173,31.113163 C 373.09467,29.99148 359.94619,27.480044 346.70914,25.45973 C 340.80697,24.623159 334.81384,23.997152 328.80775,24.136063 z"
         id="path3303" />
      <path
         id="path3305"
         d="M 333.79234,30.062719 C 323.65028,30.187677 313.66823,32.882212 305.28209,37.392502 C 295.57263,42.432658 287.21479,49.327092 282.10792,57.671335 C 277.7085,65.158376 276.47783,73.957609 279.62817,81.898578 C 283.00243,90.889726 290.71712,98.50431 299.85093,104.25903 C 312.07671,111.86752 326.73165,116.69603 341.77684,119.44139 C 354.84608,121.8129 368.35406,122.55294 381.72125,121.90773 C 395.19249,121.21743 408.57977,119.02313 421.15169,115.06849 C 433.17776,111.18805 444.64319,105.73048 453.49691,98.082453 C 459.54767,92.830641 464.26104,86.468692 466.20057,79.465139 C 468.91352,69.615903 465.61368,58.861158 457.67633,51.031994 C 454.20563,47.794098 449.67762,45.378483 444.99271,43.390691 C 438.14204,40.560246 430.48908,39.313717 422.87662,38.63955 C 410.27213,37.398563 397.52166,37.537878 384.92231,36.243872 C 373.02701,35.25015 361.37851,33.025219 349.65154,31.235382 C 344.42269,30.494247 339.11326,29.939655 333.79234,30.062719 z"
         style="opacity:0.33999999;fill:#cccccc;fill-opacity:1;stroke:#f8f8f8;stroke-width:1.10485113;stroke-miterlimit:4;stroke-opacity:1" />
      <path
         style="opacity:0.33999999;fill:#cccccc;fill-opacity:1;stroke:#f8f8f8;stroke-width:1.01000333;stroke-miterlimit:4;stroke-opacity:1"
         d="M 337.1154,34.013823 C 327.844,34.128054 318.71888,36.591272 311.05266,40.714368 C 302.17673,45.321844 294.53638,51.624413 289.86792,59.252331 C 285.84617,66.096634 284.72115,74.140482 287.60105,81.399745 C 290.68564,89.619033 297.73805,96.57993 306.08775,101.84063 C 317.26399,108.79595 330.66085,113.20995 344.41446,115.71963 C 356.36175,117.88755 368.71011,118.56406 380.92977,117.97424 C 393.24455,117.3432 405.48258,115.33728 416.97524,111.72213 C 427.96891,108.17481 438.45007,103.18576 446.54373,96.194288 C 452.07505,91.393327 456.38379,85.57753 458.15682,79.175209 C 460.63687,70.171497 457.62032,60.340011 450.36436,53.182955 C 447.19161,50.223022 443.05231,48.014779 438.76959,46.197633 C 432.50702,43.610172 425.51105,42.470653 418.55209,41.854361 C 407.02965,40.719909 395.37377,40.847264 383.85603,39.664344 C 372.9819,38.75593 362.33339,36.722002 351.61314,35.085817 C 346.83317,34.408306 341.97954,33.901324 337.1154,34.013823 z"
         id="path3307" />
      <path
         id="path3309"
         d="M 339.96209,37.398524 C 331.43654,37.503566 323.0455,39.768627 315.996,43.560035 C 307.83411,47.796856 300.8084,53.592406 296.5155,60.606686 C 292.81728,66.90039 291.78277,74.297139 294.43099,80.972421 C 297.26743,88.530497 303.7525,94.931416 311.4305,99.768911 C 321.70765,106.1647 334.02678,110.22361 346.67397,112.5314 C 357.66014,114.52492 369.01512,115.147 380.25175,114.60463 C 391.57585,114.02436 402.82938,112.17981 413.3975,108.85548 C 423.50677,105.59353 433.14475,101.00583 440.58731,94.576797 C 445.67365,90.162056 449.63577,84.814119 451.26617,78.926841 C 453.54671,70.647445 450.77283,61.606866 444.10058,55.025569 C 441.18307,52.303752 437.37676,50.273154 433.43857,48.602191 C 427.6798,46.222882 421.24663,45.175033 414.84749,44.608319 C 404.25199,43.56513 393.53379,43.68224 382.94261,42.594481 C 372.94326,41.759146 363.15138,39.88884 353.29354,38.38428 C 348.8981,37.761272 344.43493,37.295075 339.96209,37.398524 z"
         style="opacity:0.33999999;fill:#cccccc;fill-opacity:1;stroke:#f8f8f8;stroke-width:0.92875224;stroke-miterlimit:4;stroke-opacity:1" />
    </g>
    <path
       style="opacity:0.33999999;fill:#cccccc;fill-opacity:1;stroke:#f8f8f8;stroke-width:1.15332055;stroke-miterlimit:4;stroke-opacity:1"
       d="M 416.9375,-149.0625 C 400.24793,-148.55098 383.61403,-146.38138 367.30428,-142.82456 C 351.0993,-139.20013 335.22518,-133.70967 320.74858,-125.49861 C 311.98961,-120.54196 303.75198,-114.72902 295.52491,-108.94926 C 290.10247,-105.03566 284.69976,-101.03988 279.8125,-96.46875 C 277.56976,-93.809144 277.14317,-89.188124 280.14631,-86.902169 C 284.24509,-83.169356 290.14921,-82.866828 295.41403,-82.875 C 310.02832,-83.085563 323.89224,-88.235444 338.07177,-91.132053 C 353.12722,-94.277001 368.45493,-96.173317 383.83889,-96.476498 C 397.86033,-96.98765 411.87156,-98.17274 425.71962,-100.45597 C 442.33102,-102.59814 459.19801,-103.56658 475.88648,-101.73372 C 488.3798,-100.20383 500.13297,-95.448487 512.26328,-92.358743 C 520.87767,-90.265756 529.68408,-88.808152 538.57001,-88.790213 C 545.52769,-88.646935 552.59842,-88.325901 559.44451,-89.790664 C 562.24861,-90.463508 565.10007,-93.099042 564.3125,-96.21875 C 563.0544,-99.891065 559.32201,-101.7681 556.24506,-103.71623 C 546.09746,-109.9928 535.05805,-114.58522 524.34116,-119.76477 C 513.57765,-124.8603 503.38274,-131.07596 492.52325,-135.97906 C 483.09072,-140.28469 473.16887,-143.58871 462.91193,-145.22595 C 454.21562,-146.77015 445.43105,-147.82937 436.62901,-148.53666 C 430.07928,-149.01783 423.50398,-149.24464 416.9375,-149.0625 z"
       id="path3293" />
    <rect
       style="opacity:1;fill:#ffffff;fill-opacity:1;stroke:#f8f8f8;stroke-width:1.11288667;stroke-miterlimit:4;stroke-dasharray:none;stroke-opacity:1"
       id="rect3300"
       width="246.88712"
       height="65.887115"
       x="241.05644"
       y="66.056442"
       rx="6.2030206"
       ry="5.2840705" />
    <rect
       style="opacity:1;fill:#cccccc;fill-opacity:1;stroke:none;stroke-width:1;stroke-miterlimit:4;stroke-dasharray:none;stroke-opacity:1"
       id="rect4919"
       width="1119"
       height="1"
       x="-39.5"
       y="74.970589"
       rx="0"
       ry="0" />
    <g
       id="g3338"
       transform="matrix(0.6728905,0,0,0.6728905,37.260335,0.50114)">
      <path
         style="fill:#fd7900;fill-opacity:1;stroke:none;stroke-width:13.94999981;stroke-miterlimit:4;stroke-dasharray:none;stroke-opacity:1"
         d="M 141.37336,8.1962451 L 141.67123,12.41244 C 141.72324,12.412263 141.77511,12.408864 141.82713,12.409113 C 142.33828,12.41157 142.84743,12.435144 143.35459,12.478991 L 143.04631,8.2561416 C 142.49118,8.2164702 141.93204,8.196177 141.37336,8.1962451 z M 135.22875,9.0281635 C 134.72517,9.168503 134.22481,9.3272329 133.72897,9.5040256 C 133.70117,9.5139466 133.67356,9.5239786 133.64585,9.5339806 L 135.47815,13.503925 C 135.60866,13.456574 135.74068,13.408958 135.87298,13.364165 C 136.27131,13.229311 136.67166,13.110489 137.07491,13.004766 L 135.22875,9.0281635 z M 148.8411,9.4175163 L 147.6565,13.367482 C 148.18739,13.544622 148.7089,13.745507 149.21863,13.969796 L 150.39976,10.006512 C 149.88896,9.7913333 149.36833,9.5954145 148.8411,9.4175163 z M 127.9619,12.525581 C 127.51636,12.846333 127.08401,13.182049 126.66646,13.530544 L 129.86694,16.725143 C 130.28799,16.373181 130.72658,16.036916 131.18313,15.720168 L 127.9619,12.525581 z M 155.24201,12.82507 L 152.77934,16.072914 C 153.21694,16.410168 153.63612,16.770633 154.03666,17.151084 L 156.50283,13.88328 C 156.0977,13.513098 155.67608,13.161365 155.24201,12.82507 z M 141.79941,14.1861 L 142.03839,17.530442 C 142.6069,17.52928 143.17164,17.565413 143.73213,17.636927 L 143.48622,14.279281 C 142.92778,14.220887 142.36383,14.188339 141.79941,14.1861 z M 165.60197,14.269293 L 161.4282,16.964734 C 161.71338,17.42202 161.98111,17.891915 162.23179,18.375679 L 166.40901,15.663601 C 166.15441,15.190937 165.8864,14.726587 165.60197,14.269293 z M 137.83693,14.648655 C 137.38242,14.759116 136.93246,14.890202 136.48609,15.041321 C 136.40019,15.070399 136.31479,15.100888 136.22975,15.131173 L 137.68797,18.295811 C 137.86841,18.230881 138.04993,18.167461 138.23526,18.109462 C 138.59125,17.99805 138.95014,17.902152 139.31245,17.823284 L 137.83693,14.648655 z M 147.14041,15.081253 L 146.20521,18.19931 C 146.74256,18.378397 147.26641,18.593676 147.77082,18.841559 L 148.70256,15.703532 C 148.19504,15.469129 147.67279,15.26277 147.14041,15.081253 z M 132.48203,17.014648 C 132.01888,17.325751 131.5761,17.658623 131.15196,18.009627 L 133.71164,20.565309 C 134.13702,20.211472 134.58662,19.879106 135.06249,19.576979 L 132.48203,17.014648 z M 151.68825,17.513806 L 149.75206,20.066151 C 150.19367,20.405412 150.61052,20.778617 150.99553,21.180931 L 152.93174,18.61195 C 152.53815,18.223286 152.12485,17.854314 151.68825,17.513806 z M 159.89034,17.959712 L 156.48897,20.155999 C 156.77482,20.616243 157.03806,21.096658 157.27521,21.59356 L 160.6835,19.380645 C 160.43807,18.892552 160.17414,18.419032 159.89034,17.959712 z M 122.26757,18.422269 C 121.96691,18.870191 121.68096,19.326926 121.41205,19.793282 L 125.63432,21.779917 C 125.90445,21.310237 126.19364,20.851858 126.50367,20.405574 L 122.26757,18.422269 z M 142.16309,19.30743 L 142.33629,21.723341 C 142.91103,21.717178 143.48407,21.768742 144.04388,21.876421 L 143.86721,19.453849 C 143.30586,19.362416 142.73639,19.312614 142.16309,19.30743 z M 140.0814,19.483799 C 139.65304,19.561955 139.22905,19.665531 138.81021,19.796606 C 138.68427,19.836022 138.55951,19.876512 138.43614,19.919735 L 139.50988,22.245795 C 139.74629,22.1591 139.98801,22.081042 140.23727,22.01285 C 140.54349,21.929084 140.85292,21.863887 141.16555,21.816523 L 140.0814,19.483799 z M 145.68913,19.909746 L 145.02411,22.129325 C 145.57067,22.304586 146.09612,22.534302 146.58623,22.818161 L 147.25125,20.588598 C 146.75307,20.3213 146.22978,20.095545 145.68913,19.909746 z M 136.37525,20.881436 C 135.88782,21.17144 135.42649,21.494462 134.99669,21.846471 L 136.90518,23.753245 C 137.33171,23.393896 137.79751,23.071974 138.30106,22.794866 L 136.37525,20.881436 z M 154.95108,21.147653 L 152.30134,22.861416 C 152.59007,23.32422 152.84487,23.812204 153.05987,24.328935 L 155.72002,22.601864 C 155.49244,22.096893 155.23531,21.611556 154.95108,21.147653 z M 128.18705,21.190914 C 127.86932,21.634524 127.57756,22.094996 127.3038,22.56525 L 130.6913,24.159219 C 130.96532,23.68462 131.2646,23.224635 131.59533,22.784883 L 128.18705,21.190914 z M 148.65752,21.503721 L 147.30322,23.290694 C 147.75516,23.628059 148.16643,24.017257 148.52243,24.455394 L 149.88022,22.655101 C 149.50946,22.234907 149.09999,21.849343 148.65752,21.503721 z M 168.87515,22.555273 L 164.09179,23.690017 C 164.19366,24.219851 164.27423,24.751114 164.33079,25.283989 L 169.12107,24.135932 C 169.05748,23.608131 168.9749,23.080568 168.87515,22.555273 z M 133.29254,23.580208 C 132.94853,24.012699 132.63665,24.466691 132.35733,24.941238 L 134.917,26.145861 C 135.19178,25.664475 135.51236,25.210064 135.87298,24.784837 L 133.29254,23.580208 z M 140.50743,23.793181 C 140.42421,23.819152 140.34287,23.847605 140.26151,23.876374 L 140.28229,23.916297 C 140.35638,23.873897 140.43153,23.832865 140.50743,23.793181 z M 150.76691,23.849749 L 148.93806,25.031083 C 149.23435,25.491057 149.47768,25.992395 149.6516,26.538525 L 151.48738,25.347214 C 151.29407,24.816373 151.05285,24.317142 150.76691,23.849749 z M 162.29067,24.119297 L 158.41476,25.041061 C 158.51711,25.577277 158.58771,26.115029 158.62606,26.655002 L 162.51233,25.723243 C 162.4636,25.187151 162.38962,24.652419 162.29067,24.119297 z M 139.64499,24.129274 C 139.11618,24.376162 138.63173,24.683235 138.19713,25.041061 L 138.52619,25.37051 C 138.88662,24.947495 139.30257,24.56857 139.76275,24.245742 L 139.64499,24.129274 z M 156.62056,25.470337 L 153.62447,26.182462 C 153.73023,26.72341 153.78806,27.270448 153.79766,27.816364 L 156.80068,27.094256 C 156.77657,26.551955 156.71818,26.009358 156.62056,25.470337 z M 137.60138,25.593462 C 137.21193,25.999344 136.87415,26.452063 136.58999,26.934524 L 137.39357,27.310552 C 137.58303,26.790505 137.84052,26.302152 138.15558,25.853025 L 137.60138,25.593462 z M 118.89047,26.059339 C 118.76229,26.578643 118.65504,27.102743 118.56141,27.630012 L 123.33785,28.119189 C 123.43123,27.588687 123.54423,27.062152 123.68076,26.541855 L 118.89047,26.059339 z M 151.83027,26.608412 L 149.88716,27.07096 C 150.09403,27.571421 150.24014,28.10207 150.30969,28.654947 L 151.94456,28.262278 C 151.9653,27.711749 151.92943,27.156445 151.83027,26.608412 z M 125.54771,26.728211 C 125.40282,27.248946 125.28128,27.776246 125.18402,28.308874 L 129.03565,28.70486 C 129.13135,28.168021 129.25651,27.635401 129.41318,27.114214 L 125.54771,26.728211 z M 131.29052,27.3039 C 131.1191,27.822918 130.97994,28.352648 130.87833,28.891209 L 133.82248,29.194035 C 133.91783,28.650711 134.06142,28.11741 134.24853,27.600067 L 131.29052,27.3039 z M 136.15355,27.793075 C 135.93519,28.302826 135.77394,28.836404 135.66864,29.383715 L 137.01948,29.523475 C 137.01897,29.490338 137.01948,29.456912 137.01948,29.423652 C 137.01948,28.896844 137.08494,28.386086 137.20998,27.896231 L 136.15355,27.793075 z M 150.35474,29.233966 C 150.3567,29.297261 150.3582,29.35989 150.3582,29.423652 C 150.3582,29.915272 150.3013,30.394687 150.19195,30.854553 L 151.34882,30.971026 C 151.56192,30.461021 151.72279,29.930091 151.82337,29.383715 L 150.35474,29.233966 z M 153.66257,29.573399 C 153.571,30.115213 153.43314,30.647421 153.25037,31.164033 L 156.20839,31.460199 C 156.37656,30.942103 156.51142,30.413399 156.61019,29.876217 L 153.66257,29.573399 z M 158.45288,30.065891 C 158.35966,30.601403 158.23616,31.129712 158.08227,31.649877 L 161.94773,32.035895 C 162.09041,31.516098 162.20925,30.990032 162.30453,30.458562 L 158.45288,30.065891 z M 137.06106,30.139102 L 135.53357,30.505151 C 135.50853,31.055574 135.54272,31.610251 135.63748,32.159017 L 137.4663,31.723088 C 137.26528,31.222546 137.12523,30.6911 137.06106,30.139102 z M 164.15067,30.64824 C 164.05899,31.178564 163.94945,31.705321 163.81471,32.225575 L 168.60152,32.704762 C 168.72802,32.18631 168.83502,31.663712 168.92711,31.137409 L 164.15067,30.64824 z M 133.68048,30.951059 L 130.67397,31.673174 C 130.69559,32.215228 130.75222,32.758035 130.84717,33.297085 L 133.84325,32.584961 C 133.74109,32.04358 133.68662,31.496894 133.68048,30.951059 z M 150.02569,31.420262 C 149.84648,31.944062 149.59736,32.439937 149.29137,32.894433 L 149.9183,33.187274 C 150.30486,32.777358 150.63873,32.325477 150.91932,31.839558 L 150.02569,31.420262 z M 128.84514,32.112434 L 124.96231,33.044181 C 125.00932,33.579964 125.07999,34.115197 125.17708,34.648134 L 129.0495,33.726365 C 128.94967,33.190148 128.88115,32.652189 128.84514,32.112434 z M 137.72607,32.292118 L 135.97343,33.430197 C 136.16368,33.963084 136.40018,34.46486 136.68353,34.934316 L 138.51233,33.752983 C 138.31591,33.442459 138.14247,33.114269 137.99971,32.764656 C 137.90201,32.611537 137.81043,32.453319 137.72607,32.292118 z M 152.58882,32.628219 C 152.31753,33.110989 152.00392,33.568647 151.64669,33.995904 L 154.22023,35.200534 C 154.56235,34.766179 154.87126,34.309015 155.14849,33.832845 L 152.58882,32.628219 z M 148.93463,33.37696 C 148.58295,33.806794 148.17534,34.190378 147.72234,34.521681 L 147.88166,34.678081 C 148.40502,34.428808 148.88226,34.118108 149.31215,33.759639 L 148.93463,33.37696 z M 123.14044,33.483441 L 118.35013,34.631498 C 118.41234,35.159295 118.49423,35.686793 118.59259,36.212161 L 123.37249,35.074081 C 123.27265,34.545217 123.19517,34.015216 123.14044,33.483441 z M 138.93491,34.345313 L 137.57366,36.148921 C 137.94207,36.569397 138.35286,36.954024 138.79289,37.300313 L 140.1472,35.516672 C 139.69658,35.177022 139.28894,34.78576 138.93491,34.345313 z M 134.40091,34.448478 L 131.73733,36.175554 C 131.96291,36.681276 132.21708,37.168301 132.49935,37.633082 L 135.14909,35.922641 C 134.86257,35.458238 134.61346,34.966768 134.40091,34.448478 z M 156.81803,34.618185 C 156.54574,35.094134 156.24306,35.551265 155.91398,35.992533 L 159.32226,37.589821 C 159.63912,37.144563 159.93282,36.684019 160.20551,36.212161 L 156.81803,34.618185 z M 147.2097,34.864437 C 147.08225,34.940734 146.95127,35.012647 146.81831,35.080733 C 146.96295,35.039167 147.10509,34.990809 147.24434,34.940974 L 147.2097,34.864437 z M 150.60411,35.047456 C 150.18084,35.407529 149.71851,35.730449 149.21863,36.009163 L 151.14102,37.919265 C 151.62616,37.627986 152.08491,37.303799 152.51262,36.950903 L 150.60411,35.047456 z M 140.87806,36.002509 L 140.21649,38.232068 C 140.71151,38.498211 141.23107,38.725318 141.76822,38.910919 L 142.43671,36.694669 C 141.89176,36.51857 141.36652,36.28669 140.87806,36.002509 z M 147.99596,36.571541 C 147.75081,36.662368 147.49986,36.743613 147.24087,36.814475 C 146.94348,36.895834 146.64033,36.957138 146.33683,37.004148 L 147.42099,39.336867 C 147.84123,39.259181 148.25688,39.156016 148.6679,39.027391 C 148.80237,38.985315 148.93475,38.94069 149.06626,38.894277 L 147.99596,36.571541 z M 143.43426,36.950903 L 143.61437,39.373468 C 144.1757,39.464554 144.74527,39.511684 145.31852,39.516565 L 145.14532,37.103983 C 144.56965,37.110333 143.99499,37.058756 143.43426,36.950903 z M 161.87503,36.997489 C 161.60591,37.468687 161.31477,37.92732 161.00564,38.375162 L 165.24175,40.358471 C 165.54154,39.909543 165.82586,39.451441 166.09378,38.984129 L 161.87503,36.997489 z M 130.17867,37.187169 L 126.77038,39.400095 C 127.0145,39.888806 127.28101,40.361016 127.56359,40.821023 L 130.958,38.628066 C 130.67377,38.166806 130.4141,37.685036 130.17867,37.187169 z M 136.46181,37.623104 L 134.52217,40.188749 C 134.9153,40.578841 135.32926,40.948375 135.7656,41.290224 L 137.70184,38.741212 C 137.26066,38.400587 136.84613,38.026876 136.46181,37.623104 z M 153.79766,38.235397 C 153.37421,38.589804 152.92758,38.920686 152.45375,39.223721 L 155.03075,41.786051 C 155.49289,41.473942 155.93421,41.139655 156.35734,40.787744 L 153.79766,38.235397 z M 139.69346,39.979114 L 138.76172,43.113804 C 139.26841,43.348443 139.7888,43.55753 140.32038,43.739413 L 141.25558,40.618031 C 140.7197,40.438711 140.19646,40.226905 139.69346,39.979114 z M 125.22212,40.405056 L 121.04141,43.117132 C 121.29449,43.589692 121.56552,44.054198 121.84847,44.511441 L 126.02223,41.816001 C 125.73843,41.359097 125.47136,40.888423 125.22212,40.405056 z M 149.81788,40.518202 C 149.62844,40.586835 149.43774,40.653555 149.2429,40.714534 C 148.89495,40.823425 148.54391,40.916241 148.18994,40.994065 L 149.66545,44.168692 C 150.11166,44.059493 150.55373,43.931075 150.99205,43.782675 C 151.08727,43.75044 151.18192,43.716556 151.2761,43.682847 L 149.81788,40.518202 z M 143.746,41.187067 L 143.99539,44.544718 C 144.55386,44.603003 145.11776,44.635776 145.68221,44.637896 L 145.44321,41.293552 C 144.87349,41.294962 144.30763,41.258614 143.746,41.187067 z M 133.41722,41.652945 L 130.95109,44.917419 C 131.35521,45.288049 131.7753,45.642152 132.20842,45.978953 L 134.67455,42.731123 C 134.23775,42.393141 133.81682,42.03409 133.41722,41.652945 z M 157.64584,42.075564 C 157.22631,42.427902 156.78801,42.763226 156.33308,43.080532 L 159.55086,46.275125 C 159.99578,45.953543 160.42943,45.619443 160.8463,45.270156 L 157.64584,42.075564 z M 138.24564,44.847539 L 137.06451,48.810831 C 137.57418,49.026029 138.09362,49.22509 138.61971,49.403162 L 139.8043,45.453178 C 139.27402,45.27571 138.75476,45.072088 138.24564,44.847539 z M 152.02772,45.313411 C 151.88816,45.364284 151.74675,45.415217 151.60512,45.46316 C 151.21483,45.595309 150.8225,45.709383 150.42749,45.812569 L 152.27709,49.7925 C 152.77139,49.654089 153.2623,49.49688 153.74914,49.323299 C 153.78626,49.310073 153.82307,49.296749 153.86,49.283363 L 152.02772,45.313411 z M 144.12702,46.348334 L 144.43873,50.571182 C 144.99276,50.610682 145.55072,50.631167 146.10824,50.63108 L 145.81036,46.418214 C 145.24758,46.42035 144.68512,46.396364 144.12702,46.348334 z"
         id="path3285"
         sodipodi:nodetypes="ccsccccsccsccccccccccccccccccccccccccccsccscccccccccccccccccccccccccccccccccsccscccccccccccccccccccccccccccccccccccccccccccccccccccccccccccccccccccccccccccccccccccccccccscccsccccccccccccccccccccccccccccccccccccccccccccccccccccccccccccccccccccccccccccccccccccccccccsccsccccccccccccccccccccccccccccccccccccccsccscccccccccccccccccccccccsccsccccccc" />
      <path
         sodipodi:nodetypes="ccsccccsccsccccccccccccccccccccccccccccsccscccccccccccccccccccccccccccccccccsccscccccccccccccccccccccccccccccccccccccccccccccccccccccccccccccccccccccccccccccccccccccccccscccsccccccccccccccccccccccccccccccccccccccccccccccccccccccccccccccccccccccccccccccccccccccccccsccsccccccccccccccccccccccccccccccccccccccsccscccccccccccccccccccccccsccsccccccc"
         id="path2187"
         d="M 142.329,8.3778967 L 142.61209,12.548536 C 142.66151,12.548359 142.71081,12.544998 142.76022,12.545243 C 143.24601,12.547675 143.72989,12.570993 144.21188,12.614367 L 143.9189,8.4371461 C 143.39132,8.3979031 142.85993,8.3778295 142.329,8.3778967 z M 136.48944,9.2008261 C 136.01087,9.3396493 135.53536,9.496664 135.06411,9.6715464 C 135.03769,9.6813602 135.01147,9.691284 134.98512,9.7011773 L 136.72645,13.628226 C 136.85048,13.581387 136.97595,13.534286 137.10171,13.489977 C 137.48024,13.35658 137.86072,13.239041 138.24395,13.134462 L 136.48944,9.2008261 z M 149.42599,9.585972 L 148.30022,13.493258 C 148.80475,13.668483 149.30035,13.867197 149.78479,14.089065 L 150.90729,10.168604 C 150.42184,9.9557495 149.92705,9.7619483 149.42599,9.585972 z M 129.58336,12.660454 C 129.15995,12.97774 128.74905,13.309827 128.35224,13.654557 L 131.39383,16.814638 C 131.79398,16.46648 132.2108,16.133849 132.64468,15.820523 L 129.58336,12.660454 z M 155.50914,12.956707 L 153.16872,16.169457 C 153.58461,16.503065 153.98297,16.859637 154.36362,17.235977 L 156.70734,14.003484 C 156.32234,13.6373 155.92164,13.289368 155.50914,12.956707 z M 142.73388,14.303031 L 142.96102,17.611236 C 143.50131,17.610087 144.03801,17.645829 144.57067,17.716572 L 144.33696,14.395205 C 143.80624,14.337441 143.2703,14.305244 142.73388,14.303031 z M 165.35475,14.385324 L 161.3882,17.051642 C 161.65923,17.503987 161.91367,17.968804 162.15189,18.44734 L 166.12172,15.764567 C 165.87976,15.297012 165.62506,14.837676 165.35475,14.385324 z M 138.96812,14.760589 C 138.53619,14.869855 138.10856,14.999524 137.68435,15.149011 C 137.60273,15.177774 137.52157,15.207936 137.44075,15.237891 L 138.82658,18.368335 C 138.99806,18.304105 139.17056,18.241373 139.34668,18.183999 C 139.685,18.073792 140.02607,17.97893 140.37041,17.900914 L 138.96812,14.760589 z M 147.80975,15.18851 L 146.92097,18.272879 C 147.43164,18.450029 147.92948,18.662981 148.40884,18.908186 L 149.29432,15.804067 C 148.81202,15.572196 148.31569,15.368067 147.80975,15.18851 z M 133.87908,17.101016 C 133.43894,17.408758 133.01812,17.738033 132.61506,18.085244 L 135.04765,20.613312 C 135.45191,20.263297 135.8792,19.934522 136.33144,19.63566 L 133.87908,17.101016 z M 152.13181,17.59478 L 150.29173,20.119548 C 150.7114,20.455143 151.10756,20.824315 151.47347,21.222281 L 153.31355,18.681057 C 152.93949,18.296595 152.54673,17.931608 152.13181,17.59478 z M 159.92667,18.035869 L 156.69417,20.208423 C 156.96583,20.663695 157.21601,21.138919 157.44139,21.630452 L 160.68047,19.441449 C 160.44723,18.958629 160.1964,18.490225 159.92667,18.035869 z M 124.17173,18.493427 C 123.886,18.936509 123.61423,19.38831 123.35868,19.849626 L 127.37131,21.814794 C 127.62805,21.350191 127.90289,20.896764 128.19754,20.455301 L 124.17173,18.493427 z M 143.07952,19.369025 L 143.24411,21.758832 C 143.79032,21.752734 144.33491,21.80374 144.86693,21.910256 L 144.69905,19.513861 C 144.16555,19.423416 143.62436,19.374152 143.07952,19.369025 z M 141.10117,19.543486 C 140.69407,19.620798 140.29115,19.723257 139.8931,19.852914 C 139.77339,19.891906 139.65485,19.931956 139.5376,19.974712 L 140.55804,22.275639 C 140.78271,22.189882 141.01243,22.112667 141.2493,22.045211 C 141.54031,21.962349 141.83439,21.897857 142.13149,21.851006 L 141.10117,19.543486 z M 146.43051,19.964831 L 145.7985,22.160428 C 146.31792,22.333795 146.81729,22.561028 147.28307,22.841821 L 147.91508,20.63635 C 147.44162,20.371939 146.94432,20.148623 146.43051,19.964831 z M 137.57901,20.926022 C 137.1158,21.212895 136.67737,21.532424 136.2689,21.880631 L 138.08265,23.766801 C 138.488,23.411335 138.9307,23.092892 139.40922,22.818778 L 137.57901,20.926022 z M 155.23263,21.189363 L 152.71445,22.884608 C 152.98883,23.342412 153.23098,23.825121 153.43534,24.33627 L 155.9634,22.627861 C 155.74711,22.128347 155.50276,21.648253 155.23263,21.189363 z M 129.79732,21.232156 C 129.49538,21.670972 129.21811,22.126471 128.95793,22.591643 L 132.17726,24.168391 C 132.43768,23.698917 132.72211,23.243901 133.0364,22.808903 L 129.79732,21.232156 z M 149.25153,21.541584 L 147.96446,23.309249 C 148.39397,23.642967 148.78482,24.02796 149.12315,24.461363 L 150.41352,22.680523 C 150.06115,22.264872 149.67203,21.883472 149.25153,21.541584 z M 168.46545,22.581774 L 163.91954,23.704258 C 164.01636,24.228367 164.09292,24.753888 164.14668,25.281004 L 168.69915,24.145353 C 168.63873,23.623254 168.56025,23.101392 168.46545,22.581774 z M 134.64935,23.595634 C 134.32243,24.023451 134.02602,24.472539 133.76059,24.941958 L 136.19319,26.133565 C 136.45429,25.657381 136.75898,25.207878 137.10171,24.787247 L 134.64935,23.595634 z M 141.50606,23.806307 C 141.42697,23.831996 141.34968,23.860142 141.27235,23.8886 L 141.2921,23.928093 C 141.3625,23.886149 141.43393,23.845562 141.50606,23.806307 z M 151.25621,23.862262 L 149.51816,25.030832 C 149.79971,25.485836 150.03096,25.981756 150.19626,26.521986 L 151.94089,25.343548 C 151.75717,24.818442 151.52795,24.324605 151.25621,23.862262 z M 162.20784,24.128897 L 158.52437,25.040701 C 158.62163,25.571123 158.68872,26.103066 158.72517,26.637203 L 162.41851,25.715513 C 162.37218,25.185213 162.30189,24.656258 162.20784,24.128897 z M 140.68642,24.138766 C 140.18389,24.382987 139.72346,24.686744 139.31047,25.040701 L 139.62318,25.366591 C 139.96571,24.948148 140.36101,24.573317 140.79833,24.253977 L 140.68642,24.138766 z M 156.81925,25.46534 L 153.9719,26.169771 C 154.07239,26.704873 154.12735,27.246001 154.13648,27.786017 L 156.99042,27.071712 C 156.96749,26.535271 156.912,25.998536 156.81925,25.46534 z M 138.74428,25.587133 C 138.37416,25.988631 138.05315,26.43646 137.7831,26.913707 L 138.54679,27.285672 C 138.72686,26.771242 138.97155,26.288166 139.27097,25.843893 L 138.74428,25.587133 z M 120.96229,26.047978 C 120.84049,26.561669 120.73855,27.080108 120.64957,27.601681 L 125.18888,28.08557 C 125.27764,27.560801 125.38502,27.039954 125.51477,26.52528 L 120.96229,26.047978 z M 152.26677,26.591116 L 150.42011,27.048668 C 150.61673,27.543721 150.75556,28.068637 150.82169,28.61554 L 152.37539,28.227113 C 152.39509,27.682532 152.36099,27.133228 152.26677,26.591116 z M 127.28902,26.709621 C 127.15133,27.22473 127.03582,27.746334 126.94338,28.273206 L 130.60381,28.664915 C 130.69475,28.133875 130.81371,27.60701 130.9626,27.091455 L 127.28902,26.709621 z M 132.74673,27.279091 C 132.58383,27.792501 132.45157,28.316506 132.35501,28.84925 L 135.15299,29.148803 C 135.2436,28.611348 135.38008,28.08381 135.55788,27.572057 L 132.74673,27.279091 z M 137.36834,27.76298 C 137.16081,28.267223 137.00756,28.795036 136.90749,29.336433 L 138.19127,29.474682 C 138.19077,29.441904 138.19127,29.408839 138.19127,29.375939 C 138.19127,28.854823 138.25348,28.349584 138.37232,27.865022 L 137.36834,27.76298 z M 150.86449,29.188303 C 150.86633,29.250913 150.86778,29.312864 150.86778,29.375939 C 150.86778,29.862247 150.81371,30.336481 150.70978,30.791381 L 151.80922,30.906592 C 152.01173,30.402098 152.16461,29.876907 152.26019,29.336433 L 150.86449,29.188303 z M 154.0081,29.524068 C 153.92107,30.060027 153.79006,30.586483 153.61638,31.097515 L 156.42753,31.390481 C 156.58735,30.877982 156.71551,30.354991 156.80938,29.823615 L 154.0081,29.524068 z M 158.56059,30.011239 C 158.47199,30.540964 158.35462,31.063564 158.20838,31.57811 L 161.88195,31.959957 C 162.01755,31.445777 162.13046,30.925395 162.221,30.399666 L 158.56059,30.011239 z M 138.23078,30.083657 L 136.77912,30.445753 C 136.75533,30.99023 136.78784,31.53891 136.87787,32.081749 L 138.61591,31.650529 C 138.42488,31.155396 138.29178,30.629691 138.23078,30.083657 z M 163.97551,30.587295 C 163.88838,31.111888 163.78427,31.632954 163.65621,32.147586 L 168.20539,32.621594 C 168.32561,32.108746 168.4273,31.591792 168.51482,31.071178 L 163.97551,30.587295 z M 135.01803,30.886842 L 132.16079,31.601154 C 132.18133,32.137351 132.23517,32.674293 132.32538,33.207519 L 135.17273,32.503089 C 135.07564,31.967558 135.02388,31.426779 135.01803,30.886842 z M 150.55177,31.350975 C 150.38145,31.869115 150.14471,32.359634 149.85392,32.809217 L 150.44973,33.098895 C 150.81709,32.693407 151.13437,32.246408 151.40105,31.76574 L 150.55177,31.350975 z M 130.42275,32.035668 L 126.7327,32.957347 C 126.77736,33.487341 126.84453,34.016791 126.93681,34.543969 L 130.61697,33.632159 C 130.52208,33.101737 130.45697,32.569592 130.42275,32.035668 z M 138.86279,32.213411 L 137.19716,33.339193 C 137.37797,33.866321 137.60272,34.362676 137.87198,34.827059 L 139.61002,33.65849 C 139.42333,33.351323 139.2585,33.026679 139.12284,32.680843 C 139.02999,32.529377 138.94296,32.37287 138.86279,32.213411 z M 152.98766,32.545882 C 152.72982,33.023434 152.43179,33.476146 152.09231,33.898787 L 154.53808,35.090401 C 154.8632,34.660738 155.15679,34.208515 155.42026,33.737489 L 152.98766,32.545882 z M 149.51488,33.286531 C 149.18066,33.71172 148.79329,34.091159 148.36276,34.418882 L 148.51418,34.573593 C 149.01156,34.327014 149.4651,34.01967 149.87367,33.665077 L 149.51488,33.286531 z M 125.00125,33.391861 L 120.44877,34.527512 C 120.5079,35.049605 120.58571,35.571405 120.6792,36.091097 L 125.2218,34.965314 C 125.12691,34.442164 125.05329,33.91789 125.00125,33.391861 z M 140.0116,34.244421 L 138.71795,36.028541 C 139.06806,36.444473 139.45846,36.824944 139.87664,37.167492 L 141.16372,35.403122 C 140.73547,35.067143 140.34807,34.680109 140.0116,34.244421 z M 135.70271,34.34647 L 133.17136,36.054885 C 133.38573,36.555144 133.6273,37.036906 133.89555,37.496664 L 136.41373,35.804706 C 136.14146,35.345321 135.9047,34.859159 135.70271,34.34647 z M 157.00689,34.514344 C 156.74815,34.98515 156.46048,35.437342 156.14774,35.873843 L 159.38681,37.453871 C 159.68791,37.013423 159.96705,36.557857 160.22621,36.091097 L 157.00689,34.514344 z M 147.87558,34.757935 C 147.75447,34.833408 147.62999,34.904543 147.50362,34.971895 C 147.64108,34.930777 147.77619,34.882942 147.90851,34.833647 L 147.87558,34.757935 z M 151.10149,34.938977 C 150.69922,35.295158 150.25985,35.61459 149.78479,35.890293 L 151.61172,37.779755 C 152.0728,37.491623 152.50876,37.170939 152.91524,36.821858 L 151.10149,34.938977 z M 141.85827,35.883711 L 141.22955,38.089177 C 141.70001,38.352445 142.19378,38.577099 142.70426,38.760695 L 143.33955,36.568392 C 142.82168,36.394194 142.32249,36.164822 141.85827,35.883711 z M 148.62281,36.446593 C 148.38983,36.536439 148.15135,36.616807 147.90521,36.686903 C 147.62257,36.767381 147.33451,36.828024 147.04606,36.874526 L 148.07638,39.182041 C 148.47577,39.105193 148.87079,39.003144 149.2614,38.875907 C 149.38919,38.834286 149.51499,38.790143 149.63996,38.744233 L 148.62281,36.446593 z M 144.28759,36.821858 L 144.45876,39.218247 C 144.99222,39.308349 145.5335,39.354968 146.0783,39.359795 L 145.9137,36.973282 C 145.36661,36.979563 144.82046,36.928545 144.28759,36.821858 z M 161.81284,36.867939 C 161.55708,37.334046 161.2804,37.787723 160.9866,38.230725 L 165.01241,40.192606 C 165.29732,39.748528 165.56752,39.295376 165.82216,38.833113 L 161.81284,36.867939 z M 131.69008,37.055569 L 128.451,39.244584 C 128.68299,39.728015 128.93628,40.195123 129.20481,40.650158 L 132.43072,38.480898 C 132.1606,38.024623 131.91383,37.548055 131.69008,37.055569 z M 137.6613,37.486795 L 135.81793,40.02472 C 136.19154,40.410593 136.58496,40.776136 136.99966,41.114291 L 138.83975,38.592822 C 138.42048,38.255877 138.0265,37.886204 137.6613,37.486795 z M 154.13648,38.092471 C 153.73405,38.443048 153.30959,38.770356 152.85929,39.070117 L 155.30834,41.604761 C 155.74754,41.296023 156.16698,40.965348 156.56908,40.617239 L 154.13648,38.092471 z M 140.7325,39.817347 L 139.84702,42.918166 C 140.32856,43.150269 140.82312,43.357099 141.3283,43.537016 L 142.21707,40.44936 C 141.7078,40.271978 141.21052,40.06246 140.7325,39.817347 z M 126.9796,40.238687 L 123.00645,42.92146 C 123.24695,43.388911 123.50453,43.8484 123.77344,44.300702 L 127.73999,41.634385 C 127.47028,41.182419 127.21648,40.716832 126.9796,40.238687 z M 150.35427,40.350611 C 150.17424,40.418501 149.993,40.484502 149.80784,40.544821 C 149.47717,40.652535 149.14357,40.744348 148.80715,40.821331 L 150.20943,43.961656 C 150.63346,43.853637 151.05361,43.726607 151.47017,43.57981 C 151.56065,43.547924 151.65061,43.514407 151.74009,43.481061 L 150.35427,40.350611 z M 144.58384,41.012248 L 144.82085,44.333621 C 145.35159,44.391275 145.88748,44.423693 146.42393,44.425789 L 146.19679,41.117584 C 145.65539,41.118977 145.11759,41.083022 144.58384,41.012248 z M 134.76786,41.473093 L 132.42414,44.702292 C 132.80821,45.068917 133.20745,45.419195 133.61905,45.752357 L 135.96276,42.53962 C 135.54767,42.205291 135.14762,41.850118 134.76786,41.473093 z M 157.79361,41.891145 C 157.39492,42.239676 156.97837,42.571377 156.54604,42.885254 L 159.60407,46.045329 C 160.02688,45.727223 160.43901,45.396732 160.83519,45.05122 L 157.79361,41.891145 z M 139.35655,44.633168 L 138.23407,48.553635 C 138.71844,48.766508 139.2121,48.963419 139.71206,49.139567 L 140.83783,45.232262 C 140.33389,45.056714 139.84039,44.855292 139.35655,44.633168 z M 152.45441,45.094007 C 152.32177,45.144329 152.1874,45.194712 152.0528,45.242137 C 151.68187,45.372857 151.30902,45.485698 150.93362,45.587771 L 152.69141,49.5247 C 153.16117,49.387784 153.6277,49.232272 154.09039,49.060567 C 154.12563,49.047484 154.16062,49.034304 154.19573,49.021062 L 152.45441,45.094007 z M 144.94593,46.117747 L 145.24219,50.294968 C 145.76871,50.33404 146.29896,50.354303 146.8288,50.354217 L 146.54571,46.186871 C 146.01088,46.188985 145.47634,46.165258 144.94593,46.117747 z"
         style="fill:url(#linearGradient3335);fill-opacity:1;stroke:none;stroke-width:13.94999980999999956;stroke-miterlimit:4;stroke-dasharray:none;stroke-opacity:1" />
    </g>
    <image
       y="101.36218"
       x="16"
       id="image2392"
       height="722"
       width="934"
       sodipodi:absref="/crypt/rob/cxgn/core/sgn-tools/art/sgn2/pastedpic_08072009_125402.png"
       xlink:href="pastedpic_08072009_125402.png"
       sodipodi:insensitive="true" />
    <rect
       style="fill:url(#linearGradient3273);fill-opacity:1;stroke:#757575;stroke-width:0.88197643;stroke-miterlimit:4;stroke-dasharray:none;stroke-opacity:1"
       id="use4745"
       width="83.12191"
       height="27.911547"
       x="394.35678"
       y="40.544224"
       rx="0"
       ry="0" />
    <rect
       style="fill:url(#linearGradient3263);fill-opacity:1;stroke:#757575;stroke-width:1.03713274;stroke-miterlimit:4;stroke-dasharray:none;stroke-opacity:1"
       id="use4923"
       width="117.96286"
       height="27.905472"
       x="464.51849"
       y="40.575455"
       rx="0"
       ry="0" />
    <rect
       ry="0"
       rx="0"
       y="40.475384"
       x="560.47784"
       height="28.049231"
       width="290.04422"
       id="rect5091"
       style="fill:url(#linearGradient3260);fill-opacity:1;stroke:#757575;stroke-width:0.95578682;stroke-miterlimit:4;stroke-dasharray:none;stroke-opacity:1" />
    <g
       id="g4754"
       transform="translate(-44,-27)">
      <rect
         rx="6.0261974"
         y="72.802979"
         x="794.4408"
         height="18.118412"
         width="90.118408"
         id="rect3256"
         style="fill:url(#linearGradient5115);fill-opacity:1;stroke:#000000;stroke-width:0.88159204;stroke-miterlimit:4;stroke-dasharray:none;stroke-opacity:1"
         ry="6.0261979" />
      <path
         transform="matrix(0.3218955,0,0,0.5869564,717.5392,34.369564)"
         style="opacity:0.36000001;fill:#ffffff;fill-opacity:1;stroke:none;stroke-width:2;stroke-miterlimit:4;stroke-opacity:1"
         d="M 372.21875,58.3125 C 354.77106,58.585682 337.33919,59.438668 319.89211,59.73092 C 302.50039,60.286935 285.09274,60.559624 267.72391,61.659094 C 255.10705,62.590229 242.48791,63.925732 230.09364,66.514614 C 227.73105,67.129722 225.36033,67.772533 223.15625,68.84375 C 221.17537,70.891052 224.68892,72.830968 226.57968,72.732031 C 230.83302,73.570067 235.12348,74.187297 239.44946,74.497484 C 258.81888,76.063106 278.23626,76.979337 297.5979,78.655275 C 313.85969,80.037953 330.16793,81.36414 346.50305,80.891781 C 373.76692,80.297964 401.02346,79.38644 428.28743,78.803563 C 448.82464,78.508941 469.36851,78.253551 489.88847,77.317073 C 499.98197,76.646063 510.15311,76.167611 520.06887,74.042181 C 522.4278,73.380833 525.03133,73.133801 527.125,71.8125 C 528.55998,69.591914 525.50923,67.696361 523.5,67.84375 C 518.32671,66.223347 512.9163,65.625719 507.5782,64.787243 C 487.68127,62.18307 467.65586,60.665348 447.61125,59.80787 C 430.77282,59.057272 413.92489,58.472869 397.06892,58.349041 C 388.78536,58.251977 380.50259,58.239209 372.21875,58.3125 z"
         id="path2520" />
      <text
         id="text3246"
         y="85.399704"
         x="805.01923"
         style="font-size:13.1173954px;font-style:normal;font-weight:normal;fill:#000000;fill-opacity:1;stroke:none;stroke-width:1px;stroke-linecap:butt;stroke-linejoin:miter;stroke-opacity:1;font-family:Bitstream Vera Sans"
         xml:space="preserve"><tspan
           y="85.399704"
           x="805.01923"
           id="tspan3248"
           sodipodi:role="line">sol search</tspan></text>
    </g>
    <rect
       ry="6.6042109"
       rx="5.4245696"
       y="44.263252"
       x="575.401"
       height="20.197859"
       width="164.19788"
       id="rect3391"
       style="fill:url(#linearGradient4748);fill-opacity:1;stroke:#000000;stroke-width:0.80214244;stroke-miterlimit:4;stroke-dasharray:none;stroke-opacity:1"
       inkscape:export-filename="/crypt/rob/cxgn/core/sgn-tools/art/sgn2/front6.png"
       inkscape:export-xdpi="90"
       inkscape:export-ydpi="90" />
    <text
       xml:space="preserve"
       style="font-size:17.55874443px;font-style:normal;font-weight:normal;fill:#000000;fill-opacity:1;stroke:none;stroke-width:1px;stroke-linecap:butt;stroke-linejoin:miter;stroke-opacity:1;font-family:Bitstream Vera Sans"
       x="639.49548"
       y="385.901"
       id="text4838"><tspan
         sodipodi:role="line"
         id="tspan4840"
         x="639.49548"
         y="385.901"
         style="font-weight:bold">Jobs</tspan></text>
    <text
       id="text3399"
       y="58.978516"
       x="482.37109"
       style="font-size:14.13369656px;font-style:normal;font-weight:normal;fill:#333333;fill-opacity:1;stroke:none;stroke-width:1px;stroke-linecap:butt;stroke-linejoin:miter;stroke-opacity:1;font-family:Bitstream Vera Sans"
       xml:space="preserve"><tspan
         y="58.978516"
         x="482.37109"
         id="tspan3401"
         sodipodi:role="line"
         style="font-size:14px;font-weight:bold;fill:#333333">browse</tspan></text>
    <rect
       style="fill:url(#linearGradient3283);fill-opacity:1;stroke:#757575;stroke-width:0.96915329;stroke-miterlimit:4;stroke-dasharray:none;stroke-opacity:1"
       id="use4743"
       width="100.031"
       height="28.005018"
       x="294.4696"
       y="40.49749"
       rx="0"
       ry="0" />
    <rect
       style="fill:url(#linearGradient3280);fill-opacity:1;stroke:#757575;stroke-width:1;stroke-miterlimit:4;stroke-dasharray:none;stroke-opacity:1"
       id="rect3939"
       width="71.000008"
       height="28.005018"
       x="224.5"
       y="40.49749"
       rx="0"
       ry="0" />
    <text
       xml:space="preserve"
       style="font-size:16.53158951px;font-style:normal;font-weight:normal;fill:#ffffff;fill-opacity:1;stroke:none;stroke-width:1px;stroke-linecap:butt;stroke-linejoin:miter;stroke-opacity:1;font-family:Bitstream Vera Sans"
       x="235.52771"
       y="58.916298"
       id="text3278"><tspan
         sodipodi:role="line"
         id="tspan3280"
         x="235.52771"
         y="58.916298">maps</tspan></text>
    <text
       xml:space="preserve"
       style="font-size:16.53158951px;font-style:normal;font-weight:normal;fill:#000000;fill-opacity:1;stroke:none;stroke-width:1px;stroke-linecap:butt;stroke-linejoin:miter;stroke-opacity:1;font-family:Bitstream Vera Sans"
       x="307.93906"
       y="58.916298"
       id="text3282"><tspan
         sodipodi:role="line"
         id="tspan3284"
         x="307.93906"
         y="58.916298">genomes</tspan></text>
    <text
       xml:space="preserve"
       style="font-size:16.53158951px;font-style:normal;font-weight:normal;fill:#000000;fill-opacity:1;stroke:none;stroke-width:1px;stroke-linecap:butt;stroke-linejoin:miter;stroke-opacity:1;font-family:Bitstream Vera Sans"
       x="409.62161"
       y="58.916298"
       id="text3286"><tspan
         sodipodi:role="line"
         id="tspan3288"
         x="409.62161"
         y="58.916298">tools</tspan></text>
    <rect
       style="fill:url(#linearGradient3268);fill-opacity:1;stroke:#757575;stroke-width:1;stroke-miterlimit:4;stroke-dasharray:none;stroke-opacity:1"
       id="use5071"
       width="111"
       height="28.005018"
       x="113.5"
       y="40.49749"
       rx="0"
       ry="0" />
    <text
       id="text3306"
       y="59.362076"
       x="124.40889"
       style="font-size:16.53158951px;font-style:normal;font-weight:normal;fill:#000000;fill-opacity:1;stroke:none;stroke-width:1px;stroke-linecap:butt;stroke-linejoin:miter;stroke-opacity:1;font-family:Bitstream Vera Sans"
       xml:space="preserve"><tspan
         y="59.362076"
         x="124.40889"
         id="tspan3308"
         sodipodi:role="line">organisms</tspan></text>
    <text
       xml:space="preserve"
       style="font-size:14px;font-style:normal;font-variant:normal;font-weight:normal;font-stretch:normal;fill:#000000;fill-opacity:1;stroke:none;stroke-width:1px;stroke-linecap:butt;stroke-linejoin:miter;stroke-opacity:1;font-family:Times New Roman;-inkscape-font-specification:'Times New Roman,'"
       x="581"
       y="60"
       id="text3766"><tspan
         sodipodi:role="line"
         id="tspan3768"
         x="581"
         y="60">TG124</tspan></text>
    <rect
       y="42.75"
       x="225.75"
       height="3.75"
       width="69.25"
       id="rect3264"
       style="opacity:0.5;fill:#f2f2f2;fill-opacity:1;stroke:none;stroke-width:2;stroke-miterlimit:4;stroke-dasharray:none;stroke-opacity:1" />
    <g
       id="g2563"
       transform="translate(-88,-10)">
      <rect
         y="108"
         x="63"
         height="540"
         width="145"
         id="rect2559"
         style="opacity:1;fill:#ffffff;fill-opacity:1;stroke:none;stroke-width:2;stroke-miterlimit:4;stroke-dasharray:none;stroke-opacity:1" />
      <image
         xlink:href="/crypt/rob/cxgn/curr/art/sgn2/snap17.png"
         sodipodi:absref="/crypt/rob/cxgn/curr/art/sgn2/snap17.png"
         width="753"
         height="690"
         id="image2555"
         x="195"
         y="94" />
    </g>
    <g
       id="g2532"
       transform="matrix(0.8237917,0,0,0.8237917,4.2387699,-3.4687557)"
       style="fill:#4d4d4d">
      <text
         transform="scale(0.9580355,1.0438027)"
         xml:space="preserve"
         style="font-size:31.51761435999999961px;font-style:normal;font-weight:bold;fill:#4d4d4d;fill-opacity:1;stroke:none;stroke-width:1px;stroke-linecap:butt;stroke-linejoin:miter;stroke-opacity:1;font-family:Bitstream Vera Sans;-inkscape-font-specification:Bitstream Vera Sans Bold"
         x="195.55914"
         y="38.3312"
         id="text3325"><tspan
           style="font-size:31.51761435999999961px;font-weight:bold;fill:#4d4d4d;-inkscape-font-specification:Bitstream Vera Sans Bold"
           sodipodi:role="line"
           id="tspan3327"
           x="195.55914"
           y="38.3312">sgn</tspan></text>
    </g>
    <rect
       style="opacity:1;fill:url(#linearGradient3426);fill-opacity:1;stroke:#757575;stroke-width:0.99529469;stroke-miterlimit:4;stroke-dasharray:none;stroke-opacity:1"
       id="rect2648"
       width="723.0047"
       height="24.004705"
       x="120.49765"
       y="117.49765"
       rx="0"
       ry="0" />
    <text
       xml:space="preserve"
       style="font-size:10px;font-style:normal;font-weight:normal;fill:#000000;fill-opacity:1;stroke:none;stroke-width:1px;stroke-linecap:butt;stroke-linejoin:miter;stroke-opacity:1;font-family:Bitstream Vera Sans"
       x="123"
       y="134"
       id="text2502"><tspan
         sodipodi:role="line"
         id="tspan2504"
         x="123"
         y="134"
         style="font-size:14px;font-weight:bold">Chicken</tspan></text>
    <rect
       ry="0"
       rx="0"
       y="-15.561192"
       x="757.43884"
       height="41.122391"
       width="93.122398"
       id="rect2515"
       style="fill:url(#linearGradient3290);fill-opacity:1;stroke:#d7d7d7;stroke-width:0.87761348;stroke-miterlimit:4;stroke-dasharray:none;stroke-opacity:1" />
    <text
       id="text3812"
       y="17.340616"
       x="798.09174"
       style="font-size:10.759758px;font-style:normal;font-weight:normal;fill:#000000;fill-opacity:1;stroke:none;stroke-width:1px;stroke-linecap:butt;stroke-linejoin:miter;stroke-opacity:1;font-family:Bitstream Vera Sans"
       xml:space="preserve"
       transform="scale(0.9837497,1.0165187)"><tspan
         y="17.340616"
         x="798.09174"
         id="tspan3814"
         sodipodi:role="line"
         style="font-size:11.68748951px;font-style:normal;font-variant:normal;font-weight:normal;font-stretch:normal;text-align:start;line-height:125%;writing-mode:lr-tb;text-anchor:start;font-family:Arial Black;-inkscape-font-specification:'Arial Black,'">log in</tspan></text>
    <g
       transform="translate(0,-112)"
       id="g2585">
      <rect
         style="opacity:1;fill:#f2f2f2;fill-opacity:1;stroke:#d7d7d7;stroke-width:1.1102587;stroke-miterlimit:4;stroke-dasharray:none;stroke-opacity:1"
         id="rect2587"
         width="202.88974"
         height="65.889748"
         x="647.55511"
         y="-25.44487"
         rx="0"
         ry="0" />
      <rect
         ry="0"
         rx="0"
         y="-25.561192"
         x="647.43878"
         height="41.122391"
         width="203.12239"
         id="rect2589"
         style="opacity:1;fill:#ececec;fill-opacity:1;stroke:#d7d7d7;stroke-width:0.87761348;stroke-miterlimit:4;stroke-dasharray:none;stroke-opacity:1" />
      <text
         id="text2591"
         y="9.4706192"
         x="672.04486"
         style="font-size:10.759758px;font-style:normal;font-weight:normal;fill:#000000;fill-opacity:1;stroke:none;stroke-width:1px;stroke-linecap:butt;stroke-linejoin:miter;stroke-opacity:1;font-family:Bitstream Vera Sans"
         xml:space="preserve"
         transform="scale(0.9837497,1.0165187)"><tspan
           y="9.4706192"
           x="672.04486"
           id="tspan2593"
           sodipodi:role="line"
           style="font-size:11.68748951px;font-style:normal;font-variant:normal;font-weight:normal;font-stretch:normal;text-align:start;line-height:125%;writing-mode:lr-tb;text-anchor:start;font-family:Arial Black;-inkscape-font-specification:'Arial Black,'">Robert Buels:</tspan></text>
      <text
         xml:space="preserve"
         style="font-size:11.75346851px;font-style:normal;font-weight:normal;fill:#000000;fill-opacity:1;stroke:none;stroke-width:1px;stroke-linecap:butt;stroke-linejoin:miter;stroke-opacity:1;font-family:Bitstream Vera Sans"
         x="670.96179"
         y="30.675552"
         id="text2595"
         transform="scale(0.9837497,1.0165187)"><tspan
           style="font-weight:bold;fill:#000000;fill-opacity:1;stroke:none;stroke-opacity:1"
           sodipodi:role="line"
           id="tspan2597"
           x="670.96179"
           y="30.675552">MySGN    |   Data   |   Hotlist</tspan></text>
      <text
         transform="scale(0.9837497,1.0165187)"
         id="text2599"
         y="9.0330524"
         x="812.2572"
         style="font-size:11.75346851px;font-style:normal;font-weight:normal;fill:#000000;fill-opacity:1;stroke:none;stroke-width:1px;stroke-linecap:butt;stroke-linejoin:miter;stroke-opacity:1;font-family:Bitstream Vera Sans"
         xml:space="preserve"><tspan
           y="9.0330524"
           x="812.2572"
           id="tspan2601"
           sodipodi:role="line"
           style="font-weight:bold;fill:#000000;fill-opacity:1;stroke:none;stroke-opacity:1">logout</tspan></text>
    </g>
    <g
       id="g2651"
       transform="translate(0,-22)">
      <rect
         ry="0"
         rx="0"
         y="-195.43658"
         x="647.56335"
         height="67.873199"
         width="202.8732"
         id="rect2605"
         style="fill:#cccccc;fill-opacity:1;stroke:#8e8e8e;stroke-width:1.1267997;stroke-miterlimit:4;stroke-dasharray:none;stroke-opacity:1" />
      <g
         transform="translate(-128,84)"
         id="g2635">
        <g
           id="g4897"
           transform="matrix(1.0836124,0,0,1,22.407185,-267.5)">
          <rect
             ry="5.2931237"
             rx="4.8753333"
             y="35"
             x="761"
             height="16"
             width="54.605263"
             id="rect4889"
             style="opacity:1;fill:#666666;fill-opacity:1;stroke:#000000;stroke-width:1;stroke-miterlimit:4;stroke-dasharray:none;stroke-opacity:1" />
          <text
             transform="scale(0.9874685,1.0126906)"
             id="text3405"
             y="45.283722"
             x="782.25195"
             style="font-size:9.87468433px;font-style:normal;font-weight:normal;fill:#ffffff;fill-opacity:1;stroke:none;stroke-width:1px;stroke-linecap:butt;stroke-linejoin:miter;stroke-opacity:1;font-family:Bitstream Vera Sans"
             xml:space="preserve"><tspan
               style="font-weight:bold"
               y="45.283722"
               x="782.25195"
               id="tspan3407"
               sodipodi:role="line">log in</tspan></text>
        </g>
        <path
           style="opacity:0.26000001;fill:#f1efef;fill-opacity:1;stroke:none;stroke-width:2;stroke-miterlimit:4;stroke-opacity:1"
           d="M 844.9375,-236.34375 C 843.54519,-236.2301 841.99228,-235.67022 841.38272,-234.30745 C 840.64815,-232.95287 841.01323,-231.1513 842.15545,-230.13032 C 843.30445,-229.03604 844.82119,-228.34144 846.40625,-228.21875 C 850.69889,-227.63751 854.97506,-226.94773 859.25,-226.25 C 861.79146,-225.88272 864.35359,-225.69182 866.92101,-225.6642 C 872.51672,-225.49944 878.11589,-225.39197 883.71378,-225.41639 C 886.51997,-225.54165 889.32089,-225.74929 892.11167,-226.071 C 895.25331,-226.38452 898.3917,-226.72906 901.53125,-227.0625 C 902.94501,-227.35108 904.15714,-228.22967 905.04867,-229.3416 C 905.98626,-230.37471 906.58261,-231.87277 906.125,-233.25 C 905.83385,-234.31354 904.98869,-235.19342 903.94179,-235.54204 C 902.5445,-236.1085 901.04421,-235.68053 899.59557,-235.72631 C 896.74435,-235.62338 893.90524,-235.30375 891.05186,-235.23128 C 885.15435,-234.85001 879.24167,-235.09833 873.34389,-235.33814 C 864.03135,-235.68376 854.7188,-236.02938 845.40625,-236.375 C 845.25,-236.36458 845.09375,-236.35417 844.9375,-236.34375 z"
           id="rect3252" />
      </g>
      <rect
         ry="0"
         rx="0"
         y="-189.5"
         x="703.30621"
         height="16"
         width="136.21748"
         id="rect4885"
         style="fill:#ffffff;fill-opacity:1;stroke:#2d2d2d;stroke-width:1.02792203;stroke-miterlimit:4;stroke-dasharray:none;stroke-opacity:1" />
      <rect
         style="fill:#ffffff;fill-opacity:1;stroke:#2d2d2d;stroke-width:1.02792203;stroke-miterlimit:4;stroke-dasharray:none;stroke-opacity:1"
         id="rect3403"
         width="113.21748"
         height="16"
         x="725.94904"
         y="-169.5"
         rx="0"
         ry="0" />
      <text
         transform="scale(1.0444927,0.9574025)"
         xml:space="preserve"
         style="font-size:10.44492722px;font-style:normal;font-weight:normal;fill:#000000;fill-opacity:1;stroke:none;stroke-width:1px;stroke-linecap:butt;stroke-linejoin:miter;stroke-opacity:1;font-family:Bitstream Vera Sans"
         x="628.89008"
         y="-165.02985"
         id="text3429"><tspan
           sodipodi:role="line"
           id="tspan3431"
           x="628.89008"
           y="-165.02985"
           style="font-weight:bold">password:</tspan></text>
      <text
         transform="scale(1.0444927,0.9574025)"
         id="text4881"
         y="-185.91969"
         x="629.39148"
         style="font-size:10.44492722px;font-style:normal;font-weight:normal;fill:#000000;fill-opacity:1;stroke:none;stroke-width:1px;stroke-linecap:butt;stroke-linejoin:miter;stroke-opacity:1;font-family:Bitstream Vera Sans"
         xml:space="preserve"><tspan
           style="font-weight:bold"
           y="-185.91969"
           x="629.39148"
           id="tspan4883"
           sodipodi:role="line">email:</tspan></text>
      <text
         xml:space="preserve"
         style="font-size:10px;font-style:normal;font-weight:normal;fill:#000000;fill-opacity:1;stroke:none;stroke-width:1px;stroke-linecap:butt;stroke-linejoin:miter;stroke-opacity:1;font-family:Bitstream Vera Sans"
         x="795"
         y="-133"
         id="text5840"><tspan
           sodipodi:role="line"
           id="tspan5842"
           x="795"
           y="-133">(X) Cancel</tspan></text>
      <path
         style="fill:none;fill-rule:evenodd;stroke:#000000;stroke-width:1px;stroke-linecap:butt;stroke-linejoin:miter;stroke-opacity:1"
         d="M 795.56249,-131.5 L 848.18744,-131.5"
         id="path2530" />
    </g>
    <g
       id="g2526"
       transform="matrix(1.3727515,0,0,1.3727515,-326.62517,-94.999765)" />
    <g
       style="fill:#4d4d4d"
       transform="matrix(0.3445106,0,0,0.3445106,160.00313,16.988999)"
       id="g3298">
      <text
         id="text3300"
         y="38.3312"
         x="195.55914"
         style="font-size:31.51761436px;font-style:normal;font-weight:bold;fill:#4d4d4d;fill-opacity:1;stroke:none;stroke-width:1px;stroke-linecap:butt;stroke-linejoin:miter;stroke-opacity:1;font-family:Bitstream Vera Sans;-inkscape-font-specification:Bitstream Vera Sans Bold"
         xml:space="preserve"
         transform="scale(0.9580355,1.0438027)"><tspan
           y="38.3312"
           x="195.55914"
           id="tspan3302"
           sodipodi:role="line"
           style="font-size:31.51761436px;font-weight:bold;fill:#4d4d4d;-inkscape-font-specification:Bitstream Vera Sans Bold">solgenomics.net</tspan></text>
    </g>
  </g>
</svg>
