<?xml version="1.0" encoding="UTF-8" standalone="no"?>
<!-- Created with Inkscape (http://www.inkscape.org/) -->
<svg
   xmlns:dc="http://purl.org/dc/elements/1.1/"
   xmlns:cc="http://creativecommons.org/ns#"
   xmlns:rdf="http://www.w3.org/1999/02/22-rdf-syntax-ns#"
   xmlns:svg="http://www.w3.org/2000/svg"
   xmlns="http://www.w3.org/2000/svg"
   xmlns:sodipodi="http://sodipodi.sourceforge.net/DTD/sodipodi-0.dtd"
   xmlns:inkscape="http://www.inkscape.org/namespaces/inkscape"
   width="765"
   height="990"
   id="svg2451"
   sodipodi:version="0.32"
   inkscape:version="0.46"
   sodipodi:docname="sgn_banner_reverse.svg"
   inkscape:output_extension="org.inkscape.output.svg.inkscape"
   inkscape:export-filename="/crypt/rob/cxgn/core/sgn-tools/art/sgn2/sgn_banner.png"
   inkscape:export-xdpi="90"
   inkscape:export-ydpi="90"
   version="1.0">
  <defs
     id="defs2453">
    <linearGradient
       id="linearGradient3161">
      <stop
         style="stop-color:#f7ff12;stop-opacity:1;"
         offset="0"
         id="stop3163" />
      <stop
         style="stop-color:#f20000;stop-opacity:1;"
         offset="1"
         id="stop3165" />
    </linearGradient>
    <inkscape:perspective
       sodipodi:type="inkscape:persp3d"
       inkscape:vp_x="0 : 526.18109 : 1"
       inkscape:vp_y="0 : 1000 : 0"
       inkscape:vp_z="744.09448 : 526.18109 : 1"
       inkscape:persp3d-origin="372.04724 : 350.78739 : 1"
       id="perspective2459" />
    <inkscape:perspective
       id="perspective2542"
       inkscape:persp3d-origin="372.04724 : 350.78739 : 1"
       inkscape:vp_z="744.09448 : 526.18109 : 1"
       inkscape:vp_y="0 : 1000 : 0"
       inkscape:vp_x="0 : 526.18109 : 1"
       sodipodi:type="inkscape:persp3d" />
  </defs>
  <sodipodi:namedview
     id="base"
     pagecolor="#37049c"
     bordercolor="#666666"
     borderopacity="1.0"
     gridtolerance="10000"
     guidetolerance="10"
     objecttolerance="10"
     inkscape:pageopacity="1"
     inkscape:pageshadow="2"
     inkscape:zoom="1"
     inkscape:cx="375.92478"
     inkscape:cy="702.55058"
     inkscape:document-units="px"
     inkscape:current-layer="layer1"
     showgrid="false"
     inkscape:window-width="694"
     inkscape:window-height="785"
     inkscape:window-x="133"
     inkscape:window-y="-40" />
  <metadata
     id="metadata2456">
    <rdf:RDF>
      <cc:Work
         rdf:about="">
        <dc:format>image/svg+xml</dc:format>
        <dc:type
           rdf:resource="http://purl.org/dc/dcmitype/StillImage" />
      </cc:Work>
    </rdf:RDF>
  </metadata>
  <g
     inkscape:label="Layer 1"
     inkscape:groupmode="layer"
     id="layer1">
    <path
       sodipodi:type="inkscape:offset"
       inkscape:radius="0.4107644"
       inkscape:original="M 250.09375 278.90625 L 250.5625 285.71875 C 250.64339 285.71847 250.73165 285.71835 250.8125 285.71875 C 251.6075 285.72272 252.39873 285.74152 253.1875 285.8125 L 252.6875 279 C 251.82412 278.93577 250.96261 278.90614 250.09375 278.90625 z M 240.53125 280.25 C 239.74809 280.47718 238.98993 280.71381 238.21875 281 C 238.1755 281.01606 238.13688 281.04631 238.09375 281.0625 L 240.9375 287.5 C 241.14048 287.42336 241.32544 287.32251 241.53125 287.25 C 242.1507 287.0317 242.77912 286.85865 243.40625 286.6875 L 240.53125 280.25 z M 261.71875 280.875 L 259.875 287.25 C 260.70064 287.53675 261.51973 287.88692 262.3125 288.25 L 264.125 281.8125 C 263.33059 281.46417 262.5387 281.16298 261.71875 280.875 z M 229.25 285.90625 C 228.55709 286.42547 227.8681 286.96711 227.21875 287.53125 L 232.21875 292.6875 C 232.87361 292.11776 233.53995 291.57525 234.25 291.0625 L 229.25 285.90625 z M 271.65625 286.375 L 267.84375 291.65625 C 268.52438 292.20219 269.15834 292.75913 269.78125 293.375 L 273.625 288.09375 C 272.99499 287.49451 272.33129 286.91939 271.65625 286.375 z M 250.75 288.59375 L 251.125 294 C 252.00918 293.99813 252.90956 294.07173 253.78125 294.1875 L 253.375 288.75 C 252.50648 288.65547 251.62784 288.59737 250.75 288.59375 z M 287.78125 288.71875 L 281.28125 293.09375 C 281.72479 293.83401 282.14142 294.59189 282.53125 295.375 L 289.03125 290.96875 C 288.63529 290.20362 288.22362 289.45901 287.78125 288.71875 z M 244.59375 289.34375 C 243.8869 289.52258 243.19421 289.72412 242.5 289.96875 C 242.36642 290.01582 242.22601 290.07598 242.09375 290.125 L 244.375 295.25 C 244.65563 295.1449 244.93053 295.03139 245.21875 294.9375 C 245.77243 294.75714 246.34276 294.59642 246.90625 294.46875 L 244.59375 289.34375 z M 259.0625 290.03125 L 257.625 295.09375 C 258.4607 295.38364 259.27802 295.72373 260.0625 296.125 L 261.5 291.0625 C 260.71072 290.68307 259.89048 290.32509 259.0625 290.03125 z M 236.28125 293.15625 C 235.56095 293.65986 234.87835 294.21305 234.21875 294.78125 L 238.1875 298.90625 C 238.84905 298.33346 239.54118 297.80158 240.28125 297.3125 L 236.28125 293.15625 z M 266.15625 293.96875 L 263.125 298.09375 C 263.8118 298.64296 264.46371 299.25499 265.0625 299.90625 L 268.0625 295.75 C 267.45037 295.12084 266.83525 294.51996 266.15625 293.96875 z M 278.90625 294.6875 L 273.59375 298.25 C 274.03832 298.99504 274.47491 299.78936 274.84375 300.59375 L 280.125 297 C 279.74332 296.20988 279.34767 295.43104 278.90625 294.6875 z M 220.375 295.4375 C 219.9074 296.1626 219.48069 296.90132 219.0625 297.65625 L 225.625 300.875 C 226.04514 300.11469 226.48657 299.37868 226.96875 298.65625 L 220.375 295.4375 z M 251.34375 296.875 L 251.59375 300.78125 C 252.48761 300.77127 253.37937 300.85695 254.25 301.03125 L 253.96875 297.125 C 253.09569 296.97699 252.23539 296.88339 251.34375 296.875 z M 248.09375 297.15625 C 247.42753 297.28276 246.7764 297.47532 246.125 297.6875 C 245.9291 297.75132 245.72314 297.80503 245.53125 297.875 L 247.1875 301.625 C 247.55519 301.48467 247.95614 301.36039 248.34375 301.25 C 248.81999 301.11439 249.29504 301.01417 249.78125 300.9375 L 248.09375 297.15625 z M 256.8125 297.84375 L 255.78125 301.4375 C 256.6313 301.72122 257.45651 302.10299 258.21875 302.5625 L 259.25 298.96875 C 258.47522 298.53606 257.65334 298.14452 256.8125 297.84375 z M 242.3125 299.4375 C 241.55445 299.90695 240.85597 300.43017 240.1875 301 L 243.15625 304.0625 C 243.81958 303.48079 244.52941 302.97983 245.3125 302.53125 L 242.3125 299.4375 z M 271.21875 299.875 L 267.09375 302.625 C 267.54277 303.37417 267.94683 304.16352 268.28125 305 L 272.40625 302.21875 C 272.05231 301.4013 271.66082 300.62596 271.21875 299.875 z M 229.59375 299.9375 C 229.09962 300.6556 228.64455 301.39501 228.21875 302.15625 L 233.5 304.75 C 233.92619 303.98172 234.39191 303.21186 234.90625 302.5 L 229.59375 299.9375 z M 261.4375 300.4375 L 259.3125 303.34375 C 260.01538 303.88988 260.66506 304.5095 261.21875 305.21875 L 263.34375 302.3125 C 262.76713 301.63229 262.12564 300.99699 261.4375 300.4375 z M 292.875 302.125 L 285.4375 303.96875 C 285.59594 304.82645 285.72452 305.69989 285.8125 306.5625 L 293.25 304.6875 C 293.15112 303.83309 293.03014 302.97534 292.875 302.125 z M 237.53125 303.8125 C 236.99624 304.51262 236.52814 305.23181 236.09375 306 L 240.0625 307.9375 C 240.48978 307.15824 240.97037 306.43835 241.53125 305.75 L 237.53125 303.8125 z M 248.75 304.15625 C 248.62057 304.19828 248.50155 304.23468 248.375 304.28125 L 248.40625 304.34375 C 248.52146 304.27512 248.63197 304.22049 248.75 304.15625 z M 264.71875 304.21875 L 261.875 306.15625 C 262.33574 306.90086 262.69825 307.70968 262.96875 308.59375 L 265.84375 306.65625 C 265.54308 305.79694 265.16347 304.97536 264.71875 304.21875 z M 282.625 304.65625 L 276.59375 306.15625 C 276.75291 307.02427 276.87784 307.90714 276.9375 308.78125 L 282.96875 307.28125 C 282.89295 306.41342 282.77891 305.51926 282.625 304.65625 z M 247.40625 304.6875 C 246.58388 305.08717 245.8321 305.577 245.15625 306.15625 L 245.6875 306.6875 C 246.24802 306.00273 246.87808 305.39759 247.59375 304.875 L 247.40625 304.6875 z M 273.8125 306.84375 L 269.15625 308 C 269.32072 308.87567 269.42256 309.77253 269.4375 310.65625 L 274.09375 309.5 C 274.05623 308.62214 273.96428 307.71631 273.8125 306.84375 z M 244.25 307.0625 C 243.6443 307.71952 243.09818 308.43775 242.65625 309.21875 L 243.90625 309.84375 C 244.20093 309.00189 244.60377 308.19579 245.09375 307.46875 L 244.25 307.0625 z M 215.125 307.8125 C 214.92568 308.65313 214.77061 309.49021 214.625 310.34375 L 222.0625 311.15625 C 222.20777 310.29749 222.38144 309.436 222.59375 308.59375 L 215.125 307.8125 z M 266.375 308.6875 L 263.34375 309.4375 C 263.66553 310.24763 263.89177 311.10501 264 312 L 266.53125 311.375 C 266.56347 310.48382 266.5292 309.57465 266.375 308.6875 z M 225.5 308.90625 C 225.27469 309.7492 225.08877 310.57529 224.9375 311.4375 L 230.90625 312.09375 C 231.05509 311.22472 231.25633 310.37494 231.5 309.53125 L 225.5 308.90625 z M 234.40625 309.8125 C 234.13967 310.65267 233.93927 311.53443 233.78125 312.40625 L 238.34375 312.875 C 238.49202 311.99547 238.74028 311.14997 239.03125 310.3125 L 234.40625 309.8125 z M 241.96875 310.625 C 241.62914 311.45018 241.38251 312.30152 241.21875 313.1875 L 243.34375 313.40625 C 243.34292 313.3526 243.34375 313.30384 243.34375 313.25 C 243.34375 312.3972 243.43052 311.57422 243.625 310.78125 L 241.96875 310.625 z M 264.0625 312.9375 C 264.06553 313.03996 264.0625 313.14678 264.0625 313.25 C 264.06249 314.04582 263.98258 314.81807 263.8125 315.5625 L 265.625 315.75 C 265.95643 314.92442 266.18733 314.07197 266.34375 313.1875 L 264.0625 312.9375 z M 269.21875 313.5 C 269.07631 314.37708 268.84671 315.22621 268.5625 316.0625 L 273.1875 316.5625 C 273.44905 315.72382 273.65888 314.86958 273.8125 314 L 269.21875 313.5 z M 276.65625 314.28125 C 276.51128 315.14813 276.33307 316.03296 276.09375 316.875 L 282.09375 317.5 C 282.31562 316.65856 282.50807 315.79784 282.65625 314.9375 L 276.65625 314.28125 z M 243.40625 314.40625 L 241.03125 315 C 240.99232 315.89104 241.04017 316.79916 241.1875 317.6875 L 244.03125 316.96875 C 243.71862 316.15848 243.50607 315.29983 243.40625 314.40625 z M 285.53125 315.25 C 285.38867 316.10849 285.20956 316.93907 285 317.78125 L 292.4375 318.5625 C 292.63422 317.72325 292.82553 316.88321 292.96875 316.03125 L 285.53125 315.25 z M 238.125 315.71875 L 233.46875 316.90625 C 233.50235 317.78373 233.57112 318.65864 233.71875 319.53125 L 238.375 318.375 C 238.2161 317.49861 238.13456 316.60234 238.125 315.71875 z M 263.5625 316.5 C 263.28378 317.34792 262.88212 318.13927 262.40625 318.875 L 263.375 319.34375 C 263.97618 318.68018 264.50111 317.94285 264.9375 317.15625 L 263.5625 316.5 z M 230.625 317.625 L 224.59375 319.125 C 224.66683 319.99231 224.75524 320.85604 224.90625 321.71875 L 230.9375 320.21875 C 230.78222 319.35072 230.68099 318.49875 230.625 317.625 z M 244.4375 317.90625 L 241.6875 319.75 C 241.98339 320.61263 242.37187 321.42755 242.8125 322.1875 L 245.65625 320.25 C 245.35075 319.74732 245.06576 319.2222 244.84375 318.65625 C 244.6918 318.40837 244.5687 318.16719 244.4375 317.90625 z M 267.53125 318.4375 C 267.10929 319.21901 266.64929 319.96461 266.09375 320.65625 L 270.09375 322.59375 C 270.62581 321.89063 271.10007 321.17707 271.53125 320.40625 L 267.53125 318.4375 z M 261.875 319.65625 C 261.32807 320.35207 260.67329 320.96369 259.96875 321.5 L 260.21875 321.75 C 261.03268 321.34649 261.76887 320.86153 262.4375 320.28125 L 261.875 319.65625 z M 221.75 319.84375 L 214.28125 321.6875 C 214.37801 322.54189 214.53452 323.39954 214.6875 324.25 L 222.09375 322.40625 C 221.93847 321.55012 221.83517 320.70458 221.75 319.84375 z M 246.3125 321.21875 L 244.1875 324.15625 C 244.76044 324.83691 245.40939 325.43943 246.09375 326 L 248.1875 323.125 C 247.48669 322.57517 246.86311 321.93174 246.3125 321.21875 z M 239.25 321.40625 L 235.125 324.1875 C 235.47579 325.00615 235.87351 325.77887 236.3125 326.53125 L 240.40625 323.78125 C 239.96068 323.02949 239.58055 322.24525 239.25 321.40625 z M 274.125 321.65625 C 273.7016 322.42671 273.23054 323.16068 272.71875 323.875 L 278.03125 326.46875 C 278.52399 325.74796 278.95089 325.01384 279.375 324.25 L 274.125 321.65625 z M 259.1875 322.0625 C 258.98932 322.18602 258.76931 322.29603 258.5625 322.40625 C 258.78746 322.33895 259.00223 322.26817 259.21875 322.1875 L 259.1875 322.0625 z M 264.46875 322.375 C 263.81046 322.95789 263.08992 323.45507 262.3125 323.90625 L 265.28125 327 C 266.03581 326.52848 266.77232 326.00876 267.4375 325.4375 L 264.46875 322.375 z M 249.34375 323.90625 L 248.3125 327.53125 C 249.08238 327.96209 249.88336 328.32455 250.71875 328.625 L 251.75 325.03125 C 250.90252 324.74618 250.10341 324.36628 249.34375 323.90625 z M 260.40625 324.8125 C 260.02498 324.95952 259.62155 325.10404 259.21875 325.21875 C 258.75621 325.35045 258.28453 325.45515 257.8125 325.53125 L 259.5 329.3125 C 260.1536 329.18674 260.79827 329.02072 261.4375 328.8125 C 261.64659 328.74439 261.85798 328.66888 262.0625 328.59375 L 260.40625 324.8125 z M 253.3125 325.4375 L 253.59375 329.375 C 254.46674 329.52247 255.35846 329.58585 256.25 329.59375 L 255.96875 325.6875 C 255.07346 325.69777 254.18453 325.6121 253.3125 325.4375 z M 282 325.53125 C 281.58146 326.29402 281.10582 327.02504 280.625 327.75 L 287.21875 330.96875 C 287.68498 330.24204 288.14576 329.47523 288.5625 328.71875 L 282 325.53125 z M 232.6875 325.8125 L 227.375 329.40625 C 227.75464 330.19736 228.18556 330.9741 228.625 331.71875 L 233.90625 328.15625 C 233.46421 327.40957 233.05366 326.61844 232.6875 325.8125 z M 242.46875 326.53125 L 239.4375 330.6875 C 240.04891 331.31896 240.69636 331.91537 241.375 332.46875 L 244.40625 328.34375 C 243.72013 327.79235 243.06639 327.18487 242.46875 326.53125 z M 269.4375 327.53125 C 268.77894 328.10496 268.08066 328.63445 267.34375 329.125 L 271.34375 333.28125 C 272.06248 332.776 272.74824 332.22592 273.40625 331.65625 L 269.4375 327.53125 z M 247.5 330.34375 L 246.03125 335.40625 C 246.81927 335.78607 247.64203 336.14308 248.46875 336.4375 L 249.90625 331.375 C 249.07283 331.08471 248.28227 330.74487 247.5 330.34375 z M 224.96875 331.03125 L 218.46875 335.4375 C 218.86232 336.20247 219.30994 336.94732 219.75 337.6875 L 226.21875 333.3125 C 225.77738 332.57288 225.35641 331.81372 224.96875 331.03125 z M 263.21875 331.21875 C 262.92414 331.32986 262.64678 331.43255 262.34375 331.53125 C 261.80263 331.70752 261.23805 331.87402 260.6875 332 L 263 337.125 C 263.69392 336.94824 264.3808 336.74023 265.0625 336.5 C 265.21057 336.44783 265.35356 336.39832 265.5 336.34375 L 263.21875 331.21875 z M 253.78125 332.3125 L 254.1875 337.75 C 255.05604 337.84434 255.93461 337.87157 256.8125 337.875 L 256.4375 332.46875 C 255.55148 332.47104 254.6547 332.42832 253.78125 332.3125 z M 237.71875 333.0625 L 233.90625 338.34375 C 234.53477 338.9437 235.17019 339.51729 235.84375 340.0625 L 239.6875 334.8125 C 239.00821 334.26539 238.34021 333.67949 237.71875 333.0625 z M 275.40625 333.75 C 274.75382 334.32035 274.08248 334.86135 273.375 335.375 L 278.375 340.53125 C 279.06691 340.01068 279.72668 339.47167 280.375 338.90625 L 275.40625 333.75 z M 245.25 338.21875 L 243.40625 344.625 C 244.1989 344.97338 244.99434 345.30549 245.8125 345.59375 L 247.65625 339.21875 C 246.83155 338.93148 246.0418 338.58225 245.25 338.21875 z M 266.65625 338.96875 C 266.43919 339.05109 266.22027 339.14114 266 339.21875 C 265.39297 339.43266 264.80183 339.61421 264.1875 339.78125 L 267.0625 346.21875 C 267.83124 345.9947 268.58658 345.74974 269.34375 345.46875 C 269.4014 345.44734 269.47378 345.42792 269.53125 345.40625 L 266.65625 338.96875 z M 254.375 340.65625 L 254.875 347.5 C 255.73664 347.56395 256.60168 347.59389 257.46875 347.59375 L 257 340.78125 C 256.12476 340.78471 255.243 340.734 254.375 340.65625 z "
       style="opacity:0.88999999;fill:#ffffff;fill-opacity:1;stroke:none;stroke-width:13.94999981;stroke-miterlimit:4;stroke-dasharray:none;stroke-opacity:1"
       id="path2865"
       d="M 249.96875,278.5 C 249.78287,278.56036 249.66524,278.74333 249.6875,278.9375 L 250.15625,285.75 C 250.17471,285.96105 250.35065,286.12346 250.5625,286.125 C 250.64276,286.12472 250.73354,286.12461 250.8125,286.125 C 251.60239,286.12894 252.38545,286.14939 253.15625,286.21875 C 253.27455,286.22672 253.39052,286.1832 253.47436,286.09936 C 253.5582,286.01552 253.60172,285.89955 253.59375,285.78125 L 253.09375,278.96875 C 253.07698,278.769 252.9185,278.61052 252.71875,278.59375 C 251.84453,278.52871 250.97198,278.49989 250.09375,278.5 C 250.05233,278.49362 250.01017,278.49362 249.96875,278.5 L 249.96875,278.5 z M 240.40625,279.84375 C 239.61792,280.07243 238.84677,280.33395 238.0625,280.625 C 237.93626,280.67188 237.89856,280.70212 237.9375,280.6875 C 237.73229,280.77567 237.63512,281.01164 237.71875,281.21875 L 240.5625,287.65625 C 240.65067,287.86146 240.88664,287.95863 241.09375,287.875 C 241.33099,287.78542 241.49028,287.68347 241.65625,287.625 C 242.25775,287.41303 242.87348,287.26473 243.5,287.09375 C 243.61795,287.06546 243.71737,286.98648 243.77161,286.87799 C 243.82586,286.7695 243.82939,286.64259 243.78125,286.53125 L 240.90625,280.09375 C 240.83072,279.89238 240.61266,279.78335 240.40625,279.84375 L 240.40625,279.84375 z M 261.625,280.46875 C 261.47712,280.49806 261.35717,280.60601 261.3125,280.75 L 259.46875,287.125 C 259.41133,287.34037 259.53613,287.56223 259.75,287.625 C 260.55727,287.90537 261.36996,288.26489 262.15625,288.625 C 262.26333,288.67393 262.38625,288.67457 262.49384,288.62676 C 262.60142,288.57894 262.68332,288.48727 262.71875,288.375 L 264.53125,281.9375 C 264.59165,281.73109 264.48262,281.51303 264.28125,281.4375 C 263.47465,281.08383 262.67017,280.79025 261.84375,280.5 C 261.77506,280.4698 261.6994,280.45899 261.625,280.46875 z M 229.125,285.5 C 229.08007,285.51354 229.03779,285.53468 229,285.5625 C 228.30195,286.08557 227.59718,286.64564 226.9375,287.21875 C 226.85647,287.29625 226.81064,287.4035 226.81064,287.51562 C 226.81064,287.62775 226.85647,287.735 226.9375,287.8125 L 231.9375,292.96875 C 232.08721,293.12634 232.33376,293.14004 232.5,293 C 233.14818,292.43607 233.80255,291.9099 234.5,291.40625 C 234.59553,291.33288 234.65404,291.22127 234.66005,291.10097 C 234.66607,290.98067 234.61898,290.86379 234.53125,290.78125 L 229.53125,285.625 C 229.42959,285.51107 229.27312,285.46293 229.125,285.5 z M 271.5625,285.96875 C 271.4627,285.98811 271.37363,286.04378 271.3125,286.125 L 267.5,291.40625 C 267.37483,291.58844 267.41626,291.83701 267.59375,291.96875 C 268.26513,292.50727 268.88813,293.0513 269.5,293.65625 C 269.58254,293.74398 269.69942,293.79107 269.81972,293.78505 C 269.94002,293.77904 270.05163,293.72053 270.125,293.625 L 273.96875,288.34375 C 274.101,288.16951 274.07352,287.92221 273.90625,287.78125 C 273.26695,287.17318 272.58892,286.61304 271.90625,286.0625 C 271.81189,285.9806 271.68538,285.9461 271.5625,285.96875 z M 250.625,288.1875 C 250.43912,288.24786 250.32149,288.43083 250.34375,288.625 L 250.71875,294.03125 C 250.73721,294.2423 250.91315,294.40471 251.125,294.40625 C 251.9858,294.40443 252.86113,294.47985 253.71875,294.59375 C 253.84214,294.61169 253.96701,294.57262 254.05816,294.48754 C 254.14932,294.40246 254.1969,294.28059 254.1875,294.15625 L 253.78125,288.71875 C 253.76448,288.519 253.606,288.36052 253.40625,288.34375 C 252.5261,288.24795 251.64483,288.19119 250.75,288.1875 C 250.70858,288.18112 250.66642,288.18112 250.625,288.1875 L 250.625,288.1875 z M 287.6875,288.3125 C 287.64257,288.32604 287.60029,288.34718 287.5625,288.375 L 281.0625,292.75 C 280.87427,292.87194 280.81863,293.12231 280.9375,293.3125 C 281.3758,294.04401 281.77134,294.78926 282.15625,295.5625 C 282.20933,295.66712 282.3046,295.74405 282.41805,295.7739 C 282.5315,295.80376 282.6523,295.78369 282.75,295.71875 L 289.25,291.3125 C 289.43154,291.2024 289.49928,290.9721 289.40625,290.78125 C 289.00687,290.00952 288.57203,289.24805 288.125,288.5 C 288.03392,288.35077 287.85837,288.27554 287.6875,288.3125 L 287.6875,288.3125 z M 244.5,288.9375 C 243.78387,289.11868 243.08329,289.34416 242.375,289.59375 C 242.22305,289.64729 242.0559,289.70612 241.9375,289.75 C 241.73229,289.83817 241.63512,290.07414 241.71875,290.28125 L 244,295.40625 C 244.08817,295.61146 244.32414,295.70863 244.53125,295.625 C 244.82034,295.51673 245.0751,295.40002 245.34375,295.3125 C 245.88677,295.13561 246.45071,294.99945 247,294.875 C 247.11795,294.84671 247.21737,294.76773 247.27161,294.65924 C 247.32586,294.55075 247.32939,294.42384 247.28125,294.3125 L 244.96875,289.1875 C 244.89465,289.00076 244.69636,288.895 244.5,288.9375 L 244.5,288.9375 z M 258.96875,289.625 C 258.82087,289.65431 258.70092,289.76226 258.65625,289.90625 L 257.21875,294.96875 C 257.16133,295.18412 257.28613,295.40598 257.5,295.46875 C 258.32007,295.75322 259.10973,296.10856 259.875,296.5 C 259.98501,296.56049 260.11665,296.56736 260.23235,296.51864 C 260.34806,296.46992 260.43514,296.37096 260.46875,296.25 L 261.90625,291.1875 C 261.97057,290.98948 261.87659,290.77465 261.6875,290.6875 C 260.88899,290.30363 260.034,289.95666 259.1875,289.65625 C 259.11881,289.62605 259.04315,289.61524 258.96875,289.625 z M 236.15625,292.75 C 236.11132,292.76354 236.06904,292.78468 236.03125,292.8125 C 235.29506,293.32722 234.60339,293.89513 233.9375,294.46875 C 233.85647,294.54625 233.81064,294.6535 233.81064,294.76562 C 233.81064,294.87775 233.85647,294.985 233.9375,295.0625 L 237.90625,299.1875 C 238.05596,299.34509 238.30251,299.35879 238.46875,299.21875 C 239.11825,298.6564 239.77593,298.13475 240.5,297.65625 C 240.59988,297.58779 240.66446,297.47876 240.67651,297.35828 C 240.68856,297.23779 240.64684,297.11813 240.5625,297.03125 L 236.5625,292.875 C 236.46084,292.76107 236.30437,292.71293 236.15625,292.75 L 236.15625,292.75 z M 266.0625,293.5625 C 265.9627,293.58186 265.87363,293.63753 265.8125,293.71875 L 262.78125,297.84375 C 262.65608,298.02594 262.69751,298.27451 262.875,298.40625 C 263.54457,298.94168 264.16496,299.5512 264.75,300.1875 C 264.83242,300.28702 264.95686,300.34196 265.08593,300.33581 C 265.215,300.32967 265.33366,300.26315 265.40625,300.15625 L 268.40625,296 C 268.51936,295.83175 268.49281,295.60615 268.34375,295.46875 C 267.72686,294.8347 267.10441,294.22302 266.40625,293.65625 C 266.31189,293.57435 266.18538,293.53985 266.0625,293.5625 z M 278.8125,294.28125 C 278.76757,294.29479 278.72529,294.31593 278.6875,294.34375 L 273.375,297.90625 C 273.18677,298.02819 273.13113,298.27856 273.25,298.46875 C 273.68938,299.20509 274.10839,299.96411 274.46875,300.75 C 274.51587,300.85994 274.60857,300.94388 274.72263,300.9799 C 274.83669,301.01592 274.96079,301.00044 275.0625,300.9375 L 280.34375,297.34375 C 280.52529,297.23365 280.59303,297.00335 280.5,296.8125 C 280.11595,296.01747 279.7007,295.22791 279.25,294.46875 C 279.15892,294.31952 278.98337,294.24429 278.8125,294.28125 L 278.8125,294.28125 z M 220.28125,295.03125 C 220.17647,295.05838 220.08663,295.12576 220.03125,295.21875 C 219.55647,295.95499 219.13929,296.70957 218.71875,297.46875 C 218.66433,297.56394 218.65023,297.67694 218.67957,297.78258 C 218.70892,297.88823 218.77928,297.97776 218.875,298.03125 L 225.4375,301.25 C 225.53654,301.30212 225.65256,301.31158 225.75873,301.27619 C 225.8649,301.2408 225.95204,301.16362 226,301.0625 C 226.41551,300.31057 226.83757,299.58656 227.3125,298.875 C 227.37744,298.7773 227.39751,298.6565 227.36765,298.54305 C 227.3378,298.4296 227.26087,298.33433 227.15625,298.28125 L 220.5625,295.0625 C 220.47541,295.0191 220.37574,295.00803 220.28125,295.03125 z M 251.21875,296.46875 C 251.03287,296.52911 250.91524,296.71208 250.9375,296.90625 L 251.1875,300.8125 C 251.20596,301.02355 251.3819,301.18596 251.59375,301.1875 C 252.45832,301.17785 253.31315,301.26871 254.15625,301.4375 C 254.2844,301.46656 254.41873,301.43256 254.51762,301.34603 C 254.61651,301.2595 254.66804,301.13088 254.65625,301 L 254.375,297.09375 C 254.3609,296.90431 254.21876,296.74923 254.03125,296.71875 C 253.14248,296.56808 252.26165,296.47739 251.34375,296.46875 C 251.30233,296.46237 251.26017,296.46237 251.21875,296.46875 L 251.21875,296.46875 z M 248.03125,296.75 C 247.33817,296.88161 246.65846,297.09802 246,297.3125 C 245.82019,297.37108 245.5922,297.4208 245.375,297.5 C 245.16979,297.58817 245.07262,297.82414 245.15625,298.03125 L 246.8125,301.78125 C 246.90067,301.98646 247.13664,302.08363 247.34375,302 C 247.69398,301.86633 248.08748,301.76483 248.46875,301.65625 C 248.92706,301.52575 249.37128,301.41825 249.84375,301.34375 C 249.9674,301.3233 250.07495,301.24752 250.13582,301.13796 C 250.19669,301.0284 250.20421,300.89704 250.15625,300.78125 L 248.46875,297 C 248.39715,296.82651 248.21707,296.72361 248.03125,296.75 z M 256.71875,297.4375 C 256.57087,297.46681 256.45092,297.57476 256.40625,297.71875 L 255.375,301.3125 C 255.31758,301.52787 255.44238,301.74973 255.65625,301.8125 C 256.47706,302.08646 257.26387,302.46248 258,302.90625 C 258.10787,302.98014 258.24446,302.99827 258.36787,302.95508 C 258.49128,302.91189 258.58676,302.81253 258.625,302.6875 L 259.65625,299.09375 C 259.70321,298.90544 259.61199,298.70996 259.4375,298.625 C 258.64685,298.18345 257.80486,297.77901 256.9375,297.46875 C 256.86881,297.43855 256.79315,297.42774 256.71875,297.4375 z M 242.1875,299.03125 C 242.15353,299.04768 242.12198,299.06871 242.09375,299.09375 C 241.31557,299.57566 240.58775,300.10656 239.90625,300.6875 C 239.82522,300.765 239.77939,300.87225 239.77939,300.98437 C 239.77939,301.0965 239.82522,301.20375 239.90625,301.28125 L 242.875,304.34375 C 243.02471,304.50134 243.27126,304.51504 243.4375,304.375 C 244.07951,303.81199 244.76971,303.31123 245.53125,302.875 C 245.63113,302.80654 245.69571,302.69751 245.70776,302.57703 C 245.71981,302.45654 245.67809,302.33688 245.59375,302.25 L 242.59375,299.15625 C 242.49209,299.04232 242.33562,298.99418 242.1875,299.03125 z M 271.125,299.46875 C 271.08007,299.48229 271.03779,299.50343 271,299.53125 L 266.875,302.28125 C 266.68677,302.40319 266.63113,302.65356 266.75,302.84375 C 267.18947,303.57699 267.5811,304.34296 267.90625,305.15625 C 267.95337,305.26619 268.04607,305.35013 268.16013,305.38615 C 268.27419,305.42217 268.39829,305.40669 268.5,305.34375 L 272.625,302.5625 C 272.79037,302.45496 272.85597,302.24506 272.78125,302.0625 C 272.42106,301.23061 272.01349,300.42236 271.5625,299.65625 C 271.47142,299.50702 271.29587,299.43179 271.125,299.46875 z M 229.5,299.53125 C 229.39522,299.55838 229.30538,299.62576 229.25,299.71875 C 228.74799,300.4483 228.30635,301.19759 227.875,301.96875 C 227.82058,302.06394 227.80648,302.17694 227.83582,302.28258 C 227.86517,302.38823 227.93553,302.47776 228.03125,302.53125 L 233.3125,305.125 C 233.5113,305.21289 233.74416,305.1307 233.84375,304.9375 C 234.26483,304.17843 234.74906,303.44331 235.25,302.75 C 235.32661,302.65053 235.35352,302.5215 235.32307,302.3997 C 235.29262,302.2779 235.20815,302.17671 235.09375,302.125 L 229.78125,299.5625 C 229.69416,299.5191 229.59449,299.50803 229.5,299.53125 L 229.5,299.53125 z M 261.34375,300.03125 C 261.24395,300.05061 261.15488,300.10628 261.09375,300.1875 L 258.96875,303.09375 C 258.84358,303.27594 258.88501,303.52451 259.0625,303.65625 C 259.74335,304.18526 260.37706,304.79088 260.90625,305.46875 C 260.98387,305.57179 261.10538,305.63238 261.23438,305.63238 C 261.36337,305.63238 261.48488,305.57179 261.5625,305.46875 L 263.6875,302.5625 C 263.79167,302.40803 263.77884,302.2028 263.65625,302.0625 C 263.06404,301.3639 262.39678,300.70168 261.6875,300.125 C 261.59314,300.0431 261.46663,300.0086 261.34375,300.03125 z M 292.78125,301.71875 L 285.34375,303.5625 C 285.13198,303.61147 284.995,303.81693 285.03125,304.03125 C 285.18785,304.879 285.31953,305.74349 285.40625,306.59375 C 285.41381,306.71376 285.47357,306.82442 285.56976,306.89657 C 285.66595,306.96872 285.78893,306.9951 285.90625,306.96875 L 293.34375,305.09375 C 293.55552,305.04478 293.6925,304.83932 293.65625,304.625 C 293.55658,303.76377 293.43838,302.92373 293.28125,302.0625 C 293.26541,301.94815 293.20219,301.84575 293.10706,301.78035 C 293.01194,301.71495 292.89369,301.69259 292.78125,301.71875 z M 237.4375,303.40625 C 237.34912,303.43233 237.27208,303.48736 237.21875,303.5625 C 236.67152,304.27861 236.19256,305.02987 235.75,305.8125 C 235.69558,305.90769 235.68148,306.02069 235.71082,306.12633 C 235.74017,306.23198 235.81053,306.32151 235.90625,306.375 L 239.875,308.3125 C 239.97404,308.36462 240.09006,308.37408 240.19623,308.33869 C 240.3024,308.3033 240.38954,308.22612 240.4375,308.125 C 240.85363,307.36608 241.29888,306.6687 241.84375,306 C 241.92249,305.9047 241.95413,305.779 241.92988,305.65777 C 241.90564,305.53655 241.82809,305.43269 241.71875,305.375 L 237.71875,303.4375 C 237.63166,303.3941 237.53199,303.38303 237.4375,303.40625 L 237.4375,303.40625 z M 248.625,303.75 C 248.49966,303.7907 248.35853,303.85481 248.21875,303.90625 C 248.1121,303.94821 248.02783,304.03282 247.98629,304.13963 C 247.94475,304.24645 247.94972,304.36576 248,304.46875 L 248.03125,304.53125 C 248.08433,304.63587 248.1796,304.7128 248.29305,304.74265 C 248.4065,304.77251 248.5273,304.75244 248.625,304.6875 C 248.72333,304.62893 248.8108,304.60021 248.9375,304.53125 C 249.15324,304.44496 249.25817,304.20011 249.17187,303.98438 C 249.08558,303.76864 248.84074,303.66371 248.625,303.75 L 248.625,303.75 z M 264.625,303.8125 C 264.58007,303.82604 264.53779,303.84718 264.5,303.875 L 261.65625,305.8125 C 261.46802,305.93444 261.41238,306.18481 261.53125,306.375 C 261.97268,307.08841 262.30153,307.86584 262.5625,308.71875 C 262.60074,308.84378 262.69622,308.94314 262.81963,308.98633 C 262.94304,309.02952 263.07963,309.01139 263.1875,308.9375 L 266.0625,307 C 266.21323,306.89603 266.27696,306.70486 266.21875,306.53125 C 265.90944,305.64725 265.5213,304.78057 265.0625,304 C 264.97142,303.85077 264.79587,303.77554 264.625,303.8125 z M 282.53125,304.25 L 276.5,305.75 C 276.28823,305.79897 276.15125,306.00443 276.1875,306.21875 C 276.34463,307.07568 276.47296,307.95851 276.53125,308.8125 C 276.53881,308.93251 276.59857,309.04317 276.69476,309.11532 C 276.79095,309.18747 276.91393,309.21385 277.03125,309.1875 L 283.0625,307.6875 C 283.26088,307.63954 283.39398,307.45321 283.375,307.25 C 283.29822,306.37096 283.18761,305.47051 283.03125,304.59375 C 283.01541,304.4794 282.95219,304.377 282.85706,304.3116 C 282.76194,304.2462 282.64369,304.22384 282.53125,304.25 z M 247.3125,304.28125 C 247.28011,304.28786 247.24863,304.29835 247.21875,304.3125 C 246.36623,304.72683 245.57825,305.24101 244.875,305.84375 C 244.79397,305.92125 244.74814,306.0285 244.74814,306.14062 C 244.74814,306.25275 244.79397,306.36 244.875,306.4375 L 245.40625,306.96875 C 245.48794,307.04585 245.59764,307.08614 245.70982,307.08024 C 245.82199,307.07433 245.92685,307.02275 246,306.9375 C 246.54009,306.27769 247.15732,305.71999 247.84375,305.21875 C 247.93928,305.14538 247.99779,305.03377 248.0038,304.91347 C 248.00982,304.79317 247.96273,304.67629 247.875,304.59375 L 247.6875,304.40625 C 247.59208,304.30323 247.45065,304.25609 247.3125,304.28125 z M 273.71875,306.4375 L 269.0625,307.59375 C 268.85073,307.64272 268.71375,307.84818 268.75,308.0625 C 268.91076,308.9184 269.01676,309.79938 269.03125,310.65625 C 269.02964,310.78179 269.08553,310.90117 269.18297,310.98033 C 269.28041,311.0595 269.4087,311.08977 269.53125,311.0625 L 274.1875,309.90625 C 274.38588,309.85829 274.51898,309.67196 274.5,309.46875 C 274.46177,308.57433 274.37396,307.6735 274.21875,306.78125 C 274.20291,306.6669 274.13969,306.5645 274.04456,306.4991 C 273.94944,306.4337 273.83119,306.41134 273.71875,306.4375 z M 244.15625,306.65625 C 244.07204,306.67398 243.99552,306.7177 243.9375,306.78125 C 243.31408,307.45749 242.7727,308.21796 242.3125,309.03125 C 242.25808,309.12644 242.24398,309.23944 242.27332,309.34508 C 242.30267,309.45073 242.37303,309.54026 242.46875,309.59375 L 243.71875,310.21875 C 243.82583,310.26768 243.94875,310.26832 244.05634,310.22051 C 244.16392,310.17269 244.24582,310.08102 244.28125,309.96875 C 244.56438,309.1599 244.96785,308.38438 245.4375,307.6875 C 245.50244,307.5898 245.52251,307.469 245.49265,307.35555 C 245.4628,307.2421 245.38587,307.14683 245.28125,307.09375 L 244.4375,306.6875 C 244.35041,306.6441 244.25074,306.63303 244.15625,306.65625 z M 215,307.40625 C 214.85601,307.45092 214.74806,307.57087 214.71875,307.71875 C 214.51634,308.57241 214.365,309.42394 214.21875,310.28125 C 214.20237,310.39384 214.23341,310.50819 214.30449,310.59703 C 214.37557,310.68588 214.48031,310.74127 214.59375,310.75 L 222.03125,311.5625 C 222.24429,311.57915 222.43452,311.42968 222.46875,311.21875 C 222.61258,310.36853 222.79094,309.51686 223,308.6875 C 223.02635,308.57018 222.99997,308.4472 222.92782,308.35101 C 222.85567,308.25482 222.74501,308.19506 222.625,308.1875 L 215.15625,307.40625 C 215.10465,307.39625 215.0516,307.39625 215,307.40625 L 215,307.40625 z M 266.28125,308.28125 L 263.25,309.03125 C 263.13205,309.05954 263.03263,309.13852 262.97839,309.24701 C 262.92414,309.3555 262.92061,309.48241 262.96875,309.59375 C 263.27821,310.37286 263.48996,311.2042 263.59375,312.0625 C 263.60959,312.17685 263.67281,312.27925 263.76794,312.34465 C 263.86306,312.41005 263.98131,312.43241 264.09375,312.40625 L 266.625,311.78125 C 266.81123,311.73538 266.94094,311.56676 266.9375,311.375 C 266.97046,310.46323 266.9418,309.54868 266.78125,308.625 C 266.76541,308.51065 266.70219,308.40825 266.60706,308.34285 C 266.51194,308.27745 266.39369,308.25509 266.28125,308.28125 z M 225.375,308.5 C 225.23101,308.54467 225.12306,308.66462 225.09375,308.8125 C 224.86571,309.66567 224.6847,310.50035 224.53125,311.375 C 224.51487,311.48759 224.54591,311.60194 224.61699,311.69078 C 224.68807,311.77963 224.79281,311.83502 224.90625,311.84375 L 230.875,312.5 C 231.08804,312.51665 231.27827,312.36718 231.3125,312.15625 C 231.45846,311.30403 231.66625,310.48722 231.90625,309.65625 C 231.94368,309.53461 231.92262,309.40249 231.84923,309.29852 C 231.77584,309.19455 231.6584,309.13046 231.53125,309.125 L 225.53125,308.5 C 225.47965,308.49 225.4266,308.49 225.375,308.5 L 225.375,308.5 z M 234.28125,309.40625 C 234.14534,309.44534 234.03909,309.55159 234,309.6875 C 233.72631,310.55007 233.53522,311.45979 233.375,312.34375 C 233.35862,312.45634 233.38966,312.57069 233.46074,312.65953 C 233.53182,312.74838 233.63656,312.80377 233.75,312.8125 L 238.3125,313.28125 C 238.52554,313.2979 238.71577,313.14843 238.75,312.9375 C 238.89295,312.08953 239.11964,311.26243 239.40625,310.4375 C 239.44297,310.32079 239.42574,310.19378 239.35928,310.09106 C 239.29281,309.98833 239.18401,309.92058 239.0625,309.90625 L 234.4375,309.40625 C 234.3859,309.39625 234.33285,309.39625 234.28125,309.40625 z M 241.84375,310.21875 C 241.72699,310.26013 241.63513,310.35199 241.59375,310.46875 C 241.24293,311.32116 240.98111,312.21278 240.8125,313.125 C 240.79612,313.23759 240.82716,313.35194 240.89824,313.44078 C 240.96932,313.52963 241.07406,313.58502 241.1875,313.59375 L 243.3125,313.8125 C 243.42521,313.81984 243.53597,313.78046 243.61874,313.7036 C 243.70151,313.62674 243.74899,313.5192 243.75,313.40625 C 243.7493,313.36068 243.75,313.30806 243.75,313.25 C 243.75,312.42506 243.8457,311.63157 244.03125,310.875 C 244.0576,310.75768 244.03122,310.6347 243.95907,310.53851 C 243.88692,310.44232 243.77626,310.38256 243.65625,310.375 L 242,310.21875 C 241.9484,310.20875 241.89535,310.20875 241.84375,310.21875 z M 263.9375,312.53125 C 263.76369,312.58885 263.64898,312.75454 263.65625,312.9375 C 263.65879,313.02344 263.65625,313.13874 263.65625,313.25 C 263.65624,314.01833 263.56881,314.75722 263.40625,315.46875 C 263.3799,315.58607 263.40628,315.70905 263.47843,315.80524 C 263.55058,315.90143 263.66124,315.96119 263.78125,315.96875 L 265.59375,316.15625 C 265.76863,316.16812 265.93179,316.06772 266,315.90625 C 266.34328,315.05116 266.58939,314.15816 266.75,313.25 C 266.76638,313.13741 266.73534,313.02306 266.66426,312.93422 C 266.59318,312.84537 266.48844,312.78998 266.375,312.78125 L 264.09375,312.53125 C 264.04215,312.52125 263.9891,312.52125 263.9375,312.53125 z M 269.09375,313.09375 C 268.9408,313.14341 268.83089,313.27775 268.8125,313.4375 C 268.67453,314.28705 268.46614,315.1176 268.1875,315.9375 C 268.15078,316.05421 268.16801,316.18122 268.23447,316.28394 C 268.30094,316.38667 268.40974,316.45442 268.53125,316.46875 L 273.15625,316.96875 C 273.35042,316.99101 273.53339,316.87338 273.59375,316.6875 C 273.86031,315.83275 274.062,314.9498 274.21875,314.0625 C 274.23513,313.94991 274.20409,313.83556 274.13301,313.74672 C 274.06193,313.65787 273.95719,313.60248 273.84375,313.59375 L 269.25,313.09375 C 269.1984,313.08375 269.14535,313.08375 269.09375,313.09375 z M 276.53125,313.875 C 276.3783,313.92466 276.26839,314.059 276.25,314.21875 C 276.10656,315.07647 275.92079,315.92917 275.6875,316.75 C 275.65007,316.87164 275.67113,317.00376 275.74452,317.10773 C 275.81791,317.2117 275.93535,317.27579 276.0625,317.28125 L 282.0625,317.90625 C 282.26571,317.92523 282.45204,317.79213 282.5,317.59375 C 282.72455,316.74216 282.912,315.87381 283.0625,315 C 283.07888,314.88741 283.04784,314.77306 282.97676,314.68422 C 282.90568,314.59537 282.80094,314.53998 282.6875,314.53125 L 276.6875,313.875 C 276.6359,313.865 276.58285,313.865 276.53125,313.875 z M 243.3125,314 L 240.9375,314.59375 C 240.76231,314.6366 240.63556,314.7887 240.625,314.96875 C 240.5849,315.88661 240.62888,316.83125 240.78125,317.75 C 240.79709,317.86435 240.86031,317.96675 240.95544,318.03215 C 241.05056,318.09755 241.16881,318.11991 241.28125,318.09375 L 244.125,317.375 C 244.24295,317.34671 244.34237,317.26773 244.39661,317.15924 C 244.45086,317.05075 244.45439,316.92384 244.40625,316.8125 C 244.10619,316.03482 243.9084,315.2335 243.8125,314.375 C 243.80494,314.25499 243.74518,314.14433 243.64899,314.07218 C 243.5528,314.00003 243.42982,313.97365 243.3125,314 z M 285.40625,314.84375 C 285.2533,314.89341 285.14339,315.02775 285.125,315.1875 C 284.98451,316.03338 284.80127,316.85351 284.59375,317.6875 C 284.5674,317.80482 284.59378,317.9278 284.66593,318.02399 C 284.73808,318.12018 284.84874,318.17994 284.96875,318.1875 L 292.40625,318.96875 C 292.60946,318.98773 292.79579,318.85463 292.84375,318.65625 C 293.04086,317.81532 293.22918,316.96115 293.375,316.09375 C 293.39138,315.98116 293.36034,315.86681 293.28926,315.77797 C 293.21818,315.68912 293.11344,315.63373 293,315.625 L 285.5625,314.84375 C 285.5109,314.83375 285.45785,314.83375 285.40625,314.84375 z M 238.03125,315.3125 L 233.375,316.5 C 233.17662,316.54796 233.04352,316.73429 233.0625,316.9375 C 233.09652,317.82596 233.16084,318.6973 233.3125,319.59375 C 233.32834,319.7081 233.39156,319.8105 233.48669,319.8759 C 233.58181,319.9413 233.70006,319.96366 233.8125,319.9375 L 238.46875,318.78125 C 238.68052,318.73228 238.8175,318.52682 238.78125,318.3125 C 238.62672,317.46021 238.54057,316.58008 238.53125,315.71875 C 238.53286,315.59321 238.47697,315.47383 238.37953,315.39467 C 238.28209,315.3155 238.1538,315.28523 238.03125,315.3125 z M 263.46875,316.09375 C 263.33284,316.13284 263.22659,316.23909 263.1875,316.375 C 262.92166,317.18373 262.52267,317.9448 262.0625,318.65625 C 261.99756,318.75395 261.97749,318.87475 262.00735,318.9882 C 262.0372,319.10165 262.11413,319.19692 262.21875,319.25 L 263.1875,319.71875 C 263.3558,319.80687 263.56256,319.7681 263.6875,319.625 C 264.31045,318.9374 264.8299,318.15732 265.28125,317.34375 C 265.33567,317.24856 265.34977,317.13556 265.32043,317.02992 C 265.29108,316.92427 265.22072,316.83474 265.125,316.78125 L 263.75,316.125 C 263.66291,316.0816 263.56324,316.07053 263.46875,316.09375 L 263.46875,316.09375 z M 230.53125,317.21875 L 224.5,318.71875 C 224.30162,318.76671 224.16852,318.95304 224.1875,319.15625 C 224.26099,320.02844 224.34566,320.89949 224.5,321.78125 C 224.51584,321.8956 224.57906,321.998 224.67419,322.0634 C 224.76931,322.1288 224.88756,322.15116 225,322.125 L 231.03125,320.625 C 231.24302,320.57603 231.38,320.37057 231.34375,320.15625 C 231.19122,319.30362 231.08631,318.45297 231.03125,317.59375 C 231.02369,317.47374 230.96393,317.36308 230.86774,317.29093 C 230.77155,317.21878 230.64857,317.1924 230.53125,317.21875 L 230.53125,317.21875 z M 244.3125,317.5 C 244.27853,317.51643 244.24698,317.53746 244.21875,317.5625 L 241.46875,319.40625 C 241.31802,319.51022 241.25429,319.70139 241.3125,319.875 C 241.61843,320.7669 242.01675,321.6267 242.46875,322.40625 C 242.59069,322.59448 242.84106,322.65012 243.03125,322.53125 L 245.875,320.59375 C 246.06323,320.47181 246.11887,320.22144 246,320.03125 C 245.70156,319.54018 245.42866,319.03511 245.21875,318.5 C 245.21013,318.47832 245.19967,318.45741 245.1875,318.4375 C 245.04593,318.20656 244.94301,317.97832 244.8125,317.71875 C 244.72535,317.52966 244.51052,317.43568 244.3125,317.5 L 244.3125,317.5 z M 267.4375,318.03125 C 267.31536,318.0576 267.21185,318.13811 267.15625,318.25 C 266.74169,319.0178 266.31586,319.74067 265.78125,320.40625 C 265.70251,320.50155 265.67087,320.62725 265.69512,320.74848 C 265.71936,320.8697 265.79691,320.97356 265.90625,321.03125 L 269.90625,322.96875 C 270.08158,323.04982 270.2897,322.99779 270.40625,322.84375 C 270.94813,322.12766 271.4339,321.38231 271.875,320.59375 C 271.92942,320.49856 271.94352,320.38556 271.91418,320.27992 C 271.88483,320.17427 271.81447,320.08474 271.71875,320.03125 L 267.71875,318.0625 C 267.63166,318.0191 267.53199,318.00803 267.4375,318.03125 L 267.4375,318.03125 z M 261.78125,319.25 C 261.69287,319.27608 261.61583,319.33111 261.5625,319.40625 C 261.04173,320.06879 260.40113,320.66806 259.71875,321.1875 C 259.6335,321.26065 259.58192,321.36551 259.57601,321.47768 C 259.57011,321.58986 259.6104,321.69956 259.6875,321.78125 L 259.9375,322.03125 C 260.05761,322.15955 260.24603,322.19724 260.40625,322.125 C 261.24921,321.7071 262.02296,321.1976 262.71875,320.59375 C 262.804,320.5206 262.85558,320.41574 262.86149,320.30357 C 262.86739,320.19139 262.8271,320.08169 262.75,320 L 262.1875,319.375 C 262.08584,319.26107 261.92937,319.21293 261.78125,319.25 z M 221.65625,319.4375 L 214.1875,321.28125 C 213.98912,321.32921 213.85602,321.51554 213.875,321.71875 C 213.97387,322.59181 214.12839,323.46273 214.28125,324.3125 C 214.29709,324.42685 214.36031,324.52925 214.45544,324.59465 C 214.55056,324.66005 214.66881,324.68241 214.78125,324.65625 L 222.1875,322.8125 C 222.39927,322.76353 222.53625,322.55807 222.5,322.34375 C 222.34749,321.50287 222.24081,320.66717 222.15625,319.8125 C 222.14869,319.69249 222.08893,319.58183 221.99274,319.50968 C 221.89655,319.43753 221.77357,319.41115 221.65625,319.4375 z M 246.1875,320.8125 C 246.09912,320.83858 246.02208,320.89361 245.96875,320.96875 L 243.84375,323.90625 C 243.73958,324.06072 243.75241,324.26595 243.875,324.40625 C 244.46944,325.11245 245.14625,325.74116 245.84375,326.3125 C 245.92951,326.386 246.04176,326.42095 246.15409,326.40913 C 246.26642,326.3973 246.36892,326.33975 246.4375,326.25 L 248.53125,323.375 C 248.65642,323.19281 248.61499,322.94424 248.4375,322.8125 C 247.76603,322.28569 247.15698,321.65762 246.625,320.96875 C 246.52545,320.83129 246.35161,320.76921 246.1875,320.8125 z M 239.125,321 C 239.09103,321.01643 239.05948,321.03746 239.03125,321.0625 L 234.90625,323.84375 C 234.74088,323.95129 234.67528,324.16119 234.75,324.34375 C 235.1082,325.1797 235.52249,325.98516 235.96875,326.75 C 236.09069,326.93823 236.34106,326.99387 236.53125,326.875 L 240.625,324.125 C 240.81323,324.00306 240.86887,323.75269 240.75,323.5625 C 240.31607,322.83038 239.94818,322.0703 239.625,321.25 C 239.54947,321.04863 239.33141,320.9396 239.125,321 z M 274.03125,321.25 C 273.90911,321.27635 273.8056,321.35686 273.75,321.46875 C 273.3355,322.22301 272.8787,322.92197 272.375,323.625 C 272.29839,323.72447 272.27148,323.8535 272.30193,323.9753 C 272.33238,324.0971 272.41685,324.19829 272.53125,324.25 L 277.84375,326.84375 C 278.0346,326.93678 278.2649,326.86904 278.375,326.6875 C 278.87869,325.95069 279.29207,325.20596 279.71875,324.4375 C 279.77317,324.34231 279.78727,324.22931 279.75793,324.12367 C 279.72858,324.01802 279.65822,323.92849 279.5625,323.875 L 274.3125,321.28125 C 274.22541,321.23785 274.12574,321.22678 274.03125,321.25 z M 259.0625,321.65625 C 259.02853,321.67268 258.99698,321.69371 258.96875,321.71875 C 258.79347,321.828 258.5884,321.91752 258.375,322.03125 C 258.15926,322.11754 258.05433,322.36239 258.14063,322.57812 C 258.22692,322.79386 258.47176,322.89879 258.6875,322.8125 C 258.91945,322.74311 259.14887,322.64675 259.375,322.5625 C 259.56174,322.4884 259.6675,322.29011 259.625,322.09375 L 259.59375,321.96875 C 259.57139,321.85295 259.50034,321.75235 259.39868,321.69255 C 259.29703,321.63276 259.17458,321.61953 259.0625,321.65625 z M 264.34375,321.96875 C 264.28531,321.98791 264.23191,322.01995 264.1875,322.0625 C 263.5538,322.62362 262.85316,323.12177 262.09375,323.5625 C 261.99387,323.63096 261.92929,323.73999 261.91724,323.86047 C 261.90519,323.98096 261.94691,324.10062 262.03125,324.1875 L 265,327.28125 C 265.13282,327.41385 265.33862,327.43958 265.5,327.34375 C 266.26773,326.864 267.03329,326.33867 267.71875,325.75 C 267.79978,325.6725 267.84561,325.56525 267.84561,325.45312 C 267.84561,325.341 267.79978,325.23375 267.71875,325.15625 L 264.75,322.09375 C 264.64834,321.97982 264.49187,321.93168 264.34375,321.96875 z M 249.25,323.5 C 249.10212,323.52931 248.98217,323.63726 248.9375,323.78125 L 247.90625,327.40625 C 247.85929,327.59456 247.95051,327.79004 248.125,327.875 C 248.91516,328.31719 249.73804,328.69224 250.59375,329 C 250.69729,329.03853 250.81198,329.03373 250.91193,328.98669 C 251.01189,328.93965 251.08869,328.85434 251.125,328.75 L 252.15625,325.15625 C 252.21367,324.94088 252.08887,324.71902 251.875,324.65625 C 251.05809,324.38146 250.29869,324.00832 249.5625,323.5625 C 249.47099,323.50046 249.35833,323.47793 249.25,323.5 z M 260.3125,324.40625 C 260.29082,324.41487 260.26991,324.42533 260.25,324.4375 C 259.87517,324.58204 259.47863,324.70289 259.09375,324.8125 C 258.6468,324.93976 258.20603,325.05148 257.75,325.125 C 257.62635,325.14545 257.5188,325.22123 257.45793,325.33079 C 257.39706,325.44035 257.38954,325.57171 257.4375,325.6875 L 259.125,329.46875 C 259.1966,329.64224 259.37668,329.74514 259.5625,329.71875 C 260.23275,329.58979 260.90708,329.40099 261.5625,329.1875 C 261.77908,329.11695 262.01186,329.04475 262.21875,328.96875 C 262.42396,328.88058 262.52113,328.64461 262.4375,328.4375 L 260.78125,324.65625 C 260.70715,324.46951 260.50886,324.36375 260.3125,324.40625 z M 253.1875,325.03125 C 253.00162,325.09161 252.88399,325.27458 252.90625,325.46875 L 253.1875,329.40625 C 253.2016,329.59569 253.34374,329.75077 253.53125,329.78125 C 254.43048,329.93315 255.34142,329.99195 256.25,330 C 256.36295,329.99899 256.47049,329.95151 256.54735,329.86874 C 256.62421,329.78597 256.66359,329.67521 256.65625,329.5625 L 256.375,325.65625 C 256.35654,325.4452 256.1806,325.28279 255.96875,325.28125 C 255.10278,325.29118 254.25095,325.20038 253.40625,325.03125 C 253.33467,325.01148 253.25908,325.01148 253.1875,325.03125 z M 281.90625,325.125 C 281.78411,325.15135 281.6806,325.23186 281.625,325.34375 C 281.21635,326.08849 280.76074,326.8083 280.28125,327.53125 C 280.21631,327.62895 280.19624,327.74975 280.2261,327.8632 C 280.25595,327.97665 280.33288,328.07192 280.4375,328.125 L 287.03125,331.34375 C 287.2221,331.43678 287.4524,331.36904 287.5625,331.1875 C 288.03322,330.45379 288.51562,329.67206 288.9375,328.90625 C 288.98962,328.80721 288.99908,328.69119 288.96369,328.58502 C 288.9283,328.47885 288.85112,328.39171 288.75,328.34375 L 282.1875,325.15625 C 282.10041,325.11285 282.00074,325.10178 281.90625,325.125 z M 232.59375,325.40625 C 232.54882,325.41979 232.50654,325.44093 232.46875,325.46875 L 227.15625,329.0625 C 226.97471,329.1726 226.90697,329.4029 227,329.59375 C 227.38672,330.39962 227.838,331.1864 228.28125,331.9375 C 228.40319,332.12573 228.65356,332.18137 228.84375,332.0625 L 234.125,328.5 C 234.31323,328.37806 234.36887,328.12769 234.25,327.9375 C 233.81596,327.20433 233.4227,326.44908 233.0625,325.65625 C 232.9884,325.46951 232.79011,325.36375 232.59375,325.40625 z M 242.34375,326.125 C 242.25537,326.15108 242.17833,326.20611 242.125,326.28125 L 239.09375,330.4375 C 238.98064,330.60575 239.00719,330.83135 239.15625,330.96875 C 239.77856,331.61146 240.4335,332.21738 241.125,332.78125 C 241.21076,332.85475 241.32301,332.8897 241.43534,332.87788 C 241.54767,332.86605 241.65017,332.8085 241.71875,332.71875 L 244.75,328.59375 C 244.87517,328.41156 244.83374,328.16299 244.65625,328.03125 C 243.98565,327.49232 243.36376,326.88707 242.78125,326.25 C 242.67392,326.124 242.50145,326.07472 242.34375,326.125 z M 269.3125,327.125 C 269.25406,327.14416 269.20066,327.1762 269.15625,327.21875 C 268.51174,327.78022 267.84805,328.29993 267.125,328.78125 C 267.02512,328.84971 266.96054,328.95874 266.94849,329.07922 C 266.93644,329.19971 266.97816,329.31937 267.0625,329.40625 L 271.0625,333.5625 C 271.1999,333.71156 271.4255,333.73811 271.59375,333.625 C 272.32667,333.10978 273.02165,332.54521 273.6875,331.96875 C 273.76853,331.89125 273.81436,331.784 273.81436,331.67188 C 273.81436,331.55975 273.76853,331.4525 273.6875,331.375 L 269.71875,327.25 C 269.61709,327.13607 269.46062,327.08793 269.3125,327.125 z M 247.40625,329.9375 C 247.25837,329.96681 247.13842,330.07476 247.09375,330.21875 L 245.625,335.28125 C 245.56068,335.47927 245.65466,335.6941 245.84375,335.78125 C 246.64182,336.16591 247.49931,336.51177 248.34375,336.8125 C 248.44729,336.85103 248.56198,336.84623 248.66193,336.79919 C 248.76189,336.75215 248.83869,336.66684 248.875,336.5625 L 250.3125,331.5 C 250.36992,331.28463 250.24512,331.06277 250.03125,331 C 249.21567,330.71592 248.45361,330.36158 247.6875,329.96875 C 247.60041,329.92535 247.50074,329.91428 247.40625,329.9375 L 247.40625,329.9375 z M 224.84375,330.625 C 224.80978,330.64143 224.77823,330.66246 224.75,330.6875 L 218.25,335.09375 C 218.06846,335.20385 218.00072,335.43415 218.09375,335.625 C 218.49566,336.40618 218.96686,337.16719 219.40625,337.90625 C 219.52819,338.09448 219.77856,338.15012 219.96875,338.03125 L 226.4375,333.65625 C 226.62573,333.53431 226.68137,333.28394 226.5625,333.09375 C 226.12562,332.36165 225.72581,331.61492 225.34375,330.84375 C 225.2566,330.65466 225.04177,330.56068 224.84375,330.625 z M 263.125,330.8125 C 263.10332,330.82112 263.08241,330.83158 263.0625,330.84375 C 262.76935,330.95431 262.51219,331.06068 262.21875,331.15625 C 261.6852,331.33005 261.12711,331.4717 260.59375,331.59375 C 260.4758,331.62204 260.37638,331.70102 260.32214,331.80951 C 260.26789,331.918 260.26436,332.04491 260.3125,332.15625 L 262.625,337.28125 C 262.6991,337.46799 262.89739,337.57375 263.09375,337.53125 C 263.79954,337.35147 264.49433,337.11927 265.1875,336.875 C 265.33422,336.82331 265.504,336.77548 265.65625,336.71875 C 265.86146,336.63058 265.95863,336.39461 265.875,336.1875 L 263.59375,331.0625 C 263.51965,330.87576 263.32136,330.77 263.125,330.8125 z M 253.6875,331.90625 C 253.48912,331.95421 253.35602,332.14054 253.375,332.34375 L 253.78125,337.78125 C 253.79802,337.981 253.9565,338.13948 254.15625,338.15625 C 255.04592,338.25288 255.92719,338.27779 256.8125,338.28125 C 256.92545,338.28024 257.03299,338.23276 257.10985,338.14999 C 257.18671,338.06722 257.22609,337.95646 257.21875,337.84375 L 256.84375,332.4375 C 256.82529,332.22645 256.64935,332.06404 256.4375,332.0625 C 255.5654,332.06475 254.69393,332.01898 253.84375,331.90625 C 253.79215,331.89625 253.7391,331.89625 253.6875,331.90625 z M 237.625,332.65625 C 237.5252,332.67561 237.43613,332.73128 237.375,332.8125 L 233.5625,338.09375 C 233.43025,338.26799 233.45773,338.51529 233.625,338.65625 C 234.25895,339.26139 234.90888,339.82063 235.59375,340.375 C 235.67951,340.4485 235.79176,340.48345 235.90409,340.47163 C 236.01642,340.4598 236.11892,340.40225 236.1875,340.3125 L 240.03125,335.0625 C 240.15642,334.88031 240.11499,334.63174 239.9375,334.5 C 239.26733,333.96023 238.60929,333.38615 238,332.78125 C 237.90458,332.67823 237.76315,332.63109 237.625,332.65625 z M 275.28125,333.34375 C 275.22281,333.36291 275.16941,333.39495 275.125,333.4375 C 274.48079,334.00067 273.82149,334.52558 273.125,335.03125 C 273.02947,335.10462 272.97096,335.21623 272.96495,335.33653 C 272.95893,335.45683 273.00602,335.57371 273.09375,335.65625 L 278.09375,340.8125 C 278.23115,340.96156 278.45675,340.98811 278.625,340.875 C 279.32552,340.34795 280.00135,339.78991 280.65625,339.21875 C 280.73728,339.14125 280.78311,339.034 280.78311,338.92188 C 280.78311,338.80975 280.73728,338.7025 280.65625,338.625 L 275.6875,333.46875 C 275.58584,333.35482 275.42937,333.30668 275.28125,333.34375 L 275.28125,333.34375 z M 245.125,337.8125 C 244.98909,337.85159 244.88284,337.95784 244.84375,338.09375 L 243,344.5 C 242.9396,344.70641 243.04863,344.92447 243.25,345 C 244.04729,345.35042 244.85478,345.67536 245.6875,345.96875 C 245.79104,346.00728 245.90573,346.00248 246.00568,345.95544 C 246.10564,345.9084 246.18244,345.82309 246.21875,345.71875 L 248.0625,339.34375 C 248.11992,339.12838 247.99512,338.90652 247.78125,338.84375 C 246.97728,338.5637 246.19459,338.20566 245.40625,337.84375 C 245.31916,337.80035 245.21949,337.78928 245.125,337.8125 L 245.125,337.8125 z M 266.5625,338.5625 C 266.54082,338.57112 266.51991,338.58158 266.5,338.59375 C 266.27572,338.67883 266.0818,338.77089 265.875,338.84375 C 265.2781,339.05409 264.69974,339.21023 264.09375,339.375 C 263.9758,339.40329 263.87638,339.48227 263.82214,339.59076 C 263.76789,339.69925 263.76436,339.82616 263.8125,339.9375 L 266.6875,346.375 C 266.76303,346.57637 266.98109,346.6854 267.1875,346.625 C 267.96406,346.39867 268.73229,346.12865 269.5,345.84375 C 269.52846,345.83318 269.5993,345.81451 269.6875,345.78125 C 269.89271,345.69308 269.98988,345.45711 269.90625,345.25 L 267.03125,338.8125 C 266.95715,338.62576 266.75886,338.52 266.5625,338.5625 z M 254.25,340.25 C 254.06412,340.31036 253.94649,340.49333 253.96875,340.6875 L 254.46875,347.53125 C 254.48552,347.731 254.644,347.88948 254.84375,347.90625 C 255.71619,347.971 256.59218,348.00014 257.46875,348 C 257.5817,347.99899 257.68924,347.95151 257.7661,347.86874 C 257.84296,347.78597 257.88234,347.67521 257.875,347.5625 L 257.40625,340.75 C 257.38779,340.53895 257.21185,340.37654 257,340.375 C 256.14172,340.37839 255.26544,340.32696 254.40625,340.25 C 254.35465,340.24 254.3016,340.24 254.25,340.25 z" />
    <path
       style="font-size:54.77768707px;font-style:normal;font-weight:normal;fill:#ffffff;fill-opacity:1;stroke:none;stroke-width:4.5;stroke-linecap:butt;stroke-linejoin:miter;stroke-miterlimit:4;stroke-dasharray:none;stroke-opacity:1;font-family:Bitstream Vera Sans"
       d="M 319.66882,288.38587 C 314.4575,288.38591 310.47377,289.52002 307.69442,291.83612 C 304.91505,294.1523 303.5,297.47683 303.5,301.78096 C 303.49999,305.2166 304.48865,307.94026 306.47669,309.96685 C 308.48399,311.99349 311.65832,313.47162 315.98179,314.39806 L 320.31152,315.34518 C 322.93645,315.92423 324.68598,316.60747 325.55455,317.34092 C 326.44237,318.07437 326.87372,319.10183 326.87376,320.45291 C 326.87373,321.9584 326.23883,323.12633 324.94568,323.93698 C 323.65248,324.74764 321.7625,325.15473 319.33056,325.15472 C 316.93721,325.15472 314.47519,324.77193 311.88885,324.03846 C 309.32178,323.28573 306.63214,322.19039 303.87209,320.72352 L 303.87209,330.12714 C 306.63214,331.15009 309.39939,331.90617 312.15945,332.42731 C 314.9195,332.94843 317.67221,333.23912 320.413,333.23913 C 326.22261,333.23912 330.55035,332.07118 333.36835,329.75506 C 336.20558,327.41962 337.63038,323.86724 337.63043,319.09987 C 337.63038,315.47128 336.61269,312.67976 334.58609,310.71102 C 332.55943,308.74234 329.14275,307.27872 324.33681,306.31364 L 319.56735,305.33269 C 317.30909,304.8695 315.7679,304.34601 314.89936,303.70904 C 314.05009,303.05283 313.61395,302.12724 313.61397,300.96914 C 313.61396,299.42508 314.26816,298.28619 315.54205,297.55271 C 316.81591,296.81931 318.7642,296.47032 321.42778,296.47028 C 323.43507,296.47031 325.56263,296.7417 327.82089,297.2821 C 330.07909,297.82257 332.41496,298.62223 334.78904,299.68375 L 334.78904,290.5169 C 332.10615,289.8028 329.48434,289.27454 326.97524,288.92708 C 324.46606,288.56041 322.04285,288.3859 319.66882,288.38587 z M 368.95329,288.38587 C 361.50304,288.38591 355.64863,290.37779 351.36378,294.37307 C 347.07892,298.36844 344.93684,303.84482 344.93684,310.8125 C 344.93683,317.70302 347.05464,323.18416 351.2623,327.21811 C 355.46994,331.23274 361.17892,333.23912 368.37825,333.23913 C 371.56292,333.23912 374.62105,332.89991 377.61275,332.22435 C 380.60438,331.54882 383.49279,330.53109 386.2722,329.18001 L 386.2722,308.37703 L 368.91947,308.37703 L 368.91947,315.85257 L 375.71849,315.85257 L 375.71849,324.24142 C 374.92712,324.55025 374.01603,324.79737 373.01241,324.95176 C 372.02802,325.08687 370.95697,325.15473 369.79894,325.15472 C 365.53336,325.15472 362.23786,323.8899 359.92175,321.40004 C 357.6056,318.9102 356.4715,315.38689 356.4715,310.8125 C 356.47149,306.19955 357.6637,302.66172 360.05706,300.19114 C 362.46968,297.70133 365.90089,296.47032 370.34016,296.47028 C 372.73347,296.47031 375.10337,296.80955 377.47744,297.48506 C 379.87074,298.16064 382.26972,299.15905 384.68238,300.5294 L 384.68238,291.59934 C 382.3469,290.53782 379.85105,289.73817 377.20684,289.19769 C 374.58184,288.65731 371.82913,288.3859 368.95329,288.38587 z M 396.08174,289.16387 L 396.08174,332.39348 L 406.63545,332.39348 L 406.63545,302.72809 L 422.36454,332.39348 L 434.8125,332.39348 L 434.8125,289.16387 L 424.22496,289.16387 L 424.22496,318.79543 L 408.5297,289.16387 L 396.08174,289.16387 z"
       id="text2610" />
  </g>
</svg>
